%TF.GenerationSoftware,KiCad,Pcbnew,(6.0.5)*%
%TF.CreationDate,2022-06-12T07:36:22+01:00*%
%TF.ProjectId,kiln-pcb,6b696c6e-2d70-4636-922e-6b696361645f,rev?*%
%TF.SameCoordinates,Original*%
%TF.FileFunction,Legend,Top*%
%TF.FilePolarity,Positive*%
%FSLAX46Y46*%
G04 Gerber Fmt 4.6, Leading zero omitted, Abs format (unit mm)*
G04 Created by KiCad (PCBNEW (6.0.5)) date 2022-06-12 07:36:22*
%MOMM*%
%LPD*%
G01*
G04 APERTURE LIST*
%ADD10C,0.150000*%
%ADD11C,0.125000*%
%ADD12C,0.250000*%
%ADD13C,0.120000*%
G04 APERTURE END LIST*
D10*
X175260000Y-90170000D02*
X132260000Y-90170000D01*
X175260000Y-73170000D02*
X175260000Y-90170000D01*
X175260000Y-93490000D02*
X175260000Y-110490000D01*
X114300000Y-93980000D02*
X114300000Y-61980000D01*
X175260000Y-110490000D02*
X132260000Y-110490000D01*
X114300000Y-61980000D02*
X130300000Y-61980000D01*
X175260000Y-52460000D02*
X132260000Y-52460000D01*
X175260000Y-69460000D02*
X132260000Y-69460000D01*
X175260000Y-73170000D02*
X132260000Y-73170000D01*
X175260000Y-52460000D02*
X175260000Y-69460000D01*
X175260000Y-93490000D02*
X132260000Y-93490000D01*
X130300000Y-61980000D02*
X130300000Y-93980000D01*
D11*
X105029047Y-116590000D02*
X104981428Y-116566190D01*
X104910000Y-116566190D01*
X104838571Y-116590000D01*
X104790952Y-116637619D01*
X104767142Y-116685238D01*
X104743333Y-116780476D01*
X104743333Y-116851904D01*
X104767142Y-116947142D01*
X104790952Y-116994761D01*
X104838571Y-117042380D01*
X104910000Y-117066190D01*
X104957619Y-117066190D01*
X105029047Y-117042380D01*
X105052857Y-117018571D01*
X105052857Y-116851904D01*
X104957619Y-116851904D01*
X105267142Y-117066190D02*
X105267142Y-116566190D01*
X105552857Y-117066190D01*
X105552857Y-116566190D01*
X105790952Y-117066190D02*
X105790952Y-116566190D01*
X105910000Y-116566190D01*
X105981428Y-116590000D01*
X106029047Y-116637619D01*
X106052857Y-116685238D01*
X106076666Y-116780476D01*
X106076666Y-116851904D01*
X106052857Y-116947142D01*
X106029047Y-116994761D01*
X105981428Y-117042380D01*
X105910000Y-117066190D01*
X105790952Y-117066190D01*
X121277142Y-89102380D02*
X121348571Y-89126190D01*
X121467619Y-89126190D01*
X121515238Y-89102380D01*
X121539047Y-89078571D01*
X121562857Y-89030952D01*
X121562857Y-88983333D01*
X121539047Y-88935714D01*
X121515238Y-88911904D01*
X121467619Y-88888095D01*
X121372380Y-88864285D01*
X121324761Y-88840476D01*
X121300952Y-88816666D01*
X121277142Y-88769047D01*
X121277142Y-88721428D01*
X121300952Y-88673809D01*
X121324761Y-88650000D01*
X121372380Y-88626190D01*
X121491428Y-88626190D01*
X121562857Y-88650000D01*
X122062857Y-89078571D02*
X122039047Y-89102380D01*
X121967619Y-89126190D01*
X121920000Y-89126190D01*
X121848571Y-89102380D01*
X121800952Y-89054761D01*
X121777142Y-89007142D01*
X121753333Y-88911904D01*
X121753333Y-88840476D01*
X121777142Y-88745238D01*
X121800952Y-88697619D01*
X121848571Y-88650000D01*
X121920000Y-88626190D01*
X121967619Y-88626190D01*
X122039047Y-88650000D01*
X122062857Y-88673809D01*
X122277142Y-89126190D02*
X122277142Y-88626190D01*
X122562857Y-89126190D02*
X122348571Y-88840476D01*
X122562857Y-88626190D02*
X122277142Y-88911904D01*
X102203333Y-116566190D02*
X102370000Y-117066190D01*
X102536666Y-116566190D01*
X102989047Y-117018571D02*
X102965238Y-117042380D01*
X102893809Y-117066190D01*
X102846190Y-117066190D01*
X102774761Y-117042380D01*
X102727142Y-116994761D01*
X102703333Y-116947142D01*
X102679523Y-116851904D01*
X102679523Y-116780476D01*
X102703333Y-116685238D01*
X102727142Y-116637619D01*
X102774761Y-116590000D01*
X102846190Y-116566190D01*
X102893809Y-116566190D01*
X102965238Y-116590000D01*
X102989047Y-116613809D01*
X103489047Y-117018571D02*
X103465238Y-117042380D01*
X103393809Y-117066190D01*
X103346190Y-117066190D01*
X103274761Y-117042380D01*
X103227142Y-116994761D01*
X103203333Y-116947142D01*
X103179523Y-116851904D01*
X103179523Y-116780476D01*
X103203333Y-116685238D01*
X103227142Y-116637619D01*
X103274761Y-116590000D01*
X103346190Y-116566190D01*
X103393809Y-116566190D01*
X103465238Y-116590000D01*
X103489047Y-116613809D01*
X127972380Y-117018571D02*
X127948571Y-117042380D01*
X127877142Y-117066190D01*
X127829523Y-117066190D01*
X127758095Y-117042380D01*
X127710476Y-116994761D01*
X127686666Y-116947142D01*
X127662857Y-116851904D01*
X127662857Y-116780476D01*
X127686666Y-116685238D01*
X127710476Y-116637619D01*
X127758095Y-116590000D01*
X127829523Y-116566190D01*
X127877142Y-116566190D01*
X127948571Y-116590000D01*
X127972380Y-116613809D01*
X128424761Y-117066190D02*
X128186666Y-117066190D01*
X128186666Y-116566190D01*
X128591428Y-117066190D02*
X128591428Y-116566190D01*
X128877142Y-117066190D02*
X128662857Y-116780476D01*
X128877142Y-116566190D02*
X128591428Y-116851904D01*
D10*
X98150000Y-42699333D02*
X98416666Y-42699333D01*
X98550000Y-42766000D01*
X98683333Y-42899333D01*
X98750000Y-43166000D01*
X98750000Y-43632666D01*
X98683333Y-43899333D01*
X98550000Y-44032666D01*
X98416666Y-44099333D01*
X98150000Y-44099333D01*
X98016666Y-44032666D01*
X97883333Y-43899333D01*
X97816666Y-43632666D01*
X97816666Y-43166000D01*
X97883333Y-42899333D01*
X98016666Y-42766000D01*
X98150000Y-42699333D01*
X99350000Y-43166000D02*
X99350000Y-44566000D01*
X99350000Y-43232666D02*
X99483333Y-43166000D01*
X99750000Y-43166000D01*
X99883333Y-43232666D01*
X99950000Y-43299333D01*
X100016666Y-43432666D01*
X100016666Y-43832666D01*
X99950000Y-43966000D01*
X99883333Y-44032666D01*
X99750000Y-44099333D01*
X99483333Y-44099333D01*
X99350000Y-44032666D01*
X101150000Y-44032666D02*
X101016666Y-44099333D01*
X100750000Y-44099333D01*
X100616666Y-44032666D01*
X100550000Y-43899333D01*
X100550000Y-43366000D01*
X100616666Y-43232666D01*
X100750000Y-43166000D01*
X101016666Y-43166000D01*
X101150000Y-43232666D01*
X101216666Y-43366000D01*
X101216666Y-43499333D01*
X100550000Y-43632666D01*
X101816666Y-43166000D02*
X101816666Y-44099333D01*
X101816666Y-43299333D02*
X101883333Y-43232666D01*
X102016666Y-43166000D01*
X102216666Y-43166000D01*
X102350000Y-43232666D01*
X102416666Y-43366000D01*
X102416666Y-44099333D01*
X104150000Y-44099333D02*
X104150000Y-42699333D01*
X104283333Y-43566000D02*
X104683333Y-44099333D01*
X104683333Y-43166000D02*
X104150000Y-43699333D01*
X105283333Y-44099333D02*
X105283333Y-43166000D01*
X105283333Y-42699333D02*
X105216666Y-42766000D01*
X105283333Y-42832666D01*
X105350000Y-42766000D01*
X105283333Y-42699333D01*
X105283333Y-42832666D01*
X106150000Y-44099333D02*
X106016666Y-44032666D01*
X105950000Y-43899333D01*
X105950000Y-42699333D01*
X106683333Y-43166000D02*
X106683333Y-44099333D01*
X106683333Y-43299333D02*
X106750000Y-43232666D01*
X106883333Y-43166000D01*
X107083333Y-43166000D01*
X107216666Y-43232666D01*
X107283333Y-43366000D01*
X107283333Y-44099333D01*
X109016666Y-44099333D02*
X109016666Y-42699333D01*
X109550000Y-42699333D01*
X109683333Y-42766000D01*
X109750000Y-42832666D01*
X109816666Y-42966000D01*
X109816666Y-43166000D01*
X109750000Y-43299333D01*
X109683333Y-43366000D01*
X109550000Y-43432666D01*
X109016666Y-43432666D01*
X111216666Y-43966000D02*
X111150000Y-44032666D01*
X110950000Y-44099333D01*
X110816666Y-44099333D01*
X110616666Y-44032666D01*
X110483333Y-43899333D01*
X110416666Y-43766000D01*
X110350000Y-43499333D01*
X110350000Y-43299333D01*
X110416666Y-43032666D01*
X110483333Y-42899333D01*
X110616666Y-42766000D01*
X110816666Y-42699333D01*
X110950000Y-42699333D01*
X111150000Y-42766000D01*
X111216666Y-42832666D01*
X112283333Y-43366000D02*
X112483333Y-43432666D01*
X112550000Y-43499333D01*
X112616666Y-43632666D01*
X112616666Y-43832666D01*
X112550000Y-43966000D01*
X112483333Y-44032666D01*
X112350000Y-44099333D01*
X111816666Y-44099333D01*
X111816666Y-42699333D01*
X112283333Y-42699333D01*
X112416666Y-42766000D01*
X112483333Y-42832666D01*
X112550000Y-42966000D01*
X112550000Y-43099333D01*
X112483333Y-43232666D01*
X112416666Y-43299333D01*
X112283333Y-43366000D01*
X111816666Y-43366000D01*
X114150000Y-43166000D02*
X114483333Y-44099333D01*
X114816666Y-43166000D01*
X116083333Y-44099333D02*
X115283333Y-44099333D01*
X115683333Y-44099333D02*
X115683333Y-42699333D01*
X115550000Y-42899333D01*
X115416666Y-43032666D01*
X115283333Y-43099333D01*
X116683333Y-43966000D02*
X116750000Y-44032666D01*
X116683333Y-44099333D01*
X116616666Y-44032666D01*
X116683333Y-43966000D01*
X116683333Y-44099333D01*
X117283333Y-42832666D02*
X117350000Y-42766000D01*
X117483333Y-42699333D01*
X117816666Y-42699333D01*
X117950000Y-42766000D01*
X118016666Y-42832666D01*
X118083333Y-42966000D01*
X118083333Y-43099333D01*
X118016666Y-43299333D01*
X117216666Y-44099333D01*
X118083333Y-44099333D01*
X95349999Y-46353333D02*
X95349999Y-44953333D01*
X95683333Y-44953333D01*
X95883333Y-45020000D01*
X96016666Y-45153333D01*
X96083333Y-45286666D01*
X96149999Y-45553333D01*
X96149999Y-45753333D01*
X96083333Y-46020000D01*
X96016666Y-46153333D01*
X95883333Y-46286666D01*
X95683333Y-46353333D01*
X95349999Y-46353333D01*
X98549999Y-45020000D02*
X98416666Y-44953333D01*
X98216666Y-44953333D01*
X98016666Y-45020000D01*
X97883333Y-45153333D01*
X97816666Y-45286666D01*
X97749999Y-45553333D01*
X97749999Y-45753333D01*
X97816666Y-46020000D01*
X97883333Y-46153333D01*
X98016666Y-46286666D01*
X98216666Y-46353333D01*
X98349999Y-46353333D01*
X98549999Y-46286666D01*
X98616666Y-46220000D01*
X98616666Y-45753333D01*
X98349999Y-45753333D01*
X99416666Y-46353333D02*
X99283333Y-46286666D01*
X99216666Y-46220000D01*
X99149999Y-46086666D01*
X99149999Y-45686666D01*
X99216666Y-45553333D01*
X99283333Y-45486666D01*
X99416666Y-45420000D01*
X99616666Y-45420000D01*
X99749999Y-45486666D01*
X99816666Y-45553333D01*
X99883333Y-45686666D01*
X99883333Y-46086666D01*
X99816666Y-46220000D01*
X99749999Y-46286666D01*
X99616666Y-46353333D01*
X99416666Y-46353333D01*
X100683333Y-46353333D02*
X100549999Y-46286666D01*
X100483333Y-46153333D01*
X100483333Y-44953333D01*
X101816666Y-46353333D02*
X101816666Y-44953333D01*
X101816666Y-46286666D02*
X101683333Y-46353333D01*
X101416666Y-46353333D01*
X101283333Y-46286666D01*
X101216666Y-46220000D01*
X101149999Y-46086666D01*
X101149999Y-45686666D01*
X101216666Y-45553333D01*
X101283333Y-45486666D01*
X101416666Y-45420000D01*
X101683333Y-45420000D01*
X101816666Y-45486666D01*
X102349999Y-45420000D02*
X102616666Y-46353333D01*
X102883333Y-45686666D01*
X103149999Y-46353333D01*
X103416666Y-45420000D01*
X104549999Y-46353333D02*
X104549999Y-45620000D01*
X104483333Y-45486666D01*
X104349999Y-45420000D01*
X104083333Y-45420000D01*
X103949999Y-45486666D01*
X104549999Y-46286666D02*
X104416666Y-46353333D01*
X104083333Y-46353333D01*
X103949999Y-46286666D01*
X103883333Y-46153333D01*
X103883333Y-46020000D01*
X103949999Y-45886666D01*
X104083333Y-45820000D01*
X104416666Y-45820000D01*
X104549999Y-45753333D01*
X105016666Y-45420000D02*
X105549999Y-45420000D01*
X105216666Y-44953333D02*
X105216666Y-46153333D01*
X105283333Y-46286666D01*
X105416666Y-46353333D01*
X105549999Y-46353333D01*
X106549999Y-46286666D02*
X106416666Y-46353333D01*
X106149999Y-46353333D01*
X106016666Y-46286666D01*
X105949999Y-46153333D01*
X105949999Y-45620000D01*
X106016666Y-45486666D01*
X106149999Y-45420000D01*
X106416666Y-45420000D01*
X106549999Y-45486666D01*
X106616666Y-45620000D01*
X106616666Y-45753333D01*
X105949999Y-45886666D01*
X107216666Y-46353333D02*
X107216666Y-45420000D01*
X107216666Y-45686666D02*
X107283333Y-45553333D01*
X107349999Y-45486666D01*
X107483333Y-45420000D01*
X107616666Y-45420000D01*
X110283333Y-46353333D02*
X110216666Y-46353333D01*
X110083333Y-46286666D01*
X109883333Y-46086666D01*
X109549999Y-45686666D01*
X109416666Y-45486666D01*
X109349999Y-45286666D01*
X109349999Y-45153333D01*
X109416666Y-45020000D01*
X109549999Y-44953333D01*
X109616666Y-44953333D01*
X109749999Y-45020000D01*
X109816666Y-45153333D01*
X109816666Y-45220000D01*
X109749999Y-45353333D01*
X109683333Y-45420000D01*
X109283333Y-45686666D01*
X109216666Y-45753333D01*
X109149999Y-45886666D01*
X109149999Y-46086666D01*
X109216666Y-46220000D01*
X109283333Y-46286666D01*
X109416666Y-46353333D01*
X109616666Y-46353333D01*
X109749999Y-46286666D01*
X109816666Y-46220000D01*
X110016666Y-45953333D01*
X110083333Y-45753333D01*
X110083333Y-45620000D01*
X111749999Y-44953333D02*
X112549999Y-44953333D01*
X112149999Y-46353333D02*
X112149999Y-44953333D01*
X113883333Y-44953333D02*
X114349999Y-46353333D01*
X114816666Y-44953333D01*
X115816666Y-46286666D02*
X115683333Y-46353333D01*
X115416666Y-46353333D01*
X115283333Y-46286666D01*
X115216666Y-46153333D01*
X115216666Y-45620000D01*
X115283333Y-45486666D01*
X115416666Y-45420000D01*
X115683333Y-45420000D01*
X115816666Y-45486666D01*
X115883333Y-45620000D01*
X115883333Y-45753333D01*
X115216666Y-45886666D01*
X116483333Y-45420000D02*
X116483333Y-46353333D01*
X116483333Y-45553333D02*
X116549999Y-45486666D01*
X116683333Y-45420000D01*
X116883333Y-45420000D01*
X117016666Y-45486666D01*
X117083333Y-45620000D01*
X117083333Y-46353333D01*
X118283333Y-46286666D02*
X118149999Y-46353333D01*
X117883333Y-46353333D01*
X117749999Y-46286666D01*
X117683333Y-46153333D01*
X117683333Y-45620000D01*
X117749999Y-45486666D01*
X117883333Y-45420000D01*
X118149999Y-45420000D01*
X118283333Y-45486666D01*
X118349999Y-45620000D01*
X118349999Y-45753333D01*
X117683333Y-45886666D01*
X118883333Y-46286666D02*
X119016666Y-46353333D01*
X119283333Y-46353333D01*
X119416666Y-46286666D01*
X119483333Y-46153333D01*
X119483333Y-46086666D01*
X119416666Y-45953333D01*
X119283333Y-45886666D01*
X119083333Y-45886666D01*
X118949999Y-45820000D01*
X118883333Y-45686666D01*
X118883333Y-45620000D01*
X118949999Y-45486666D01*
X119083333Y-45420000D01*
X119283333Y-45420000D01*
X119416666Y-45486666D01*
X120016666Y-46286666D02*
X120149999Y-46353333D01*
X120416666Y-46353333D01*
X120549999Y-46286666D01*
X120616666Y-46153333D01*
X120616666Y-46086666D01*
X120549999Y-45953333D01*
X120416666Y-45886666D01*
X120216666Y-45886666D01*
X120083333Y-45820000D01*
X120016666Y-45686666D01*
X120016666Y-45620000D01*
X120083333Y-45486666D01*
X120216666Y-45420000D01*
X120416666Y-45420000D01*
X120549999Y-45486666D01*
X87449999Y-48607333D02*
X87449999Y-47207333D01*
X88049999Y-48607333D02*
X88049999Y-47874000D01*
X87983333Y-47740666D01*
X87849999Y-47674000D01*
X87649999Y-47674000D01*
X87516666Y-47740666D01*
X87449999Y-47807333D01*
X88516666Y-47674000D02*
X89049999Y-47674000D01*
X88716666Y-47207333D02*
X88716666Y-48407333D01*
X88783333Y-48540666D01*
X88916666Y-48607333D01*
X89049999Y-48607333D01*
X89316666Y-47674000D02*
X89849999Y-47674000D01*
X89516666Y-47207333D02*
X89516666Y-48407333D01*
X89583333Y-48540666D01*
X89716666Y-48607333D01*
X89849999Y-48607333D01*
X90316666Y-47674000D02*
X90316666Y-49074000D01*
X90316666Y-47740666D02*
X90449999Y-47674000D01*
X90716666Y-47674000D01*
X90849999Y-47740666D01*
X90916666Y-47807333D01*
X90983333Y-47940666D01*
X90983333Y-48340666D01*
X90916666Y-48474000D01*
X90849999Y-48540666D01*
X90716666Y-48607333D01*
X90449999Y-48607333D01*
X90316666Y-48540666D01*
X91516666Y-48540666D02*
X91649999Y-48607333D01*
X91916666Y-48607333D01*
X92049999Y-48540666D01*
X92116666Y-48407333D01*
X92116666Y-48340666D01*
X92049999Y-48207333D01*
X91916666Y-48140666D01*
X91716666Y-48140666D01*
X91583333Y-48074000D01*
X91516666Y-47940666D01*
X91516666Y-47874000D01*
X91583333Y-47740666D01*
X91716666Y-47674000D01*
X91916666Y-47674000D01*
X92049999Y-47740666D01*
X92716666Y-48474000D02*
X92783333Y-48540666D01*
X92716666Y-48607333D01*
X92649999Y-48540666D01*
X92716666Y-48474000D01*
X92716666Y-48607333D01*
X92716666Y-47740666D02*
X92783333Y-47807333D01*
X92716666Y-47874000D01*
X92649999Y-47807333D01*
X92716666Y-47740666D01*
X92716666Y-47874000D01*
X94383333Y-47140666D02*
X93183333Y-48940666D01*
X95849999Y-47140666D02*
X94649999Y-48940666D01*
X96916666Y-47674000D02*
X96916666Y-48807333D01*
X96849999Y-48940666D01*
X96783333Y-49007333D01*
X96649999Y-49074000D01*
X96449999Y-49074000D01*
X96316666Y-49007333D01*
X96916666Y-48540666D02*
X96783333Y-48607333D01*
X96516666Y-48607333D01*
X96383333Y-48540666D01*
X96316666Y-48474000D01*
X96249999Y-48340666D01*
X96249999Y-47940666D01*
X96316666Y-47807333D01*
X96383333Y-47740666D01*
X96516666Y-47674000D01*
X96783333Y-47674000D01*
X96916666Y-47740666D01*
X97583333Y-48607333D02*
X97583333Y-47674000D01*
X97583333Y-47207333D02*
X97516666Y-47274000D01*
X97583333Y-47340666D01*
X97649999Y-47274000D01*
X97583333Y-47207333D01*
X97583333Y-47340666D01*
X98049999Y-47674000D02*
X98583333Y-47674000D01*
X98249999Y-47207333D02*
X98249999Y-48407333D01*
X98316666Y-48540666D01*
X98449999Y-48607333D01*
X98583333Y-48607333D01*
X99049999Y-48607333D02*
X99049999Y-47207333D01*
X99649999Y-48607333D02*
X99649999Y-47874000D01*
X99583333Y-47740666D01*
X99449999Y-47674000D01*
X99249999Y-47674000D01*
X99116666Y-47740666D01*
X99049999Y-47807333D01*
X100916666Y-47674000D02*
X100916666Y-48607333D01*
X100316666Y-47674000D02*
X100316666Y-48407333D01*
X100383333Y-48540666D01*
X100516666Y-48607333D01*
X100716666Y-48607333D01*
X100849999Y-48540666D01*
X100916666Y-48474000D01*
X101583333Y-48607333D02*
X101583333Y-47207333D01*
X101583333Y-47740666D02*
X101716666Y-47674000D01*
X101983333Y-47674000D01*
X102116666Y-47740666D01*
X102183333Y-47807333D01*
X102249999Y-47940666D01*
X102249999Y-48340666D01*
X102183333Y-48474000D01*
X102116666Y-48540666D01*
X101983333Y-48607333D01*
X101716666Y-48607333D01*
X101583333Y-48540666D01*
X102849999Y-48474000D02*
X102916666Y-48540666D01*
X102849999Y-48607333D01*
X102783333Y-48540666D01*
X102849999Y-48474000D01*
X102849999Y-48607333D01*
X104116666Y-48540666D02*
X103983333Y-48607333D01*
X103716666Y-48607333D01*
X103583333Y-48540666D01*
X103516666Y-48474000D01*
X103449999Y-48340666D01*
X103449999Y-47940666D01*
X103516666Y-47807333D01*
X103583333Y-47740666D01*
X103716666Y-47674000D01*
X103983333Y-47674000D01*
X104116666Y-47740666D01*
X104916666Y-48607333D02*
X104783333Y-48540666D01*
X104716666Y-48474000D01*
X104649999Y-48340666D01*
X104649999Y-47940666D01*
X104716666Y-47807333D01*
X104783333Y-47740666D01*
X104916666Y-47674000D01*
X105116666Y-47674000D01*
X105249999Y-47740666D01*
X105316666Y-47807333D01*
X105383333Y-47940666D01*
X105383333Y-48340666D01*
X105316666Y-48474000D01*
X105249999Y-48540666D01*
X105116666Y-48607333D01*
X104916666Y-48607333D01*
X105983333Y-48607333D02*
X105983333Y-47674000D01*
X105983333Y-47807333D02*
X106049999Y-47740666D01*
X106183333Y-47674000D01*
X106383333Y-47674000D01*
X106516666Y-47740666D01*
X106583333Y-47874000D01*
X106583333Y-48607333D01*
X106583333Y-47874000D02*
X106649999Y-47740666D01*
X106783333Y-47674000D01*
X106983333Y-47674000D01*
X107116666Y-47740666D01*
X107183333Y-47874000D01*
X107183333Y-48607333D01*
X108849999Y-47140666D02*
X107649999Y-48940666D01*
X109116666Y-47674000D02*
X109650000Y-47674000D01*
X109316666Y-47207333D02*
X109316666Y-48407333D01*
X109383333Y-48540666D01*
X109516666Y-48607333D01*
X109650000Y-48607333D01*
X109983333Y-47674000D02*
X110316666Y-48607333D01*
X110650000Y-47674000D01*
X111716666Y-48540666D02*
X111583333Y-48607333D01*
X111316666Y-48607333D01*
X111183333Y-48540666D01*
X111116666Y-48407333D01*
X111116666Y-47874000D01*
X111183333Y-47740666D01*
X111316666Y-47674000D01*
X111583333Y-47674000D01*
X111716666Y-47740666D01*
X111783333Y-47874000D01*
X111783333Y-48007333D01*
X111116666Y-48140666D01*
X112383333Y-47674000D02*
X112383333Y-48607333D01*
X112383333Y-47807333D02*
X112450000Y-47740666D01*
X112583333Y-47674000D01*
X112783333Y-47674000D01*
X112916666Y-47740666D01*
X112983333Y-47874000D01*
X112983333Y-48607333D01*
X114183333Y-48540666D02*
X114050000Y-48607333D01*
X113783333Y-48607333D01*
X113650000Y-48540666D01*
X113583333Y-48407333D01*
X113583333Y-47874000D01*
X113650000Y-47740666D01*
X113783333Y-47674000D01*
X114050000Y-47674000D01*
X114183333Y-47740666D01*
X114250000Y-47874000D01*
X114250000Y-48007333D01*
X113583333Y-48140666D01*
X114783333Y-48540666D02*
X114916666Y-48607333D01*
X115183333Y-48607333D01*
X115316666Y-48540666D01*
X115383333Y-48407333D01*
X115383333Y-48340666D01*
X115316666Y-48207333D01*
X115183333Y-48140666D01*
X114983333Y-48140666D01*
X114850000Y-48074000D01*
X114783333Y-47940666D01*
X114783333Y-47874000D01*
X114850000Y-47740666D01*
X114983333Y-47674000D01*
X115183333Y-47674000D01*
X115316666Y-47740666D01*
X115916666Y-48540666D02*
X116050000Y-48607333D01*
X116316666Y-48607333D01*
X116450000Y-48540666D01*
X116516666Y-48407333D01*
X116516666Y-48340666D01*
X116450000Y-48207333D01*
X116316666Y-48140666D01*
X116116666Y-48140666D01*
X115983333Y-48074000D01*
X115916666Y-47940666D01*
X115916666Y-47874000D01*
X115983333Y-47740666D01*
X116116666Y-47674000D01*
X116316666Y-47674000D01*
X116450000Y-47740666D01*
X118116666Y-47140666D02*
X116916666Y-48940666D01*
X118783333Y-48607333D02*
X118650000Y-48540666D01*
X118583333Y-48474000D01*
X118516666Y-48340666D01*
X118516666Y-47940666D01*
X118583333Y-47807333D01*
X118650000Y-47740666D01*
X118783333Y-47674000D01*
X118983333Y-47674000D01*
X119116666Y-47740666D01*
X119183333Y-47807333D01*
X119250000Y-47940666D01*
X119250000Y-48340666D01*
X119183333Y-48474000D01*
X119116666Y-48540666D01*
X118983333Y-48607333D01*
X118783333Y-48607333D01*
X119850000Y-47674000D02*
X119850000Y-49074000D01*
X119850000Y-47740666D02*
X119983333Y-47674000D01*
X120250000Y-47674000D01*
X120383333Y-47740666D01*
X120450000Y-47807333D01*
X120516666Y-47940666D01*
X120516666Y-48340666D01*
X120450000Y-48474000D01*
X120383333Y-48540666D01*
X120250000Y-48607333D01*
X119983333Y-48607333D01*
X119850000Y-48540666D01*
X121650000Y-48540666D02*
X121516666Y-48607333D01*
X121250000Y-48607333D01*
X121116666Y-48540666D01*
X121050000Y-48407333D01*
X121050000Y-47874000D01*
X121116666Y-47740666D01*
X121250000Y-47674000D01*
X121516666Y-47674000D01*
X121650000Y-47740666D01*
X121716666Y-47874000D01*
X121716666Y-48007333D01*
X121050000Y-48140666D01*
X122316666Y-47674000D02*
X122316666Y-48607333D01*
X122316666Y-47807333D02*
X122383333Y-47740666D01*
X122516666Y-47674000D01*
X122716666Y-47674000D01*
X122850000Y-47740666D01*
X122916666Y-47874000D01*
X122916666Y-48607333D01*
X123583333Y-48074000D02*
X124650000Y-48074000D01*
X125316666Y-48607333D02*
X125316666Y-47207333D01*
X125450000Y-48074000D02*
X125850000Y-48607333D01*
X125850000Y-47674000D02*
X125316666Y-48207333D01*
X126450000Y-48607333D02*
X126450000Y-47674000D01*
X126450000Y-47207333D02*
X126383333Y-47274000D01*
X126450000Y-47340666D01*
X126516666Y-47274000D01*
X126450000Y-47207333D01*
X126450000Y-47340666D01*
X127316666Y-48607333D02*
X127183333Y-48540666D01*
X127116666Y-48407333D01*
X127116666Y-47207333D01*
X127850000Y-47674000D02*
X127850000Y-48607333D01*
X127850000Y-47807333D02*
X127916666Y-47740666D01*
X128050000Y-47674000D01*
X128250000Y-47674000D01*
X128383333Y-47740666D01*
X128450000Y-47874000D01*
X128450000Y-48607333D01*
D11*
X126595238Y-89102380D02*
X126666666Y-89126190D01*
X126785714Y-89126190D01*
X126833333Y-89102380D01*
X126857142Y-89078571D01*
X126880952Y-89030952D01*
X126880952Y-88983333D01*
X126857142Y-88935714D01*
X126833333Y-88911904D01*
X126785714Y-88888095D01*
X126690476Y-88864285D01*
X126642857Y-88840476D01*
X126619047Y-88816666D01*
X126595238Y-88769047D01*
X126595238Y-88721428D01*
X126619047Y-88673809D01*
X126642857Y-88650000D01*
X126690476Y-88626190D01*
X126809523Y-88626190D01*
X126880952Y-88650000D01*
X127190476Y-88626190D02*
X127285714Y-88626190D01*
X127333333Y-88650000D01*
X127380952Y-88697619D01*
X127404761Y-88792857D01*
X127404761Y-88959523D01*
X127380952Y-89054761D01*
X127333333Y-89102380D01*
X127285714Y-89126190D01*
X127190476Y-89126190D01*
X127142857Y-89102380D01*
X127095238Y-89054761D01*
X127071428Y-88959523D01*
X127071428Y-88792857D01*
X127095238Y-88697619D01*
X127142857Y-88650000D01*
X127190476Y-88626190D01*
X140010000Y-60579047D02*
X140033809Y-60531428D01*
X140033809Y-60460000D01*
X140010000Y-60388571D01*
X139962380Y-60340952D01*
X139914761Y-60317142D01*
X139819523Y-60293333D01*
X139748095Y-60293333D01*
X139652857Y-60317142D01*
X139605238Y-60340952D01*
X139557619Y-60388571D01*
X139533809Y-60460000D01*
X139533809Y-60507619D01*
X139557619Y-60579047D01*
X139581428Y-60602857D01*
X139748095Y-60602857D01*
X139748095Y-60507619D01*
X139533809Y-60817142D02*
X140033809Y-60817142D01*
X139533809Y-61102857D01*
X140033809Y-61102857D01*
X139533809Y-61340952D02*
X140033809Y-61340952D01*
X140033809Y-61460000D01*
X140010000Y-61531428D01*
X139962380Y-61579047D01*
X139914761Y-61602857D01*
X139819523Y-61626666D01*
X139748095Y-61626666D01*
X139652857Y-61602857D01*
X139605238Y-61579047D01*
X139557619Y-61531428D01*
X139533809Y-61460000D01*
X139533809Y-61340952D01*
X97182857Y-117042380D02*
X97254285Y-117066190D01*
X97373333Y-117066190D01*
X97420952Y-117042380D01*
X97444761Y-117018571D01*
X97468571Y-116970952D01*
X97468571Y-116923333D01*
X97444761Y-116875714D01*
X97420952Y-116851904D01*
X97373333Y-116828095D01*
X97278095Y-116804285D01*
X97230476Y-116780476D01*
X97206666Y-116756666D01*
X97182857Y-116709047D01*
X97182857Y-116661428D01*
X97206666Y-116613809D01*
X97230476Y-116590000D01*
X97278095Y-116566190D01*
X97397142Y-116566190D01*
X97468571Y-116590000D01*
X97682857Y-117066190D02*
X97682857Y-116566190D01*
X97801904Y-116566190D01*
X97873333Y-116590000D01*
X97920952Y-116637619D01*
X97944761Y-116685238D01*
X97968571Y-116780476D01*
X97968571Y-116851904D01*
X97944761Y-116947142D01*
X97920952Y-116994761D01*
X97873333Y-117042380D01*
X97801904Y-117066190D01*
X97682857Y-117066190D01*
X98159047Y-116923333D02*
X98397142Y-116923333D01*
X98111428Y-117066190D02*
X98278095Y-116566190D01*
X98444761Y-117066190D01*
X99687142Y-117042380D02*
X99758571Y-117066190D01*
X99877619Y-117066190D01*
X99925238Y-117042380D01*
X99949047Y-117018571D01*
X99972857Y-116970952D01*
X99972857Y-116923333D01*
X99949047Y-116875714D01*
X99925238Y-116851904D01*
X99877619Y-116828095D01*
X99782380Y-116804285D01*
X99734761Y-116780476D01*
X99710952Y-116756666D01*
X99687142Y-116709047D01*
X99687142Y-116661428D01*
X99710952Y-116613809D01*
X99734761Y-116590000D01*
X99782380Y-116566190D01*
X99901428Y-116566190D01*
X99972857Y-116590000D01*
X100472857Y-117018571D02*
X100449047Y-117042380D01*
X100377619Y-117066190D01*
X100330000Y-117066190D01*
X100258571Y-117042380D01*
X100210952Y-116994761D01*
X100187142Y-116947142D01*
X100163333Y-116851904D01*
X100163333Y-116780476D01*
X100187142Y-116685238D01*
X100210952Y-116637619D01*
X100258571Y-116590000D01*
X100330000Y-116566190D01*
X100377619Y-116566190D01*
X100449047Y-116590000D01*
X100472857Y-116613809D01*
X100687142Y-117066190D02*
X100687142Y-116566190D01*
X100972857Y-117066190D02*
X100758571Y-116780476D01*
X100972857Y-116566190D02*
X100687142Y-116851904D01*
X87213333Y-116804285D02*
X87284761Y-116828095D01*
X87308571Y-116851904D01*
X87332380Y-116899523D01*
X87332380Y-116970952D01*
X87308571Y-117018571D01*
X87284761Y-117042380D01*
X87237142Y-117066190D01*
X87046666Y-117066190D01*
X87046666Y-116566190D01*
X87213333Y-116566190D01*
X87260952Y-116590000D01*
X87284761Y-116613809D01*
X87308571Y-116661428D01*
X87308571Y-116709047D01*
X87284761Y-116756666D01*
X87260952Y-116780476D01*
X87213333Y-116804285D01*
X87046666Y-116804285D01*
X87784761Y-117066190D02*
X87546666Y-117066190D01*
X87546666Y-116566190D01*
X87951428Y-117066190D02*
X87951428Y-116566190D01*
X88237142Y-117066190D02*
X88022857Y-116780476D01*
X88237142Y-116566190D02*
X87951428Y-116851904D01*
X139557619Y-103613095D02*
X139533809Y-103684523D01*
X139533809Y-103803571D01*
X139557619Y-103851190D01*
X139581428Y-103875000D01*
X139629047Y-103898809D01*
X139676666Y-103898809D01*
X139724285Y-103875000D01*
X139748095Y-103851190D01*
X139771904Y-103803571D01*
X139795714Y-103708333D01*
X139819523Y-103660714D01*
X139843333Y-103636904D01*
X139890952Y-103613095D01*
X139938571Y-103613095D01*
X139986190Y-103636904D01*
X140010000Y-103660714D01*
X140033809Y-103708333D01*
X140033809Y-103827380D01*
X140010000Y-103898809D01*
X139533809Y-104113095D02*
X140033809Y-104113095D01*
X140010000Y-104613095D02*
X140033809Y-104565476D01*
X140033809Y-104494047D01*
X140010000Y-104422619D01*
X139962380Y-104375000D01*
X139914761Y-104351190D01*
X139819523Y-104327380D01*
X139748095Y-104327380D01*
X139652857Y-104351190D01*
X139605238Y-104375000D01*
X139557619Y-104422619D01*
X139533809Y-104494047D01*
X139533809Y-104541666D01*
X139557619Y-104613095D01*
X139581428Y-104636904D01*
X139748095Y-104636904D01*
X139748095Y-104541666D01*
X124376666Y-89078571D02*
X124352857Y-89102380D01*
X124281428Y-89126190D01*
X124233809Y-89126190D01*
X124162380Y-89102380D01*
X124114761Y-89054761D01*
X124090952Y-89007142D01*
X124067142Y-88911904D01*
X124067142Y-88840476D01*
X124090952Y-88745238D01*
X124114761Y-88697619D01*
X124162380Y-88650000D01*
X124233809Y-88626190D01*
X124281428Y-88626190D01*
X124352857Y-88650000D01*
X124376666Y-88673809D01*
X124567142Y-89102380D02*
X124638571Y-89126190D01*
X124757619Y-89126190D01*
X124805238Y-89102380D01*
X124829047Y-89078571D01*
X124852857Y-89030952D01*
X124852857Y-88983333D01*
X124829047Y-88935714D01*
X124805238Y-88911904D01*
X124757619Y-88888095D01*
X124662380Y-88864285D01*
X124614761Y-88840476D01*
X124590952Y-88816666D01*
X124567142Y-88769047D01*
X124567142Y-88721428D01*
X124590952Y-88673809D01*
X124614761Y-88650000D01*
X124662380Y-88626190D01*
X124781428Y-88626190D01*
X124852857Y-88650000D01*
X117729047Y-116590000D02*
X117681428Y-116566190D01*
X117610000Y-116566190D01*
X117538571Y-116590000D01*
X117490952Y-116637619D01*
X117467142Y-116685238D01*
X117443333Y-116780476D01*
X117443333Y-116851904D01*
X117467142Y-116947142D01*
X117490952Y-116994761D01*
X117538571Y-117042380D01*
X117610000Y-117066190D01*
X117657619Y-117066190D01*
X117729047Y-117042380D01*
X117752857Y-117018571D01*
X117752857Y-116851904D01*
X117657619Y-116851904D01*
X117967142Y-117066190D02*
X117967142Y-116566190D01*
X118252857Y-117066190D01*
X118252857Y-116566190D01*
X118490952Y-117066190D02*
X118490952Y-116566190D01*
X118610000Y-116566190D01*
X118681428Y-116590000D01*
X118729047Y-116637619D01*
X118752857Y-116685238D01*
X118776666Y-116780476D01*
X118776666Y-116851904D01*
X118752857Y-116947142D01*
X118729047Y-116994761D01*
X118681428Y-117042380D01*
X118610000Y-117066190D01*
X118490952Y-117066190D01*
X122761428Y-117042380D02*
X122832857Y-117066190D01*
X122951904Y-117066190D01*
X122999523Y-117042380D01*
X123023333Y-117018571D01*
X123047142Y-116970952D01*
X123047142Y-116923333D01*
X123023333Y-116875714D01*
X122999523Y-116851904D01*
X122951904Y-116828095D01*
X122856666Y-116804285D01*
X122809047Y-116780476D01*
X122785238Y-116756666D01*
X122761428Y-116709047D01*
X122761428Y-116661428D01*
X122785238Y-116613809D01*
X122809047Y-116590000D01*
X122856666Y-116566190D01*
X122975714Y-116566190D01*
X123047142Y-116590000D01*
X123213809Y-116566190D02*
X123332857Y-117066190D01*
X123428095Y-116709047D01*
X123523333Y-117066190D01*
X123642380Y-116566190D01*
X140033809Y-98393333D02*
X139533809Y-98560000D01*
X140033809Y-98726666D01*
X139581428Y-99179047D02*
X139557619Y-99155238D01*
X139533809Y-99083809D01*
X139533809Y-99036190D01*
X139557619Y-98964761D01*
X139605238Y-98917142D01*
X139652857Y-98893333D01*
X139748095Y-98869523D01*
X139819523Y-98869523D01*
X139914761Y-98893333D01*
X139962380Y-98917142D01*
X140010000Y-98964761D01*
X140033809Y-99036190D01*
X140033809Y-99083809D01*
X140010000Y-99155238D01*
X139986190Y-99179047D01*
X139581428Y-99679047D02*
X139557619Y-99655238D01*
X139533809Y-99583809D01*
X139533809Y-99536190D01*
X139557619Y-99464761D01*
X139605238Y-99417142D01*
X139652857Y-99393333D01*
X139748095Y-99369523D01*
X139819523Y-99369523D01*
X139914761Y-99393333D01*
X139962380Y-99417142D01*
X140010000Y-99464761D01*
X140033809Y-99536190D01*
X140033809Y-99583809D01*
X140010000Y-99655238D01*
X139986190Y-99679047D01*
X125408571Y-117066190D02*
X125408571Y-116566190D01*
X125527619Y-116566190D01*
X125599047Y-116590000D01*
X125646666Y-116637619D01*
X125670476Y-116685238D01*
X125694285Y-116780476D01*
X125694285Y-116851904D01*
X125670476Y-116947142D01*
X125646666Y-116994761D01*
X125599047Y-117042380D01*
X125527619Y-117066190D01*
X125408571Y-117066190D01*
X125837142Y-116566190D02*
X126122857Y-116566190D01*
X125980000Y-117066190D02*
X125980000Y-116566190D01*
X139557619Y-83308095D02*
X139533809Y-83379523D01*
X139533809Y-83498571D01*
X139557619Y-83546190D01*
X139581428Y-83570000D01*
X139629047Y-83593809D01*
X139676666Y-83593809D01*
X139724285Y-83570000D01*
X139748095Y-83546190D01*
X139771904Y-83498571D01*
X139795714Y-83403333D01*
X139819523Y-83355714D01*
X139843333Y-83331904D01*
X139890952Y-83308095D01*
X139938571Y-83308095D01*
X139986190Y-83331904D01*
X140010000Y-83355714D01*
X140033809Y-83403333D01*
X140033809Y-83522380D01*
X140010000Y-83593809D01*
X139533809Y-83808095D02*
X140033809Y-83808095D01*
X140010000Y-84308095D02*
X140033809Y-84260476D01*
X140033809Y-84189047D01*
X140010000Y-84117619D01*
X139962380Y-84070000D01*
X139914761Y-84046190D01*
X139819523Y-84022380D01*
X139748095Y-84022380D01*
X139652857Y-84046190D01*
X139605238Y-84070000D01*
X139557619Y-84117619D01*
X139533809Y-84189047D01*
X139533809Y-84236666D01*
X139557619Y-84308095D01*
X139581428Y-84331904D01*
X139748095Y-84331904D01*
X139748095Y-84236666D01*
X140033809Y-57753333D02*
X139533809Y-57920000D01*
X140033809Y-58086666D01*
X139581428Y-58539047D02*
X139557619Y-58515238D01*
X139533809Y-58443809D01*
X139533809Y-58396190D01*
X139557619Y-58324761D01*
X139605238Y-58277142D01*
X139652857Y-58253333D01*
X139748095Y-58229523D01*
X139819523Y-58229523D01*
X139914761Y-58253333D01*
X139962380Y-58277142D01*
X140010000Y-58324761D01*
X140033809Y-58396190D01*
X140033809Y-58443809D01*
X140010000Y-58515238D01*
X139986190Y-58539047D01*
X139581428Y-59039047D02*
X139557619Y-59015238D01*
X139533809Y-58943809D01*
X139533809Y-58896190D01*
X139557619Y-58824761D01*
X139605238Y-58777142D01*
X139652857Y-58753333D01*
X139748095Y-58729523D01*
X139819523Y-58729523D01*
X139914761Y-58753333D01*
X139962380Y-58777142D01*
X140010000Y-58824761D01*
X140033809Y-58896190D01*
X140033809Y-58943809D01*
X140010000Y-59015238D01*
X139986190Y-59039047D01*
X140010000Y-101219047D02*
X140033809Y-101171428D01*
X140033809Y-101100000D01*
X140010000Y-101028571D01*
X139962380Y-100980952D01*
X139914761Y-100957142D01*
X139819523Y-100933333D01*
X139748095Y-100933333D01*
X139652857Y-100957142D01*
X139605238Y-100980952D01*
X139557619Y-101028571D01*
X139533809Y-101100000D01*
X139533809Y-101147619D01*
X139557619Y-101219047D01*
X139581428Y-101242857D01*
X139748095Y-101242857D01*
X139748095Y-101147619D01*
X139533809Y-101457142D02*
X140033809Y-101457142D01*
X139533809Y-101742857D01*
X140033809Y-101742857D01*
X139533809Y-101980952D02*
X140033809Y-101980952D01*
X140033809Y-102100000D01*
X140010000Y-102171428D01*
X139962380Y-102219047D01*
X139914761Y-102242857D01*
X139819523Y-102266666D01*
X139748095Y-102266666D01*
X139652857Y-102242857D01*
X139605238Y-102219047D01*
X139557619Y-102171428D01*
X139533809Y-102100000D01*
X139533809Y-101980952D01*
X140010000Y-80899047D02*
X140033809Y-80851428D01*
X140033809Y-80780000D01*
X140010000Y-80708571D01*
X139962380Y-80660952D01*
X139914761Y-80637142D01*
X139819523Y-80613333D01*
X139748095Y-80613333D01*
X139652857Y-80637142D01*
X139605238Y-80660952D01*
X139557619Y-80708571D01*
X139533809Y-80780000D01*
X139533809Y-80827619D01*
X139557619Y-80899047D01*
X139581428Y-80922857D01*
X139748095Y-80922857D01*
X139748095Y-80827619D01*
X139533809Y-81137142D02*
X140033809Y-81137142D01*
X139533809Y-81422857D01*
X140033809Y-81422857D01*
X139533809Y-81660952D02*
X140033809Y-81660952D01*
X140033809Y-81780000D01*
X140010000Y-81851428D01*
X139962380Y-81899047D01*
X139914761Y-81922857D01*
X139819523Y-81946666D01*
X139748095Y-81946666D01*
X139652857Y-81922857D01*
X139605238Y-81899047D01*
X139557619Y-81851428D01*
X139533809Y-81780000D01*
X139533809Y-81660952D01*
X139557619Y-62988095D02*
X139533809Y-63059523D01*
X139533809Y-63178571D01*
X139557619Y-63226190D01*
X139581428Y-63250000D01*
X139629047Y-63273809D01*
X139676666Y-63273809D01*
X139724285Y-63250000D01*
X139748095Y-63226190D01*
X139771904Y-63178571D01*
X139795714Y-63083333D01*
X139819523Y-63035714D01*
X139843333Y-63011904D01*
X139890952Y-62988095D01*
X139938571Y-62988095D01*
X139986190Y-63011904D01*
X140010000Y-63035714D01*
X140033809Y-63083333D01*
X140033809Y-63202380D01*
X140010000Y-63273809D01*
X139533809Y-63488095D02*
X140033809Y-63488095D01*
X140010000Y-63988095D02*
X140033809Y-63940476D01*
X140033809Y-63869047D01*
X140010000Y-63797619D01*
X139962380Y-63750000D01*
X139914761Y-63726190D01*
X139819523Y-63702380D01*
X139748095Y-63702380D01*
X139652857Y-63726190D01*
X139605238Y-63750000D01*
X139557619Y-63797619D01*
X139533809Y-63869047D01*
X139533809Y-63916666D01*
X139557619Y-63988095D01*
X139581428Y-64011904D01*
X139748095Y-64011904D01*
X139748095Y-63916666D01*
D12*
X95424761Y-113752380D02*
X95996190Y-113752380D01*
X95710476Y-114752380D02*
X95710476Y-113752380D01*
X96662857Y-114228571D02*
X96329523Y-114228571D01*
X96329523Y-114752380D02*
X96329523Y-113752380D01*
X96805714Y-113752380D01*
X97043809Y-113752380D02*
X97615238Y-113752380D01*
X97329523Y-114752380D02*
X97329523Y-113752380D01*
D11*
X118713333Y-88626190D02*
X118880000Y-89126190D01*
X119046666Y-88626190D01*
X119499047Y-89078571D02*
X119475238Y-89102380D01*
X119403809Y-89126190D01*
X119356190Y-89126190D01*
X119284761Y-89102380D01*
X119237142Y-89054761D01*
X119213333Y-89007142D01*
X119189523Y-88911904D01*
X119189523Y-88840476D01*
X119213333Y-88745238D01*
X119237142Y-88697619D01*
X119284761Y-88650000D01*
X119356190Y-88626190D01*
X119403809Y-88626190D01*
X119475238Y-88650000D01*
X119499047Y-88673809D01*
X119999047Y-89078571D02*
X119975238Y-89102380D01*
X119903809Y-89126190D01*
X119856190Y-89126190D01*
X119784761Y-89102380D01*
X119737142Y-89054761D01*
X119713333Y-89007142D01*
X119689523Y-88911904D01*
X119689523Y-88840476D01*
X119713333Y-88745238D01*
X119737142Y-88697619D01*
X119784761Y-88650000D01*
X119856190Y-88626190D01*
X119903809Y-88626190D01*
X119975238Y-88650000D01*
X119999047Y-88673809D01*
X140033809Y-78073333D02*
X139533809Y-78240000D01*
X140033809Y-78406666D01*
X139581428Y-78859047D02*
X139557619Y-78835238D01*
X139533809Y-78763809D01*
X139533809Y-78716190D01*
X139557619Y-78644761D01*
X139605238Y-78597142D01*
X139652857Y-78573333D01*
X139748095Y-78549523D01*
X139819523Y-78549523D01*
X139914761Y-78573333D01*
X139962380Y-78597142D01*
X140010000Y-78644761D01*
X140033809Y-78716190D01*
X140033809Y-78763809D01*
X140010000Y-78835238D01*
X139986190Y-78859047D01*
X139581428Y-79359047D02*
X139557619Y-79335238D01*
X139533809Y-79263809D01*
X139533809Y-79216190D01*
X139557619Y-79144761D01*
X139605238Y-79097142D01*
X139652857Y-79073333D01*
X139748095Y-79049523D01*
X139819523Y-79049523D01*
X139914761Y-79073333D01*
X139962380Y-79097142D01*
X140010000Y-79144761D01*
X140033809Y-79216190D01*
X140033809Y-79263809D01*
X140010000Y-79335238D01*
X139986190Y-79359047D01*
X90086666Y-117018571D02*
X90062857Y-117042380D01*
X89991428Y-117066190D01*
X89943809Y-117066190D01*
X89872380Y-117042380D01*
X89824761Y-116994761D01*
X89800952Y-116947142D01*
X89777142Y-116851904D01*
X89777142Y-116780476D01*
X89800952Y-116685238D01*
X89824761Y-116637619D01*
X89872380Y-116590000D01*
X89943809Y-116566190D01*
X89991428Y-116566190D01*
X90062857Y-116590000D01*
X90086666Y-116613809D01*
X90277142Y-117042380D02*
X90348571Y-117066190D01*
X90467619Y-117066190D01*
X90515238Y-117042380D01*
X90539047Y-117018571D01*
X90562857Y-116970952D01*
X90562857Y-116923333D01*
X90539047Y-116875714D01*
X90515238Y-116851904D01*
X90467619Y-116828095D01*
X90372380Y-116804285D01*
X90324761Y-116780476D01*
X90300952Y-116756666D01*
X90277142Y-116709047D01*
X90277142Y-116661428D01*
X90300952Y-116613809D01*
X90324761Y-116590000D01*
X90372380Y-116566190D01*
X90491428Y-116566190D01*
X90562857Y-116590000D01*
D12*
X121237619Y-114752380D02*
X120904285Y-114276190D01*
X120666190Y-114752380D02*
X120666190Y-113752380D01*
X121047142Y-113752380D01*
X121142380Y-113800000D01*
X121190000Y-113847619D01*
X121237619Y-113942857D01*
X121237619Y-114085714D01*
X121190000Y-114180952D01*
X121142380Y-114228571D01*
X121047142Y-114276190D01*
X120666190Y-114276190D01*
X121856666Y-113752380D02*
X122047142Y-113752380D01*
X122142380Y-113800000D01*
X122237619Y-113895238D01*
X122285238Y-114085714D01*
X122285238Y-114419047D01*
X122237619Y-114609523D01*
X122142380Y-114704761D01*
X122047142Y-114752380D01*
X121856666Y-114752380D01*
X121761428Y-114704761D01*
X121666190Y-114609523D01*
X121618571Y-114419047D01*
X121618571Y-114085714D01*
X121666190Y-113895238D01*
X121761428Y-113800000D01*
X121856666Y-113752380D01*
X122570952Y-113752380D02*
X123142380Y-113752380D01*
X122856666Y-114752380D02*
X122856666Y-113752380D01*
X123428095Y-114466666D02*
X123904285Y-114466666D01*
X123332857Y-114752380D02*
X123666190Y-113752380D01*
X123999523Y-114752380D01*
X124904285Y-114752380D02*
X124570952Y-114276190D01*
X124332857Y-114752380D02*
X124332857Y-113752380D01*
X124713809Y-113752380D01*
X124809047Y-113800000D01*
X124856666Y-113847619D01*
X124904285Y-113942857D01*
X124904285Y-114085714D01*
X124856666Y-114180952D01*
X124809047Y-114228571D01*
X124713809Y-114276190D01*
X124332857Y-114276190D01*
X125523333Y-114276190D02*
X125523333Y-114752380D01*
X125190000Y-113752380D02*
X125523333Y-114276190D01*
X125856666Y-113752380D01*
D11*
X119983333Y-116566190D02*
X120150000Y-117066190D01*
X120316666Y-116566190D01*
X120769047Y-117018571D02*
X120745238Y-117042380D01*
X120673809Y-117066190D01*
X120626190Y-117066190D01*
X120554761Y-117042380D01*
X120507142Y-116994761D01*
X120483333Y-116947142D01*
X120459523Y-116851904D01*
X120459523Y-116780476D01*
X120483333Y-116685238D01*
X120507142Y-116637619D01*
X120554761Y-116590000D01*
X120626190Y-116566190D01*
X120673809Y-116566190D01*
X120745238Y-116590000D01*
X120769047Y-116613809D01*
X121269047Y-117018571D02*
X121245238Y-117042380D01*
X121173809Y-117066190D01*
X121126190Y-117066190D01*
X121054761Y-117042380D01*
X121007142Y-116994761D01*
X120983333Y-116947142D01*
X120959523Y-116851904D01*
X120959523Y-116780476D01*
X120983333Y-116685238D01*
X121007142Y-116637619D01*
X121054761Y-116590000D01*
X121126190Y-116566190D01*
X121173809Y-116566190D01*
X121245238Y-116590000D01*
X121269047Y-116613809D01*
X116449962Y-88649999D02*
X116402343Y-88626189D01*
X116330915Y-88626189D01*
X116259486Y-88649999D01*
X116211867Y-88697618D01*
X116188057Y-88745237D01*
X116164248Y-88840475D01*
X116164248Y-88911903D01*
X116188057Y-89007141D01*
X116211867Y-89054760D01*
X116259486Y-89102379D01*
X116330915Y-89126189D01*
X116378534Y-89126189D01*
X116449962Y-89102379D01*
X116473772Y-89078570D01*
X116473772Y-88911903D01*
X116378534Y-88911903D01*
X116688057Y-89126189D02*
X116688057Y-88626189D01*
X116973772Y-89126189D01*
X116973772Y-88626189D01*
X117211867Y-89126189D02*
X117211867Y-88626189D01*
X117330915Y-88626189D01*
X117402343Y-88649999D01*
X117449962Y-88697618D01*
X117473772Y-88745237D01*
X117497581Y-88840475D01*
X117497581Y-88911903D01*
X117473772Y-89007141D01*
X117449962Y-89054760D01*
X117402343Y-89102379D01*
X117330915Y-89126189D01*
X117211867Y-89126189D01*
X92329047Y-117066190D02*
X92329047Y-116566190D01*
X92448095Y-116566190D01*
X92519523Y-116590000D01*
X92567142Y-116637619D01*
X92590952Y-116685238D01*
X92614761Y-116780476D01*
X92614761Y-116851904D01*
X92590952Y-116947142D01*
X92567142Y-116994761D01*
X92519523Y-117042380D01*
X92448095Y-117066190D01*
X92329047Y-117066190D01*
X93114761Y-117018571D02*
X93090952Y-117042380D01*
X93019523Y-117066190D01*
X92971904Y-117066190D01*
X92900476Y-117042380D01*
X92852857Y-116994761D01*
X92829047Y-116947142D01*
X92805238Y-116851904D01*
X92805238Y-116780476D01*
X92829047Y-116685238D01*
X92852857Y-116637619D01*
X92900476Y-116590000D01*
X92971904Y-116566190D01*
X93019523Y-116566190D01*
X93090952Y-116590000D01*
X93114761Y-116613809D01*
X94940476Y-117066190D02*
X94773809Y-116828095D01*
X94654761Y-117066190D02*
X94654761Y-116566190D01*
X94845238Y-116566190D01*
X94892857Y-116590000D01*
X94916666Y-116613809D01*
X94940476Y-116661428D01*
X94940476Y-116732857D01*
X94916666Y-116780476D01*
X94892857Y-116804285D01*
X94845238Y-116828095D01*
X94654761Y-116828095D01*
X95154761Y-116804285D02*
X95321428Y-116804285D01*
X95392857Y-117066190D02*
X95154761Y-117066190D01*
X95154761Y-116566190D01*
X95392857Y-116566190D01*
X95583333Y-117042380D02*
X95654761Y-117066190D01*
X95773809Y-117066190D01*
X95821428Y-117042380D01*
X95845238Y-117018571D01*
X95869047Y-116970952D01*
X95869047Y-116923333D01*
X95845238Y-116875714D01*
X95821428Y-116851904D01*
X95773809Y-116828095D01*
X95678571Y-116804285D01*
X95630952Y-116780476D01*
X95607142Y-116756666D01*
X95583333Y-116709047D01*
X95583333Y-116661428D01*
X95607142Y-116613809D01*
X95630952Y-116590000D01*
X95678571Y-116566190D01*
X95797619Y-116566190D01*
X95869047Y-116590000D01*
D10*
%TO.C,J5*%
X132957619Y-80065714D02*
X133433809Y-79732380D01*
X132957619Y-79494285D02*
X133957619Y-79494285D01*
X133957619Y-79875238D01*
X133910000Y-79970476D01*
X133862380Y-80018095D01*
X133767142Y-80065714D01*
X133624285Y-80065714D01*
X133529047Y-80018095D01*
X133481428Y-79970476D01*
X133433809Y-79875238D01*
X133433809Y-79494285D01*
X133005238Y-80875238D02*
X132957619Y-80780000D01*
X132957619Y-80589523D01*
X133005238Y-80494285D01*
X133100476Y-80446666D01*
X133481428Y-80446666D01*
X133576666Y-80494285D01*
X133624285Y-80589523D01*
X133624285Y-80780000D01*
X133576666Y-80875238D01*
X133481428Y-80922857D01*
X133386190Y-80922857D01*
X133290952Y-80446666D01*
X132957619Y-81494285D02*
X133005238Y-81399047D01*
X133100476Y-81351428D01*
X133957619Y-81351428D01*
X132957619Y-82303809D02*
X133481428Y-82303809D01*
X133576666Y-82256190D01*
X133624285Y-82160952D01*
X133624285Y-81970476D01*
X133576666Y-81875238D01*
X133005238Y-82303809D02*
X132957619Y-82208571D01*
X132957619Y-81970476D01*
X133005238Y-81875238D01*
X133100476Y-81827619D01*
X133195714Y-81827619D01*
X133290952Y-81875238D01*
X133338571Y-81970476D01*
X133338571Y-82208571D01*
X133386190Y-82303809D01*
X133624285Y-82684761D02*
X132957619Y-82922857D01*
X133624285Y-83160952D02*
X132957619Y-82922857D01*
X132719523Y-82827619D01*
X132671904Y-82780000D01*
X132624285Y-82684761D01*
%TO.C,M-switch*%
X135144285Y-49982380D02*
X135144285Y-48982380D01*
X135477619Y-49696666D01*
X135810952Y-48982380D01*
X135810952Y-49982380D01*
X136287142Y-49601428D02*
X137049047Y-49601428D01*
X137477619Y-49934761D02*
X137572857Y-49982380D01*
X137763333Y-49982380D01*
X137858571Y-49934761D01*
X137906190Y-49839523D01*
X137906190Y-49791904D01*
X137858571Y-49696666D01*
X137763333Y-49649047D01*
X137620476Y-49649047D01*
X137525238Y-49601428D01*
X137477619Y-49506190D01*
X137477619Y-49458571D01*
X137525238Y-49363333D01*
X137620476Y-49315714D01*
X137763333Y-49315714D01*
X137858571Y-49363333D01*
X138239523Y-49315714D02*
X138430000Y-49982380D01*
X138620476Y-49506190D01*
X138810952Y-49982380D01*
X139001428Y-49315714D01*
X139382380Y-49982380D02*
X139382380Y-49315714D01*
X139382380Y-48982380D02*
X139334761Y-49030000D01*
X139382380Y-49077619D01*
X139430000Y-49030000D01*
X139382380Y-48982380D01*
X139382380Y-49077619D01*
X139715714Y-49315714D02*
X140096666Y-49315714D01*
X139858571Y-48982380D02*
X139858571Y-49839523D01*
X139906190Y-49934761D01*
X140001428Y-49982380D01*
X140096666Y-49982380D01*
X140858571Y-49934761D02*
X140763333Y-49982380D01*
X140572857Y-49982380D01*
X140477619Y-49934761D01*
X140430000Y-49887142D01*
X140382380Y-49791904D01*
X140382380Y-49506190D01*
X140430000Y-49410952D01*
X140477619Y-49363333D01*
X140572857Y-49315714D01*
X140763333Y-49315714D01*
X140858571Y-49363333D01*
X141287142Y-49982380D02*
X141287142Y-48982380D01*
X141715714Y-49982380D02*
X141715714Y-49458571D01*
X141668095Y-49363333D01*
X141572857Y-49315714D01*
X141430000Y-49315714D01*
X141334761Y-49363333D01*
X141287142Y-49410952D01*
%TO.C,TP3*%
X102925714Y-61412380D02*
X102592380Y-60936190D01*
X102354285Y-61412380D02*
X102354285Y-60412380D01*
X102735238Y-60412380D01*
X102830476Y-60460000D01*
X102878095Y-60507619D01*
X102925714Y-60602857D01*
X102925714Y-60745714D01*
X102878095Y-60840952D01*
X102830476Y-60888571D01*
X102735238Y-60936190D01*
X102354285Y-60936190D01*
X103735238Y-61364761D02*
X103640000Y-61412380D01*
X103449523Y-61412380D01*
X103354285Y-61364761D01*
X103306666Y-61269523D01*
X103306666Y-60888571D01*
X103354285Y-60793333D01*
X103449523Y-60745714D01*
X103640000Y-60745714D01*
X103735238Y-60793333D01*
X103782857Y-60888571D01*
X103782857Y-60983809D01*
X103306666Y-61079047D01*
X104354285Y-61412380D02*
X104259047Y-61364761D01*
X104211428Y-61269523D01*
X104211428Y-60412380D01*
X105163809Y-61412380D02*
X105163809Y-60888571D01*
X105116190Y-60793333D01*
X105020952Y-60745714D01*
X104830476Y-60745714D01*
X104735238Y-60793333D01*
X105163809Y-61364761D02*
X105068571Y-61412380D01*
X104830476Y-61412380D01*
X104735238Y-61364761D01*
X104687619Y-61269523D01*
X104687619Y-61174285D01*
X104735238Y-61079047D01*
X104830476Y-61031428D01*
X105068571Y-61031428D01*
X105163809Y-60983809D01*
X105544761Y-60745714D02*
X105782857Y-61412380D01*
X106020952Y-60745714D02*
X105782857Y-61412380D01*
X105687619Y-61650476D01*
X105640000Y-61698095D01*
X105544761Y-61745714D01*
%TO.C,TP2*%
X98298095Y-60460000D02*
X98202857Y-60412380D01*
X98060000Y-60412380D01*
X97917142Y-60460000D01*
X97821904Y-60555238D01*
X97774285Y-60650476D01*
X97726666Y-60840952D01*
X97726666Y-60983809D01*
X97774285Y-61174285D01*
X97821904Y-61269523D01*
X97917142Y-61364761D01*
X98060000Y-61412380D01*
X98155238Y-61412380D01*
X98298095Y-61364761D01*
X98345714Y-61317142D01*
X98345714Y-60983809D01*
X98155238Y-60983809D01*
X98774285Y-61412380D02*
X98774285Y-60412380D01*
X99345714Y-61412380D01*
X99345714Y-60412380D01*
X99821904Y-61412380D02*
X99821904Y-60412380D01*
X100060000Y-60412380D01*
X100202857Y-60460000D01*
X100298095Y-60555238D01*
X100345714Y-60650476D01*
X100393333Y-60840952D01*
X100393333Y-60983809D01*
X100345714Y-61174285D01*
X100298095Y-61269523D01*
X100202857Y-61364761D01*
X100060000Y-61412380D01*
X99821904Y-61412380D01*
%TO.C,J6*%
X132957619Y-100385714D02*
X133433809Y-100052380D01*
X132957619Y-99814285D02*
X133957619Y-99814285D01*
X133957619Y-100195238D01*
X133910000Y-100290476D01*
X133862380Y-100338095D01*
X133767142Y-100385714D01*
X133624285Y-100385714D01*
X133529047Y-100338095D01*
X133481428Y-100290476D01*
X133433809Y-100195238D01*
X133433809Y-99814285D01*
X133005238Y-101195238D02*
X132957619Y-101100000D01*
X132957619Y-100909523D01*
X133005238Y-100814285D01*
X133100476Y-100766666D01*
X133481428Y-100766666D01*
X133576666Y-100814285D01*
X133624285Y-100909523D01*
X133624285Y-101100000D01*
X133576666Y-101195238D01*
X133481428Y-101242857D01*
X133386190Y-101242857D01*
X133290952Y-100766666D01*
X132957619Y-101814285D02*
X133005238Y-101719047D01*
X133100476Y-101671428D01*
X133957619Y-101671428D01*
X132957619Y-102623809D02*
X133481428Y-102623809D01*
X133576666Y-102576190D01*
X133624285Y-102480952D01*
X133624285Y-102290476D01*
X133576666Y-102195238D01*
X133005238Y-102623809D02*
X132957619Y-102528571D01*
X132957619Y-102290476D01*
X133005238Y-102195238D01*
X133100476Y-102147619D01*
X133195714Y-102147619D01*
X133290952Y-102195238D01*
X133338571Y-102290476D01*
X133338571Y-102528571D01*
X133386190Y-102623809D01*
X133624285Y-103004761D02*
X132957619Y-103242857D01*
X133624285Y-103480952D02*
X132957619Y-103242857D01*
X132719523Y-103147619D01*
X132671904Y-103100000D01*
X132624285Y-103004761D01*
%TO.C,TP1*%
X93789523Y-60412380D02*
X93313333Y-60412380D01*
X93265714Y-60888571D01*
X93313333Y-60840952D01*
X93408571Y-60793333D01*
X93646666Y-60793333D01*
X93741904Y-60840952D01*
X93789523Y-60888571D01*
X93837142Y-60983809D01*
X93837142Y-61221904D01*
X93789523Y-61317142D01*
X93741904Y-61364761D01*
X93646666Y-61412380D01*
X93408571Y-61412380D01*
X93313333Y-61364761D01*
X93265714Y-61317142D01*
X94122857Y-60412380D02*
X94456190Y-61412380D01*
X94789523Y-60412380D01*
%TO.C,J2*%
X120110476Y-94702380D02*
X120681904Y-94702380D01*
X120396190Y-95702380D02*
X120396190Y-94702380D01*
X121015238Y-95178571D02*
X121348571Y-95178571D01*
X121491428Y-95702380D02*
X121015238Y-95702380D01*
X121015238Y-94702380D01*
X121491428Y-94702380D01*
X121920000Y-95702380D02*
X121920000Y-94702380D01*
X122253333Y-95416666D01*
X122586666Y-94702380D01*
X122586666Y-95702380D01*
X123062857Y-95702380D02*
X123062857Y-94702380D01*
X123443809Y-94702380D01*
X123539047Y-94750000D01*
X123586666Y-94797619D01*
X123634285Y-94892857D01*
X123634285Y-95035714D01*
X123586666Y-95130952D01*
X123539047Y-95178571D01*
X123443809Y-95226190D01*
X123062857Y-95226190D01*
%TO.C,J4*%
X134227619Y-59745714D02*
X134703809Y-59412380D01*
X134227619Y-59174285D02*
X135227619Y-59174285D01*
X135227619Y-59555238D01*
X135180000Y-59650476D01*
X135132380Y-59698095D01*
X135037142Y-59745714D01*
X134894285Y-59745714D01*
X134799047Y-59698095D01*
X134751428Y-59650476D01*
X134703809Y-59555238D01*
X134703809Y-59174285D01*
X134275238Y-60555238D02*
X134227619Y-60460000D01*
X134227619Y-60269523D01*
X134275238Y-60174285D01*
X134370476Y-60126666D01*
X134751428Y-60126666D01*
X134846666Y-60174285D01*
X134894285Y-60269523D01*
X134894285Y-60460000D01*
X134846666Y-60555238D01*
X134751428Y-60602857D01*
X134656190Y-60602857D01*
X134560952Y-60126666D01*
X134227619Y-61174285D02*
X134275238Y-61079047D01*
X134370476Y-61031428D01*
X135227619Y-61031428D01*
X134227619Y-61983809D02*
X134751428Y-61983809D01*
X134846666Y-61936190D01*
X134894285Y-61840952D01*
X134894285Y-61650476D01*
X134846666Y-61555238D01*
X134275238Y-61983809D02*
X134227619Y-61888571D01*
X134227619Y-61650476D01*
X134275238Y-61555238D01*
X134370476Y-61507619D01*
X134465714Y-61507619D01*
X134560952Y-61555238D01*
X134608571Y-61650476D01*
X134608571Y-61888571D01*
X134656190Y-61983809D01*
X134894285Y-62364761D02*
X134227619Y-62602857D01*
X134894285Y-62840952D02*
X134227619Y-62602857D01*
X133989523Y-62507619D01*
X133941904Y-62460000D01*
X133894285Y-62364761D01*
D13*
%TO.C,J5*%
X138550000Y-83820000D02*
X138550000Y-85150000D01*
X138550000Y-82550000D02*
X138550000Y-77410000D01*
X138550000Y-85150000D02*
X137220000Y-85150000D01*
X135890000Y-82550000D02*
X135890000Y-77410000D01*
X138550000Y-82550000D02*
X135890000Y-82550000D01*
X138550000Y-77410000D02*
X135890000Y-77410000D01*
%TO.C,M-switch*%
X133350000Y-40640000D02*
X133350000Y-48260000D01*
X143510000Y-46990000D02*
X133350000Y-46990000D01*
X143510000Y-48260000D02*
X143510000Y-40640000D01*
X133350000Y-48260000D02*
X143510000Y-48260000D01*
X143510000Y-40640000D02*
X133350000Y-40640000D01*
%TO.C,J1*%
X87630000Y-120710000D02*
X86300000Y-120710000D01*
X88900000Y-120710000D02*
X88900000Y-118050000D01*
X86300000Y-120710000D02*
X86300000Y-119380000D01*
X106740000Y-120710000D02*
X106740000Y-118050000D01*
X88900000Y-118050000D02*
X106740000Y-118050000D01*
X88900000Y-120710000D02*
X106740000Y-120710000D01*
%TO.C,TP3*%
X105340000Y-57150000D02*
G75*
G03*
X105340000Y-57150000I-1200000J0D01*
G01*
%TO.C,TP2*%
X100260000Y-57150000D02*
G75*
G03*
X100260000Y-57150000I-1200000J0D01*
G01*
%TO.C,U1*%
X86980000Y-99780000D02*
X108590000Y-99780000D01*
X110720000Y-72220000D02*
X108180000Y-72220000D01*
X108180000Y-65320000D02*
X84860000Y-65320000D01*
X110720000Y-72220000D02*
X110720000Y-97650000D01*
X84860000Y-65320000D02*
X84860000Y-97650000D01*
X108180000Y-72220000D02*
X108180000Y-65320000D01*
X108590000Y-99780000D02*
G75*
G03*
X110720000Y-97650000I-2J2130002D01*
G01*
X84860000Y-97650000D02*
G75*
G03*
X86990000Y-99780000I2130000J0D01*
G01*
G36*
X111760000Y-92075000D02*
G01*
X111125000Y-91440000D01*
X111760000Y-90805000D01*
X111760000Y-92075000D01*
G37*
D10*
X111760000Y-92075000D02*
X111125000Y-91440000D01*
X111760000Y-90805000D01*
X111760000Y-92075000D01*
D13*
%TO.C,J6*%
X138550000Y-102855000D02*
X135890000Y-102855000D01*
X138550000Y-105455000D02*
X137220000Y-105455000D01*
X138550000Y-104125000D02*
X138550000Y-105455000D01*
X138550000Y-102855000D02*
X138550000Y-97715000D01*
X135890000Y-102855000D02*
X135890000Y-97715000D01*
X138550000Y-97715000D02*
X135890000Y-97715000D01*
%TO.C,J3*%
X129595000Y-118050000D02*
X129595000Y-119380000D01*
X116775000Y-118050000D02*
X116775000Y-120710000D01*
X128265000Y-118050000D02*
X129595000Y-118050000D01*
X126995000Y-120710000D02*
X116775000Y-120710000D01*
X126995000Y-118050000D02*
X116775000Y-118050000D01*
X126995000Y-118050000D02*
X126995000Y-120710000D01*
%TO.C,TP1*%
X95180000Y-57150000D02*
G75*
G03*
X95180000Y-57150000I-1200000J0D01*
G01*
%TO.C,J2*%
X115510000Y-90110000D02*
X115510000Y-92770000D01*
X125730000Y-90110000D02*
X125730000Y-92770000D01*
X127000000Y-90110000D02*
X128330000Y-90110000D01*
X125730000Y-92770000D02*
X115510000Y-92770000D01*
X128330000Y-90110000D02*
X128330000Y-91440000D01*
X125730000Y-90110000D02*
X115510000Y-90110000D01*
%TO.C,J4*%
X138550000Y-57090000D02*
X135890000Y-57090000D01*
X138550000Y-62230000D02*
X138550000Y-57090000D01*
X138550000Y-63500000D02*
X138550000Y-64830000D01*
X138550000Y-62230000D02*
X135890000Y-62230000D01*
X135890000Y-62230000D02*
X135890000Y-57090000D01*
X138550000Y-64830000D02*
X137220000Y-64830000D01*
%TD*%
M02*
