%TF.GenerationSoftware,KiCad,Pcbnew,(6.0.5)*%
%TF.CreationDate,2022-06-12T07:36:22+01:00*%
%TF.ProjectId,kiln-pcb,6b696c6e-2d70-4636-922e-6b696361645f,rev?*%
%TF.SameCoordinates,Original*%
%TF.FileFunction,Copper,L1,Top*%
%TF.FilePolarity,Positive*%
%FSLAX46Y46*%
G04 Gerber Fmt 4.6, Leading zero omitted, Abs format (unit mm)*
G04 Created by KiCad (PCBNEW (6.0.5)) date 2022-06-12 07:36:22*
%MOMM*%
%LPD*%
G01*
G04 APERTURE LIST*
%TA.AperFunction,EtchedComponent*%
%ADD10C,0.010000*%
%TD*%
%TA.AperFunction,ComponentPad*%
%ADD11R,1.700000X1.700000*%
%TD*%
%TA.AperFunction,ComponentPad*%
%ADD12O,1.700000X1.700000*%
%TD*%
%TA.AperFunction,ComponentPad*%
%ADD13R,3.000000X3.000000*%
%TD*%
%TA.AperFunction,ComponentPad*%
%ADD14C,3.000000*%
%TD*%
%TA.AperFunction,ComponentPad*%
%ADD15C,0.800000*%
%TD*%
%TA.AperFunction,ComponentPad*%
%ADD16C,6.400000*%
%TD*%
%TA.AperFunction,SMDPad,CuDef*%
%ADD17C,2.000000*%
%TD*%
%TA.AperFunction,ComponentPad*%
%ADD18R,2.000000X2.000000*%
%TD*%
%TA.AperFunction,ComponentPad*%
%ADD19O,2.000000X1.600000*%
%TD*%
%TA.AperFunction,ViaPad*%
%ADD20C,0.800000*%
%TD*%
%TA.AperFunction,Conductor*%
%ADD21C,0.250000*%
%TD*%
G04 APERTURE END LIST*
%TO.C,OSHW_LOGO*%
G36*
X156376873Y-48614679D02*
G01*
X156380606Y-48550905D01*
X156385907Y-48505582D01*
X156393258Y-48473555D01*
X156403143Y-48449668D01*
X156416046Y-48428764D01*
X156421579Y-48420898D01*
X156494969Y-48346595D01*
X156587760Y-48304467D01*
X156695096Y-48292722D01*
X156788886Y-48304505D01*
X156863539Y-48341727D01*
X156929431Y-48410261D01*
X156947577Y-48435648D01*
X156967345Y-48468866D01*
X156980172Y-48504945D01*
X156987510Y-48553098D01*
X156990813Y-48622536D01*
X156991538Y-48714206D01*
X156988263Y-48839830D01*
X156976877Y-48934154D01*
X156955041Y-49004523D01*
X156920419Y-49058286D01*
X156870670Y-49102788D01*
X156867014Y-49105423D01*
X156817985Y-49132377D01*
X156758945Y-49145712D01*
X156683859Y-49149000D01*
X156561795Y-49149000D01*
X156561744Y-49267497D01*
X156560608Y-49333492D01*
X156553686Y-49372202D01*
X156535598Y-49395419D01*
X156500962Y-49414933D01*
X156492645Y-49418920D01*
X156453720Y-49437603D01*
X156423583Y-49449403D01*
X156401174Y-49450422D01*
X156385433Y-49436761D01*
X156375302Y-49404522D01*
X156369723Y-49349804D01*
X156367635Y-49268711D01*
X156367981Y-49157344D01*
X156369700Y-49011802D01*
X156370237Y-48968269D01*
X156372172Y-48818205D01*
X156373904Y-48720042D01*
X156561692Y-48720042D01*
X156562748Y-48803364D01*
X156567438Y-48857880D01*
X156578051Y-48893837D01*
X156596872Y-48921482D01*
X156609650Y-48934965D01*
X156661890Y-48974417D01*
X156708142Y-48977628D01*
X156755867Y-48945049D01*
X156757077Y-48943846D01*
X156776494Y-48918668D01*
X156788307Y-48884447D01*
X156794265Y-48831748D01*
X156796120Y-48751131D01*
X156796154Y-48733271D01*
X156791670Y-48622175D01*
X156777074Y-48545161D01*
X156750650Y-48498147D01*
X156710683Y-48477050D01*
X156687584Y-48474923D01*
X156632762Y-48484900D01*
X156595158Y-48517752D01*
X156572523Y-48577857D01*
X156562606Y-48669598D01*
X156561692Y-48720042D01*
X156373904Y-48720042D01*
X156374222Y-48702060D01*
X156376873Y-48614679D01*
G37*
D10*
X156376873Y-48614679D02*
X156380606Y-48550905D01*
X156385907Y-48505582D01*
X156393258Y-48473555D01*
X156403143Y-48449668D01*
X156416046Y-48428764D01*
X156421579Y-48420898D01*
X156494969Y-48346595D01*
X156587760Y-48304467D01*
X156695096Y-48292722D01*
X156788886Y-48304505D01*
X156863539Y-48341727D01*
X156929431Y-48410261D01*
X156947577Y-48435648D01*
X156967345Y-48468866D01*
X156980172Y-48504945D01*
X156987510Y-48553098D01*
X156990813Y-48622536D01*
X156991538Y-48714206D01*
X156988263Y-48839830D01*
X156976877Y-48934154D01*
X156955041Y-49004523D01*
X156920419Y-49058286D01*
X156870670Y-49102788D01*
X156867014Y-49105423D01*
X156817985Y-49132377D01*
X156758945Y-49145712D01*
X156683859Y-49149000D01*
X156561795Y-49149000D01*
X156561744Y-49267497D01*
X156560608Y-49333492D01*
X156553686Y-49372202D01*
X156535598Y-49395419D01*
X156500962Y-49414933D01*
X156492645Y-49418920D01*
X156453720Y-49437603D01*
X156423583Y-49449403D01*
X156401174Y-49450422D01*
X156385433Y-49436761D01*
X156375302Y-49404522D01*
X156369723Y-49349804D01*
X156367635Y-49268711D01*
X156367981Y-49157344D01*
X156369700Y-49011802D01*
X156370237Y-48968269D01*
X156372172Y-48818205D01*
X156373904Y-48720042D01*
X156561692Y-48720042D01*
X156562748Y-48803364D01*
X156567438Y-48857880D01*
X156578051Y-48893837D01*
X156596872Y-48921482D01*
X156609650Y-48934965D01*
X156661890Y-48974417D01*
X156708142Y-48977628D01*
X156755867Y-48945049D01*
X156757077Y-48943846D01*
X156776494Y-48918668D01*
X156788307Y-48884447D01*
X156794265Y-48831748D01*
X156796120Y-48751131D01*
X156796154Y-48733271D01*
X156791670Y-48622175D01*
X156777074Y-48545161D01*
X156750650Y-48498147D01*
X156710683Y-48477050D01*
X156687584Y-48474923D01*
X156632762Y-48484900D01*
X156595158Y-48517752D01*
X156572523Y-48577857D01*
X156562606Y-48669598D01*
X156561692Y-48720042D01*
X156373904Y-48720042D01*
X156374222Y-48702060D01*
X156376873Y-48614679D01*
G36*
X159179846Y-48212120D02*
G01*
X159185572Y-48291980D01*
X159192149Y-48339039D01*
X159201262Y-48359566D01*
X159214598Y-48359829D01*
X159218923Y-48357378D01*
X159276444Y-48339636D01*
X159351268Y-48340672D01*
X159427339Y-48358910D01*
X159474918Y-48382505D01*
X159523702Y-48420198D01*
X159559364Y-48462855D01*
X159583845Y-48517057D01*
X159599087Y-48589384D01*
X159607030Y-48686419D01*
X159609616Y-48814742D01*
X159609662Y-48839358D01*
X159609692Y-49115870D01*
X159548161Y-49137320D01*
X159504459Y-49151912D01*
X159480482Y-49158706D01*
X159479777Y-49158769D01*
X159477415Y-49140345D01*
X159475406Y-49089526D01*
X159473901Y-49012993D01*
X159473053Y-48917430D01*
X159472923Y-48859329D01*
X159472651Y-48744771D01*
X159471252Y-48662667D01*
X159467849Y-48606393D01*
X159461567Y-48569326D01*
X159451529Y-48544844D01*
X159436861Y-48526325D01*
X159427702Y-48517406D01*
X159364789Y-48481466D01*
X159296136Y-48478775D01*
X159233848Y-48509170D01*
X159222329Y-48520144D01*
X159205433Y-48540779D01*
X159193714Y-48565256D01*
X159186233Y-48600647D01*
X159182054Y-48654026D01*
X159180237Y-48732466D01*
X159179846Y-48840617D01*
X159179846Y-49115870D01*
X159118315Y-49137320D01*
X159074613Y-49151912D01*
X159050636Y-49158706D01*
X159049930Y-49158769D01*
X159048126Y-49140069D01*
X159046500Y-49087322D01*
X159045117Y-49005557D01*
X159044042Y-48899805D01*
X159043340Y-48775094D01*
X159043077Y-48636455D01*
X159043077Y-48101806D01*
X159170077Y-48048236D01*
X159179846Y-48212120D01*
G37*
X159179846Y-48212120D02*
X159185572Y-48291980D01*
X159192149Y-48339039D01*
X159201262Y-48359566D01*
X159214598Y-48359829D01*
X159218923Y-48357378D01*
X159276444Y-48339636D01*
X159351268Y-48340672D01*
X159427339Y-48358910D01*
X159474918Y-48382505D01*
X159523702Y-48420198D01*
X159559364Y-48462855D01*
X159583845Y-48517057D01*
X159599087Y-48589384D01*
X159607030Y-48686419D01*
X159609616Y-48814742D01*
X159609662Y-48839358D01*
X159609692Y-49115870D01*
X159548161Y-49137320D01*
X159504459Y-49151912D01*
X159480482Y-49158706D01*
X159479777Y-49158769D01*
X159477415Y-49140345D01*
X159475406Y-49089526D01*
X159473901Y-49012993D01*
X159473053Y-48917430D01*
X159472923Y-48859329D01*
X159472651Y-48744771D01*
X159471252Y-48662667D01*
X159467849Y-48606393D01*
X159461567Y-48569326D01*
X159451529Y-48544844D01*
X159436861Y-48526325D01*
X159427702Y-48517406D01*
X159364789Y-48481466D01*
X159296136Y-48478775D01*
X159233848Y-48509170D01*
X159222329Y-48520144D01*
X159205433Y-48540779D01*
X159193714Y-48565256D01*
X159186233Y-48600647D01*
X159182054Y-48654026D01*
X159180237Y-48732466D01*
X159179846Y-48840617D01*
X159179846Y-49115870D01*
X159118315Y-49137320D01*
X159074613Y-49151912D01*
X159050636Y-49158706D01*
X159049930Y-49158769D01*
X159048126Y-49140069D01*
X159046500Y-49087322D01*
X159045117Y-49005557D01*
X159044042Y-48899805D01*
X159043340Y-48775094D01*
X159043077Y-48636455D01*
X159043077Y-48101806D01*
X159170077Y-48048236D01*
X159179846Y-48212120D01*
G36*
X160073501Y-48346303D02*
G01*
X160150060Y-48374733D01*
X160150936Y-48375279D01*
X160198285Y-48410127D01*
X160233241Y-48450852D01*
X160257825Y-48503925D01*
X160274062Y-48575814D01*
X160283975Y-48672992D01*
X160289586Y-48801928D01*
X160290077Y-48820298D01*
X160297141Y-49097287D01*
X160237695Y-49128028D01*
X160194681Y-49148802D01*
X160168710Y-49158646D01*
X160167509Y-49158769D01*
X160163014Y-49140606D01*
X160159444Y-49091612D01*
X160157248Y-49020031D01*
X160156769Y-48962068D01*
X160156758Y-48868170D01*
X160152466Y-48809203D01*
X160137503Y-48781079D01*
X160105482Y-48779706D01*
X160050014Y-48800998D01*
X159966269Y-48840136D01*
X159904689Y-48872643D01*
X159873017Y-48900845D01*
X159863706Y-48931582D01*
X159863692Y-48933104D01*
X159879057Y-48986054D01*
X159924547Y-49014660D01*
X159994166Y-49018803D01*
X160044313Y-49018084D01*
X160070754Y-49032527D01*
X160087243Y-49067218D01*
X160096733Y-49111416D01*
X160083057Y-49136493D01*
X160077907Y-49140082D01*
X160029425Y-49154496D01*
X159961531Y-49156537D01*
X159891612Y-49146983D01*
X159842068Y-49129522D01*
X159773570Y-49071364D01*
X159734634Y-48990408D01*
X159726923Y-48927160D01*
X159732807Y-48870111D01*
X159754101Y-48823542D01*
X159796265Y-48782181D01*
X159864759Y-48740755D01*
X159965044Y-48693993D01*
X159971154Y-48691350D01*
X160061490Y-48649617D01*
X160117235Y-48615391D01*
X160141129Y-48584635D01*
X160135913Y-48553311D01*
X160104328Y-48517383D01*
X160094883Y-48509116D01*
X160031617Y-48477058D01*
X159966064Y-48478407D01*
X159908972Y-48509838D01*
X159871093Y-48568024D01*
X159867574Y-48579446D01*
X159833300Y-48634837D01*
X159789809Y-48661518D01*
X159726923Y-48687960D01*
X159726923Y-48619548D01*
X159746052Y-48520110D01*
X159802831Y-48428902D01*
X159832378Y-48398389D01*
X159899542Y-48359228D01*
X159984956Y-48341500D01*
X160073501Y-48346303D01*
G37*
X160073501Y-48346303D02*
X160150060Y-48374733D01*
X160150936Y-48375279D01*
X160198285Y-48410127D01*
X160233241Y-48450852D01*
X160257825Y-48503925D01*
X160274062Y-48575814D01*
X160283975Y-48672992D01*
X160289586Y-48801928D01*
X160290077Y-48820298D01*
X160297141Y-49097287D01*
X160237695Y-49128028D01*
X160194681Y-49148802D01*
X160168710Y-49158646D01*
X160167509Y-49158769D01*
X160163014Y-49140606D01*
X160159444Y-49091612D01*
X160157248Y-49020031D01*
X160156769Y-48962068D01*
X160156758Y-48868170D01*
X160152466Y-48809203D01*
X160137503Y-48781079D01*
X160105482Y-48779706D01*
X160050014Y-48800998D01*
X159966269Y-48840136D01*
X159904689Y-48872643D01*
X159873017Y-48900845D01*
X159863706Y-48931582D01*
X159863692Y-48933104D01*
X159879057Y-48986054D01*
X159924547Y-49014660D01*
X159994166Y-49018803D01*
X160044313Y-49018084D01*
X160070754Y-49032527D01*
X160087243Y-49067218D01*
X160096733Y-49111416D01*
X160083057Y-49136493D01*
X160077907Y-49140082D01*
X160029425Y-49154496D01*
X159961531Y-49156537D01*
X159891612Y-49146983D01*
X159842068Y-49129522D01*
X159773570Y-49071364D01*
X159734634Y-48990408D01*
X159726923Y-48927160D01*
X159732807Y-48870111D01*
X159754101Y-48823542D01*
X159796265Y-48782181D01*
X159864759Y-48740755D01*
X159965044Y-48693993D01*
X159971154Y-48691350D01*
X160061490Y-48649617D01*
X160117235Y-48615391D01*
X160141129Y-48584635D01*
X160135913Y-48553311D01*
X160104328Y-48517383D01*
X160094883Y-48509116D01*
X160031617Y-48477058D01*
X159966064Y-48478407D01*
X159908972Y-48509838D01*
X159871093Y-48568024D01*
X159867574Y-48579446D01*
X159833300Y-48634837D01*
X159789809Y-48661518D01*
X159726923Y-48687960D01*
X159726923Y-48619548D01*
X159746052Y-48520110D01*
X159802831Y-48428902D01*
X159832378Y-48398389D01*
X159899542Y-48359228D01*
X159984956Y-48341500D01*
X160073501Y-48346303D01*
G36*
X162415929Y-48356662D02*
G01*
X162418911Y-48408068D01*
X162421247Y-48486192D01*
X162422749Y-48584857D01*
X162423231Y-48688343D01*
X162423231Y-49038533D01*
X162361401Y-49100363D01*
X162318793Y-49138462D01*
X162281390Y-49153895D01*
X162230270Y-49152918D01*
X162209978Y-49150433D01*
X162146554Y-49143200D01*
X162094095Y-49139055D01*
X162081308Y-49138672D01*
X162038199Y-49141176D01*
X161976544Y-49147462D01*
X161952638Y-49150433D01*
X161893922Y-49155028D01*
X161854464Y-49145046D01*
X161815338Y-49114228D01*
X161801215Y-49100363D01*
X161739385Y-49038533D01*
X161739385Y-48383503D01*
X161789150Y-48360829D01*
X161832002Y-48344034D01*
X161857073Y-48338154D01*
X161863501Y-48356736D01*
X161869509Y-48408655D01*
X161874697Y-48488172D01*
X161878664Y-48589546D01*
X161880577Y-48675192D01*
X161885923Y-49012231D01*
X161932560Y-49018825D01*
X161974976Y-49014214D01*
X161995760Y-48999287D01*
X162001570Y-48971377D01*
X162006530Y-48911925D01*
X162010246Y-48828466D01*
X162012324Y-48728532D01*
X162012624Y-48677104D01*
X162012923Y-48381054D01*
X162074454Y-48359604D01*
X162118004Y-48345020D01*
X162141694Y-48338219D01*
X162142377Y-48338154D01*
X162144754Y-48356642D01*
X162147366Y-48407906D01*
X162149995Y-48485649D01*
X162152421Y-48583574D01*
X162154115Y-48675192D01*
X162159461Y-49012231D01*
X162276692Y-49012231D01*
X162282072Y-48704746D01*
X162287451Y-48397261D01*
X162344601Y-48367707D01*
X162386797Y-48347413D01*
X162411770Y-48338204D01*
X162412491Y-48338154D01*
X162415929Y-48356662D01*
G37*
X162415929Y-48356662D02*
X162418911Y-48408068D01*
X162421247Y-48486192D01*
X162422749Y-48584857D01*
X162423231Y-48688343D01*
X162423231Y-49038533D01*
X162361401Y-49100363D01*
X162318793Y-49138462D01*
X162281390Y-49153895D01*
X162230270Y-49152918D01*
X162209978Y-49150433D01*
X162146554Y-49143200D01*
X162094095Y-49139055D01*
X162081308Y-49138672D01*
X162038199Y-49141176D01*
X161976544Y-49147462D01*
X161952638Y-49150433D01*
X161893922Y-49155028D01*
X161854464Y-49145046D01*
X161815338Y-49114228D01*
X161801215Y-49100363D01*
X161739385Y-49038533D01*
X161739385Y-48383503D01*
X161789150Y-48360829D01*
X161832002Y-48344034D01*
X161857073Y-48338154D01*
X161863501Y-48356736D01*
X161869509Y-48408655D01*
X161874697Y-48488172D01*
X161878664Y-48589546D01*
X161880577Y-48675192D01*
X161885923Y-49012231D01*
X161932560Y-49018825D01*
X161974976Y-49014214D01*
X161995760Y-48999287D01*
X162001570Y-48971377D01*
X162006530Y-48911925D01*
X162010246Y-48828466D01*
X162012324Y-48728532D01*
X162012624Y-48677104D01*
X162012923Y-48381054D01*
X162074454Y-48359604D01*
X162118004Y-48345020D01*
X162141694Y-48338219D01*
X162142377Y-48338154D01*
X162144754Y-48356642D01*
X162147366Y-48407906D01*
X162149995Y-48485649D01*
X162152421Y-48583574D01*
X162154115Y-48675192D01*
X162159461Y-49012231D01*
X162276692Y-49012231D01*
X162282072Y-48704746D01*
X162287451Y-48397261D01*
X162344601Y-48367707D01*
X162386797Y-48347413D01*
X162411770Y-48338204D01*
X162412491Y-48338154D01*
X162415929Y-48356662D01*
G36*
X163590807Y-48356782D02*
G01*
X163614161Y-48366988D01*
X163669902Y-48411134D01*
X163717569Y-48474967D01*
X163747048Y-48543087D01*
X163751846Y-48576670D01*
X163735760Y-48623556D01*
X163700475Y-48648365D01*
X163662644Y-48663387D01*
X163645321Y-48666155D01*
X163636886Y-48646066D01*
X163620230Y-48602351D01*
X163612923Y-48582598D01*
X163571948Y-48514271D01*
X163512622Y-48480191D01*
X163436552Y-48481239D01*
X163430918Y-48482581D01*
X163390305Y-48501836D01*
X163360448Y-48539375D01*
X163340055Y-48599809D01*
X163327836Y-48687751D01*
X163322500Y-48807813D01*
X163322000Y-48871698D01*
X163321752Y-48972403D01*
X163320126Y-49041054D01*
X163315801Y-49084673D01*
X163307454Y-49110282D01*
X163293765Y-49124903D01*
X163273411Y-49135558D01*
X163272234Y-49136095D01*
X163233038Y-49152667D01*
X163213619Y-49158769D01*
X163210635Y-49140319D01*
X163208081Y-49089323D01*
X163206140Y-49012308D01*
X163204997Y-48915805D01*
X163204769Y-48845184D01*
X163205932Y-48708525D01*
X163210479Y-48604851D01*
X163219999Y-48528108D01*
X163236081Y-48472246D01*
X163260313Y-48431212D01*
X163294286Y-48398954D01*
X163327833Y-48376440D01*
X163408499Y-48346476D01*
X163502381Y-48339718D01*
X163590807Y-48356782D01*
G37*
X163590807Y-48356782D02*
X163614161Y-48366988D01*
X163669902Y-48411134D01*
X163717569Y-48474967D01*
X163747048Y-48543087D01*
X163751846Y-48576670D01*
X163735760Y-48623556D01*
X163700475Y-48648365D01*
X163662644Y-48663387D01*
X163645321Y-48666155D01*
X163636886Y-48646066D01*
X163620230Y-48602351D01*
X163612923Y-48582598D01*
X163571948Y-48514271D01*
X163512622Y-48480191D01*
X163436552Y-48481239D01*
X163430918Y-48482581D01*
X163390305Y-48501836D01*
X163360448Y-48539375D01*
X163340055Y-48599809D01*
X163327836Y-48687751D01*
X163322500Y-48807813D01*
X163322000Y-48871698D01*
X163321752Y-48972403D01*
X163320126Y-49041054D01*
X163315801Y-49084673D01*
X163307454Y-49110282D01*
X163293765Y-49124903D01*
X163273411Y-49135558D01*
X163272234Y-49136095D01*
X163233038Y-49152667D01*
X163213619Y-49158769D01*
X163210635Y-49140319D01*
X163208081Y-49089323D01*
X163206140Y-49012308D01*
X163204997Y-48915805D01*
X163204769Y-48845184D01*
X163205932Y-48708525D01*
X163210479Y-48604851D01*
X163219999Y-48528108D01*
X163236081Y-48472246D01*
X163260313Y-48431212D01*
X163294286Y-48398954D01*
X163327833Y-48376440D01*
X163408499Y-48346476D01*
X163502381Y-48339718D01*
X163590807Y-48356782D01*
G36*
X157154778Y-48461055D02*
G01*
X157200421Y-48395215D01*
X157282802Y-48328681D01*
X157373546Y-48295676D01*
X157466185Y-48293573D01*
X157554254Y-48319745D01*
X157631286Y-48371567D01*
X157690816Y-48446412D01*
X157726378Y-48541654D01*
X157733571Y-48611756D01*
X157732754Y-48641009D01*
X157725914Y-48663407D01*
X157707112Y-48683474D01*
X157670408Y-48705733D01*
X157609862Y-48734709D01*
X157519534Y-48774927D01*
X157519077Y-48775129D01*
X157435933Y-48813210D01*
X157367753Y-48847025D01*
X157321505Y-48872933D01*
X157304158Y-48887295D01*
X157304154Y-48887411D01*
X157319443Y-48918685D01*
X157355196Y-48953157D01*
X157396242Y-48977990D01*
X157417037Y-48982923D01*
X157473770Y-48965862D01*
X157522627Y-48923133D01*
X157546465Y-48876155D01*
X157569397Y-48841522D01*
X157614318Y-48802081D01*
X157667123Y-48768009D01*
X157713710Y-48749480D01*
X157723452Y-48748462D01*
X157734418Y-48765215D01*
X157735079Y-48808039D01*
X157727020Y-48865781D01*
X157711827Y-48927289D01*
X157691086Y-48981409D01*
X157690038Y-48983510D01*
X157627621Y-49070660D01*
X157546726Y-49129939D01*
X157454856Y-49159034D01*
X157359513Y-49155634D01*
X157268198Y-49117428D01*
X157264138Y-49114741D01*
X157192306Y-49049642D01*
X157145073Y-48964705D01*
X157118934Y-48853021D01*
X157115426Y-48821643D01*
X157109213Y-48673536D01*
X157116661Y-48604468D01*
X157304154Y-48604468D01*
X157306590Y-48647552D01*
X157319914Y-48660126D01*
X157353132Y-48650719D01*
X157405494Y-48628483D01*
X157464024Y-48600610D01*
X157465479Y-48599872D01*
X157515089Y-48573777D01*
X157535000Y-48556363D01*
X157530090Y-48538107D01*
X157509416Y-48514120D01*
X157456819Y-48479406D01*
X157400177Y-48476856D01*
X157349369Y-48502119D01*
X157314276Y-48550847D01*
X157304154Y-48604468D01*
X157116661Y-48604468D01*
X157121992Y-48555036D01*
X157154778Y-48461055D01*
G37*
X157154778Y-48461055D02*
X157200421Y-48395215D01*
X157282802Y-48328681D01*
X157373546Y-48295676D01*
X157466185Y-48293573D01*
X157554254Y-48319745D01*
X157631286Y-48371567D01*
X157690816Y-48446412D01*
X157726378Y-48541654D01*
X157733571Y-48611756D01*
X157732754Y-48641009D01*
X157725914Y-48663407D01*
X157707112Y-48683474D01*
X157670408Y-48705733D01*
X157609862Y-48734709D01*
X157519534Y-48774927D01*
X157519077Y-48775129D01*
X157435933Y-48813210D01*
X157367753Y-48847025D01*
X157321505Y-48872933D01*
X157304158Y-48887295D01*
X157304154Y-48887411D01*
X157319443Y-48918685D01*
X157355196Y-48953157D01*
X157396242Y-48977990D01*
X157417037Y-48982923D01*
X157473770Y-48965862D01*
X157522627Y-48923133D01*
X157546465Y-48876155D01*
X157569397Y-48841522D01*
X157614318Y-48802081D01*
X157667123Y-48768009D01*
X157713710Y-48749480D01*
X157723452Y-48748462D01*
X157734418Y-48765215D01*
X157735079Y-48808039D01*
X157727020Y-48865781D01*
X157711827Y-48927289D01*
X157691086Y-48981409D01*
X157690038Y-48983510D01*
X157627621Y-49070660D01*
X157546726Y-49129939D01*
X157454856Y-49159034D01*
X157359513Y-49155634D01*
X157268198Y-49117428D01*
X157264138Y-49114741D01*
X157192306Y-49049642D01*
X157145073Y-48964705D01*
X157118934Y-48853021D01*
X157115426Y-48821643D01*
X157109213Y-48673536D01*
X157116661Y-48604468D01*
X157304154Y-48604468D01*
X157306590Y-48647552D01*
X157319914Y-48660126D01*
X157353132Y-48650719D01*
X157405494Y-48628483D01*
X157464024Y-48600610D01*
X157465479Y-48599872D01*
X157515089Y-48573777D01*
X157535000Y-48556363D01*
X157530090Y-48538107D01*
X157509416Y-48514120D01*
X157456819Y-48479406D01*
X157400177Y-48476856D01*
X157349369Y-48502119D01*
X157314276Y-48550847D01*
X157304154Y-48604468D01*
X157116661Y-48604468D01*
X157121992Y-48555036D01*
X157154778Y-48461055D01*
G36*
X161076362Y-48533577D02*
G01*
X161106528Y-48464269D01*
X161153629Y-48410211D01*
X161190312Y-48382505D01*
X161256990Y-48352572D01*
X161334272Y-48338678D01*
X161406110Y-48342397D01*
X161446308Y-48357400D01*
X161462082Y-48361670D01*
X161472550Y-48345750D01*
X161479856Y-48303089D01*
X161485385Y-48238106D01*
X161491437Y-48165732D01*
X161499844Y-48122187D01*
X161515141Y-48097287D01*
X161541864Y-48080845D01*
X161558654Y-48073564D01*
X161622154Y-48046963D01*
X161622081Y-48500289D01*
X161621833Y-48646320D01*
X161620872Y-48758655D01*
X161618794Y-48842678D01*
X161615193Y-48903769D01*
X161609665Y-48947309D01*
X161601804Y-48978679D01*
X161591207Y-49003262D01*
X161583182Y-49017294D01*
X161516728Y-49093388D01*
X161432470Y-49141084D01*
X161339249Y-49158199D01*
X161245900Y-49142546D01*
X161190312Y-49114418D01*
X161131957Y-49065760D01*
X161092186Y-49006333D01*
X161068190Y-48928507D01*
X161057161Y-48824652D01*
X161055599Y-48748462D01*
X161055809Y-48742986D01*
X161192308Y-48742986D01*
X161193141Y-48830355D01*
X161196961Y-48888192D01*
X161205746Y-48926029D01*
X161221474Y-48953398D01*
X161240266Y-48974042D01*
X161303375Y-49013890D01*
X161371137Y-49017295D01*
X161435179Y-48984025D01*
X161440164Y-48979517D01*
X161461439Y-48956067D01*
X161474779Y-48928166D01*
X161482001Y-48886641D01*
X161484923Y-48822316D01*
X161485385Y-48751200D01*
X161484383Y-48661858D01*
X161480238Y-48602258D01*
X161471236Y-48563089D01*
X161455667Y-48535040D01*
X161442902Y-48520144D01*
X161383600Y-48482575D01*
X161315301Y-48478057D01*
X161250110Y-48506753D01*
X161237528Y-48517406D01*
X161216111Y-48541063D01*
X161202744Y-48569251D01*
X161195566Y-48611245D01*
X161192719Y-48676319D01*
X161192308Y-48742986D01*
X161055809Y-48742986D01*
X161060322Y-48625765D01*
X161076362Y-48533577D01*
G37*
X161076362Y-48533577D02*
X161106528Y-48464269D01*
X161153629Y-48410211D01*
X161190312Y-48382505D01*
X161256990Y-48352572D01*
X161334272Y-48338678D01*
X161406110Y-48342397D01*
X161446308Y-48357400D01*
X161462082Y-48361670D01*
X161472550Y-48345750D01*
X161479856Y-48303089D01*
X161485385Y-48238106D01*
X161491437Y-48165732D01*
X161499844Y-48122187D01*
X161515141Y-48097287D01*
X161541864Y-48080845D01*
X161558654Y-48073564D01*
X161622154Y-48046963D01*
X161622081Y-48500289D01*
X161621833Y-48646320D01*
X161620872Y-48758655D01*
X161618794Y-48842678D01*
X161615193Y-48903769D01*
X161609665Y-48947309D01*
X161601804Y-48978679D01*
X161591207Y-49003262D01*
X161583182Y-49017294D01*
X161516728Y-49093388D01*
X161432470Y-49141084D01*
X161339249Y-49158199D01*
X161245900Y-49142546D01*
X161190312Y-49114418D01*
X161131957Y-49065760D01*
X161092186Y-49006333D01*
X161068190Y-48928507D01*
X161057161Y-48824652D01*
X161055599Y-48748462D01*
X161055809Y-48742986D01*
X161192308Y-48742986D01*
X161193141Y-48830355D01*
X161196961Y-48888192D01*
X161205746Y-48926029D01*
X161221474Y-48953398D01*
X161240266Y-48974042D01*
X161303375Y-49013890D01*
X161371137Y-49017295D01*
X161435179Y-48984025D01*
X161440164Y-48979517D01*
X161461439Y-48956067D01*
X161474779Y-48928166D01*
X161482001Y-48886641D01*
X161484923Y-48822316D01*
X161485385Y-48751200D01*
X161484383Y-48661858D01*
X161480238Y-48602258D01*
X161471236Y-48563089D01*
X161455667Y-48535040D01*
X161442902Y-48520144D01*
X161383600Y-48482575D01*
X161315301Y-48478057D01*
X161250110Y-48506753D01*
X161237528Y-48517406D01*
X161216111Y-48541063D01*
X161202744Y-48569251D01*
X161195566Y-48611245D01*
X161192719Y-48676319D01*
X161192308Y-48742986D01*
X161055809Y-48742986D01*
X161060322Y-48625765D01*
X161076362Y-48533577D01*
G36*
X160733362Y-48344670D02*
G01*
X160822117Y-48377421D01*
X160894022Y-48435350D01*
X160922144Y-48476128D01*
X160952802Y-48550954D01*
X160952165Y-48605058D01*
X160919987Y-48641446D01*
X160908081Y-48647633D01*
X160856675Y-48666925D01*
X160830422Y-48661982D01*
X160821530Y-48629587D01*
X160821077Y-48611692D01*
X160804797Y-48545859D01*
X160762365Y-48499807D01*
X160703388Y-48477564D01*
X160637475Y-48483161D01*
X160583895Y-48512229D01*
X160565798Y-48528810D01*
X160552971Y-48548925D01*
X160544306Y-48579332D01*
X160538696Y-48626788D01*
X160535035Y-48698050D01*
X160532215Y-48799875D01*
X160531484Y-48832115D01*
X160528820Y-48942410D01*
X160525792Y-49020036D01*
X160521250Y-49071396D01*
X160514046Y-49102890D01*
X160503033Y-49120920D01*
X160487060Y-49131888D01*
X160476834Y-49136733D01*
X160433406Y-49153301D01*
X160407842Y-49158769D01*
X160399395Y-49140507D01*
X160394239Y-49085296D01*
X160392346Y-48992499D01*
X160393689Y-48861478D01*
X160394107Y-48841269D01*
X160397058Y-48721733D01*
X160400548Y-48634449D01*
X160405514Y-48572591D01*
X160412893Y-48529336D01*
X160423624Y-48497860D01*
X160438645Y-48471339D01*
X160446502Y-48459975D01*
X160491553Y-48409692D01*
X160541940Y-48370581D01*
X160548108Y-48367167D01*
X160638458Y-48340212D01*
X160733362Y-48344670D01*
G37*
X160733362Y-48344670D02*
X160822117Y-48377421D01*
X160894022Y-48435350D01*
X160922144Y-48476128D01*
X160952802Y-48550954D01*
X160952165Y-48605058D01*
X160919987Y-48641446D01*
X160908081Y-48647633D01*
X160856675Y-48666925D01*
X160830422Y-48661982D01*
X160821530Y-48629587D01*
X160821077Y-48611692D01*
X160804797Y-48545859D01*
X160762365Y-48499807D01*
X160703388Y-48477564D01*
X160637475Y-48483161D01*
X160583895Y-48512229D01*
X160565798Y-48528810D01*
X160552971Y-48548925D01*
X160544306Y-48579332D01*
X160538696Y-48626788D01*
X160535035Y-48698050D01*
X160532215Y-48799875D01*
X160531484Y-48832115D01*
X160528820Y-48942410D01*
X160525792Y-49020036D01*
X160521250Y-49071396D01*
X160514046Y-49102890D01*
X160503033Y-49120920D01*
X160487060Y-49131888D01*
X160476834Y-49136733D01*
X160433406Y-49153301D01*
X160407842Y-49158769D01*
X160399395Y-49140507D01*
X160394239Y-49085296D01*
X160392346Y-48992499D01*
X160393689Y-48861478D01*
X160394107Y-48841269D01*
X160397058Y-48721733D01*
X160400548Y-48634449D01*
X160405514Y-48572591D01*
X160412893Y-48529336D01*
X160423624Y-48497860D01*
X160438645Y-48471339D01*
X160446502Y-48459975D01*
X160491553Y-48409692D01*
X160541940Y-48370581D01*
X160548108Y-48367167D01*
X160638458Y-48340212D01*
X160733362Y-48344670D01*
G36*
X162907333Y-48353528D02*
G01*
X162963590Y-48379117D01*
X163007747Y-48410124D01*
X163040101Y-48444795D01*
X163062438Y-48489520D01*
X163076546Y-48550692D01*
X163084211Y-48634701D01*
X163087220Y-48747940D01*
X163087538Y-48822509D01*
X163087538Y-49113420D01*
X163037773Y-49136095D01*
X162998576Y-49152667D01*
X162979157Y-49158769D01*
X162975442Y-49140610D01*
X162972495Y-49091648D01*
X162970691Y-49020153D01*
X162970308Y-48963385D01*
X162968661Y-48881371D01*
X162964222Y-48816309D01*
X162957740Y-48776467D01*
X162952590Y-48768000D01*
X162917977Y-48776646D01*
X162863640Y-48798823D01*
X162800722Y-48828886D01*
X162740368Y-48861192D01*
X162693721Y-48890098D01*
X162671926Y-48909961D01*
X162671839Y-48910175D01*
X162673714Y-48946935D01*
X162690525Y-48982026D01*
X162720039Y-49010528D01*
X162763116Y-49020061D01*
X162799932Y-49018950D01*
X162852074Y-49018133D01*
X162879444Y-49030349D01*
X162895882Y-49062624D01*
X162897955Y-49068710D01*
X162905081Y-49114739D01*
X162886024Y-49142687D01*
X162836353Y-49156007D01*
X162782697Y-49158470D01*
X162686142Y-49140210D01*
X162636159Y-49114131D01*
X162574429Y-49052868D01*
X162541690Y-48977670D01*
X162538753Y-48898211D01*
X162566424Y-48824167D01*
X162608047Y-48777769D01*
X162649604Y-48751793D01*
X162714922Y-48718907D01*
X162791038Y-48685557D01*
X162803726Y-48680461D01*
X162887333Y-48643565D01*
X162935530Y-48611046D01*
X162951030Y-48578718D01*
X162936550Y-48542394D01*
X162911692Y-48514000D01*
X162852939Y-48479039D01*
X162788293Y-48476417D01*
X162729008Y-48503358D01*
X162686339Y-48557088D01*
X162680739Y-48570950D01*
X162648133Y-48621936D01*
X162600530Y-48659787D01*
X162540461Y-48690850D01*
X162540461Y-48602768D01*
X162543997Y-48548951D01*
X162559156Y-48506534D01*
X162592768Y-48461279D01*
X162625035Y-48426420D01*
X162675209Y-48377062D01*
X162714193Y-48350547D01*
X162756064Y-48339911D01*
X162803460Y-48338154D01*
X162907333Y-48353528D01*
G37*
X162907333Y-48353528D02*
X162963590Y-48379117D01*
X163007747Y-48410124D01*
X163040101Y-48444795D01*
X163062438Y-48489520D01*
X163076546Y-48550692D01*
X163084211Y-48634701D01*
X163087220Y-48747940D01*
X163087538Y-48822509D01*
X163087538Y-49113420D01*
X163037773Y-49136095D01*
X162998576Y-49152667D01*
X162979157Y-49158769D01*
X162975442Y-49140610D01*
X162972495Y-49091648D01*
X162970691Y-49020153D01*
X162970308Y-48963385D01*
X162968661Y-48881371D01*
X162964222Y-48816309D01*
X162957740Y-48776467D01*
X162952590Y-48768000D01*
X162917977Y-48776646D01*
X162863640Y-48798823D01*
X162800722Y-48828886D01*
X162740368Y-48861192D01*
X162693721Y-48890098D01*
X162671926Y-48909961D01*
X162671839Y-48910175D01*
X162673714Y-48946935D01*
X162690525Y-48982026D01*
X162720039Y-49010528D01*
X162763116Y-49020061D01*
X162799932Y-49018950D01*
X162852074Y-49018133D01*
X162879444Y-49030349D01*
X162895882Y-49062624D01*
X162897955Y-49068710D01*
X162905081Y-49114739D01*
X162886024Y-49142687D01*
X162836353Y-49156007D01*
X162782697Y-49158470D01*
X162686142Y-49140210D01*
X162636159Y-49114131D01*
X162574429Y-49052868D01*
X162541690Y-48977670D01*
X162538753Y-48898211D01*
X162566424Y-48824167D01*
X162608047Y-48777769D01*
X162649604Y-48751793D01*
X162714922Y-48718907D01*
X162791038Y-48685557D01*
X162803726Y-48680461D01*
X162887333Y-48643565D01*
X162935530Y-48611046D01*
X162951030Y-48578718D01*
X162936550Y-48542394D01*
X162911692Y-48514000D01*
X162852939Y-48479039D01*
X162788293Y-48476417D01*
X162729008Y-48503358D01*
X162686339Y-48557088D01*
X162680739Y-48570950D01*
X162648133Y-48621936D01*
X162600530Y-48659787D01*
X162540461Y-48690850D01*
X162540461Y-48602768D01*
X162543997Y-48548951D01*
X162559156Y-48506534D01*
X162592768Y-48461279D01*
X162625035Y-48426420D01*
X162675209Y-48377062D01*
X162714193Y-48350547D01*
X162756064Y-48339911D01*
X162803460Y-48338154D01*
X162907333Y-48353528D01*
G36*
X155627629Y-48557906D02*
G01*
X155634322Y-48509163D01*
X155645960Y-48473288D01*
X155663853Y-48441548D01*
X155667808Y-48435648D01*
X155734267Y-48356104D01*
X155806685Y-48309929D01*
X155894849Y-48291599D01*
X155924787Y-48290703D01*
X156036886Y-48307256D01*
X156128464Y-48355409D01*
X156196049Y-48432905D01*
X156220057Y-48482727D01*
X156238738Y-48557533D01*
X156248301Y-48652052D01*
X156249208Y-48755210D01*
X156241921Y-48855935D01*
X156226903Y-48943153D01*
X156204615Y-49005791D01*
X156197765Y-49016579D01*
X156116632Y-49097105D01*
X156020266Y-49145336D01*
X155915701Y-49159450D01*
X155809968Y-49137629D01*
X155780543Y-49124547D01*
X155723241Y-49084231D01*
X155672950Y-49030775D01*
X155668197Y-49023995D01*
X155648878Y-48991321D01*
X155636108Y-48956394D01*
X155628564Y-48910414D01*
X155624924Y-48844584D01*
X155623865Y-48750105D01*
X155623846Y-48728923D01*
X155623894Y-48722182D01*
X155819231Y-48722182D01*
X155820368Y-48811349D01*
X155824841Y-48870520D01*
X155834246Y-48908741D01*
X155850176Y-48935053D01*
X155858308Y-48943846D01*
X155905058Y-48977261D01*
X155950447Y-48975737D01*
X155996340Y-48946752D01*
X156023712Y-48915809D01*
X156039923Y-48870643D01*
X156049026Y-48799420D01*
X156049651Y-48791114D01*
X156051204Y-48662037D01*
X156034965Y-48566172D01*
X156001152Y-48504107D01*
X155949984Y-48476432D01*
X155931720Y-48474923D01*
X155883760Y-48482513D01*
X155850953Y-48508808D01*
X155830895Y-48559095D01*
X155821178Y-48638664D01*
X155819231Y-48722182D01*
X155623894Y-48722182D01*
X155624574Y-48628249D01*
X155627629Y-48557906D01*
G37*
X155627629Y-48557906D02*
X155634322Y-48509163D01*
X155645960Y-48473288D01*
X155663853Y-48441548D01*
X155667808Y-48435648D01*
X155734267Y-48356104D01*
X155806685Y-48309929D01*
X155894849Y-48291599D01*
X155924787Y-48290703D01*
X156036886Y-48307256D01*
X156128464Y-48355409D01*
X156196049Y-48432905D01*
X156220057Y-48482727D01*
X156238738Y-48557533D01*
X156248301Y-48652052D01*
X156249208Y-48755210D01*
X156241921Y-48855935D01*
X156226903Y-48943153D01*
X156204615Y-49005791D01*
X156197765Y-49016579D01*
X156116632Y-49097105D01*
X156020266Y-49145336D01*
X155915701Y-49159450D01*
X155809968Y-49137629D01*
X155780543Y-49124547D01*
X155723241Y-49084231D01*
X155672950Y-49030775D01*
X155668197Y-49023995D01*
X155648878Y-48991321D01*
X155636108Y-48956394D01*
X155628564Y-48910414D01*
X155624924Y-48844584D01*
X155623865Y-48750105D01*
X155623846Y-48728923D01*
X155623894Y-48722182D01*
X155819231Y-48722182D01*
X155820368Y-48811349D01*
X155824841Y-48870520D01*
X155834246Y-48908741D01*
X155850176Y-48935053D01*
X155858308Y-48943846D01*
X155905058Y-48977261D01*
X155950447Y-48975737D01*
X155996340Y-48946752D01*
X156023712Y-48915809D01*
X156039923Y-48870643D01*
X156049026Y-48799420D01*
X156049651Y-48791114D01*
X156051204Y-48662037D01*
X156034965Y-48566172D01*
X156001152Y-48504107D01*
X155949984Y-48476432D01*
X155931720Y-48474923D01*
X155883760Y-48482513D01*
X155850953Y-48508808D01*
X155830895Y-48559095D01*
X155821178Y-48638664D01*
X155819231Y-48722182D01*
X155623894Y-48722182D01*
X155624574Y-48628249D01*
X155627629Y-48557906D01*
G36*
X163881032Y-48540710D02*
G01*
X163899460Y-48475167D01*
X163929360Y-48426912D01*
X163973080Y-48388767D01*
X163992141Y-48376440D01*
X164078726Y-48344336D01*
X164173522Y-48342316D01*
X164265224Y-48367838D01*
X164342528Y-48418361D01*
X164379814Y-48463590D01*
X164409353Y-48545663D01*
X164411699Y-48610607D01*
X164406385Y-48697445D01*
X164206115Y-48785103D01*
X164108739Y-48829887D01*
X164045113Y-48865913D01*
X164012029Y-48897117D01*
X164006280Y-48927436D01*
X164024658Y-48960805D01*
X164044923Y-48982923D01*
X164103889Y-49018393D01*
X164168024Y-49020879D01*
X164226926Y-48993235D01*
X164270197Y-48938320D01*
X164277936Y-48918928D01*
X164315006Y-48858364D01*
X164357654Y-48832552D01*
X164416154Y-48810471D01*
X164416154Y-48894184D01*
X164410982Y-48951150D01*
X164390723Y-48999189D01*
X164348262Y-49054346D01*
X164341951Y-49061514D01*
X164294720Y-49110585D01*
X164254121Y-49136920D01*
X164203328Y-49149035D01*
X164161220Y-49153003D01*
X164085902Y-49153991D01*
X164032286Y-49141466D01*
X163998838Y-49122869D01*
X163946268Y-49081975D01*
X163909879Y-49037748D01*
X163886850Y-48982126D01*
X163874359Y-48907047D01*
X163869587Y-48804449D01*
X163869206Y-48752376D01*
X163870501Y-48689948D01*
X163988471Y-48689948D01*
X163989839Y-48723438D01*
X163993249Y-48728923D01*
X164015753Y-48721472D01*
X164064182Y-48701753D01*
X164128908Y-48673718D01*
X164142443Y-48667692D01*
X164224244Y-48626096D01*
X164269312Y-48589538D01*
X164279217Y-48555296D01*
X164255526Y-48520648D01*
X164235960Y-48505339D01*
X164165360Y-48474721D01*
X164099280Y-48479780D01*
X164043959Y-48517151D01*
X164005636Y-48583473D01*
X163993349Y-48636116D01*
X163988471Y-48689948D01*
X163870501Y-48689948D01*
X163871730Y-48630720D01*
X163881032Y-48540710D01*
G37*
X163881032Y-48540710D02*
X163899460Y-48475167D01*
X163929360Y-48426912D01*
X163973080Y-48388767D01*
X163992141Y-48376440D01*
X164078726Y-48344336D01*
X164173522Y-48342316D01*
X164265224Y-48367838D01*
X164342528Y-48418361D01*
X164379814Y-48463590D01*
X164409353Y-48545663D01*
X164411699Y-48610607D01*
X164406385Y-48697445D01*
X164206115Y-48785103D01*
X164108739Y-48829887D01*
X164045113Y-48865913D01*
X164012029Y-48897117D01*
X164006280Y-48927436D01*
X164024658Y-48960805D01*
X164044923Y-48982923D01*
X164103889Y-49018393D01*
X164168024Y-49020879D01*
X164226926Y-48993235D01*
X164270197Y-48938320D01*
X164277936Y-48918928D01*
X164315006Y-48858364D01*
X164357654Y-48832552D01*
X164416154Y-48810471D01*
X164416154Y-48894184D01*
X164410982Y-48951150D01*
X164390723Y-48999189D01*
X164348262Y-49054346D01*
X164341951Y-49061514D01*
X164294720Y-49110585D01*
X164254121Y-49136920D01*
X164203328Y-49149035D01*
X164161220Y-49153003D01*
X164085902Y-49153991D01*
X164032286Y-49141466D01*
X163998838Y-49122869D01*
X163946268Y-49081975D01*
X163909879Y-49037748D01*
X163886850Y-48982126D01*
X163874359Y-48907047D01*
X163869587Y-48804449D01*
X163869206Y-48752376D01*
X163870501Y-48689948D01*
X163988471Y-48689948D01*
X163989839Y-48723438D01*
X163993249Y-48728923D01*
X164015753Y-48721472D01*
X164064182Y-48701753D01*
X164128908Y-48673718D01*
X164142443Y-48667692D01*
X164224244Y-48626096D01*
X164269312Y-48589538D01*
X164279217Y-48555296D01*
X164255526Y-48520648D01*
X164235960Y-48505339D01*
X164165360Y-48474721D01*
X164099280Y-48479780D01*
X164043959Y-48517151D01*
X164005636Y-48583473D01*
X163993349Y-48636116D01*
X163988471Y-48689948D01*
X163870501Y-48689948D01*
X163871730Y-48630720D01*
X163881032Y-48540710D01*
G36*
X160159878Y-42007776D02*
G01*
X160265612Y-42008355D01*
X160342132Y-42009922D01*
X160394372Y-42012972D01*
X160427263Y-42017996D01*
X160445737Y-42025489D01*
X160454727Y-42035944D01*
X160459163Y-42049853D01*
X160459594Y-42051654D01*
X160466333Y-42084145D01*
X160478808Y-42148252D01*
X160495719Y-42237151D01*
X160515771Y-42344019D01*
X160537664Y-42462033D01*
X160538429Y-42466178D01*
X160560359Y-42581831D01*
X160580877Y-42684014D01*
X160598659Y-42766598D01*
X160612381Y-42823456D01*
X160620718Y-42848458D01*
X160621116Y-42848901D01*
X160645677Y-42861110D01*
X160696315Y-42881456D01*
X160762095Y-42905545D01*
X160762461Y-42905674D01*
X160845317Y-42936818D01*
X160943000Y-42976491D01*
X161035077Y-43016381D01*
X161039434Y-43018353D01*
X161189407Y-43086420D01*
X161521498Y-42859639D01*
X161623374Y-42790504D01*
X161715657Y-42728697D01*
X161793003Y-42677733D01*
X161850064Y-42641127D01*
X161881495Y-42622394D01*
X161884479Y-42621004D01*
X161907321Y-42627190D01*
X161949982Y-42657035D01*
X162014128Y-42711947D01*
X162101421Y-42793334D01*
X162190535Y-42879922D01*
X162276441Y-42965247D01*
X162353327Y-43043108D01*
X162416564Y-43108697D01*
X162461523Y-43157205D01*
X162483576Y-43183825D01*
X162484396Y-43185195D01*
X162486834Y-43203463D01*
X162477650Y-43233295D01*
X162454574Y-43278721D01*
X162415337Y-43343770D01*
X162357670Y-43432470D01*
X162280795Y-43546657D01*
X162212570Y-43647162D01*
X162151582Y-43737303D01*
X162101356Y-43811849D01*
X162065416Y-43865565D01*
X162047287Y-43893218D01*
X162046146Y-43895095D01*
X162048359Y-43921590D01*
X162065138Y-43973086D01*
X162093142Y-44039851D01*
X162103122Y-44061172D01*
X162146672Y-44156159D01*
X162193134Y-44263937D01*
X162230877Y-44357192D01*
X162258073Y-44426406D01*
X162279675Y-44479006D01*
X162292158Y-44506497D01*
X162293709Y-44508616D01*
X162316668Y-44512124D01*
X162370786Y-44521738D01*
X162448868Y-44536089D01*
X162543719Y-44553807D01*
X162648143Y-44573525D01*
X162754944Y-44593874D01*
X162856926Y-44613486D01*
X162946894Y-44630991D01*
X163017653Y-44645022D01*
X163062006Y-44654209D01*
X163072885Y-44656807D01*
X163084122Y-44663218D01*
X163092605Y-44677697D01*
X163098714Y-44705133D01*
X163102832Y-44750411D01*
X163105341Y-44818420D01*
X163106621Y-44914047D01*
X163107054Y-45042180D01*
X163107077Y-45094701D01*
X163107077Y-45521845D01*
X163004500Y-45542091D01*
X162947431Y-45553070D01*
X162862269Y-45569095D01*
X162759372Y-45588233D01*
X162649096Y-45608551D01*
X162618615Y-45614132D01*
X162516855Y-45633917D01*
X162428205Y-45653373D01*
X162360108Y-45670697D01*
X162320004Y-45684088D01*
X162313323Y-45688079D01*
X162296919Y-45716342D01*
X162273399Y-45771109D01*
X162247316Y-45841588D01*
X162242142Y-45856769D01*
X162207956Y-45950896D01*
X162165523Y-46057101D01*
X162123997Y-46152473D01*
X162123792Y-46152916D01*
X162054640Y-46302525D01*
X162509512Y-46971617D01*
X162217500Y-47264116D01*
X162129180Y-47351170D01*
X162048625Y-47427909D01*
X161980360Y-47490237D01*
X161928908Y-47534056D01*
X161898794Y-47555270D01*
X161894474Y-47556616D01*
X161869111Y-47546016D01*
X161817358Y-47516547D01*
X161744868Y-47471705D01*
X161657294Y-47414984D01*
X161562612Y-47351462D01*
X161466516Y-47286668D01*
X161380837Y-47230287D01*
X161311016Y-47185788D01*
X161262494Y-47156639D01*
X161240782Y-47146308D01*
X161214293Y-47155050D01*
X161164062Y-47178087D01*
X161100451Y-47210631D01*
X161093708Y-47214249D01*
X161008046Y-47257210D01*
X160949306Y-47278279D01*
X160912772Y-47278503D01*
X160893731Y-47258928D01*
X160893620Y-47258654D01*
X160884102Y-47235472D01*
X160861403Y-47180441D01*
X160827282Y-47097822D01*
X160783500Y-46991872D01*
X160731816Y-46866852D01*
X160673992Y-46727020D01*
X160617991Y-46591637D01*
X160556447Y-46442234D01*
X160499939Y-46303832D01*
X160450161Y-46180673D01*
X160408806Y-46077002D01*
X160377568Y-45997059D01*
X160358141Y-45945088D01*
X160352154Y-45925692D01*
X160367168Y-45903443D01*
X160406439Y-45867982D01*
X160458807Y-45828887D01*
X160607941Y-45705245D01*
X160724511Y-45563522D01*
X160807118Y-45406704D01*
X160854366Y-45237775D01*
X160864857Y-45059722D01*
X160857231Y-44977539D01*
X160815682Y-44807031D01*
X160744123Y-44656459D01*
X160646995Y-44527309D01*
X160528734Y-44421064D01*
X160393780Y-44339210D01*
X160246571Y-44283232D01*
X160091544Y-44254615D01*
X159933139Y-44254844D01*
X159775794Y-44285405D01*
X159623946Y-44347782D01*
X159482035Y-44443460D01*
X159422803Y-44497572D01*
X159309203Y-44636520D01*
X159230106Y-44788361D01*
X159184986Y-44948667D01*
X159173316Y-45113012D01*
X159194569Y-45276971D01*
X159248220Y-45436118D01*
X159333740Y-45586025D01*
X159450605Y-45722267D01*
X159581193Y-45828887D01*
X159635588Y-45869642D01*
X159674014Y-45904718D01*
X159687846Y-45925726D01*
X159680603Y-45948635D01*
X159660005Y-46003365D01*
X159627746Y-46085672D01*
X159585521Y-46191315D01*
X159535023Y-46316050D01*
X159477948Y-46455636D01*
X159421854Y-46591670D01*
X159359967Y-46741201D01*
X159302644Y-46879767D01*
X159251644Y-47003107D01*
X159208727Y-47106964D01*
X159175653Y-47187080D01*
X159154181Y-47239195D01*
X159146225Y-47258654D01*
X159127429Y-47278423D01*
X159091074Y-47278365D01*
X159032479Y-47257441D01*
X158946968Y-47214613D01*
X158946292Y-47214249D01*
X158881907Y-47181012D01*
X158829861Y-47156802D01*
X158800512Y-47146404D01*
X158799217Y-47146308D01*
X158777124Y-47156855D01*
X158728348Y-47186184D01*
X158658331Y-47230827D01*
X158572514Y-47287314D01*
X158477388Y-47351462D01*
X158380540Y-47416411D01*
X158293253Y-47472896D01*
X158221181Y-47517421D01*
X158169977Y-47546490D01*
X158145526Y-47556616D01*
X158123010Y-47543307D01*
X158077742Y-47506112D01*
X158014244Y-47449128D01*
X157937039Y-47376449D01*
X157850651Y-47292171D01*
X157822399Y-47264016D01*
X157530287Y-46971416D01*
X157752631Y-46645104D01*
X157820202Y-46544897D01*
X157879507Y-46454963D01*
X157927217Y-46380510D01*
X157960007Y-46326751D01*
X157974548Y-46298894D01*
X157974974Y-46296912D01*
X157967308Y-46270655D01*
X157946689Y-46217837D01*
X157916685Y-46147310D01*
X157895625Y-46100093D01*
X157856248Y-46009694D01*
X157819165Y-45918366D01*
X157790415Y-45841200D01*
X157782605Y-45817692D01*
X157760417Y-45754916D01*
X157738727Y-45706411D01*
X157726813Y-45688079D01*
X157700523Y-45676859D01*
X157643142Y-45660954D01*
X157562118Y-45642167D01*
X157464895Y-45622299D01*
X157421385Y-45614132D01*
X157310896Y-45593829D01*
X157204916Y-45574170D01*
X157113801Y-45557088D01*
X157047908Y-45544518D01*
X157035500Y-45542091D01*
X156932923Y-45521845D01*
X156932923Y-45094701D01*
X156933153Y-44954246D01*
X156934099Y-44847979D01*
X156936141Y-44771013D01*
X156939662Y-44718460D01*
X156945043Y-44685433D01*
X156952666Y-44667045D01*
X156962912Y-44658408D01*
X156967115Y-44656807D01*
X156992470Y-44651127D01*
X157048484Y-44639795D01*
X157127964Y-44624179D01*
X157223712Y-44605647D01*
X157328533Y-44585569D01*
X157435232Y-44565312D01*
X157536613Y-44546246D01*
X157625479Y-44529739D01*
X157694637Y-44517159D01*
X157736889Y-44509875D01*
X157746290Y-44508616D01*
X157754807Y-44491763D01*
X157773660Y-44446870D01*
X157799324Y-44382430D01*
X157809123Y-44357192D01*
X157848648Y-44259686D01*
X157895192Y-44151959D01*
X157936877Y-44061172D01*
X157967550Y-43991753D01*
X157987956Y-43934710D01*
X157994768Y-43899777D01*
X157993682Y-43895095D01*
X157979285Y-43872991D01*
X157946412Y-43823831D01*
X157898590Y-43752848D01*
X157839348Y-43665278D01*
X157772215Y-43566357D01*
X157758941Y-43546830D01*
X157681046Y-43431140D01*
X157623787Y-43343044D01*
X157584881Y-43278486D01*
X157562044Y-43233411D01*
X157552994Y-43203763D01*
X157555448Y-43185485D01*
X157555511Y-43185369D01*
X157574827Y-43161361D01*
X157617551Y-43114947D01*
X157679051Y-43050937D01*
X157754698Y-42974145D01*
X157839861Y-42889382D01*
X157849465Y-42879922D01*
X157956790Y-42775989D01*
X158039615Y-42699675D01*
X158099605Y-42649571D01*
X158138423Y-42624270D01*
X158155520Y-42621004D01*
X158180473Y-42635250D01*
X158232255Y-42668156D01*
X158305520Y-42716208D01*
X158394920Y-42775890D01*
X158495111Y-42843688D01*
X158518501Y-42859639D01*
X158850593Y-43086420D01*
X159000565Y-43018353D01*
X159091770Y-42978685D01*
X159189669Y-42938791D01*
X159273831Y-42906983D01*
X159277538Y-42905674D01*
X159343369Y-42881576D01*
X159394116Y-42861200D01*
X159418842Y-42848936D01*
X159418884Y-42848901D01*
X159426729Y-42826734D01*
X159440066Y-42772217D01*
X159457570Y-42691480D01*
X159477917Y-42590650D01*
X159499782Y-42475856D01*
X159501571Y-42466178D01*
X159523504Y-42347904D01*
X159543640Y-42240542D01*
X159560680Y-42150917D01*
X159573328Y-42085851D01*
X159580284Y-42052168D01*
X159580406Y-42051654D01*
X159584639Y-42037325D01*
X159592871Y-42026507D01*
X159610033Y-42018706D01*
X159641058Y-42013429D01*
X159690878Y-42010182D01*
X159764424Y-42008472D01*
X159866629Y-42007807D01*
X160002425Y-42007693D01*
X160020000Y-42007692D01*
X160159878Y-42007776D01*
G37*
X160159878Y-42007776D02*
X160265612Y-42008355D01*
X160342132Y-42009922D01*
X160394372Y-42012972D01*
X160427263Y-42017996D01*
X160445737Y-42025489D01*
X160454727Y-42035944D01*
X160459163Y-42049853D01*
X160459594Y-42051654D01*
X160466333Y-42084145D01*
X160478808Y-42148252D01*
X160495719Y-42237151D01*
X160515771Y-42344019D01*
X160537664Y-42462033D01*
X160538429Y-42466178D01*
X160560359Y-42581831D01*
X160580877Y-42684014D01*
X160598659Y-42766598D01*
X160612381Y-42823456D01*
X160620718Y-42848458D01*
X160621116Y-42848901D01*
X160645677Y-42861110D01*
X160696315Y-42881456D01*
X160762095Y-42905545D01*
X160762461Y-42905674D01*
X160845317Y-42936818D01*
X160943000Y-42976491D01*
X161035077Y-43016381D01*
X161039434Y-43018353D01*
X161189407Y-43086420D01*
X161521498Y-42859639D01*
X161623374Y-42790504D01*
X161715657Y-42728697D01*
X161793003Y-42677733D01*
X161850064Y-42641127D01*
X161881495Y-42622394D01*
X161884479Y-42621004D01*
X161907321Y-42627190D01*
X161949982Y-42657035D01*
X162014128Y-42711947D01*
X162101421Y-42793334D01*
X162190535Y-42879922D01*
X162276441Y-42965247D01*
X162353327Y-43043108D01*
X162416564Y-43108697D01*
X162461523Y-43157205D01*
X162483576Y-43183825D01*
X162484396Y-43185195D01*
X162486834Y-43203463D01*
X162477650Y-43233295D01*
X162454574Y-43278721D01*
X162415337Y-43343770D01*
X162357670Y-43432470D01*
X162280795Y-43546657D01*
X162212570Y-43647162D01*
X162151582Y-43737303D01*
X162101356Y-43811849D01*
X162065416Y-43865565D01*
X162047287Y-43893218D01*
X162046146Y-43895095D01*
X162048359Y-43921590D01*
X162065138Y-43973086D01*
X162093142Y-44039851D01*
X162103122Y-44061172D01*
X162146672Y-44156159D01*
X162193134Y-44263937D01*
X162230877Y-44357192D01*
X162258073Y-44426406D01*
X162279675Y-44479006D01*
X162292158Y-44506497D01*
X162293709Y-44508616D01*
X162316668Y-44512124D01*
X162370786Y-44521738D01*
X162448868Y-44536089D01*
X162543719Y-44553807D01*
X162648143Y-44573525D01*
X162754944Y-44593874D01*
X162856926Y-44613486D01*
X162946894Y-44630991D01*
X163017653Y-44645022D01*
X163062006Y-44654209D01*
X163072885Y-44656807D01*
X163084122Y-44663218D01*
X163092605Y-44677697D01*
X163098714Y-44705133D01*
X163102832Y-44750411D01*
X163105341Y-44818420D01*
X163106621Y-44914047D01*
X163107054Y-45042180D01*
X163107077Y-45094701D01*
X163107077Y-45521845D01*
X163004500Y-45542091D01*
X162947431Y-45553070D01*
X162862269Y-45569095D01*
X162759372Y-45588233D01*
X162649096Y-45608551D01*
X162618615Y-45614132D01*
X162516855Y-45633917D01*
X162428205Y-45653373D01*
X162360108Y-45670697D01*
X162320004Y-45684088D01*
X162313323Y-45688079D01*
X162296919Y-45716342D01*
X162273399Y-45771109D01*
X162247316Y-45841588D01*
X162242142Y-45856769D01*
X162207956Y-45950896D01*
X162165523Y-46057101D01*
X162123997Y-46152473D01*
X162123792Y-46152916D01*
X162054640Y-46302525D01*
X162509512Y-46971617D01*
X162217500Y-47264116D01*
X162129180Y-47351170D01*
X162048625Y-47427909D01*
X161980360Y-47490237D01*
X161928908Y-47534056D01*
X161898794Y-47555270D01*
X161894474Y-47556616D01*
X161869111Y-47546016D01*
X161817358Y-47516547D01*
X161744868Y-47471705D01*
X161657294Y-47414984D01*
X161562612Y-47351462D01*
X161466516Y-47286668D01*
X161380837Y-47230287D01*
X161311016Y-47185788D01*
X161262494Y-47156639D01*
X161240782Y-47146308D01*
X161214293Y-47155050D01*
X161164062Y-47178087D01*
X161100451Y-47210631D01*
X161093708Y-47214249D01*
X161008046Y-47257210D01*
X160949306Y-47278279D01*
X160912772Y-47278503D01*
X160893731Y-47258928D01*
X160893620Y-47258654D01*
X160884102Y-47235472D01*
X160861403Y-47180441D01*
X160827282Y-47097822D01*
X160783500Y-46991872D01*
X160731816Y-46866852D01*
X160673992Y-46727020D01*
X160617991Y-46591637D01*
X160556447Y-46442234D01*
X160499939Y-46303832D01*
X160450161Y-46180673D01*
X160408806Y-46077002D01*
X160377568Y-45997059D01*
X160358141Y-45945088D01*
X160352154Y-45925692D01*
X160367168Y-45903443D01*
X160406439Y-45867982D01*
X160458807Y-45828887D01*
X160607941Y-45705245D01*
X160724511Y-45563522D01*
X160807118Y-45406704D01*
X160854366Y-45237775D01*
X160864857Y-45059722D01*
X160857231Y-44977539D01*
X160815682Y-44807031D01*
X160744123Y-44656459D01*
X160646995Y-44527309D01*
X160528734Y-44421064D01*
X160393780Y-44339210D01*
X160246571Y-44283232D01*
X160091544Y-44254615D01*
X159933139Y-44254844D01*
X159775794Y-44285405D01*
X159623946Y-44347782D01*
X159482035Y-44443460D01*
X159422803Y-44497572D01*
X159309203Y-44636520D01*
X159230106Y-44788361D01*
X159184986Y-44948667D01*
X159173316Y-45113012D01*
X159194569Y-45276971D01*
X159248220Y-45436118D01*
X159333740Y-45586025D01*
X159450605Y-45722267D01*
X159581193Y-45828887D01*
X159635588Y-45869642D01*
X159674014Y-45904718D01*
X159687846Y-45925726D01*
X159680603Y-45948635D01*
X159660005Y-46003365D01*
X159627746Y-46085672D01*
X159585521Y-46191315D01*
X159535023Y-46316050D01*
X159477948Y-46455636D01*
X159421854Y-46591670D01*
X159359967Y-46741201D01*
X159302644Y-46879767D01*
X159251644Y-47003107D01*
X159208727Y-47106964D01*
X159175653Y-47187080D01*
X159154181Y-47239195D01*
X159146225Y-47258654D01*
X159127429Y-47278423D01*
X159091074Y-47278365D01*
X159032479Y-47257441D01*
X158946968Y-47214613D01*
X158946292Y-47214249D01*
X158881907Y-47181012D01*
X158829861Y-47156802D01*
X158800512Y-47146404D01*
X158799217Y-47146308D01*
X158777124Y-47156855D01*
X158728348Y-47186184D01*
X158658331Y-47230827D01*
X158572514Y-47287314D01*
X158477388Y-47351462D01*
X158380540Y-47416411D01*
X158293253Y-47472896D01*
X158221181Y-47517421D01*
X158169977Y-47546490D01*
X158145526Y-47556616D01*
X158123010Y-47543307D01*
X158077742Y-47506112D01*
X158014244Y-47449128D01*
X157937039Y-47376449D01*
X157850651Y-47292171D01*
X157822399Y-47264016D01*
X157530287Y-46971416D01*
X157752631Y-46645104D01*
X157820202Y-46544897D01*
X157879507Y-46454963D01*
X157927217Y-46380510D01*
X157960007Y-46326751D01*
X157974548Y-46298894D01*
X157974974Y-46296912D01*
X157967308Y-46270655D01*
X157946689Y-46217837D01*
X157916685Y-46147310D01*
X157895625Y-46100093D01*
X157856248Y-46009694D01*
X157819165Y-45918366D01*
X157790415Y-45841200D01*
X157782605Y-45817692D01*
X157760417Y-45754916D01*
X157738727Y-45706411D01*
X157726813Y-45688079D01*
X157700523Y-45676859D01*
X157643142Y-45660954D01*
X157562118Y-45642167D01*
X157464895Y-45622299D01*
X157421385Y-45614132D01*
X157310896Y-45593829D01*
X157204916Y-45574170D01*
X157113801Y-45557088D01*
X157047908Y-45544518D01*
X157035500Y-45542091D01*
X156932923Y-45521845D01*
X156932923Y-45094701D01*
X156933153Y-44954246D01*
X156934099Y-44847979D01*
X156936141Y-44771013D01*
X156939662Y-44718460D01*
X156945043Y-44685433D01*
X156952666Y-44667045D01*
X156962912Y-44658408D01*
X156967115Y-44656807D01*
X156992470Y-44651127D01*
X157048484Y-44639795D01*
X157127964Y-44624179D01*
X157223712Y-44605647D01*
X157328533Y-44585569D01*
X157435232Y-44565312D01*
X157536613Y-44546246D01*
X157625479Y-44529739D01*
X157694637Y-44517159D01*
X157736889Y-44509875D01*
X157746290Y-44508616D01*
X157754807Y-44491763D01*
X157773660Y-44446870D01*
X157799324Y-44382430D01*
X157809123Y-44357192D01*
X157848648Y-44259686D01*
X157895192Y-44151959D01*
X157936877Y-44061172D01*
X157967550Y-43991753D01*
X157987956Y-43934710D01*
X157994768Y-43899777D01*
X157993682Y-43895095D01*
X157979285Y-43872991D01*
X157946412Y-43823831D01*
X157898590Y-43752848D01*
X157839348Y-43665278D01*
X157772215Y-43566357D01*
X157758941Y-43546830D01*
X157681046Y-43431140D01*
X157623787Y-43343044D01*
X157584881Y-43278486D01*
X157562044Y-43233411D01*
X157552994Y-43203763D01*
X157555448Y-43185485D01*
X157555511Y-43185369D01*
X157574827Y-43161361D01*
X157617551Y-43114947D01*
X157679051Y-43050937D01*
X157754698Y-42974145D01*
X157839861Y-42889382D01*
X157849465Y-42879922D01*
X157956790Y-42775989D01*
X158039615Y-42699675D01*
X158099605Y-42649571D01*
X158138423Y-42624270D01*
X158155520Y-42621004D01*
X158180473Y-42635250D01*
X158232255Y-42668156D01*
X158305520Y-42716208D01*
X158394920Y-42775890D01*
X158495111Y-42843688D01*
X158518501Y-42859639D01*
X158850593Y-43086420D01*
X159000565Y-43018353D01*
X159091770Y-42978685D01*
X159189669Y-42938791D01*
X159273831Y-42906983D01*
X159277538Y-42905674D01*
X159343369Y-42881576D01*
X159394116Y-42861200D01*
X159418842Y-42848936D01*
X159418884Y-42848901D01*
X159426729Y-42826734D01*
X159440066Y-42772217D01*
X159457570Y-42691480D01*
X159477917Y-42590650D01*
X159499782Y-42475856D01*
X159501571Y-42466178D01*
X159523504Y-42347904D01*
X159543640Y-42240542D01*
X159560680Y-42150917D01*
X159573328Y-42085851D01*
X159580284Y-42052168D01*
X159580406Y-42051654D01*
X159584639Y-42037325D01*
X159592871Y-42026507D01*
X159610033Y-42018706D01*
X159641058Y-42013429D01*
X159690878Y-42010182D01*
X159764424Y-42008472D01*
X159866629Y-42007807D01*
X160002425Y-42007693D01*
X160020000Y-42007692D01*
X160159878Y-42007776D01*
G36*
X158291664Y-48315089D02*
G01*
X158354367Y-48351358D01*
X158397961Y-48387358D01*
X158429845Y-48425075D01*
X158451810Y-48471199D01*
X158465649Y-48532421D01*
X158473153Y-48615431D01*
X158476117Y-48726919D01*
X158476461Y-48807062D01*
X158476461Y-49102065D01*
X158310385Y-49176515D01*
X158300615Y-48853402D01*
X158296579Y-48732729D01*
X158292344Y-48645141D01*
X158287097Y-48584650D01*
X158280025Y-48545268D01*
X158270311Y-48521007D01*
X158257144Y-48505880D01*
X158252919Y-48502606D01*
X158188909Y-48477034D01*
X158124208Y-48487153D01*
X158085692Y-48514000D01*
X158070025Y-48533024D01*
X158059180Y-48557988D01*
X158052288Y-48595834D01*
X158048479Y-48653502D01*
X158046883Y-48737935D01*
X158046615Y-48825928D01*
X158046563Y-48936323D01*
X158044672Y-49014463D01*
X158038345Y-49067165D01*
X158024983Y-49101242D01*
X158001985Y-49123511D01*
X157966754Y-49140787D01*
X157919697Y-49158738D01*
X157868303Y-49178278D01*
X157874421Y-48831485D01*
X157876884Y-48706468D01*
X157879767Y-48614082D01*
X157883898Y-48547881D01*
X157890107Y-48501420D01*
X157899226Y-48468256D01*
X157912083Y-48441944D01*
X157927584Y-48418729D01*
X158002371Y-48344569D01*
X158093628Y-48301684D01*
X158192883Y-48291412D01*
X158291664Y-48315089D01*
G37*
X158291664Y-48315089D02*
X158354367Y-48351358D01*
X158397961Y-48387358D01*
X158429845Y-48425075D01*
X158451810Y-48471199D01*
X158465649Y-48532421D01*
X158473153Y-48615431D01*
X158476117Y-48726919D01*
X158476461Y-48807062D01*
X158476461Y-49102065D01*
X158310385Y-49176515D01*
X158300615Y-48853402D01*
X158296579Y-48732729D01*
X158292344Y-48645141D01*
X158287097Y-48584650D01*
X158280025Y-48545268D01*
X158270311Y-48521007D01*
X158257144Y-48505880D01*
X158252919Y-48502606D01*
X158188909Y-48477034D01*
X158124208Y-48487153D01*
X158085692Y-48514000D01*
X158070025Y-48533024D01*
X158059180Y-48557988D01*
X158052288Y-48595834D01*
X158048479Y-48653502D01*
X158046883Y-48737935D01*
X158046615Y-48825928D01*
X158046563Y-48936323D01*
X158044672Y-49014463D01*
X158038345Y-49067165D01*
X158024983Y-49101242D01*
X158001985Y-49123511D01*
X157966754Y-49140787D01*
X157919697Y-49158738D01*
X157868303Y-49178278D01*
X157874421Y-48831485D01*
X157876884Y-48706468D01*
X157879767Y-48614082D01*
X157883898Y-48547881D01*
X157890107Y-48501420D01*
X157899226Y-48468256D01*
X157912083Y-48441944D01*
X157927584Y-48418729D01*
X158002371Y-48344569D01*
X158093628Y-48301684D01*
X158192883Y-48291412D01*
X158291664Y-48315089D01*
%TO.C,HS_LOGO*%
G36*
X145850090Y-44456931D02*
G01*
X145851468Y-44450000D01*
X145949938Y-44062982D01*
X146086774Y-43690546D01*
X146259774Y-43335173D01*
X146466738Y-42999344D01*
X146705464Y-42685541D01*
X146973750Y-42396245D01*
X147269395Y-42133938D01*
X147590199Y-41901101D01*
X147933959Y-41700215D01*
X148298475Y-41533761D01*
X148505521Y-41458283D01*
X148903654Y-41347633D01*
X149306925Y-41278653D01*
X149712994Y-41251343D01*
X150119520Y-41265705D01*
X150524162Y-41321741D01*
X150924580Y-41419453D01*
X151042396Y-41456517D01*
X151406192Y-41595073D01*
X151742861Y-41761998D01*
X152058561Y-41961031D01*
X152359451Y-42195911D01*
X152555977Y-42375341D01*
X152785346Y-42611677D01*
X152981942Y-42847711D01*
X153153782Y-43094467D01*
X153308885Y-43362971D01*
X153387431Y-43518667D01*
X153545866Y-43893970D01*
X153664026Y-44277872D01*
X153742393Y-44667521D01*
X153781449Y-45060069D01*
X153781676Y-45452664D01*
X153743554Y-45842457D01*
X153667566Y-46226598D01*
X153554192Y-46602236D01*
X153403915Y-46966521D01*
X153217217Y-47316603D01*
X152994577Y-47649633D01*
X152736479Y-47962759D01*
X152615008Y-48090280D01*
X152313220Y-48364190D01*
X151987745Y-48604028D01*
X151641452Y-48808615D01*
X151277211Y-48976775D01*
X150897891Y-49107330D01*
X150506360Y-49199103D01*
X150105487Y-49250915D01*
X149758562Y-49262648D01*
X149634371Y-49259990D01*
X149506963Y-49254849D01*
X149391902Y-49247985D01*
X149309855Y-49240748D01*
X148949241Y-49180909D01*
X148585599Y-49084112D01*
X148228528Y-48953803D01*
X147887629Y-48793429D01*
X147607817Y-48629634D01*
X147274382Y-48389132D01*
X146971387Y-48120683D01*
X146699898Y-47826821D01*
X146460981Y-47510084D01*
X146255701Y-47173007D01*
X146085124Y-46818125D01*
X145950316Y-46447973D01*
X145852341Y-46065089D01*
X145792265Y-45672007D01*
X145771155Y-45271263D01*
X145771958Y-45254029D01*
X146886328Y-45254029D01*
X147784786Y-46153217D01*
X147859922Y-46079849D01*
X147935057Y-46006481D01*
X148484219Y-46555948D01*
X149033381Y-47105414D01*
X148960622Y-47180481D01*
X148887864Y-47255549D01*
X149331504Y-47699566D01*
X149443759Y-47811563D01*
X149546300Y-47913191D01*
X149635343Y-48000753D01*
X149707104Y-48070553D01*
X149757798Y-48118894D01*
X149783642Y-48142080D01*
X149786041Y-48143583D01*
X149802790Y-48129088D01*
X149846353Y-48087610D01*
X149913671Y-48022159D01*
X150001685Y-47935748D01*
X150107337Y-47831388D01*
X150227566Y-47712089D01*
X150359313Y-47580864D01*
X150463470Y-47476801D01*
X151130000Y-46810019D01*
X150680556Y-46360576D01*
X150231112Y-45911132D01*
X150082983Y-46058125D01*
X149934854Y-46205119D01*
X149860479Y-46133032D01*
X149817030Y-46086647D01*
X149790241Y-46049818D01*
X149786105Y-46038419D01*
X149800547Y-46017357D01*
X149840573Y-45971919D01*
X149901236Y-45907052D01*
X149977585Y-45827702D01*
X150064671Y-45738814D01*
X150157546Y-45645337D01*
X150251260Y-45552214D01*
X150340863Y-45464394D01*
X150421408Y-45386822D01*
X150487945Y-45324446D01*
X150535524Y-45282210D01*
X150559197Y-45265061D01*
X150560042Y-45264917D01*
X150586607Y-45279014D01*
X150629311Y-45314862D01*
X150654220Y-45339291D01*
X150726307Y-45413666D01*
X150442617Y-45699548D01*
X151342161Y-46598362D01*
X152008664Y-45931607D01*
X152675166Y-45264853D01*
X152226016Y-44815702D01*
X151776865Y-44366552D01*
X151706519Y-44434734D01*
X151660398Y-44475502D01*
X151624997Y-44499869D01*
X151615858Y-44502917D01*
X151596722Y-44488442D01*
X151551273Y-44447260D01*
X151482994Y-44382731D01*
X151395372Y-44298215D01*
X151291891Y-44197074D01*
X151176037Y-44082666D01*
X151056530Y-43963592D01*
X150517516Y-43424267D01*
X150595960Y-43343933D01*
X150674405Y-43263598D01*
X149775215Y-42365138D01*
X149108712Y-43031892D01*
X148442209Y-43698647D01*
X149341097Y-44597535D01*
X149628775Y-44312061D01*
X149718023Y-44402998D01*
X149765554Y-44454545D01*
X149797927Y-44495616D01*
X149807271Y-44514086D01*
X149792836Y-44534793D01*
X149752829Y-44579896D01*
X149692199Y-44644455D01*
X149615894Y-44723531D01*
X149528861Y-44812183D01*
X149436049Y-44905472D01*
X149342407Y-44998456D01*
X149252882Y-45086196D01*
X149172423Y-45163752D01*
X149105977Y-45226183D01*
X149058494Y-45268550D01*
X149034920Y-45285912D01*
X149034024Y-45286083D01*
X149008305Y-45271992D01*
X148964366Y-45235455D01*
X148922794Y-45195442D01*
X148833837Y-45104801D01*
X148982082Y-44957692D01*
X149130326Y-44810583D01*
X148680494Y-44360385D01*
X148230661Y-43910187D01*
X147558494Y-44582108D01*
X146886328Y-45254029D01*
X145771958Y-45254029D01*
X145790075Y-44865392D01*
X145850090Y-44456931D01*
G37*
X145850090Y-44456931D02*
X145851468Y-44450000D01*
X145949938Y-44062982D01*
X146086774Y-43690546D01*
X146259774Y-43335173D01*
X146466738Y-42999344D01*
X146705464Y-42685541D01*
X146973750Y-42396245D01*
X147269395Y-42133938D01*
X147590199Y-41901101D01*
X147933959Y-41700215D01*
X148298475Y-41533761D01*
X148505521Y-41458283D01*
X148903654Y-41347633D01*
X149306925Y-41278653D01*
X149712994Y-41251343D01*
X150119520Y-41265705D01*
X150524162Y-41321741D01*
X150924580Y-41419453D01*
X151042396Y-41456517D01*
X151406192Y-41595073D01*
X151742861Y-41761998D01*
X152058561Y-41961031D01*
X152359451Y-42195911D01*
X152555977Y-42375341D01*
X152785346Y-42611677D01*
X152981942Y-42847711D01*
X153153782Y-43094467D01*
X153308885Y-43362971D01*
X153387431Y-43518667D01*
X153545866Y-43893970D01*
X153664026Y-44277872D01*
X153742393Y-44667521D01*
X153781449Y-45060069D01*
X153781676Y-45452664D01*
X153743554Y-45842457D01*
X153667566Y-46226598D01*
X153554192Y-46602236D01*
X153403915Y-46966521D01*
X153217217Y-47316603D01*
X152994577Y-47649633D01*
X152736479Y-47962759D01*
X152615008Y-48090280D01*
X152313220Y-48364190D01*
X151987745Y-48604028D01*
X151641452Y-48808615D01*
X151277211Y-48976775D01*
X150897891Y-49107330D01*
X150506360Y-49199103D01*
X150105487Y-49250915D01*
X149758562Y-49262648D01*
X149634371Y-49259990D01*
X149506963Y-49254849D01*
X149391902Y-49247985D01*
X149309855Y-49240748D01*
X148949241Y-49180909D01*
X148585599Y-49084112D01*
X148228528Y-48953803D01*
X147887629Y-48793429D01*
X147607817Y-48629634D01*
X147274382Y-48389132D01*
X146971387Y-48120683D01*
X146699898Y-47826821D01*
X146460981Y-47510084D01*
X146255701Y-47173007D01*
X146085124Y-46818125D01*
X145950316Y-46447973D01*
X145852341Y-46065089D01*
X145792265Y-45672007D01*
X145771155Y-45271263D01*
X145771958Y-45254029D01*
X146886328Y-45254029D01*
X147784786Y-46153217D01*
X147859922Y-46079849D01*
X147935057Y-46006481D01*
X148484219Y-46555948D01*
X149033381Y-47105414D01*
X148960622Y-47180481D01*
X148887864Y-47255549D01*
X149331504Y-47699566D01*
X149443759Y-47811563D01*
X149546300Y-47913191D01*
X149635343Y-48000753D01*
X149707104Y-48070553D01*
X149757798Y-48118894D01*
X149783642Y-48142080D01*
X149786041Y-48143583D01*
X149802790Y-48129088D01*
X149846353Y-48087610D01*
X149913671Y-48022159D01*
X150001685Y-47935748D01*
X150107337Y-47831388D01*
X150227566Y-47712089D01*
X150359313Y-47580864D01*
X150463470Y-47476801D01*
X151130000Y-46810019D01*
X150680556Y-46360576D01*
X150231112Y-45911132D01*
X150082983Y-46058125D01*
X149934854Y-46205119D01*
X149860479Y-46133032D01*
X149817030Y-46086647D01*
X149790241Y-46049818D01*
X149786105Y-46038419D01*
X149800547Y-46017357D01*
X149840573Y-45971919D01*
X149901236Y-45907052D01*
X149977585Y-45827702D01*
X150064671Y-45738814D01*
X150157546Y-45645337D01*
X150251260Y-45552214D01*
X150340863Y-45464394D01*
X150421408Y-45386822D01*
X150487945Y-45324446D01*
X150535524Y-45282210D01*
X150559197Y-45265061D01*
X150560042Y-45264917D01*
X150586607Y-45279014D01*
X150629311Y-45314862D01*
X150654220Y-45339291D01*
X150726307Y-45413666D01*
X150442617Y-45699548D01*
X151342161Y-46598362D01*
X152008664Y-45931607D01*
X152675166Y-45264853D01*
X152226016Y-44815702D01*
X151776865Y-44366552D01*
X151706519Y-44434734D01*
X151660398Y-44475502D01*
X151624997Y-44499869D01*
X151615858Y-44502917D01*
X151596722Y-44488442D01*
X151551273Y-44447260D01*
X151482994Y-44382731D01*
X151395372Y-44298215D01*
X151291891Y-44197074D01*
X151176037Y-44082666D01*
X151056530Y-43963592D01*
X150517516Y-43424267D01*
X150595960Y-43343933D01*
X150674405Y-43263598D01*
X149775215Y-42365138D01*
X149108712Y-43031892D01*
X148442209Y-43698647D01*
X149341097Y-44597535D01*
X149628775Y-44312061D01*
X149718023Y-44402998D01*
X149765554Y-44454545D01*
X149797927Y-44495616D01*
X149807271Y-44514086D01*
X149792836Y-44534793D01*
X149752829Y-44579896D01*
X149692199Y-44644455D01*
X149615894Y-44723531D01*
X149528861Y-44812183D01*
X149436049Y-44905472D01*
X149342407Y-44998456D01*
X149252882Y-45086196D01*
X149172423Y-45163752D01*
X149105977Y-45226183D01*
X149058494Y-45268550D01*
X149034920Y-45285912D01*
X149034024Y-45286083D01*
X149008305Y-45271992D01*
X148964366Y-45235455D01*
X148922794Y-45195442D01*
X148833837Y-45104801D01*
X148982082Y-44957692D01*
X149130326Y-44810583D01*
X148680494Y-44360385D01*
X148230661Y-43910187D01*
X147558494Y-44582108D01*
X146886328Y-45254029D01*
X145771958Y-45254029D01*
X145790075Y-44865392D01*
X145850090Y-44456931D01*
%TD*%
D11*
%TO.P,J5,1,Pin_1*%
%TO.N,Sig_relay*%
X137220000Y-83820000D03*
D12*
%TO.P,J5,2,Pin_2*%
%TO.N,GND*%
X137220000Y-81280000D03*
%TO.P,J5,3,Pin_3*%
%TO.N,RELAY_VCC*%
X137220000Y-78740000D03*
%TD*%
D13*
%TO.P,M-switch,1,Pin_1*%
%TO.N,3V3*%
X135890000Y-44450000D03*
D14*
%TO.P,M-switch,2,Pin_2*%
%TO.N,RELAY_VCC*%
X140970000Y-44450000D03*
%TD*%
D15*
%TO.P,H4,1*%
%TO.N,N/C*%
X171450000Y-46850000D03*
X169752944Y-46147056D03*
X169752944Y-42752944D03*
X171450000Y-42050000D03*
D16*
X171450000Y-44450000D03*
D15*
X173147056Y-46147056D03*
X173850000Y-44450000D03*
X169050000Y-44450000D03*
X173147056Y-42752944D03*
%TD*%
D11*
%TO.P,J1,1,Pin_1*%
%TO.N,unconnected-(J1-Pad1)*%
X87630000Y-119380000D03*
D12*
%TO.P,J1,2,Pin_2*%
%TO.N,CS_TFT*%
X90170000Y-119380000D03*
%TO.P,J1,3,Pin_3*%
%TO.N,DC_TFT*%
X92710000Y-119380000D03*
%TO.P,J1,4,Pin_4*%
%TO.N,RES_TFT*%
X95250000Y-119380000D03*
%TO.P,J1,5,Pin_5*%
%TO.N,SDA_TFT*%
X97790000Y-119380000D03*
%TO.P,J1,6,Pin_6*%
%TO.N,SCK_T*%
X100330000Y-119380000D03*
%TO.P,J1,7,Pin_7*%
%TO.N,5V*%
X102870000Y-119380000D03*
%TO.P,J1,8,Pin_8*%
%TO.N,GND*%
X105410000Y-119380000D03*
%TD*%
D15*
%TO.P,H2,1*%
%TO.N,N/C*%
X80010000Y-114440000D03*
X81707056Y-118537056D03*
X80010000Y-119240000D03*
X82410000Y-116840000D03*
X78312944Y-118537056D03*
X81707056Y-115142944D03*
X78312944Y-115142944D03*
X77610000Y-116840000D03*
D16*
X80010000Y-116840000D03*
%TD*%
D17*
%TO.P,TP3,1,1*%
%TO.N,Sig_relay*%
X104140000Y-57150000D03*
%TD*%
%TO.P,TP2,1,1*%
%TO.N,GND*%
X99060000Y-57150000D03*
%TD*%
D18*
%TO.P,U1,1,~{RST}*%
%TO.N,RES_TFT*%
X109220000Y-91440000D03*
D19*
%TO.P,U1,2,A0*%
%TO.N,unconnected-(U1-Pad2)*%
X109220000Y-88900000D03*
%TO.P,U1,3,D0*%
%TO.N,Sig_relay*%
X109220000Y-86360000D03*
%TO.P,U1,4,SCK/D5*%
%TO.N,SCK_T*%
X109220000Y-83820000D03*
%TO.P,U1,5,MISO/D6*%
%TO.N,SO_T*%
X109220000Y-81280000D03*
%TO.P,U1,6,MOSI/D7*%
%TO.N,SDA_TFT*%
X109220000Y-78740000D03*
%TO.P,U1,7,CS/D8*%
%TO.N,CS_TFT*%
X109220000Y-76200000D03*
%TO.P,U1,8,3V3*%
%TO.N,3V3*%
X109220000Y-73660000D03*
%TO.P,U1,9,5V*%
%TO.N,5V*%
X86360000Y-73660000D03*
%TO.P,U1,10,GND*%
%TO.N,GND*%
X86360000Y-76200000D03*
%TO.P,U1,11,D4*%
%TO.N,SW_ROTARY*%
X86360000Y-78740000D03*
%TO.P,U1,12,D3*%
%TO.N,DC_TFT*%
X86360000Y-81280000D03*
%TO.P,U1,13,SDA/D2*%
%TO.N,CLK_ROTARY*%
X86360000Y-83820000D03*
%TO.P,U1,14,SCL/D1*%
%TO.N,DT_ROTARY*%
X86360000Y-86360000D03*
%TO.P,U1,15,RX*%
%TO.N,unconnected-(U1-Pad15)*%
X86360000Y-88900000D03*
%TO.P,U1,16,TX*%
%TO.N,CS_T*%
X86360000Y-91440000D03*
%TD*%
D11*
%TO.P,J6,1,Pin_1*%
%TO.N,Sig_relay*%
X137220000Y-104125000D03*
D12*
%TO.P,J6,2,Pin_2*%
%TO.N,GND*%
X137220000Y-101585000D03*
%TO.P,J6,3,Pin_3*%
%TO.N,RELAY_VCC*%
X137220000Y-99045000D03*
%TD*%
D11*
%TO.P,J3,1,Pin_1*%
%TO.N,CLK_ROTARY*%
X128265000Y-119380000D03*
D12*
%TO.P,J3,2,Pin_2*%
%TO.N,DT_ROTARY*%
X125725000Y-119380000D03*
%TO.P,J3,3,Pin_3*%
%TO.N,SW_ROTARY*%
X123185000Y-119380000D03*
%TO.P,J3,4,Pin_4*%
%TO.N,5V*%
X120645000Y-119380000D03*
%TO.P,J3,5,Pin_5*%
%TO.N,GND*%
X118105000Y-119380000D03*
%TD*%
D17*
%TO.P,TP1,1,1*%
%TO.N,5V*%
X93980000Y-57150000D03*
%TD*%
D15*
%TO.P,H3,1*%
%TO.N,N/C*%
X173147056Y-118537056D03*
D16*
X171450000Y-116840000D03*
D15*
X173147056Y-115142944D03*
X171450000Y-114440000D03*
X169752944Y-118537056D03*
X169050000Y-116840000D03*
X169752944Y-115142944D03*
X171450000Y-119240000D03*
X173850000Y-116840000D03*
%TD*%
%TO.P,H1,1*%
%TO.N,N/C*%
X81707056Y-46147056D03*
X80010000Y-46850000D03*
X77610000Y-44450000D03*
X81707056Y-42752944D03*
X78312944Y-42752944D03*
D16*
X80010000Y-44450000D03*
D15*
X82410000Y-44450000D03*
X80010000Y-42050000D03*
X78312944Y-46147056D03*
%TD*%
D11*
%TO.P,J2,1,Pin_1*%
%TO.N,SO_T*%
X127000000Y-91440000D03*
D12*
%TO.P,J2,2,Pin_2*%
%TO.N,CS_T*%
X124460000Y-91440000D03*
%TO.P,J2,3,Pin_3*%
%TO.N,SCK_T*%
X121920000Y-91440000D03*
%TO.P,J2,4,Pin_4*%
%TO.N,5V*%
X119380000Y-91440000D03*
%TO.P,J2,5,Pin_5*%
%TO.N,GND*%
X116840000Y-91440000D03*
%TD*%
D11*
%TO.P,J4,1,Pin_1*%
%TO.N,Sig_relay*%
X137220000Y-63500000D03*
D12*
%TO.P,J4,2,Pin_2*%
%TO.N,GND*%
X137220000Y-60960000D03*
%TO.P,J4,3,Pin_3*%
%TO.N,RELAY_VCC*%
X137220000Y-58420000D03*
%TD*%
D20*
%TO.N,RES_TFT*%
X107888500Y-114607500D03*
%TO.N,GND*%
X116706900Y-100347200D03*
%TD*%
D21*
%TO.N,CS_TFT*%
X84262800Y-112297500D02*
X84262800Y-86658600D01*
X100330000Y-85090000D02*
X108094700Y-77325300D01*
X85831400Y-85090000D02*
X100330000Y-85090000D01*
X108094700Y-77325300D02*
X109220000Y-77325300D01*
X90170000Y-119380000D02*
X90170000Y-118204700D01*
X109220000Y-76200000D02*
X109220000Y-77325300D01*
X84262800Y-86658600D02*
X85831400Y-85090000D01*
X90170000Y-118204700D02*
X84262800Y-112297500D01*
%TO.N,CS_T*%
X123284700Y-91440000D02*
X123284700Y-91072700D01*
X86360000Y-91440000D02*
X86360000Y-90314700D01*
X86560100Y-90114600D02*
X86360000Y-90314700D01*
X123284700Y-91072700D02*
X122326600Y-90114600D01*
X122326600Y-90114600D02*
X86560100Y-90114600D01*
X124460000Y-91440000D02*
X123284700Y-91440000D01*
%TO.N,RES_TFT*%
X96425300Y-119012700D02*
X96425300Y-119380000D01*
X95250000Y-119380000D02*
X96425300Y-119380000D01*
X107888500Y-114607500D02*
X100830500Y-114607500D01*
X100830500Y-114607500D02*
X96425300Y-119012700D01*
%TO.N,SDA_TFT*%
X85769700Y-87630000D02*
X100330000Y-87630000D01*
X93980000Y-119841500D02*
X93980000Y-116895800D01*
X84722400Y-107638200D02*
X84722400Y-88677300D01*
X94780000Y-120641500D02*
X93980000Y-119841500D01*
X93980000Y-116895800D02*
X84722400Y-107638200D01*
X96528500Y-120641500D02*
X94780000Y-120641500D01*
X100330000Y-87630000D02*
X108094700Y-79865300D01*
X84722400Y-88677300D02*
X85769700Y-87630000D01*
X109220000Y-78740000D02*
X109220000Y-79865300D01*
X108094700Y-79865300D02*
X109220000Y-79865300D01*
X97790000Y-119380000D02*
X96528500Y-120641500D01*
%TO.N,5V*%
X93980000Y-64914700D02*
X93980000Y-57150000D01*
X104853200Y-120555300D02*
X104045300Y-119747400D01*
X86360000Y-73660000D02*
X86360000Y-72534700D01*
X104045300Y-119747400D02*
X104045300Y-119380000D01*
X119469700Y-119380000D02*
X119469700Y-119747300D01*
X118661700Y-120555300D02*
X104853200Y-120555300D01*
X102870000Y-119380000D02*
X104045300Y-119380000D01*
X86360000Y-72534700D02*
X93980000Y-64914700D01*
X120645000Y-119380000D02*
X119469700Y-119380000D01*
X119469700Y-119747300D02*
X118661700Y-120555300D01*
%TO.N,SCK_T*%
X108815400Y-105719900D02*
X108815400Y-114744500D01*
X102313200Y-118204700D02*
X101505300Y-119012600D01*
X121920000Y-91440000D02*
X121920000Y-92615300D01*
X108815400Y-114744500D02*
X105355200Y-118204700D01*
X105355200Y-118204700D02*
X102313200Y-118204700D01*
X100330000Y-119380000D02*
X101505300Y-119380000D01*
X121920000Y-92615300D02*
X108815400Y-105719900D01*
X101505300Y-119012600D02*
X101505300Y-119380000D01*
%TO.N,Sig_relay*%
X110490000Y-63500000D02*
X104140000Y-57150000D01*
X109220000Y-86360000D02*
X133504700Y-86360000D01*
X133504700Y-86360000D02*
X136044700Y-83820000D01*
X137220000Y-63500000D02*
X110490000Y-63500000D01*
X137220000Y-83820000D02*
X136044700Y-83820000D01*
%TO.N,GND*%
X130861300Y-55776600D02*
X100433400Y-55776600D01*
X99060000Y-64825300D02*
X87685300Y-76200000D01*
X134806900Y-100347200D02*
X136044700Y-101585000D01*
X137220000Y-60960000D02*
X136044700Y-60960000D01*
X116706900Y-100347200D02*
X134806900Y-100347200D01*
X86360000Y-76200000D02*
X87685300Y-76200000D01*
X118105000Y-119380000D02*
X105410000Y-119380000D01*
X100433400Y-55776600D02*
X99060000Y-57150000D01*
X137220000Y-101585000D02*
X136044700Y-101585000D01*
X136044700Y-60960000D02*
X130861300Y-55776600D01*
X99060000Y-57150000D02*
X99060000Y-64825300D01*
%TD*%
%TA.AperFunction,Conductor*%
%TO.N,5V*%
G36*
X148532121Y-50820002D02*
G01*
X148578614Y-50873658D01*
X148590000Y-50926000D01*
X148590000Y-121793000D01*
X148569998Y-121861121D01*
X148516342Y-121907614D01*
X148464000Y-121919000D01*
X86411190Y-121919000D01*
X86343069Y-121898998D01*
X86322095Y-121882095D01*
X84689748Y-120249748D01*
X86579500Y-120249748D01*
X86580707Y-120255816D01*
X86588700Y-120295998D01*
X86591133Y-120308231D01*
X86635448Y-120374552D01*
X86701769Y-120418867D01*
X86713938Y-120421288D01*
X86713939Y-120421288D01*
X86754184Y-120429293D01*
X86760252Y-120430500D01*
X88499748Y-120430500D01*
X88505816Y-120429293D01*
X88546061Y-120421288D01*
X88546062Y-120421288D01*
X88558231Y-120418867D01*
X88624552Y-120374552D01*
X88668867Y-120308231D01*
X88671301Y-120295998D01*
X88679293Y-120255816D01*
X88680500Y-120249748D01*
X88680500Y-118510252D01*
X88668867Y-118451769D01*
X88624552Y-118385448D01*
X88558231Y-118341133D01*
X88546062Y-118338712D01*
X88546061Y-118338712D01*
X88505816Y-118330707D01*
X88499748Y-118329500D01*
X86760252Y-118329500D01*
X86754184Y-118330707D01*
X86713939Y-118338712D01*
X86713938Y-118338712D01*
X86701769Y-118341133D01*
X86635448Y-118385448D01*
X86591133Y-118451769D01*
X86579500Y-118510252D01*
X86579500Y-120249748D01*
X84689748Y-120249748D01*
X83856905Y-119416905D01*
X83822879Y-119354593D01*
X83820000Y-119327810D01*
X83820000Y-115570000D01*
X80576307Y-112326307D01*
X83933536Y-112326307D01*
X83936390Y-112336956D01*
X83943291Y-112362710D01*
X83945670Y-112373442D01*
X83952212Y-112410545D01*
X83957723Y-112420090D01*
X83958915Y-112423366D01*
X83960392Y-112426534D01*
X83963246Y-112437184D01*
X83969570Y-112446215D01*
X83984855Y-112468044D01*
X83990761Y-112477315D01*
X84004093Y-112500406D01*
X84009606Y-112509955D01*
X84018051Y-112517041D01*
X84038482Y-112534185D01*
X84046585Y-112541611D01*
X89739757Y-118234784D01*
X89773783Y-118297096D01*
X89768718Y-118367911D01*
X89726171Y-118424747D01*
X89709038Y-118435540D01*
X89654717Y-118463939D01*
X89592002Y-118496726D01*
X89587201Y-118500586D01*
X89587198Y-118500588D01*
X89542856Y-118536240D01*
X89431447Y-118625815D01*
X89299024Y-118783630D01*
X89296056Y-118789028D01*
X89296053Y-118789033D01*
X89240834Y-118889477D01*
X89199776Y-118964162D01*
X89137484Y-119160532D01*
X89136798Y-119166649D01*
X89136797Y-119166653D01*
X89126287Y-119260356D01*
X89114520Y-119365262D01*
X89131759Y-119570553D01*
X89133458Y-119576478D01*
X89179395Y-119736678D01*
X89188544Y-119768586D01*
X89191359Y-119774063D01*
X89191360Y-119774066D01*
X89261230Y-119910019D01*
X89282712Y-119951818D01*
X89410677Y-120113270D01*
X89415370Y-120117264D01*
X89415371Y-120117265D01*
X89489541Y-120180388D01*
X89567564Y-120246791D01*
X89572942Y-120249797D01*
X89572944Y-120249798D01*
X89603387Y-120266812D01*
X89747398Y-120347297D01*
X89831280Y-120374552D01*
X89937471Y-120409056D01*
X89937475Y-120409057D01*
X89943329Y-120410959D01*
X90147894Y-120435351D01*
X90154029Y-120434879D01*
X90154031Y-120434879D01*
X90226625Y-120429293D01*
X90353300Y-120419546D01*
X90359230Y-120417890D01*
X90359232Y-120417890D01*
X90545797Y-120365800D01*
X90545796Y-120365800D01*
X90551725Y-120364145D01*
X90557214Y-120361372D01*
X90557220Y-120361370D01*
X90730116Y-120274033D01*
X90735610Y-120271258D01*
X90751345Y-120258965D01*
X90893101Y-120148213D01*
X90897951Y-120144424D01*
X90955127Y-120078185D01*
X91028540Y-119993134D01*
X91028540Y-119993133D01*
X91032564Y-119988472D01*
X91053387Y-119951818D01*
X91077132Y-119910019D01*
X91134323Y-119809344D01*
X91199351Y-119613863D01*
X91225171Y-119409474D01*
X91225583Y-119380000D01*
X91205480Y-119174970D01*
X91145935Y-118977749D01*
X91049218Y-118795849D01*
X90931890Y-118651991D01*
X90922906Y-118640975D01*
X90922903Y-118640972D01*
X90919011Y-118636200D01*
X90901786Y-118621950D01*
X90765025Y-118508811D01*
X90765021Y-118508808D01*
X90760275Y-118504882D01*
X90579055Y-118406897D01*
X90573167Y-118405074D01*
X90572676Y-118404868D01*
X90517628Y-118360033D01*
X90495500Y-118288712D01*
X90495500Y-118224410D01*
X90495980Y-118213428D01*
X90498303Y-118186875D01*
X90498303Y-118186870D01*
X90499263Y-118175893D01*
X90489508Y-118139483D01*
X90487133Y-118128772D01*
X90485976Y-118122212D01*
X90480588Y-118091655D01*
X90475078Y-118082111D01*
X90473886Y-118078835D01*
X90472407Y-118075664D01*
X90469554Y-118065016D01*
X90447940Y-118034148D01*
X90442036Y-118024879D01*
X90428709Y-118001796D01*
X90428707Y-118001793D01*
X90423194Y-117992245D01*
X90394331Y-117968026D01*
X90386227Y-117960600D01*
X87511668Y-115086041D01*
X84625205Y-112199579D01*
X84591179Y-112137267D01*
X84588300Y-112110484D01*
X84588300Y-108268616D01*
X84608302Y-108200495D01*
X84661958Y-108154002D01*
X84732232Y-108143898D01*
X84796812Y-108173392D01*
X84803395Y-108179521D01*
X90063046Y-113439173D01*
X93617595Y-116993722D01*
X93651621Y-117056034D01*
X93654500Y-117082817D01*
X93654500Y-118530159D01*
X93634498Y-118598280D01*
X93580842Y-118644773D01*
X93510568Y-118654877D01*
X93448186Y-118627245D01*
X93300275Y-118504882D01*
X93119055Y-118406897D01*
X92922254Y-118345977D01*
X92916129Y-118345333D01*
X92916128Y-118345333D01*
X92723498Y-118325087D01*
X92723496Y-118325087D01*
X92717369Y-118324443D01*
X92630529Y-118332346D01*
X92518342Y-118342555D01*
X92518339Y-118342556D01*
X92512203Y-118343114D01*
X92314572Y-118401280D01*
X92132002Y-118496726D01*
X92127201Y-118500586D01*
X92127198Y-118500588D01*
X92082856Y-118536240D01*
X91971447Y-118625815D01*
X91839024Y-118783630D01*
X91836056Y-118789028D01*
X91836053Y-118789033D01*
X91780834Y-118889477D01*
X91739776Y-118964162D01*
X91677484Y-119160532D01*
X91676798Y-119166649D01*
X91676797Y-119166653D01*
X91666287Y-119260356D01*
X91654520Y-119365262D01*
X91671759Y-119570553D01*
X91673458Y-119576478D01*
X91719395Y-119736678D01*
X91728544Y-119768586D01*
X91731359Y-119774063D01*
X91731360Y-119774066D01*
X91801230Y-119910019D01*
X91822712Y-119951818D01*
X91950677Y-120113270D01*
X91955370Y-120117264D01*
X91955371Y-120117265D01*
X92029541Y-120180388D01*
X92107564Y-120246791D01*
X92112942Y-120249797D01*
X92112944Y-120249798D01*
X92143387Y-120266812D01*
X92287398Y-120347297D01*
X92371280Y-120374552D01*
X92477471Y-120409056D01*
X92477475Y-120409057D01*
X92483329Y-120410959D01*
X92687894Y-120435351D01*
X92694029Y-120434879D01*
X92694031Y-120434879D01*
X92766625Y-120429293D01*
X92893300Y-120419546D01*
X92899230Y-120417890D01*
X92899232Y-120417890D01*
X93085797Y-120365800D01*
X93085796Y-120365800D01*
X93091725Y-120364145D01*
X93097214Y-120361372D01*
X93097220Y-120361370D01*
X93270116Y-120274033D01*
X93275610Y-120271258D01*
X93291345Y-120258965D01*
X93433101Y-120148213D01*
X93437951Y-120144424D01*
X93495127Y-120078185D01*
X93527442Y-120040747D01*
X93587095Y-120002250D01*
X93658092Y-120002114D01*
X93719345Y-120042086D01*
X93721296Y-120044411D01*
X93726806Y-120053955D01*
X93735250Y-120061040D01*
X93755682Y-120078185D01*
X93763785Y-120085611D01*
X94535889Y-120857715D01*
X94543316Y-120865819D01*
X94567545Y-120894694D01*
X94577094Y-120900207D01*
X94600185Y-120913539D01*
X94609456Y-120919445D01*
X94640316Y-120941054D01*
X94650966Y-120943908D01*
X94654134Y-120945385D01*
X94657410Y-120946577D01*
X94666955Y-120952088D01*
X94700699Y-120958038D01*
X94704058Y-120958630D01*
X94714785Y-120961008D01*
X94751193Y-120970764D01*
X94762169Y-120969804D01*
X94762172Y-120969804D01*
X94788743Y-120967479D01*
X94799724Y-120967000D01*
X96508790Y-120967000D01*
X96519772Y-120967480D01*
X96546320Y-120969803D01*
X96546322Y-120969803D01*
X96557307Y-120970764D01*
X96593715Y-120961008D01*
X96604442Y-120958630D01*
X96607801Y-120958038D01*
X96641545Y-120952088D01*
X96651090Y-120946577D01*
X96654366Y-120945385D01*
X96657534Y-120943908D01*
X96668184Y-120941054D01*
X96699044Y-120919445D01*
X96708315Y-120913539D01*
X96731410Y-120900205D01*
X96731411Y-120900204D01*
X96740955Y-120894694D01*
X96748039Y-120886252D01*
X96765185Y-120865819D01*
X96772610Y-120857717D01*
X97249122Y-120381205D01*
X97311434Y-120347179D01*
X97377153Y-120350467D01*
X97557471Y-120409056D01*
X97557475Y-120409057D01*
X97563329Y-120410959D01*
X97767894Y-120435351D01*
X97774029Y-120434879D01*
X97774031Y-120434879D01*
X97846625Y-120429293D01*
X97973300Y-120419546D01*
X97979230Y-120417890D01*
X97979232Y-120417890D01*
X98165797Y-120365800D01*
X98165796Y-120365800D01*
X98171725Y-120364145D01*
X98177214Y-120361372D01*
X98177220Y-120361370D01*
X98350116Y-120274033D01*
X98355610Y-120271258D01*
X98371345Y-120258965D01*
X98513101Y-120148213D01*
X98517951Y-120144424D01*
X98575127Y-120078185D01*
X98648540Y-119993134D01*
X98648540Y-119993133D01*
X98652564Y-119988472D01*
X98673387Y-119951818D01*
X98697132Y-119910019D01*
X98754323Y-119809344D01*
X98819351Y-119613863D01*
X98845171Y-119409474D01*
X98845583Y-119380000D01*
X98825480Y-119174970D01*
X98765935Y-118977749D01*
X98669218Y-118795849D01*
X98551890Y-118651991D01*
X98542906Y-118640975D01*
X98542903Y-118640972D01*
X98539011Y-118636200D01*
X98521786Y-118621950D01*
X98385025Y-118508811D01*
X98385021Y-118508808D01*
X98380275Y-118504882D01*
X98199055Y-118406897D01*
X98002254Y-118345977D01*
X97996131Y-118345334D01*
X97996129Y-118345333D01*
X97857855Y-118330800D01*
X97792199Y-118303787D01*
X97751569Y-118245565D01*
X97748866Y-118174620D01*
X97781931Y-118116395D01*
X100928421Y-114969905D01*
X100990733Y-114935879D01*
X101017516Y-114933000D01*
X107319214Y-114933000D01*
X107387335Y-114953002D01*
X107419177Y-114982296D01*
X107460218Y-115035782D01*
X107585659Y-115132036D01*
X107593287Y-115135195D01*
X107593291Y-115135198D01*
X107656753Y-115161484D01*
X107681471Y-115171723D01*
X107736752Y-115216270D01*
X107759173Y-115283633D01*
X107741615Y-115352424D01*
X107722348Y-115377226D01*
X105257279Y-117842295D01*
X105194967Y-117876321D01*
X105168184Y-117879200D01*
X102332913Y-117879200D01*
X102321932Y-117878721D01*
X102295370Y-117876397D01*
X102295368Y-117876397D01*
X102284393Y-117875437D01*
X102247983Y-117885192D01*
X102237276Y-117887566D01*
X102200155Y-117894112D01*
X102190612Y-117899621D01*
X102187340Y-117900812D01*
X102184167Y-117902292D01*
X102173516Y-117905146D01*
X102159528Y-117914941D01*
X102142656Y-117926755D01*
X102133385Y-117932661D01*
X102110294Y-117945993D01*
X102100745Y-117951506D01*
X102093659Y-117959951D01*
X102076515Y-117980382D01*
X102069089Y-117988485D01*
X101331409Y-118726165D01*
X101269097Y-118760191D01*
X101198282Y-118755126D01*
X101144672Y-118716706D01*
X101082912Y-118640981D01*
X101082903Y-118640971D01*
X101079011Y-118636200D01*
X101061786Y-118621950D01*
X100925025Y-118508811D01*
X100925021Y-118508808D01*
X100920275Y-118504882D01*
X100739055Y-118406897D01*
X100542254Y-118345977D01*
X100536129Y-118345333D01*
X100536128Y-118345333D01*
X100343498Y-118325087D01*
X100343496Y-118325087D01*
X100337369Y-118324443D01*
X100250529Y-118332346D01*
X100138342Y-118342555D01*
X100138339Y-118342556D01*
X100132203Y-118343114D01*
X99934572Y-118401280D01*
X99752002Y-118496726D01*
X99747201Y-118500586D01*
X99747198Y-118500588D01*
X99702856Y-118536240D01*
X99591447Y-118625815D01*
X99459024Y-118783630D01*
X99456056Y-118789028D01*
X99456053Y-118789033D01*
X99400834Y-118889477D01*
X99359776Y-118964162D01*
X99297484Y-119160532D01*
X99296798Y-119166649D01*
X99296797Y-119166653D01*
X99286287Y-119260356D01*
X99274520Y-119365262D01*
X99291759Y-119570553D01*
X99293458Y-119576478D01*
X99339395Y-119736678D01*
X99348544Y-119768586D01*
X99351359Y-119774063D01*
X99351360Y-119774066D01*
X99421230Y-119910019D01*
X99442712Y-119951818D01*
X99570677Y-120113270D01*
X99575370Y-120117264D01*
X99575371Y-120117265D01*
X99649541Y-120180388D01*
X99727564Y-120246791D01*
X99732942Y-120249797D01*
X99732944Y-120249798D01*
X99763387Y-120266812D01*
X99907398Y-120347297D01*
X99991280Y-120374552D01*
X100097471Y-120409056D01*
X100097475Y-120409057D01*
X100103329Y-120410959D01*
X100307894Y-120435351D01*
X100314029Y-120434879D01*
X100314031Y-120434879D01*
X100386625Y-120429293D01*
X100513300Y-120419546D01*
X100519230Y-120417890D01*
X100519232Y-120417890D01*
X100705797Y-120365800D01*
X100705796Y-120365800D01*
X100711725Y-120364145D01*
X100717214Y-120361372D01*
X100717220Y-120361370D01*
X100890116Y-120274033D01*
X100895610Y-120271258D01*
X100911345Y-120258965D01*
X101053101Y-120148213D01*
X101057951Y-120144424D01*
X101115127Y-120078185D01*
X101188540Y-119993134D01*
X101188540Y-119993133D01*
X101192564Y-119988472D01*
X101213387Y-119951818D01*
X101291275Y-119814709D01*
X101291276Y-119814707D01*
X101294323Y-119809344D01*
X101300184Y-119791726D01*
X101340666Y-119733403D01*
X101406254Y-119706224D01*
X101419741Y-119705500D01*
X101451895Y-119705500D01*
X101520016Y-119725502D01*
X101566509Y-119779158D01*
X101569712Y-119787516D01*
X101651770Y-119989603D01*
X101656413Y-119998794D01*
X101767694Y-120180388D01*
X101773777Y-120188699D01*
X101913213Y-120349667D01*
X101920580Y-120356883D01*
X102084434Y-120492916D01*
X102092881Y-120498831D01*
X102276756Y-120606279D01*
X102286042Y-120610729D01*
X102485001Y-120686703D01*
X102494899Y-120689579D01*
X102598250Y-120710606D01*
X102612299Y-120709410D01*
X102616000Y-120699065D01*
X102616000Y-119252000D01*
X102636002Y-119183879D01*
X102689658Y-119137386D01*
X102742000Y-119126000D01*
X102998000Y-119126000D01*
X103066121Y-119146002D01*
X103112614Y-119199658D01*
X103124000Y-119252000D01*
X103124000Y-120698517D01*
X103128064Y-120712359D01*
X103141478Y-120714393D01*
X103148184Y-120713534D01*
X103158262Y-120711392D01*
X103362255Y-120650191D01*
X103371842Y-120646433D01*
X103563095Y-120552739D01*
X103571945Y-120547464D01*
X103745328Y-120423792D01*
X103753200Y-120417139D01*
X103904052Y-120266812D01*
X103910730Y-120258965D01*
X104035003Y-120086020D01*
X104040313Y-120077183D01*
X104134670Y-119886267D01*
X104138469Y-119876672D01*
X104179593Y-119741319D01*
X104218534Y-119681955D01*
X104283388Y-119653068D01*
X104353564Y-119663830D01*
X104406782Y-119710823D01*
X104421270Y-119743217D01*
X104428544Y-119768586D01*
X104431359Y-119774063D01*
X104431360Y-119774066D01*
X104501230Y-119910019D01*
X104522712Y-119951818D01*
X104650677Y-120113270D01*
X104655370Y-120117264D01*
X104655371Y-120117265D01*
X104729541Y-120180388D01*
X104807564Y-120246791D01*
X104812942Y-120249797D01*
X104812944Y-120249798D01*
X104843387Y-120266812D01*
X104987398Y-120347297D01*
X105071280Y-120374552D01*
X105177471Y-120409056D01*
X105177475Y-120409057D01*
X105183329Y-120410959D01*
X105387894Y-120435351D01*
X105394029Y-120434879D01*
X105394031Y-120434879D01*
X105466625Y-120429293D01*
X105593300Y-120419546D01*
X105599230Y-120417890D01*
X105599232Y-120417890D01*
X105785797Y-120365800D01*
X105785796Y-120365800D01*
X105791725Y-120364145D01*
X105797214Y-120361372D01*
X105797220Y-120361370D01*
X105970116Y-120274033D01*
X105975610Y-120271258D01*
X105991345Y-120258965D01*
X106133101Y-120148213D01*
X106137951Y-120144424D01*
X106195127Y-120078185D01*
X106268540Y-119993134D01*
X106268540Y-119993133D01*
X106272564Y-119988472D01*
X106293387Y-119951818D01*
X106371275Y-119814709D01*
X106371276Y-119814707D01*
X106374323Y-119809344D01*
X106380184Y-119791726D01*
X106420666Y-119733403D01*
X106486254Y-119706224D01*
X106499741Y-119705500D01*
X117014211Y-119705500D01*
X117082332Y-119725502D01*
X117126278Y-119773906D01*
X117184024Y-119886267D01*
X117217712Y-119951818D01*
X117345677Y-120113270D01*
X117350370Y-120117264D01*
X117350371Y-120117265D01*
X117424541Y-120180388D01*
X117502564Y-120246791D01*
X117507942Y-120249797D01*
X117507944Y-120249798D01*
X117538387Y-120266812D01*
X117682398Y-120347297D01*
X117766280Y-120374552D01*
X117872471Y-120409056D01*
X117872475Y-120409057D01*
X117878329Y-120410959D01*
X118082894Y-120435351D01*
X118089029Y-120434879D01*
X118089031Y-120434879D01*
X118161625Y-120429293D01*
X118288300Y-120419546D01*
X118294230Y-120417890D01*
X118294232Y-120417890D01*
X118480797Y-120365800D01*
X118480796Y-120365800D01*
X118486725Y-120364145D01*
X118492214Y-120361372D01*
X118492220Y-120361370D01*
X118665116Y-120274033D01*
X118670610Y-120271258D01*
X118686345Y-120258965D01*
X118828101Y-120148213D01*
X118832951Y-120144424D01*
X118890127Y-120078185D01*
X118963540Y-119993134D01*
X118963540Y-119993133D01*
X118967564Y-119988472D01*
X118988387Y-119951818D01*
X119012132Y-119910019D01*
X119069323Y-119809344D01*
X119081058Y-119774067D01*
X119093496Y-119736678D01*
X119133978Y-119678354D01*
X119199566Y-119651175D01*
X119269437Y-119663770D01*
X119321406Y-119712141D01*
X119335971Y-119748751D01*
X119343564Y-119782444D01*
X119346645Y-119792275D01*
X119426770Y-119989603D01*
X119431413Y-119998794D01*
X119542694Y-120180388D01*
X119548777Y-120188699D01*
X119688213Y-120349667D01*
X119695580Y-120356883D01*
X119859434Y-120492916D01*
X119867881Y-120498831D01*
X120051756Y-120606279D01*
X120061042Y-120610729D01*
X120260001Y-120686703D01*
X120269899Y-120689579D01*
X120373250Y-120710606D01*
X120387299Y-120709410D01*
X120391000Y-120699065D01*
X120391000Y-120698517D01*
X120899000Y-120698517D01*
X120903064Y-120712359D01*
X120916478Y-120714393D01*
X120923184Y-120713534D01*
X120933262Y-120711392D01*
X121137255Y-120650191D01*
X121146842Y-120646433D01*
X121338095Y-120552739D01*
X121346945Y-120547464D01*
X121520328Y-120423792D01*
X121528200Y-120417139D01*
X121679052Y-120266812D01*
X121685730Y-120258965D01*
X121810003Y-120086020D01*
X121815313Y-120077183D01*
X121909670Y-119886267D01*
X121913469Y-119876672D01*
X121954593Y-119741319D01*
X121993534Y-119681955D01*
X122058388Y-119653068D01*
X122128564Y-119663830D01*
X122181782Y-119710823D01*
X122196270Y-119743217D01*
X122203544Y-119768586D01*
X122206359Y-119774063D01*
X122206360Y-119774066D01*
X122276230Y-119910019D01*
X122297712Y-119951818D01*
X122425677Y-120113270D01*
X122430370Y-120117264D01*
X122430371Y-120117265D01*
X122504541Y-120180388D01*
X122582564Y-120246791D01*
X122587942Y-120249797D01*
X122587944Y-120249798D01*
X122618387Y-120266812D01*
X122762398Y-120347297D01*
X122846280Y-120374552D01*
X122952471Y-120409056D01*
X122952475Y-120409057D01*
X122958329Y-120410959D01*
X123162894Y-120435351D01*
X123169029Y-120434879D01*
X123169031Y-120434879D01*
X123241625Y-120429293D01*
X123368300Y-120419546D01*
X123374230Y-120417890D01*
X123374232Y-120417890D01*
X123560797Y-120365800D01*
X123560796Y-120365800D01*
X123566725Y-120364145D01*
X123572214Y-120361372D01*
X123572220Y-120361370D01*
X123745116Y-120274033D01*
X123750610Y-120271258D01*
X123766345Y-120258965D01*
X123908101Y-120148213D01*
X123912951Y-120144424D01*
X123970127Y-120078185D01*
X124043540Y-119993134D01*
X124043540Y-119993133D01*
X124047564Y-119988472D01*
X124068387Y-119951818D01*
X124092132Y-119910019D01*
X124149323Y-119809344D01*
X124214351Y-119613863D01*
X124240171Y-119409474D01*
X124240583Y-119380000D01*
X124239138Y-119365262D01*
X124669520Y-119365262D01*
X124686759Y-119570553D01*
X124688458Y-119576478D01*
X124734395Y-119736678D01*
X124743544Y-119768586D01*
X124746359Y-119774063D01*
X124746360Y-119774066D01*
X124816230Y-119910019D01*
X124837712Y-119951818D01*
X124965677Y-120113270D01*
X124970370Y-120117264D01*
X124970371Y-120117265D01*
X125044541Y-120180388D01*
X125122564Y-120246791D01*
X125127942Y-120249797D01*
X125127944Y-120249798D01*
X125158387Y-120266812D01*
X125302398Y-120347297D01*
X125386280Y-120374552D01*
X125492471Y-120409056D01*
X125492475Y-120409057D01*
X125498329Y-120410959D01*
X125702894Y-120435351D01*
X125709029Y-120434879D01*
X125709031Y-120434879D01*
X125781625Y-120429293D01*
X125908300Y-120419546D01*
X125914230Y-120417890D01*
X125914232Y-120417890D01*
X126100797Y-120365800D01*
X126100796Y-120365800D01*
X126106725Y-120364145D01*
X126112214Y-120361372D01*
X126112220Y-120361370D01*
X126285116Y-120274033D01*
X126290610Y-120271258D01*
X126306345Y-120258965D01*
X126318142Y-120249748D01*
X127214500Y-120249748D01*
X127215707Y-120255816D01*
X127223700Y-120295998D01*
X127226133Y-120308231D01*
X127270448Y-120374552D01*
X127336769Y-120418867D01*
X127348938Y-120421288D01*
X127348939Y-120421288D01*
X127389184Y-120429293D01*
X127395252Y-120430500D01*
X129134748Y-120430500D01*
X129140816Y-120429293D01*
X129181061Y-120421288D01*
X129181062Y-120421288D01*
X129193231Y-120418867D01*
X129259552Y-120374552D01*
X129303867Y-120308231D01*
X129306301Y-120295998D01*
X129314293Y-120255816D01*
X129315500Y-120249748D01*
X129315500Y-118510252D01*
X129303867Y-118451769D01*
X129259552Y-118385448D01*
X129193231Y-118341133D01*
X129181062Y-118338712D01*
X129181061Y-118338712D01*
X129140816Y-118330707D01*
X129134748Y-118329500D01*
X127395252Y-118329500D01*
X127389184Y-118330707D01*
X127348939Y-118338712D01*
X127348938Y-118338712D01*
X127336769Y-118341133D01*
X127270448Y-118385448D01*
X127226133Y-118451769D01*
X127214500Y-118510252D01*
X127214500Y-120249748D01*
X126318142Y-120249748D01*
X126448101Y-120148213D01*
X126452951Y-120144424D01*
X126510127Y-120078185D01*
X126583540Y-119993134D01*
X126583540Y-119993133D01*
X126587564Y-119988472D01*
X126608387Y-119951818D01*
X126632132Y-119910019D01*
X126689323Y-119809344D01*
X126754351Y-119613863D01*
X126780171Y-119409474D01*
X126780583Y-119380000D01*
X126760480Y-119174970D01*
X126700935Y-118977749D01*
X126604218Y-118795849D01*
X126486890Y-118651991D01*
X126477906Y-118640975D01*
X126477903Y-118640972D01*
X126474011Y-118636200D01*
X126456786Y-118621950D01*
X126320025Y-118508811D01*
X126320021Y-118508808D01*
X126315275Y-118504882D01*
X126134055Y-118406897D01*
X125937254Y-118345977D01*
X125931129Y-118345333D01*
X125931128Y-118345333D01*
X125738498Y-118325087D01*
X125738496Y-118325087D01*
X125732369Y-118324443D01*
X125645529Y-118332346D01*
X125533342Y-118342555D01*
X125533339Y-118342556D01*
X125527203Y-118343114D01*
X125329572Y-118401280D01*
X125147002Y-118496726D01*
X125142201Y-118500586D01*
X125142198Y-118500588D01*
X125097856Y-118536240D01*
X124986447Y-118625815D01*
X124854024Y-118783630D01*
X124851056Y-118789028D01*
X124851053Y-118789033D01*
X124795834Y-118889477D01*
X124754776Y-118964162D01*
X124692484Y-119160532D01*
X124691798Y-119166649D01*
X124691797Y-119166653D01*
X124681287Y-119260356D01*
X124669520Y-119365262D01*
X124239138Y-119365262D01*
X124220480Y-119174970D01*
X124160935Y-118977749D01*
X124064218Y-118795849D01*
X123946890Y-118651991D01*
X123937906Y-118640975D01*
X123937903Y-118640972D01*
X123934011Y-118636200D01*
X123916786Y-118621950D01*
X123780025Y-118508811D01*
X123780021Y-118508808D01*
X123775275Y-118504882D01*
X123594055Y-118406897D01*
X123397254Y-118345977D01*
X123391129Y-118345333D01*
X123391128Y-118345333D01*
X123198498Y-118325087D01*
X123198496Y-118325087D01*
X123192369Y-118324443D01*
X123105529Y-118332346D01*
X122993342Y-118342555D01*
X122993339Y-118342556D01*
X122987203Y-118343114D01*
X122789572Y-118401280D01*
X122607002Y-118496726D01*
X122602201Y-118500586D01*
X122602198Y-118500588D01*
X122557856Y-118536240D01*
X122446447Y-118625815D01*
X122314024Y-118783630D01*
X122311056Y-118789028D01*
X122311053Y-118789033D01*
X122255834Y-118889477D01*
X122214776Y-118964162D01*
X122212914Y-118970032D01*
X122196068Y-119023138D01*
X122156405Y-119082022D01*
X122091202Y-119110114D01*
X122021163Y-119098497D01*
X121968523Y-119050857D01*
X121953762Y-119015735D01*
X121936214Y-118945875D01*
X121932894Y-118936124D01*
X121847972Y-118740814D01*
X121843105Y-118731739D01*
X121727426Y-118552926D01*
X121721136Y-118544757D01*
X121577806Y-118387240D01*
X121570273Y-118380215D01*
X121403139Y-118248222D01*
X121394552Y-118242517D01*
X121208117Y-118139599D01*
X121198705Y-118135369D01*
X120997959Y-118064280D01*
X120987988Y-118061646D01*
X120916837Y-118048972D01*
X120903540Y-118050432D01*
X120899000Y-118064989D01*
X120899000Y-120698517D01*
X120391000Y-120698517D01*
X120391000Y-118063102D01*
X120387082Y-118049758D01*
X120372806Y-118047771D01*
X120334324Y-118053660D01*
X120324288Y-118056051D01*
X120121868Y-118122212D01*
X120112359Y-118126209D01*
X119923463Y-118224542D01*
X119914738Y-118230036D01*
X119744433Y-118357905D01*
X119736726Y-118364748D01*
X119589590Y-118518717D01*
X119583104Y-118526727D01*
X119463098Y-118702649D01*
X119458000Y-118711623D01*
X119368338Y-118904783D01*
X119364775Y-118914470D01*
X119336012Y-119018185D01*
X119298533Y-119078483D01*
X119234405Y-119108946D01*
X119163986Y-119099903D01*
X119109636Y-119054224D01*
X119093973Y-119020933D01*
X119093143Y-119018185D01*
X119080935Y-118977749D01*
X118984218Y-118795849D01*
X118866890Y-118651991D01*
X118857906Y-118640975D01*
X118857903Y-118640972D01*
X118854011Y-118636200D01*
X118836786Y-118621950D01*
X118700025Y-118508811D01*
X118700021Y-118508808D01*
X118695275Y-118504882D01*
X118514055Y-118406897D01*
X118317254Y-118345977D01*
X118311129Y-118345333D01*
X118311128Y-118345333D01*
X118118498Y-118325087D01*
X118118496Y-118325087D01*
X118112369Y-118324443D01*
X118025529Y-118332346D01*
X117913342Y-118342555D01*
X117913339Y-118342556D01*
X117907203Y-118343114D01*
X117709572Y-118401280D01*
X117527002Y-118496726D01*
X117522201Y-118500586D01*
X117522198Y-118500588D01*
X117477856Y-118536240D01*
X117366447Y-118625815D01*
X117234024Y-118783630D01*
X117231056Y-118789028D01*
X117231053Y-118789033D01*
X117175834Y-118889477D01*
X117134776Y-118964162D01*
X117132914Y-118970031D01*
X117130485Y-118975699D01*
X117128458Y-118974830D01*
X117094342Y-119025481D01*
X117029140Y-119053575D01*
X117013901Y-119054500D01*
X106501269Y-119054500D01*
X106433148Y-119034498D01*
X106386008Y-118977991D01*
X106385935Y-118977749D01*
X106289218Y-118795849D01*
X106171890Y-118651991D01*
X106162906Y-118640975D01*
X106162903Y-118640972D01*
X106159011Y-118636200D01*
X106141786Y-118621950D01*
X106005025Y-118508811D01*
X106005021Y-118508808D01*
X106000275Y-118504882D01*
X105994854Y-118501951D01*
X105994850Y-118501948D01*
X105834225Y-118415099D01*
X105783816Y-118365104D01*
X105768438Y-118295793D01*
X105792974Y-118229171D01*
X105805058Y-118215168D01*
X109031615Y-114988611D01*
X109039719Y-114981184D01*
X109060149Y-114964041D01*
X109068594Y-114956955D01*
X109080762Y-114935879D01*
X109087439Y-114924315D01*
X109093345Y-114915044D01*
X109108630Y-114893215D01*
X109114954Y-114884184D01*
X109117808Y-114873534D01*
X109119285Y-114870366D01*
X109120477Y-114867090D01*
X109125988Y-114857545D01*
X109132530Y-114820442D01*
X109134909Y-114809710D01*
X109144664Y-114773307D01*
X109141379Y-114735757D01*
X109140900Y-114724776D01*
X109140900Y-105906916D01*
X109160902Y-105838795D01*
X109177805Y-105817821D01*
X110000878Y-104994748D01*
X136169500Y-104994748D01*
X136181133Y-105053231D01*
X136225448Y-105119552D01*
X136291769Y-105163867D01*
X136303938Y-105166288D01*
X136303939Y-105166288D01*
X136344184Y-105174293D01*
X136350252Y-105175500D01*
X138089748Y-105175500D01*
X138095816Y-105174293D01*
X138136061Y-105166288D01*
X138136062Y-105166288D01*
X138148231Y-105163867D01*
X138214552Y-105119552D01*
X138258867Y-105053231D01*
X138270500Y-104994748D01*
X138270500Y-103255252D01*
X138258867Y-103196769D01*
X138214552Y-103130448D01*
X138148231Y-103086133D01*
X138136062Y-103083712D01*
X138136061Y-103083712D01*
X138095816Y-103075707D01*
X138089748Y-103074500D01*
X136350252Y-103074500D01*
X136344184Y-103075707D01*
X136303939Y-103083712D01*
X136303938Y-103083712D01*
X136291769Y-103086133D01*
X136225448Y-103130448D01*
X136181133Y-103196769D01*
X136169500Y-103255252D01*
X136169500Y-104994748D01*
X110000878Y-104994748D01*
X114648426Y-100347200D01*
X116101218Y-100347200D01*
X116121856Y-100503962D01*
X116182364Y-100650041D01*
X116278618Y-100775482D01*
X116404059Y-100871736D01*
X116550138Y-100932244D01*
X116706900Y-100952882D01*
X116715088Y-100951804D01*
X116855474Y-100933322D01*
X116863662Y-100932244D01*
X117009741Y-100871736D01*
X117135182Y-100775482D01*
X117176223Y-100721996D01*
X117233561Y-100680129D01*
X117276186Y-100672700D01*
X134619884Y-100672700D01*
X134688005Y-100692702D01*
X134708979Y-100709605D01*
X135800589Y-101801215D01*
X135808016Y-101809319D01*
X135832245Y-101838194D01*
X135841794Y-101843707D01*
X135864885Y-101857039D01*
X135874156Y-101862945D01*
X135905016Y-101884554D01*
X135915666Y-101887408D01*
X135918834Y-101888885D01*
X135922110Y-101890077D01*
X135931655Y-101895588D01*
X135965399Y-101901538D01*
X135968758Y-101902130D01*
X135979485Y-101904508D01*
X136015893Y-101914264D01*
X136026869Y-101913304D01*
X136026872Y-101913304D01*
X136053443Y-101910979D01*
X136064424Y-101910500D01*
X136129211Y-101910500D01*
X136197332Y-101930502D01*
X136241278Y-101978906D01*
X136332712Y-102156818D01*
X136460677Y-102318270D01*
X136617564Y-102451791D01*
X136797398Y-102552297D01*
X136892238Y-102583113D01*
X136987471Y-102614056D01*
X136987475Y-102614057D01*
X136993329Y-102615959D01*
X137197894Y-102640351D01*
X137204029Y-102639879D01*
X137204031Y-102639879D01*
X137260039Y-102635569D01*
X137403300Y-102624546D01*
X137409230Y-102622890D01*
X137409232Y-102622890D01*
X137595797Y-102570800D01*
X137595796Y-102570800D01*
X137601725Y-102569145D01*
X137607214Y-102566372D01*
X137607220Y-102566370D01*
X137780116Y-102479033D01*
X137785610Y-102476258D01*
X137947951Y-102349424D01*
X138082564Y-102193472D01*
X138103387Y-102156818D01*
X138181276Y-102019707D01*
X138184323Y-102014344D01*
X138249351Y-101818863D01*
X138275171Y-101614474D01*
X138275583Y-101585000D01*
X138255480Y-101379970D01*
X138195935Y-101182749D01*
X138099218Y-101000849D01*
X137989816Y-100866709D01*
X137972906Y-100845975D01*
X137972903Y-100845972D01*
X137969011Y-100841200D01*
X137951786Y-100826950D01*
X137815025Y-100713811D01*
X137815021Y-100713809D01*
X137810275Y-100709882D01*
X137629055Y-100611897D01*
X137432254Y-100550977D01*
X137426129Y-100550333D01*
X137426128Y-100550333D01*
X137233498Y-100530087D01*
X137233496Y-100530087D01*
X137227369Y-100529443D01*
X137140529Y-100537346D01*
X137028342Y-100547555D01*
X137028339Y-100547556D01*
X137022203Y-100548114D01*
X136824572Y-100606280D01*
X136642002Y-100701726D01*
X136637201Y-100705586D01*
X136637198Y-100705588D01*
X136544020Y-100780505D01*
X136481447Y-100830815D01*
X136349024Y-100988630D01*
X136346054Y-100994033D01*
X136346053Y-100994034D01*
X136273655Y-101125725D01*
X136223309Y-101175784D01*
X136153892Y-101190677D01*
X136087443Y-101165676D01*
X136074145Y-101154119D01*
X135051011Y-100130985D01*
X135043584Y-100122881D01*
X135026441Y-100102451D01*
X135026442Y-100102451D01*
X135019355Y-100094006D01*
X135003787Y-100085018D01*
X134986715Y-100075161D01*
X134977444Y-100069255D01*
X134955615Y-100053970D01*
X134946584Y-100047646D01*
X134935934Y-100044792D01*
X134932766Y-100043315D01*
X134929490Y-100042123D01*
X134919945Y-100036612D01*
X134886201Y-100030662D01*
X134882842Y-100030070D01*
X134872115Y-100027692D01*
X134835707Y-100017936D01*
X134824722Y-100018897D01*
X134824720Y-100018897D01*
X134798172Y-100021220D01*
X134787190Y-100021700D01*
X117276186Y-100021700D01*
X117208065Y-100001698D01*
X117176223Y-99972404D01*
X117140205Y-99925464D01*
X117135182Y-99918918D01*
X117009741Y-99822664D01*
X116863662Y-99762156D01*
X116706900Y-99741518D01*
X116550138Y-99762156D01*
X116404059Y-99822664D01*
X116278618Y-99918918D01*
X116182364Y-100044359D01*
X116121856Y-100190438D01*
X116101218Y-100347200D01*
X114648426Y-100347200D01*
X115965364Y-99030262D01*
X136164520Y-99030262D01*
X136181759Y-99235553D01*
X136238544Y-99433586D01*
X136241359Y-99439063D01*
X136241360Y-99439066D01*
X136262247Y-99479707D01*
X136332712Y-99616818D01*
X136460677Y-99778270D01*
X136465370Y-99782264D01*
X136465371Y-99782265D01*
X136518747Y-99827691D01*
X136617564Y-99911791D01*
X136797398Y-100012297D01*
X136866344Y-100034699D01*
X136987471Y-100074056D01*
X136987475Y-100074057D01*
X136993329Y-100075959D01*
X137197894Y-100100351D01*
X137204029Y-100099879D01*
X137204031Y-100099879D01*
X137260039Y-100095569D01*
X137403300Y-100084546D01*
X137409230Y-100082890D01*
X137409232Y-100082890D01*
X137548943Y-100043882D01*
X137601725Y-100029145D01*
X137607214Y-100026372D01*
X137607220Y-100026370D01*
X137780116Y-99939033D01*
X137785610Y-99936258D01*
X137807805Y-99918918D01*
X137943101Y-99813213D01*
X137947951Y-99809424D01*
X137988752Y-99762156D01*
X138078540Y-99658134D01*
X138078540Y-99658133D01*
X138082564Y-99653472D01*
X138103387Y-99616818D01*
X138181276Y-99479707D01*
X138184323Y-99474344D01*
X138249351Y-99278863D01*
X138275171Y-99074474D01*
X138275583Y-99045000D01*
X138255480Y-98839970D01*
X138195935Y-98642749D01*
X138099218Y-98460849D01*
X138025859Y-98370902D01*
X137972906Y-98305975D01*
X137972903Y-98305972D01*
X137969011Y-98301200D01*
X137951786Y-98286950D01*
X137815025Y-98173811D01*
X137815021Y-98173809D01*
X137810275Y-98169882D01*
X137629055Y-98071897D01*
X137432254Y-98010977D01*
X137426129Y-98010333D01*
X137426128Y-98010333D01*
X137233498Y-97990087D01*
X137233496Y-97990087D01*
X137227369Y-97989443D01*
X137140529Y-97997346D01*
X137028342Y-98007555D01*
X137028339Y-98007556D01*
X137022203Y-98008114D01*
X136824572Y-98066280D01*
X136642002Y-98161726D01*
X136637201Y-98165586D01*
X136637198Y-98165588D01*
X136626971Y-98173811D01*
X136481447Y-98290815D01*
X136349024Y-98448630D01*
X136346056Y-98454028D01*
X136346053Y-98454033D01*
X136339315Y-98466290D01*
X136249776Y-98629162D01*
X136187484Y-98825532D01*
X136186798Y-98831649D01*
X136186797Y-98831653D01*
X136165207Y-99024137D01*
X136164520Y-99030262D01*
X115965364Y-99030262D01*
X122136215Y-92859411D01*
X122144319Y-92851984D01*
X122164749Y-92834841D01*
X122173194Y-92827755D01*
X122178707Y-92818206D01*
X122192039Y-92795115D01*
X122197945Y-92785844D01*
X122206565Y-92773534D01*
X122219554Y-92754984D01*
X122222408Y-92744334D01*
X122223885Y-92741166D01*
X122225077Y-92737890D01*
X122230588Y-92728345D01*
X122237130Y-92691242D01*
X122239509Y-92680510D01*
X122242363Y-92669860D01*
X122249264Y-92644107D01*
X122245980Y-92606572D01*
X122245500Y-92595590D01*
X122245500Y-92530062D01*
X122265502Y-92461941D01*
X122314690Y-92417596D01*
X122480113Y-92334035D01*
X122480116Y-92334033D01*
X122485610Y-92331258D01*
X122501345Y-92318965D01*
X122643101Y-92208213D01*
X122647951Y-92204424D01*
X122705992Y-92137183D01*
X122778540Y-92053134D01*
X122778540Y-92053133D01*
X122782564Y-92048472D01*
X122803387Y-92011818D01*
X122828734Y-91967198D01*
X122884323Y-91869344D01*
X122914324Y-91779158D01*
X122954805Y-91720834D01*
X123020393Y-91693654D01*
X123090264Y-91706249D01*
X123102074Y-91714004D01*
X123110997Y-91719156D01*
X123119439Y-91726240D01*
X123129792Y-91730008D01*
X123129797Y-91730011D01*
X123136260Y-91732363D01*
X123156162Y-91741643D01*
X123171655Y-91750588D01*
X123182509Y-91752502D01*
X123182515Y-91752504D01*
X123189276Y-91753696D01*
X123210484Y-91759378D01*
X123216008Y-91761388D01*
X123227306Y-91765500D01*
X123369211Y-91765500D01*
X123437332Y-91785502D01*
X123481278Y-91833906D01*
X123549781Y-91967198D01*
X123572712Y-92011818D01*
X123700677Y-92173270D01*
X123705370Y-92177264D01*
X123705371Y-92177265D01*
X123779541Y-92240388D01*
X123857564Y-92306791D01*
X123862942Y-92309797D01*
X123862944Y-92309798D01*
X123881911Y-92320398D01*
X124037398Y-92407297D01*
X124121280Y-92434552D01*
X124227471Y-92469056D01*
X124227475Y-92469057D01*
X124233329Y-92470959D01*
X124437894Y-92495351D01*
X124444029Y-92494879D01*
X124444031Y-92494879D01*
X124516625Y-92489293D01*
X124643300Y-92479546D01*
X124649230Y-92477890D01*
X124649232Y-92477890D01*
X124783459Y-92440413D01*
X124841725Y-92424145D01*
X124847214Y-92421372D01*
X124847220Y-92421370D01*
X125020116Y-92334033D01*
X125025610Y-92331258D01*
X125041345Y-92318965D01*
X125053142Y-92309748D01*
X125949500Y-92309748D01*
X125950707Y-92315816D01*
X125954331Y-92334033D01*
X125961133Y-92368231D01*
X126005448Y-92434552D01*
X126071769Y-92478867D01*
X126083938Y-92481288D01*
X126083939Y-92481288D01*
X126124184Y-92489293D01*
X126130252Y-92490500D01*
X127869748Y-92490500D01*
X127875816Y-92489293D01*
X127916061Y-92481288D01*
X127916062Y-92481288D01*
X127928231Y-92478867D01*
X127994552Y-92434552D01*
X128038867Y-92368231D01*
X128045670Y-92334033D01*
X128049293Y-92315816D01*
X128050500Y-92309748D01*
X128050500Y-90570252D01*
X128038867Y-90511769D01*
X128029867Y-90498299D01*
X128001443Y-90455761D01*
X127994552Y-90445448D01*
X127928231Y-90401133D01*
X127916062Y-90398712D01*
X127916061Y-90398712D01*
X127875816Y-90390707D01*
X127869748Y-90389500D01*
X126130252Y-90389500D01*
X126124184Y-90390707D01*
X126083939Y-90398712D01*
X126083938Y-90398712D01*
X126071769Y-90401133D01*
X126005448Y-90445448D01*
X125998557Y-90455761D01*
X125970134Y-90498299D01*
X125961133Y-90511769D01*
X125949500Y-90570252D01*
X125949500Y-92309748D01*
X125053142Y-92309748D01*
X125183101Y-92208213D01*
X125187951Y-92204424D01*
X125245992Y-92137183D01*
X125318540Y-92053134D01*
X125318540Y-92053133D01*
X125322564Y-92048472D01*
X125343387Y-92011818D01*
X125368734Y-91967198D01*
X125424323Y-91869344D01*
X125489351Y-91673863D01*
X125515171Y-91469474D01*
X125515583Y-91440000D01*
X125495480Y-91234970D01*
X125435935Y-91037749D01*
X125339218Y-90855849D01*
X125246630Y-90742325D01*
X125212906Y-90700975D01*
X125212903Y-90700972D01*
X125209011Y-90696200D01*
X125204262Y-90692271D01*
X125055025Y-90568811D01*
X125055021Y-90568809D01*
X125050275Y-90564882D01*
X124869055Y-90466897D01*
X124672254Y-90405977D01*
X124666129Y-90405333D01*
X124666128Y-90405333D01*
X124473498Y-90385087D01*
X124473496Y-90385087D01*
X124467369Y-90384443D01*
X124380529Y-90392346D01*
X124268342Y-90402555D01*
X124268339Y-90402556D01*
X124262203Y-90403114D01*
X124064572Y-90461280D01*
X123882002Y-90556726D01*
X123877201Y-90560586D01*
X123877198Y-90560588D01*
X123730271Y-90678720D01*
X123721447Y-90685815D01*
X123644072Y-90778027D01*
X123584962Y-90817353D01*
X123513975Y-90818479D01*
X123458456Y-90786130D01*
X122570711Y-89898385D01*
X122563284Y-89890281D01*
X122546141Y-89869851D01*
X122546142Y-89869851D01*
X122539055Y-89861406D01*
X122529506Y-89855893D01*
X122506415Y-89842561D01*
X122497144Y-89836655D01*
X122475315Y-89821370D01*
X122466284Y-89815046D01*
X122455634Y-89812192D01*
X122452466Y-89810715D01*
X122449190Y-89809523D01*
X122439645Y-89804012D01*
X122405901Y-89798062D01*
X122402542Y-89797470D01*
X122391815Y-89795092D01*
X122355407Y-89785336D01*
X122344422Y-89786297D01*
X122344420Y-89786297D01*
X122317872Y-89788620D01*
X122306890Y-89789100D01*
X110253764Y-89789100D01*
X110185643Y-89769098D01*
X110139150Y-89715442D01*
X110129046Y-89645168D01*
X110154204Y-89585874D01*
X110161454Y-89576527D01*
X110272848Y-89432919D01*
X110362587Y-89250545D01*
X110388752Y-89150097D01*
X110412212Y-89060034D01*
X110412212Y-89060031D01*
X110413822Y-89053852D01*
X110424459Y-88850874D01*
X110394065Y-88649903D01*
X110323881Y-88459148D01*
X110270345Y-88372802D01*
X110220137Y-88291824D01*
X110220134Y-88291820D01*
X110216774Y-88286401D01*
X110077119Y-88138720D01*
X109910621Y-88022137D01*
X109724081Y-87941414D01*
X109637039Y-87923230D01*
X109529856Y-87900838D01*
X109529851Y-87900837D01*
X109525120Y-87899849D01*
X109520238Y-87899593D01*
X109520129Y-87899587D01*
X109520113Y-87899587D01*
X109518461Y-87899500D01*
X108969200Y-87899500D01*
X108944204Y-87902039D01*
X108824132Y-87914235D01*
X108824130Y-87914235D01*
X108817784Y-87914880D01*
X108623828Y-87975662D01*
X108446056Y-88074203D01*
X108291729Y-88206477D01*
X108167152Y-88367081D01*
X108077413Y-88549455D01*
X108075804Y-88555633D01*
X108075803Y-88555635D01*
X108049603Y-88656220D01*
X108026178Y-88746148D01*
X108015541Y-88949126D01*
X108045935Y-89150097D01*
X108116119Y-89340852D01*
X108119479Y-89346272D01*
X108119480Y-89346273D01*
X108219863Y-89508176D01*
X108219866Y-89508180D01*
X108223226Y-89513599D01*
X108227612Y-89518237D01*
X108282734Y-89576527D01*
X108315006Y-89639765D01*
X108307966Y-89710412D01*
X108263849Y-89766037D01*
X108191186Y-89789100D01*
X87393764Y-89789100D01*
X87325643Y-89769098D01*
X87279150Y-89715442D01*
X87269046Y-89645168D01*
X87294204Y-89585874D01*
X87301454Y-89576527D01*
X87412848Y-89432919D01*
X87502587Y-89250545D01*
X87528752Y-89150097D01*
X87552212Y-89060034D01*
X87552212Y-89060031D01*
X87553822Y-89053852D01*
X87564459Y-88850874D01*
X87534065Y-88649903D01*
X87463881Y-88459148D01*
X87410345Y-88372802D01*
X87360137Y-88291824D01*
X87360134Y-88291820D01*
X87356774Y-88286401D01*
X87244877Y-88168073D01*
X87212605Y-88104835D01*
X87219645Y-88034188D01*
X87263762Y-87978563D01*
X87336425Y-87955500D01*
X100310290Y-87955500D01*
X100321272Y-87955980D01*
X100347820Y-87958303D01*
X100347822Y-87958303D01*
X100358807Y-87959264D01*
X100395215Y-87949508D01*
X100405942Y-87947130D01*
X100409301Y-87946538D01*
X100443045Y-87940588D01*
X100452590Y-87935077D01*
X100455866Y-87933885D01*
X100459034Y-87932408D01*
X100469684Y-87929554D01*
X100500544Y-87907945D01*
X100509815Y-87902039D01*
X100532906Y-87888707D01*
X100542455Y-87883194D01*
X100566685Y-87854317D01*
X100574111Y-87846215D01*
X102011200Y-86409126D01*
X108015541Y-86409126D01*
X108045935Y-86610097D01*
X108116119Y-86800852D01*
X108119479Y-86806272D01*
X108119480Y-86806273D01*
X108219863Y-86968176D01*
X108219866Y-86968180D01*
X108223226Y-86973599D01*
X108227612Y-86978237D01*
X108338964Y-87095988D01*
X108362881Y-87121280D01*
X108529379Y-87237863D01*
X108715919Y-87318586D01*
X108761947Y-87328202D01*
X108910144Y-87359162D01*
X108910149Y-87359163D01*
X108914880Y-87360151D01*
X108919762Y-87360407D01*
X108919871Y-87360413D01*
X108919887Y-87360413D01*
X108921539Y-87360500D01*
X109470800Y-87360500D01*
X109518793Y-87355625D01*
X109615868Y-87345765D01*
X109615870Y-87345765D01*
X109622216Y-87345120D01*
X109816172Y-87284338D01*
X109993944Y-87185797D01*
X110148271Y-87053523D01*
X110272848Y-86892919D01*
X110321098Y-86794863D01*
X110340284Y-86755871D01*
X110388307Y-86703580D01*
X110453339Y-86685500D01*
X133484990Y-86685500D01*
X133495972Y-86685980D01*
X133522520Y-86688303D01*
X133522522Y-86688303D01*
X133533507Y-86689264D01*
X133569915Y-86679508D01*
X133580642Y-86677130D01*
X133584001Y-86676538D01*
X133617745Y-86670588D01*
X133627290Y-86665077D01*
X133630566Y-86663885D01*
X133633734Y-86662408D01*
X133644384Y-86659554D01*
X133675244Y-86637945D01*
X133684515Y-86632039D01*
X133707606Y-86618707D01*
X133717155Y-86613194D01*
X133741385Y-86584317D01*
X133748811Y-86576215D01*
X135954405Y-84370622D01*
X136016717Y-84336596D01*
X136087533Y-84341661D01*
X136144368Y-84384208D01*
X136169179Y-84450728D01*
X136169500Y-84459717D01*
X136169500Y-84689748D01*
X136181133Y-84748231D01*
X136225448Y-84814552D01*
X136291769Y-84858867D01*
X136303938Y-84861288D01*
X136303939Y-84861288D01*
X136326000Y-84865676D01*
X136350252Y-84870500D01*
X138089748Y-84870500D01*
X138114000Y-84865676D01*
X138136061Y-84861288D01*
X138136062Y-84861288D01*
X138148231Y-84858867D01*
X138214552Y-84814552D01*
X138258867Y-84748231D01*
X138270500Y-84689748D01*
X138270500Y-82950252D01*
X138258867Y-82891769D01*
X138214552Y-82825448D01*
X138148231Y-82781133D01*
X138136062Y-82778712D01*
X138136061Y-82778712D01*
X138095816Y-82770707D01*
X138089748Y-82769500D01*
X136350252Y-82769500D01*
X136344184Y-82770707D01*
X136303939Y-82778712D01*
X136303938Y-82778712D01*
X136291769Y-82781133D01*
X136225448Y-82825448D01*
X136181133Y-82891769D01*
X136169500Y-82950252D01*
X136169500Y-83366672D01*
X136149498Y-83434793D01*
X136095842Y-83481286D01*
X136032518Y-83492192D01*
X136015893Y-83490737D01*
X136005243Y-83493591D01*
X136005241Y-83493591D01*
X135979504Y-83500488D01*
X135968769Y-83502868D01*
X135961208Y-83504201D01*
X135931655Y-83509412D01*
X135922107Y-83514924D01*
X135918830Y-83516117D01*
X135915662Y-83517594D01*
X135905016Y-83520447D01*
X135895987Y-83526769D01*
X135874153Y-83542057D01*
X135864885Y-83547961D01*
X135832245Y-83566806D01*
X135825157Y-83575253D01*
X135808026Y-83595669D01*
X135800600Y-83603773D01*
X134589162Y-84815212D01*
X133406779Y-85997595D01*
X133344467Y-86031620D01*
X133317684Y-86034500D01*
X110454221Y-86034500D01*
X110386100Y-86014498D01*
X110339607Y-85960842D01*
X110335971Y-85952008D01*
X110323881Y-85919148D01*
X110270345Y-85832802D01*
X110220137Y-85751824D01*
X110220134Y-85751820D01*
X110216774Y-85746401D01*
X110077119Y-85598720D01*
X109910621Y-85482137D01*
X109724081Y-85401414D01*
X109637039Y-85383230D01*
X109529856Y-85360838D01*
X109529851Y-85360837D01*
X109525120Y-85359849D01*
X109520238Y-85359593D01*
X109520129Y-85359587D01*
X109520113Y-85359587D01*
X109518461Y-85359500D01*
X108969200Y-85359500D01*
X108944204Y-85362039D01*
X108824132Y-85374235D01*
X108824130Y-85374235D01*
X108817784Y-85374880D01*
X108623828Y-85435662D01*
X108446056Y-85534203D01*
X108291729Y-85666477D01*
X108167152Y-85827081D01*
X108077413Y-86009455D01*
X108075804Y-86015633D01*
X108075803Y-86015635D01*
X108049603Y-86116220D01*
X108026178Y-86206148D01*
X108025844Y-86212527D01*
X108016409Y-86392570D01*
X108015541Y-86409126D01*
X102011200Y-86409126D01*
X104551200Y-83869126D01*
X108015541Y-83869126D01*
X108045935Y-84070097D01*
X108116119Y-84260852D01*
X108119479Y-84266272D01*
X108119480Y-84266273D01*
X108219863Y-84428176D01*
X108219866Y-84428180D01*
X108223226Y-84433599D01*
X108227612Y-84438237D01*
X108338964Y-84555988D01*
X108362881Y-84581280D01*
X108449086Y-84641641D01*
X108517790Y-84689748D01*
X108529379Y-84697863D01*
X108715919Y-84778586D01*
X108754682Y-84786684D01*
X108910144Y-84819162D01*
X108910149Y-84819163D01*
X108914880Y-84820151D01*
X108919762Y-84820407D01*
X108919871Y-84820413D01*
X108919887Y-84820413D01*
X108921539Y-84820500D01*
X109470800Y-84820500D01*
X109529358Y-84814552D01*
X109615868Y-84805765D01*
X109615870Y-84805765D01*
X109622216Y-84805120D01*
X109816172Y-84744338D01*
X109993944Y-84645797D01*
X110148271Y-84513523D01*
X110272848Y-84352919D01*
X110362587Y-84170545D01*
X110388752Y-84070097D01*
X110412212Y-83980034D01*
X110412212Y-83980031D01*
X110413822Y-83973852D01*
X110424459Y-83770874D01*
X110394065Y-83569903D01*
X110323881Y-83379148D01*
X110270345Y-83292802D01*
X110220137Y-83211824D01*
X110220134Y-83211820D01*
X110216774Y-83206401D01*
X110077119Y-83058720D01*
X109930446Y-82956019D01*
X109915851Y-82945799D01*
X109915850Y-82945799D01*
X109910621Y-82942137D01*
X109724081Y-82861414D01*
X109678053Y-82851798D01*
X109529856Y-82820838D01*
X109529851Y-82820837D01*
X109525120Y-82819849D01*
X109520238Y-82819593D01*
X109520129Y-82819587D01*
X109520113Y-82819587D01*
X109518461Y-82819500D01*
X108969200Y-82819500D01*
X108921207Y-82824375D01*
X108824132Y-82834235D01*
X108824130Y-82834235D01*
X108817784Y-82834880D01*
X108623828Y-82895662D01*
X108446056Y-82994203D01*
X108291729Y-83126477D01*
X108167152Y-83287081D01*
X108077413Y-83469455D01*
X108075804Y-83475633D01*
X108075803Y-83475635D01*
X108042426Y-83603773D01*
X108026178Y-83666148D01*
X108015541Y-83869126D01*
X104551200Y-83869126D01*
X108192621Y-80227705D01*
X108254933Y-80193679D01*
X108281716Y-80190800D01*
X108434042Y-80190800D01*
X108502163Y-80210802D01*
X108548656Y-80264458D01*
X108558760Y-80334732D01*
X108529266Y-80399312D01*
X108495129Y-80427002D01*
X108446056Y-80454203D01*
X108291729Y-80586477D01*
X108167152Y-80747081D01*
X108077413Y-80929455D01*
X108075804Y-80935633D01*
X108075803Y-80935635D01*
X108044800Y-81054659D01*
X108026178Y-81126148D01*
X108025844Y-81132527D01*
X108016571Y-81309474D01*
X108015541Y-81329126D01*
X108045935Y-81530097D01*
X108116119Y-81720852D01*
X108119479Y-81726272D01*
X108119480Y-81726273D01*
X108219863Y-81888176D01*
X108219866Y-81888180D01*
X108223226Y-81893599D01*
X108362881Y-82041280D01*
X108449086Y-82101641D01*
X108513567Y-82146791D01*
X108529379Y-82157863D01*
X108715919Y-82238586D01*
X108743223Y-82244290D01*
X108910144Y-82279162D01*
X108910149Y-82279163D01*
X108914880Y-82280151D01*
X108919762Y-82280407D01*
X108919871Y-82280413D01*
X108919887Y-82280413D01*
X108921539Y-82280500D01*
X109470800Y-82280500D01*
X109518793Y-82275625D01*
X109615868Y-82265765D01*
X109615870Y-82265765D01*
X109622216Y-82265120D01*
X109816172Y-82204338D01*
X109993944Y-82105797D01*
X110148271Y-81973523D01*
X110272848Y-81812919D01*
X110362587Y-81630545D01*
X110388752Y-81530097D01*
X110412212Y-81440034D01*
X110412212Y-81440031D01*
X110413822Y-81433852D01*
X110419645Y-81322744D01*
X110422657Y-81265262D01*
X136164520Y-81265262D01*
X136181759Y-81470553D01*
X136238544Y-81668586D01*
X136241359Y-81674063D01*
X136241360Y-81674066D01*
X136315310Y-81817958D01*
X136332712Y-81851818D01*
X136460677Y-82013270D01*
X136465370Y-82017264D01*
X136465371Y-82017265D01*
X136497892Y-82044942D01*
X136617564Y-82146791D01*
X136622942Y-82149797D01*
X136622944Y-82149798D01*
X136637375Y-82157863D01*
X136797398Y-82247297D01*
X136892238Y-82278113D01*
X136987471Y-82309056D01*
X136987475Y-82309057D01*
X136993329Y-82310959D01*
X137197894Y-82335351D01*
X137204029Y-82334879D01*
X137204031Y-82334879D01*
X137260039Y-82330569D01*
X137403300Y-82319546D01*
X137409230Y-82317890D01*
X137409232Y-82317890D01*
X137543459Y-82280413D01*
X137601725Y-82264145D01*
X137607214Y-82261372D01*
X137607220Y-82261370D01*
X137780116Y-82174033D01*
X137785610Y-82171258D01*
X137947951Y-82044424D01*
X138082564Y-81888472D01*
X138103387Y-81851818D01*
X138174706Y-81726273D01*
X138184323Y-81709344D01*
X138249351Y-81513863D01*
X138275171Y-81309474D01*
X138275583Y-81280000D01*
X138255480Y-81074970D01*
X138195935Y-80877749D01*
X138099218Y-80695849D01*
X138006630Y-80582325D01*
X137972906Y-80540975D01*
X137972903Y-80540972D01*
X137969011Y-80536200D01*
X137956458Y-80525815D01*
X137815025Y-80408811D01*
X137815021Y-80408809D01*
X137810275Y-80404882D01*
X137629055Y-80306897D01*
X137432254Y-80245977D01*
X137426129Y-80245333D01*
X137426128Y-80245333D01*
X137233498Y-80225087D01*
X137233496Y-80225087D01*
X137227369Y-80224443D01*
X137140529Y-80232346D01*
X137028342Y-80242555D01*
X137028339Y-80242556D01*
X137022203Y-80243114D01*
X136824572Y-80301280D01*
X136642002Y-80396726D01*
X136637201Y-80400586D01*
X136637198Y-80400588D01*
X136494826Y-80515058D01*
X136481447Y-80525815D01*
X136349024Y-80683630D01*
X136346056Y-80689028D01*
X136346053Y-80689033D01*
X136260235Y-80845137D01*
X136249776Y-80864162D01*
X136187484Y-81060532D01*
X136186798Y-81066649D01*
X136186797Y-81066653D01*
X136169086Y-81224556D01*
X136164520Y-81265262D01*
X110422657Y-81265262D01*
X110424125Y-81237256D01*
X110424125Y-81237252D01*
X110424459Y-81230874D01*
X110394065Y-81029903D01*
X110323881Y-80839148D01*
X110270345Y-80752802D01*
X110220137Y-80671824D01*
X110220134Y-80671820D01*
X110216774Y-80666401D01*
X110089934Y-80532271D01*
X110081508Y-80523361D01*
X110081507Y-80523360D01*
X110077119Y-80518720D01*
X109930446Y-80416019D01*
X109915851Y-80405799D01*
X109915850Y-80405799D01*
X109910621Y-80402137D01*
X109724081Y-80321414D01*
X109540610Y-80283085D01*
X109478019Y-80249576D01*
X109443481Y-80187546D01*
X109447961Y-80116691D01*
X109467840Y-80082248D01*
X109473194Y-80077755D01*
X109482142Y-80062257D01*
X109494739Y-80044267D01*
X109499156Y-80039003D01*
X109506240Y-80030561D01*
X109510008Y-80020208D01*
X109510011Y-80020203D01*
X109512363Y-80013740D01*
X109521644Y-79993836D01*
X109525076Y-79987892D01*
X109530588Y-79978345D01*
X109532502Y-79967491D01*
X109532504Y-79967485D01*
X109533696Y-79960724D01*
X109539378Y-79939516D01*
X109541730Y-79933052D01*
X109545500Y-79922694D01*
X109545500Y-79841717D01*
X109565502Y-79773596D01*
X109619158Y-79727103D01*
X109633818Y-79721484D01*
X109816172Y-79664338D01*
X109993944Y-79565797D01*
X110148271Y-79433523D01*
X110162140Y-79415644D01*
X110268939Y-79277958D01*
X110272848Y-79272919D01*
X110362587Y-79090545D01*
X110388752Y-78990097D01*
X110412212Y-78900034D01*
X110412212Y-78900031D01*
X110413822Y-78893852D01*
X110419645Y-78782744D01*
X110422657Y-78725262D01*
X136164520Y-78725262D01*
X136181759Y-78930553D01*
X136238544Y-79128586D01*
X136241359Y-79134063D01*
X136241360Y-79134066D01*
X136315310Y-79277958D01*
X136332712Y-79311818D01*
X136460677Y-79473270D01*
X136465370Y-79477264D01*
X136465371Y-79477265D01*
X136538850Y-79539800D01*
X136617564Y-79606791D01*
X136622942Y-79609797D01*
X136622944Y-79609798D01*
X136654563Y-79627469D01*
X136797398Y-79707297D01*
X136876233Y-79732912D01*
X136987471Y-79769056D01*
X136987475Y-79769057D01*
X136993329Y-79770959D01*
X137197894Y-79795351D01*
X137204029Y-79794879D01*
X137204031Y-79794879D01*
X137260039Y-79790569D01*
X137403300Y-79779546D01*
X137409230Y-79777890D01*
X137409232Y-79777890D01*
X137543459Y-79740413D01*
X137601725Y-79724145D01*
X137607214Y-79721372D01*
X137607220Y-79721370D01*
X137739952Y-79654322D01*
X137785610Y-79631258D01*
X137799315Y-79620551D01*
X137895003Y-79545791D01*
X137947951Y-79504424D01*
X138082564Y-79348472D01*
X138103387Y-79311818D01*
X138174706Y-79186273D01*
X138184323Y-79169344D01*
X138249351Y-78973863D01*
X138275171Y-78769474D01*
X138275583Y-78740000D01*
X138255480Y-78534970D01*
X138195935Y-78337749D01*
X138099218Y-78155849D01*
X138006630Y-78042325D01*
X137972906Y-78000975D01*
X137972903Y-78000972D01*
X137969011Y-77996200D01*
X137956458Y-77985815D01*
X137815025Y-77868811D01*
X137815021Y-77868809D01*
X137810275Y-77864882D01*
X137629055Y-77766897D01*
X137432254Y-77705977D01*
X137426129Y-77705333D01*
X137426128Y-77705333D01*
X137233498Y-77685087D01*
X137233496Y-77685087D01*
X137227369Y-77684443D01*
X137140529Y-77692346D01*
X137028342Y-77702555D01*
X137028339Y-77702556D01*
X137022203Y-77703114D01*
X136824572Y-77761280D01*
X136642002Y-77856726D01*
X136637201Y-77860586D01*
X136637198Y-77860588D01*
X136494826Y-77975058D01*
X136481447Y-77985815D01*
X136349024Y-78143630D01*
X136346056Y-78149028D01*
X136346053Y-78149033D01*
X136260235Y-78305137D01*
X136249776Y-78324162D01*
X136187484Y-78520532D01*
X136186798Y-78526649D01*
X136186797Y-78526653D01*
X136169086Y-78684556D01*
X136164520Y-78725262D01*
X110422657Y-78725262D01*
X110424125Y-78697256D01*
X110424125Y-78697252D01*
X110424459Y-78690874D01*
X110394065Y-78489903D01*
X110323881Y-78299148D01*
X110270345Y-78212802D01*
X110220137Y-78131824D01*
X110220134Y-78131820D01*
X110216774Y-78126401D01*
X110089934Y-77992271D01*
X110081508Y-77983361D01*
X110081507Y-77983360D01*
X110077119Y-77978720D01*
X109930446Y-77876019D01*
X109915851Y-77865799D01*
X109915850Y-77865799D01*
X109910621Y-77862137D01*
X109724081Y-77781414D01*
X109540610Y-77743085D01*
X109478019Y-77709576D01*
X109443481Y-77647546D01*
X109447961Y-77576691D01*
X109467840Y-77542248D01*
X109473194Y-77537755D01*
X109482142Y-77522257D01*
X109494739Y-77504267D01*
X109499156Y-77499003D01*
X109506240Y-77490561D01*
X109510008Y-77480208D01*
X109510011Y-77480203D01*
X109512363Y-77473740D01*
X109521644Y-77453836D01*
X109525076Y-77447892D01*
X109530588Y-77438345D01*
X109532502Y-77427491D01*
X109532504Y-77427485D01*
X109533696Y-77420724D01*
X109539378Y-77399516D01*
X109541730Y-77393052D01*
X109545500Y-77382694D01*
X109545500Y-77301717D01*
X109565502Y-77233596D01*
X109619158Y-77187103D01*
X109633818Y-77181484D01*
X109816172Y-77124338D01*
X109993944Y-77025797D01*
X110148271Y-76893523D01*
X110162140Y-76875644D01*
X110268939Y-76737958D01*
X110272848Y-76732919D01*
X110362587Y-76550545D01*
X110364401Y-76543580D01*
X110412212Y-76360034D01*
X110412212Y-76360031D01*
X110413822Y-76353852D01*
X110424459Y-76150874D01*
X110394065Y-75949903D01*
X110323881Y-75759148D01*
X110270345Y-75672802D01*
X110220137Y-75591824D01*
X110220134Y-75591820D01*
X110216774Y-75586401D01*
X110077119Y-75438720D01*
X109910621Y-75322137D01*
X109724081Y-75241414D01*
X109678053Y-75231798D01*
X109529856Y-75200838D01*
X109529851Y-75200837D01*
X109525120Y-75199849D01*
X109520238Y-75199593D01*
X109520129Y-75199587D01*
X109520113Y-75199587D01*
X109518461Y-75199500D01*
X108969200Y-75199500D01*
X108921207Y-75204375D01*
X108824132Y-75214235D01*
X108824130Y-75214235D01*
X108817784Y-75214880D01*
X108623828Y-75275662D01*
X108446056Y-75374203D01*
X108291729Y-75506477D01*
X108167152Y-75667081D01*
X108077413Y-75849455D01*
X108075804Y-75855633D01*
X108075803Y-75855635D01*
X108049603Y-75956220D01*
X108026178Y-76046148D01*
X108015541Y-76249126D01*
X108045935Y-76450097D01*
X108116119Y-76640852D01*
X108119479Y-76646272D01*
X108119480Y-76646273D01*
X108219264Y-76807209D01*
X108238160Y-76875644D01*
X108217058Y-76943433D01*
X108162657Y-76989051D01*
X108101196Y-76999125D01*
X108084187Y-76997637D01*
X108076879Y-76996997D01*
X108076878Y-76996997D01*
X108065893Y-76996036D01*
X108029485Y-77005792D01*
X108018758Y-77008170D01*
X108015399Y-77008762D01*
X107981655Y-77014712D01*
X107972110Y-77020223D01*
X107968834Y-77021415D01*
X107965666Y-77022892D01*
X107955016Y-77025746D01*
X107945985Y-77032070D01*
X107924156Y-77047355D01*
X107914885Y-77053261D01*
X107891794Y-77066593D01*
X107882245Y-77072106D01*
X107875159Y-77080551D01*
X107858015Y-77100982D01*
X107850589Y-77109085D01*
X100232079Y-84727595D01*
X100169767Y-84761621D01*
X100142984Y-84764500D01*
X87336073Y-84764500D01*
X87267952Y-84744498D01*
X87221459Y-84690842D01*
X87211355Y-84620568D01*
X87240849Y-84555988D01*
X87254072Y-84542835D01*
X87288271Y-84513523D01*
X87412848Y-84352919D01*
X87502587Y-84170545D01*
X87528752Y-84070097D01*
X87552212Y-83980034D01*
X87552212Y-83980031D01*
X87553822Y-83973852D01*
X87564459Y-83770874D01*
X87534065Y-83569903D01*
X87463881Y-83379148D01*
X87410345Y-83292802D01*
X87360137Y-83211824D01*
X87360134Y-83211820D01*
X87356774Y-83206401D01*
X87217119Y-83058720D01*
X87070446Y-82956019D01*
X87055851Y-82945799D01*
X87055850Y-82945799D01*
X87050621Y-82942137D01*
X86864081Y-82861414D01*
X86818053Y-82851798D01*
X86669856Y-82820838D01*
X86669851Y-82820837D01*
X86665120Y-82819849D01*
X86660238Y-82819593D01*
X86660129Y-82819587D01*
X86660113Y-82819587D01*
X86658461Y-82819500D01*
X86109200Y-82819500D01*
X86061207Y-82824375D01*
X85964132Y-82834235D01*
X85964130Y-82834235D01*
X85957784Y-82834880D01*
X85763828Y-82895662D01*
X85586056Y-82994203D01*
X85431729Y-83126477D01*
X85307152Y-83287081D01*
X85217413Y-83469455D01*
X85215804Y-83475633D01*
X85215803Y-83475635D01*
X85182426Y-83603773D01*
X85166178Y-83666148D01*
X85155541Y-83869126D01*
X85185935Y-84070097D01*
X85256119Y-84260852D01*
X85259479Y-84266272D01*
X85259480Y-84266273D01*
X85359863Y-84428176D01*
X85359866Y-84428180D01*
X85363226Y-84433599D01*
X85367612Y-84438237D01*
X85478964Y-84555988D01*
X85502881Y-84581280D01*
X85508111Y-84584942D01*
X85508112Y-84584943D01*
X85599263Y-84648768D01*
X85643591Y-84704226D01*
X85650900Y-84774845D01*
X85619836Y-84836291D01*
X85618945Y-84836806D01*
X85613547Y-84843239D01*
X85613545Y-84843241D01*
X85594720Y-84865676D01*
X85587294Y-84873779D01*
X84046584Y-86414490D01*
X84038481Y-86421916D01*
X84009606Y-86446145D01*
X84004093Y-86455694D01*
X83990761Y-86478785D01*
X83984855Y-86488056D01*
X83963246Y-86518916D01*
X83960392Y-86529566D01*
X83958915Y-86532734D01*
X83957723Y-86536010D01*
X83952212Y-86545555D01*
X83946806Y-86576215D01*
X83945670Y-86582658D01*
X83943292Y-86593385D01*
X83933536Y-86629793D01*
X83934497Y-86640778D01*
X83934497Y-86640780D01*
X83936820Y-86667328D01*
X83937300Y-86678310D01*
X83937300Y-112277790D01*
X83936820Y-112288772D01*
X83933536Y-112326307D01*
X80576307Y-112326307D01*
X80046905Y-111796905D01*
X80012879Y-111734593D01*
X80010000Y-111707810D01*
X80010000Y-81329126D01*
X85155541Y-81329126D01*
X85185935Y-81530097D01*
X85256119Y-81720852D01*
X85259479Y-81726272D01*
X85259480Y-81726273D01*
X85359863Y-81888176D01*
X85359866Y-81888180D01*
X85363226Y-81893599D01*
X85502881Y-82041280D01*
X85589086Y-82101641D01*
X85653567Y-82146791D01*
X85669379Y-82157863D01*
X85855919Y-82238586D01*
X85883223Y-82244290D01*
X86050144Y-82279162D01*
X86050149Y-82279163D01*
X86054880Y-82280151D01*
X86059762Y-82280407D01*
X86059871Y-82280413D01*
X86059887Y-82280413D01*
X86061539Y-82280500D01*
X86610800Y-82280500D01*
X86658793Y-82275625D01*
X86755868Y-82265765D01*
X86755870Y-82265765D01*
X86762216Y-82265120D01*
X86956172Y-82204338D01*
X87133944Y-82105797D01*
X87288271Y-81973523D01*
X87412848Y-81812919D01*
X87502587Y-81630545D01*
X87528752Y-81530097D01*
X87552212Y-81440034D01*
X87552212Y-81440031D01*
X87553822Y-81433852D01*
X87559645Y-81322744D01*
X87564125Y-81237256D01*
X87564125Y-81237252D01*
X87564459Y-81230874D01*
X87534065Y-81029903D01*
X87463881Y-80839148D01*
X87410345Y-80752802D01*
X87360137Y-80671824D01*
X87360134Y-80671820D01*
X87356774Y-80666401D01*
X87229934Y-80532271D01*
X87221508Y-80523361D01*
X87221507Y-80523360D01*
X87217119Y-80518720D01*
X87070446Y-80416019D01*
X87055851Y-80405799D01*
X87055850Y-80405799D01*
X87050621Y-80402137D01*
X86864081Y-80321414D01*
X86794592Y-80306897D01*
X86669856Y-80280838D01*
X86669851Y-80280837D01*
X86665120Y-80279849D01*
X86660238Y-80279593D01*
X86660129Y-80279587D01*
X86660113Y-80279587D01*
X86658461Y-80279500D01*
X86109200Y-80279500D01*
X86073906Y-80283085D01*
X85964132Y-80294235D01*
X85964130Y-80294235D01*
X85957784Y-80294880D01*
X85763828Y-80355662D01*
X85586056Y-80454203D01*
X85431729Y-80586477D01*
X85307152Y-80747081D01*
X85217413Y-80929455D01*
X85215804Y-80935633D01*
X85215803Y-80935635D01*
X85184800Y-81054659D01*
X85166178Y-81126148D01*
X85165844Y-81132527D01*
X85156571Y-81309474D01*
X85155541Y-81329126D01*
X80010000Y-81329126D01*
X80010000Y-78789126D01*
X85155541Y-78789126D01*
X85185935Y-78990097D01*
X85256119Y-79180852D01*
X85259479Y-79186272D01*
X85259480Y-79186273D01*
X85359863Y-79348176D01*
X85359866Y-79348180D01*
X85363226Y-79353599D01*
X85502881Y-79501280D01*
X85595021Y-79565797D01*
X85653567Y-79606791D01*
X85669379Y-79617863D01*
X85855919Y-79698586D01*
X85883223Y-79704290D01*
X86050144Y-79739162D01*
X86050149Y-79739163D01*
X86054880Y-79740151D01*
X86059762Y-79740407D01*
X86059871Y-79740413D01*
X86059887Y-79740413D01*
X86061539Y-79740500D01*
X86610800Y-79740500D01*
X86685504Y-79732912D01*
X86755868Y-79725765D01*
X86755870Y-79725765D01*
X86762216Y-79725120D01*
X86956172Y-79664338D01*
X87133944Y-79565797D01*
X87288271Y-79433523D01*
X87302140Y-79415644D01*
X87408939Y-79277958D01*
X87412848Y-79272919D01*
X87502587Y-79090545D01*
X87528752Y-78990097D01*
X87552212Y-78900034D01*
X87552212Y-78900031D01*
X87553822Y-78893852D01*
X87559645Y-78782744D01*
X87564125Y-78697256D01*
X87564125Y-78697252D01*
X87564459Y-78690874D01*
X87534065Y-78489903D01*
X87463881Y-78299148D01*
X87410345Y-78212802D01*
X87360137Y-78131824D01*
X87360134Y-78131820D01*
X87356774Y-78126401D01*
X87229934Y-77992271D01*
X87221508Y-77983361D01*
X87221507Y-77983360D01*
X87217119Y-77978720D01*
X87070446Y-77876019D01*
X87055851Y-77865799D01*
X87055850Y-77865799D01*
X87050621Y-77862137D01*
X86864081Y-77781414D01*
X86794592Y-77766897D01*
X86669856Y-77740838D01*
X86669851Y-77740837D01*
X86665120Y-77739849D01*
X86660238Y-77739593D01*
X86660129Y-77739587D01*
X86660113Y-77739587D01*
X86658461Y-77739500D01*
X86109200Y-77739500D01*
X86073906Y-77743085D01*
X85964132Y-77754235D01*
X85964130Y-77754235D01*
X85957784Y-77754880D01*
X85763828Y-77815662D01*
X85586056Y-77914203D01*
X85431729Y-78046477D01*
X85307152Y-78207081D01*
X85217413Y-78389455D01*
X85215804Y-78395633D01*
X85215803Y-78395635D01*
X85184800Y-78514659D01*
X85166178Y-78586148D01*
X85165844Y-78592527D01*
X85156571Y-78769474D01*
X85155541Y-78789126D01*
X80010000Y-78789126D01*
X80010000Y-73926522D01*
X84877273Y-73926522D01*
X84924764Y-74103761D01*
X84928510Y-74114053D01*
X85020586Y-74311511D01*
X85026069Y-74321007D01*
X85151028Y-74499467D01*
X85158084Y-74507875D01*
X85312125Y-74661916D01*
X85320533Y-74668972D01*
X85498993Y-74793931D01*
X85508489Y-74799414D01*
X85705947Y-74891490D01*
X85716239Y-74895236D01*
X85926688Y-74951625D01*
X85937480Y-74953528D01*
X86002857Y-74959248D01*
X86068975Y-74985112D01*
X86110614Y-75042615D01*
X86114555Y-75113502D01*
X86079546Y-75175267D01*
X86016701Y-75208299D01*
X86004610Y-75210124D01*
X85989442Y-75211664D01*
X85964132Y-75214235D01*
X85964130Y-75214235D01*
X85957784Y-75214880D01*
X85763828Y-75275662D01*
X85586056Y-75374203D01*
X85431729Y-75506477D01*
X85307152Y-75667081D01*
X85217413Y-75849455D01*
X85215804Y-75855633D01*
X85215803Y-75855635D01*
X85189603Y-75956220D01*
X85166178Y-76046148D01*
X85155541Y-76249126D01*
X85185935Y-76450097D01*
X85256119Y-76640852D01*
X85259479Y-76646272D01*
X85259480Y-76646273D01*
X85359863Y-76808176D01*
X85359866Y-76808180D01*
X85363226Y-76813599D01*
X85502881Y-76961280D01*
X85669379Y-77077863D01*
X85855919Y-77158586D01*
X85901947Y-77168202D01*
X86050144Y-77199162D01*
X86050149Y-77199163D01*
X86054880Y-77200151D01*
X86059762Y-77200407D01*
X86059871Y-77200413D01*
X86059887Y-77200413D01*
X86061539Y-77200500D01*
X86610800Y-77200500D01*
X86685504Y-77192912D01*
X86755868Y-77185765D01*
X86755870Y-77185765D01*
X86762216Y-77185120D01*
X86956172Y-77124338D01*
X87133944Y-77025797D01*
X87288271Y-76893523D01*
X87302140Y-76875644D01*
X87408939Y-76737958D01*
X87412848Y-76732919D01*
X87461098Y-76634863D01*
X87480284Y-76595871D01*
X87528307Y-76543580D01*
X87593339Y-76525500D01*
X87665590Y-76525500D01*
X87676572Y-76525980D01*
X87703120Y-76528303D01*
X87703122Y-76528303D01*
X87714107Y-76529264D01*
X87750515Y-76519508D01*
X87761242Y-76517130D01*
X87764601Y-76516538D01*
X87798345Y-76510588D01*
X87807890Y-76505077D01*
X87811166Y-76503885D01*
X87814334Y-76502408D01*
X87824984Y-76499554D01*
X87855844Y-76477945D01*
X87865115Y-76472039D01*
X87888206Y-76458707D01*
X87897755Y-76453194D01*
X87921985Y-76424317D01*
X87929411Y-76416215D01*
X90636500Y-73709126D01*
X108015541Y-73709126D01*
X108045935Y-73910097D01*
X108116119Y-74100852D01*
X108119479Y-74106272D01*
X108119480Y-74106273D01*
X108219863Y-74268176D01*
X108219866Y-74268180D01*
X108223226Y-74273599D01*
X108227612Y-74278237D01*
X108268058Y-74321007D01*
X108362881Y-74421280D01*
X108529379Y-74537863D01*
X108715919Y-74618586D01*
X108761947Y-74628202D01*
X108910144Y-74659162D01*
X108910149Y-74659163D01*
X108914880Y-74660151D01*
X108919762Y-74660407D01*
X108919871Y-74660413D01*
X108919887Y-74660413D01*
X108921539Y-74660500D01*
X109470800Y-74660500D01*
X109518793Y-74655625D01*
X109615868Y-74645765D01*
X109615870Y-74645765D01*
X109622216Y-74645120D01*
X109816172Y-74584338D01*
X109993944Y-74485797D01*
X110148271Y-74353523D01*
X110272848Y-74192919D01*
X110362587Y-74010545D01*
X110383178Y-73931497D01*
X110412212Y-73820034D01*
X110412212Y-73820031D01*
X110413822Y-73813852D01*
X110424459Y-73610874D01*
X110394065Y-73409903D01*
X110323881Y-73219148D01*
X110270345Y-73132802D01*
X110220137Y-73051824D01*
X110220134Y-73051820D01*
X110216774Y-73046401D01*
X110180922Y-73008489D01*
X110081508Y-72903361D01*
X110081507Y-72903360D01*
X110077119Y-72898720D01*
X109910621Y-72782137D01*
X109724081Y-72701414D01*
X109678053Y-72691798D01*
X109529856Y-72660838D01*
X109529851Y-72660837D01*
X109525120Y-72659849D01*
X109520238Y-72659593D01*
X109520129Y-72659587D01*
X109520113Y-72659587D01*
X109518461Y-72659500D01*
X108969200Y-72659500D01*
X108921207Y-72664375D01*
X108824132Y-72674235D01*
X108824130Y-72674235D01*
X108817784Y-72674880D01*
X108623828Y-72735662D01*
X108446056Y-72834203D01*
X108291729Y-72966477D01*
X108167152Y-73127081D01*
X108077413Y-73309455D01*
X108075804Y-73315633D01*
X108075803Y-73315635D01*
X108049603Y-73416220D01*
X108026178Y-73506148D01*
X108015541Y-73709126D01*
X90636500Y-73709126D01*
X99276215Y-65069411D01*
X99284319Y-65061984D01*
X99304749Y-65044841D01*
X99313194Y-65037755D01*
X99318707Y-65028206D01*
X99332039Y-65005115D01*
X99337945Y-64995844D01*
X99353230Y-64974015D01*
X99359554Y-64964984D01*
X99362408Y-64954334D01*
X99363885Y-64951166D01*
X99365077Y-64947890D01*
X99370588Y-64938345D01*
X99377130Y-64901242D01*
X99379509Y-64890510D01*
X99386410Y-64864756D01*
X99389264Y-64854107D01*
X99385980Y-64816572D01*
X99385500Y-64805590D01*
X99385500Y-58397669D01*
X99405502Y-58329548D01*
X99459158Y-58283055D01*
X99470993Y-58278358D01*
X99550379Y-58251410D01*
X99592040Y-58228079D01*
X99651715Y-58194659D01*
X99742884Y-58143602D01*
X99912518Y-58002518D01*
X100053602Y-57832884D01*
X100161410Y-57640379D01*
X100163266Y-57634912D01*
X100163268Y-57634907D01*
X100230475Y-57436921D01*
X100230476Y-57436916D01*
X100232331Y-57431452D01*
X100233159Y-57425743D01*
X100233160Y-57425738D01*
X100263458Y-57216772D01*
X100263991Y-57213098D01*
X100265643Y-57150000D01*
X100245454Y-56930289D01*
X100185565Y-56717936D01*
X100148488Y-56642750D01*
X100136298Y-56572807D01*
X100163858Y-56507378D01*
X100172399Y-56497927D01*
X100531321Y-56139005D01*
X100593633Y-56104979D01*
X100620416Y-56102100D01*
X103179778Y-56102100D01*
X103247899Y-56122102D01*
X103294392Y-56175758D01*
X103304496Y-56246032D01*
X103271176Y-56314832D01*
X103269805Y-56316277D01*
X103265457Y-56320090D01*
X103128863Y-56493360D01*
X103026131Y-56688620D01*
X102960703Y-56899333D01*
X102934770Y-57118440D01*
X102949200Y-57338604D01*
X102950621Y-57344200D01*
X102950622Y-57344205D01*
X102976002Y-57444137D01*
X103003511Y-57552452D01*
X103005928Y-57557694D01*
X103005928Y-57557695D01*
X103044046Y-57640379D01*
X103095883Y-57752821D01*
X103223222Y-57933002D01*
X103381264Y-58086961D01*
X103386060Y-58090166D01*
X103386063Y-58090168D01*
X103470261Y-58146427D01*
X103564717Y-58209540D01*
X103570020Y-58211818D01*
X103570023Y-58211820D01*
X103738239Y-58284091D01*
X103767436Y-58296635D01*
X103814918Y-58307379D01*
X103976995Y-58344054D01*
X103977001Y-58344055D01*
X103982632Y-58345329D01*
X103988403Y-58345556D01*
X103988405Y-58345556D01*
X104056211Y-58348220D01*
X104203098Y-58353991D01*
X104312275Y-58338161D01*
X104415738Y-58323160D01*
X104415743Y-58323159D01*
X104421452Y-58322331D01*
X104426916Y-58320476D01*
X104426921Y-58320475D01*
X104624907Y-58253268D01*
X104624912Y-58253266D01*
X104630379Y-58251410D01*
X104643765Y-58243913D01*
X104712970Y-58228079D01*
X104779753Y-58252174D01*
X104794426Y-58264752D01*
X110245889Y-63716215D01*
X110253316Y-63724319D01*
X110277545Y-63753194D01*
X110287094Y-63758707D01*
X110310185Y-63772039D01*
X110319456Y-63777945D01*
X110350316Y-63799554D01*
X110360967Y-63802408D01*
X110364140Y-63803888D01*
X110367412Y-63805079D01*
X110376955Y-63810588D01*
X110414076Y-63817134D01*
X110424783Y-63819508D01*
X110461193Y-63829263D01*
X110472168Y-63828303D01*
X110472170Y-63828303D01*
X110498731Y-63825979D01*
X110509712Y-63825500D01*
X136043500Y-63825500D01*
X136111621Y-63845502D01*
X136158114Y-63899158D01*
X136169500Y-63951500D01*
X136169500Y-64369748D01*
X136181133Y-64428231D01*
X136225448Y-64494552D01*
X136291769Y-64538867D01*
X136303938Y-64541288D01*
X136303939Y-64541288D01*
X136344184Y-64549293D01*
X136350252Y-64550500D01*
X138089748Y-64550500D01*
X138095816Y-64549293D01*
X138136061Y-64541288D01*
X138136062Y-64541288D01*
X138148231Y-64538867D01*
X138214552Y-64494552D01*
X138258867Y-64428231D01*
X138270500Y-64369748D01*
X138270500Y-62630252D01*
X138258867Y-62571769D01*
X138214552Y-62505448D01*
X138148231Y-62461133D01*
X138136062Y-62458712D01*
X138136061Y-62458712D01*
X138095816Y-62450707D01*
X138089748Y-62449500D01*
X136350252Y-62449500D01*
X136344184Y-62450707D01*
X136303939Y-62458712D01*
X136303938Y-62458712D01*
X136291769Y-62461133D01*
X136225448Y-62505448D01*
X136181133Y-62571769D01*
X136169500Y-62630252D01*
X136169500Y-63048500D01*
X136149498Y-63116621D01*
X136095842Y-63163114D01*
X136043500Y-63174500D01*
X110677016Y-63174500D01*
X110608895Y-63154498D01*
X110587921Y-63137595D01*
X105254752Y-57804426D01*
X105220726Y-57742114D01*
X105225791Y-57671299D01*
X105233909Y-57653774D01*
X105241410Y-57640379D01*
X105243266Y-57634912D01*
X105243268Y-57634907D01*
X105310475Y-57436921D01*
X105310476Y-57436916D01*
X105312331Y-57431452D01*
X105313159Y-57425743D01*
X105313160Y-57425738D01*
X105343458Y-57216772D01*
X105343991Y-57213098D01*
X105345643Y-57150000D01*
X105325454Y-56930289D01*
X105265565Y-56717936D01*
X105167980Y-56520053D01*
X105035967Y-56343267D01*
X105011473Y-56320625D01*
X104975028Y-56259696D01*
X104977309Y-56188736D01*
X105017591Y-56130274D01*
X105083086Y-56102871D01*
X105097002Y-56102100D01*
X130674284Y-56102100D01*
X130742405Y-56122102D01*
X130763379Y-56139005D01*
X135800589Y-61176215D01*
X135808016Y-61184319D01*
X135832245Y-61213194D01*
X135841794Y-61218707D01*
X135864885Y-61232039D01*
X135874156Y-61237945D01*
X135905016Y-61259554D01*
X135915666Y-61262408D01*
X135918834Y-61263885D01*
X135922110Y-61265077D01*
X135931655Y-61270588D01*
X135965399Y-61276538D01*
X135968758Y-61277130D01*
X135979485Y-61279508D01*
X136015893Y-61289264D01*
X136026869Y-61288304D01*
X136026872Y-61288304D01*
X136053443Y-61285979D01*
X136064424Y-61285500D01*
X136129211Y-61285500D01*
X136197332Y-61305502D01*
X136241278Y-61353906D01*
X136332712Y-61531818D01*
X136460677Y-61693270D01*
X136617564Y-61826791D01*
X136797398Y-61927297D01*
X136892238Y-61958113D01*
X136987471Y-61989056D01*
X136987475Y-61989057D01*
X136993329Y-61990959D01*
X137197894Y-62015351D01*
X137204029Y-62014879D01*
X137204031Y-62014879D01*
X137260039Y-62010569D01*
X137403300Y-61999546D01*
X137409230Y-61997890D01*
X137409232Y-61997890D01*
X137595797Y-61945800D01*
X137595796Y-61945800D01*
X137601725Y-61944145D01*
X137607214Y-61941372D01*
X137607220Y-61941370D01*
X137780116Y-61854033D01*
X137785610Y-61851258D01*
X137947951Y-61724424D01*
X138082564Y-61568472D01*
X138103387Y-61531818D01*
X138181276Y-61394707D01*
X138184323Y-61389344D01*
X138249351Y-61193863D01*
X138275171Y-60989474D01*
X138275583Y-60960000D01*
X138255480Y-60754970D01*
X138195935Y-60557749D01*
X138099218Y-60375849D01*
X138025859Y-60285902D01*
X137972906Y-60220975D01*
X137972903Y-60220972D01*
X137969011Y-60216200D01*
X137951786Y-60201950D01*
X137815025Y-60088811D01*
X137815021Y-60088809D01*
X137810275Y-60084882D01*
X137629055Y-59986897D01*
X137432254Y-59925977D01*
X137426129Y-59925333D01*
X137426128Y-59925333D01*
X137233498Y-59905087D01*
X137233496Y-59905087D01*
X137227369Y-59904443D01*
X137140529Y-59912346D01*
X137028342Y-59922555D01*
X137028339Y-59922556D01*
X137022203Y-59923114D01*
X136824572Y-59981280D01*
X136642002Y-60076726D01*
X136637201Y-60080586D01*
X136637198Y-60080588D01*
X136626971Y-60088811D01*
X136481447Y-60205815D01*
X136349024Y-60363630D01*
X136346054Y-60369033D01*
X136346053Y-60369034D01*
X136273655Y-60500725D01*
X136223309Y-60550784D01*
X136153892Y-60565677D01*
X136087443Y-60540676D01*
X136074145Y-60529119D01*
X133950288Y-58405262D01*
X136164520Y-58405262D01*
X136181759Y-58610553D01*
X136238544Y-58808586D01*
X136241359Y-58814063D01*
X136241360Y-58814066D01*
X136262247Y-58854707D01*
X136332712Y-58991818D01*
X136460677Y-59153270D01*
X136617564Y-59286791D01*
X136797398Y-59387297D01*
X136892238Y-59418113D01*
X136987471Y-59449056D01*
X136987475Y-59449057D01*
X136993329Y-59450959D01*
X137197894Y-59475351D01*
X137204029Y-59474879D01*
X137204031Y-59474879D01*
X137260039Y-59470569D01*
X137403300Y-59459546D01*
X137409230Y-59457890D01*
X137409232Y-59457890D01*
X137595797Y-59405800D01*
X137595796Y-59405800D01*
X137601725Y-59404145D01*
X137607214Y-59401372D01*
X137607220Y-59401370D01*
X137780116Y-59314033D01*
X137785610Y-59311258D01*
X137947951Y-59184424D01*
X138082564Y-59028472D01*
X138103387Y-58991818D01*
X138181276Y-58854707D01*
X138184323Y-58849344D01*
X138249351Y-58653863D01*
X138275171Y-58449474D01*
X138275583Y-58420000D01*
X138255480Y-58214970D01*
X138195935Y-58017749D01*
X138099218Y-57835849D01*
X138018585Y-57736983D01*
X137972906Y-57680975D01*
X137972903Y-57680972D01*
X137969011Y-57676200D01*
X137951786Y-57661950D01*
X137815025Y-57548811D01*
X137815021Y-57548809D01*
X137810275Y-57544882D01*
X137629055Y-57446897D01*
X137432254Y-57385977D01*
X137426129Y-57385333D01*
X137426128Y-57385333D01*
X137233498Y-57365087D01*
X137233496Y-57365087D01*
X137227369Y-57364443D01*
X137140529Y-57372346D01*
X137028342Y-57382555D01*
X137028339Y-57382556D01*
X137022203Y-57383114D01*
X136824572Y-57441280D01*
X136642002Y-57536726D01*
X136637201Y-57540586D01*
X136637198Y-57540588D01*
X136506811Y-57645422D01*
X136481447Y-57665815D01*
X136349024Y-57823630D01*
X136346056Y-57829028D01*
X136346053Y-57829033D01*
X136253116Y-57998086D01*
X136249776Y-58004162D01*
X136187484Y-58200532D01*
X136186798Y-58206649D01*
X136186797Y-58206653D01*
X136171217Y-58345556D01*
X136164520Y-58405262D01*
X133950288Y-58405262D01*
X131105411Y-55560385D01*
X131097984Y-55552281D01*
X131080841Y-55531851D01*
X131080842Y-55531851D01*
X131073755Y-55523406D01*
X131064206Y-55517893D01*
X131041115Y-55504561D01*
X131031844Y-55498655D01*
X131010015Y-55483370D01*
X131000984Y-55477046D01*
X130990334Y-55474192D01*
X130987166Y-55472715D01*
X130983890Y-55471523D01*
X130974345Y-55466012D01*
X130940601Y-55460062D01*
X130937242Y-55459470D01*
X130926515Y-55457092D01*
X130890107Y-55447336D01*
X130879122Y-55448297D01*
X130879120Y-55448297D01*
X130852572Y-55450620D01*
X130841590Y-55451100D01*
X100453110Y-55451100D01*
X100442128Y-55450620D01*
X100415580Y-55448297D01*
X100415578Y-55448297D01*
X100404593Y-55447336D01*
X100368185Y-55457092D01*
X100357458Y-55459470D01*
X100354099Y-55460062D01*
X100320355Y-55466012D01*
X100310810Y-55471523D01*
X100307534Y-55472715D01*
X100304366Y-55474192D01*
X100293716Y-55477046D01*
X100284685Y-55483370D01*
X100262856Y-55498655D01*
X100253585Y-55504561D01*
X100230494Y-55517893D01*
X100220945Y-55523406D01*
X100213859Y-55531851D01*
X100196715Y-55552282D01*
X100189289Y-55560385D01*
X99713620Y-56036054D01*
X99651308Y-56070080D01*
X99577836Y-56063989D01*
X99402421Y-55994006D01*
X99396761Y-55992880D01*
X99396757Y-55992879D01*
X99191691Y-55952089D01*
X99191688Y-55952089D01*
X99186024Y-55950962D01*
X99180249Y-55950886D01*
X99180245Y-55950886D01*
X99069504Y-55949437D01*
X98965406Y-55948074D01*
X98959709Y-55949053D01*
X98959708Y-55949053D01*
X98753654Y-55984459D01*
X98753653Y-55984459D01*
X98747957Y-55985438D01*
X98540957Y-56061804D01*
X98535996Y-56064756D01*
X98535995Y-56064756D01*
X98425870Y-56130274D01*
X98351341Y-56174614D01*
X98185457Y-56320090D01*
X98048863Y-56493360D01*
X97946131Y-56688620D01*
X97880703Y-56899333D01*
X97854770Y-57118440D01*
X97869200Y-57338604D01*
X97870621Y-57344200D01*
X97870622Y-57344205D01*
X97896002Y-57444137D01*
X97923511Y-57552452D01*
X97925928Y-57557694D01*
X97925928Y-57557695D01*
X97964046Y-57640379D01*
X98015883Y-57752821D01*
X98143222Y-57933002D01*
X98301264Y-58086961D01*
X98306060Y-58090166D01*
X98306063Y-58090168D01*
X98390261Y-58146427D01*
X98484717Y-58209540D01*
X98490020Y-58211818D01*
X98490023Y-58211820D01*
X98658238Y-58284091D01*
X98712931Y-58329360D01*
X98734500Y-58399859D01*
X98734500Y-64638284D01*
X98714498Y-64706405D01*
X98697595Y-64727379D01*
X87653581Y-75771393D01*
X87591269Y-75805419D01*
X87520454Y-75800354D01*
X87463618Y-75757807D01*
X87457399Y-75748694D01*
X87356774Y-75586401D01*
X87217119Y-75438720D01*
X87050621Y-75322137D01*
X86864081Y-75241414D01*
X86703969Y-75207965D01*
X86641378Y-75174456D01*
X86606840Y-75112426D01*
X86611320Y-75041571D01*
X86653396Y-74984386D01*
X86718754Y-74959107D01*
X86782520Y-74953528D01*
X86793312Y-74951625D01*
X87003761Y-74895236D01*
X87014053Y-74891490D01*
X87211511Y-74799414D01*
X87221007Y-74793931D01*
X87399467Y-74668972D01*
X87407875Y-74661916D01*
X87561916Y-74507875D01*
X87568972Y-74499467D01*
X87693931Y-74321007D01*
X87699414Y-74311511D01*
X87791490Y-74114053D01*
X87795236Y-74103761D01*
X87841394Y-73931497D01*
X87841058Y-73917401D01*
X87833116Y-73914000D01*
X84892033Y-73914000D01*
X84878502Y-73917973D01*
X84877273Y-73926522D01*
X80010000Y-73926522D01*
X80010000Y-73388503D01*
X84878606Y-73388503D01*
X84878942Y-73402599D01*
X84886884Y-73406000D01*
X86087885Y-73406000D01*
X86103124Y-73401525D01*
X86104329Y-73400135D01*
X86106000Y-73392452D01*
X86106000Y-73387885D01*
X86614000Y-73387885D01*
X86618475Y-73403124D01*
X86619865Y-73404329D01*
X86627548Y-73406000D01*
X87827967Y-73406000D01*
X87841498Y-73402027D01*
X87842727Y-73393478D01*
X87795236Y-73216239D01*
X87791490Y-73205947D01*
X87699414Y-73008489D01*
X87693931Y-72998993D01*
X87568972Y-72820533D01*
X87561916Y-72812125D01*
X87407875Y-72658084D01*
X87399467Y-72651028D01*
X87221007Y-72526069D01*
X87211511Y-72520586D01*
X87014053Y-72428510D01*
X87003761Y-72424764D01*
X86793312Y-72368375D01*
X86782519Y-72366472D01*
X86628670Y-72353012D01*
X86616876Y-72356475D01*
X86615671Y-72357865D01*
X86614000Y-72365548D01*
X86614000Y-73387885D01*
X86106000Y-73387885D01*
X86106000Y-72370115D01*
X86101525Y-72354876D01*
X86100135Y-72353671D01*
X86095447Y-72352652D01*
X85937481Y-72366472D01*
X85926688Y-72368375D01*
X85716239Y-72424764D01*
X85705947Y-72428510D01*
X85508489Y-72520586D01*
X85498993Y-72526069D01*
X85320533Y-72651028D01*
X85312125Y-72658084D01*
X85158084Y-72812125D01*
X85151028Y-72820533D01*
X85026069Y-72998993D01*
X85020586Y-73008489D01*
X84928510Y-73205947D01*
X84924764Y-73216239D01*
X84878606Y-73388503D01*
X80010000Y-73388503D01*
X80010000Y-58382670D01*
X93112160Y-58382670D01*
X93117887Y-58390320D01*
X93289042Y-58495205D01*
X93297837Y-58499687D01*
X93507988Y-58586734D01*
X93517373Y-58589783D01*
X93738554Y-58642885D01*
X93748301Y-58644428D01*
X93975070Y-58662275D01*
X93984930Y-58662275D01*
X94211699Y-58644428D01*
X94221446Y-58642885D01*
X94442627Y-58589783D01*
X94452012Y-58586734D01*
X94662163Y-58499687D01*
X94670958Y-58495205D01*
X94838445Y-58392568D01*
X94847907Y-58382110D01*
X94844124Y-58373334D01*
X93992812Y-57522022D01*
X93978868Y-57514408D01*
X93977035Y-57514539D01*
X93970420Y-57518790D01*
X93118920Y-58370290D01*
X93112160Y-58382670D01*
X80010000Y-58382670D01*
X80010000Y-57154930D01*
X92467725Y-57154930D01*
X92485572Y-57381699D01*
X92487115Y-57391446D01*
X92540217Y-57612627D01*
X92543266Y-57622012D01*
X92630313Y-57832163D01*
X92634795Y-57840958D01*
X92737432Y-58008445D01*
X92747890Y-58017907D01*
X92756666Y-58014124D01*
X93607978Y-57162812D01*
X93614356Y-57151132D01*
X94344408Y-57151132D01*
X94344539Y-57152965D01*
X94348790Y-57159580D01*
X95200290Y-58011080D01*
X95212670Y-58017840D01*
X95220320Y-58012113D01*
X95325205Y-57840958D01*
X95329687Y-57832163D01*
X95416734Y-57622012D01*
X95419783Y-57612627D01*
X95472885Y-57391446D01*
X95474428Y-57381699D01*
X95492275Y-57154930D01*
X95492275Y-57145070D01*
X95474428Y-56918301D01*
X95472885Y-56908554D01*
X95419783Y-56687373D01*
X95416734Y-56677988D01*
X95329687Y-56467837D01*
X95325205Y-56459042D01*
X95222568Y-56291555D01*
X95212110Y-56282093D01*
X95203334Y-56285876D01*
X94352022Y-57137188D01*
X94344408Y-57151132D01*
X93614356Y-57151132D01*
X93615592Y-57148868D01*
X93615461Y-57147035D01*
X93611210Y-57140420D01*
X92759710Y-56288920D01*
X92747330Y-56282160D01*
X92739680Y-56287887D01*
X92634795Y-56459042D01*
X92630313Y-56467837D01*
X92543266Y-56677988D01*
X92540217Y-56687373D01*
X92487115Y-56908554D01*
X92485572Y-56918301D01*
X92467725Y-57145070D01*
X92467725Y-57154930D01*
X80010000Y-57154930D01*
X80010000Y-55917890D01*
X93112093Y-55917890D01*
X93115876Y-55926666D01*
X93967188Y-56777978D01*
X93981132Y-56785592D01*
X93982965Y-56785461D01*
X93989580Y-56781210D01*
X94841080Y-55929710D01*
X94847840Y-55917330D01*
X94842113Y-55909680D01*
X94670958Y-55804795D01*
X94662163Y-55800313D01*
X94452012Y-55713266D01*
X94442627Y-55710217D01*
X94221446Y-55657115D01*
X94211699Y-55655572D01*
X93984930Y-55637725D01*
X93975070Y-55637725D01*
X93748301Y-55655572D01*
X93738554Y-55657115D01*
X93517373Y-55710217D01*
X93507988Y-55713266D01*
X93297837Y-55800313D01*
X93289042Y-55804795D01*
X93121555Y-55907432D01*
X93112093Y-55917890D01*
X80010000Y-55917890D01*
X80010000Y-50926000D01*
X80030002Y-50857879D01*
X80083658Y-50811386D01*
X80136000Y-50800000D01*
X148464000Y-50800000D01*
X148532121Y-50820002D01*
G37*
%TD.AperFunction*%
%TA.AperFunction,Conductor*%
G36*
X116117379Y-90460102D02*
G01*
X116163872Y-90513758D01*
X116173976Y-90584032D01*
X116144482Y-90648612D01*
X116128210Y-90664297D01*
X116114829Y-90675056D01*
X116101447Y-90685815D01*
X115969024Y-90843630D01*
X115966056Y-90849028D01*
X115966053Y-90849033D01*
X115882830Y-91000417D01*
X115869776Y-91024162D01*
X115807484Y-91220532D01*
X115806798Y-91226649D01*
X115806797Y-91226653D01*
X115804865Y-91243879D01*
X115784520Y-91425262D01*
X115801759Y-91630553D01*
X115803458Y-91636478D01*
X115849395Y-91796678D01*
X115858544Y-91828586D01*
X115861359Y-91834063D01*
X115861360Y-91834066D01*
X115935310Y-91977958D01*
X115952712Y-92011818D01*
X116080677Y-92173270D01*
X116085370Y-92177264D01*
X116085371Y-92177265D01*
X116159541Y-92240388D01*
X116237564Y-92306791D01*
X116242942Y-92309797D01*
X116242944Y-92309798D01*
X116261911Y-92320398D01*
X116417398Y-92407297D01*
X116501280Y-92434552D01*
X116607471Y-92469056D01*
X116607475Y-92469057D01*
X116613329Y-92470959D01*
X116817894Y-92495351D01*
X116824029Y-92494879D01*
X116824031Y-92494879D01*
X116896625Y-92489293D01*
X117023300Y-92479546D01*
X117029230Y-92477890D01*
X117029232Y-92477890D01*
X117163459Y-92440413D01*
X117221725Y-92424145D01*
X117227214Y-92421372D01*
X117227220Y-92421370D01*
X117400116Y-92334033D01*
X117405610Y-92331258D01*
X117421345Y-92318965D01*
X117563101Y-92208213D01*
X117567951Y-92204424D01*
X117625992Y-92137183D01*
X117698540Y-92053134D01*
X117698540Y-92053133D01*
X117702564Y-92048472D01*
X117723387Y-92011818D01*
X117748734Y-91967198D01*
X117804323Y-91869344D01*
X117813271Y-91842444D01*
X117828496Y-91796678D01*
X117868978Y-91738354D01*
X117934566Y-91711175D01*
X118004437Y-91723770D01*
X118056406Y-91772141D01*
X118070971Y-91808751D01*
X118078564Y-91842444D01*
X118081645Y-91852275D01*
X118161770Y-92049603D01*
X118166413Y-92058794D01*
X118277694Y-92240388D01*
X118283777Y-92248699D01*
X118423213Y-92409667D01*
X118430580Y-92416883D01*
X118594434Y-92552916D01*
X118602881Y-92558831D01*
X118786756Y-92666279D01*
X118796042Y-92670729D01*
X118995001Y-92746703D01*
X119004899Y-92749579D01*
X119108250Y-92770606D01*
X119122299Y-92769410D01*
X119126000Y-92759065D01*
X119126000Y-91312000D01*
X119146002Y-91243879D01*
X119199658Y-91197386D01*
X119252000Y-91186000D01*
X119508000Y-91186000D01*
X119576121Y-91206002D01*
X119622614Y-91259658D01*
X119634000Y-91312000D01*
X119634000Y-92758517D01*
X119638064Y-92772359D01*
X119651478Y-92774393D01*
X119658184Y-92773534D01*
X119668262Y-92771392D01*
X119872255Y-92710191D01*
X119881842Y-92706433D01*
X120073095Y-92612739D01*
X120081945Y-92607464D01*
X120255328Y-92483792D01*
X120263200Y-92477139D01*
X120414052Y-92326812D01*
X120420730Y-92318965D01*
X120545003Y-92146020D01*
X120550313Y-92137183D01*
X120644670Y-91946267D01*
X120648469Y-91936672D01*
X120689593Y-91801319D01*
X120728534Y-91741955D01*
X120793388Y-91713068D01*
X120863564Y-91723830D01*
X120916782Y-91770823D01*
X120931270Y-91803217D01*
X120938544Y-91828586D01*
X120941359Y-91834063D01*
X120941360Y-91834066D01*
X121015310Y-91977958D01*
X121032712Y-92011818D01*
X121160677Y-92173270D01*
X121165370Y-92177264D01*
X121165371Y-92177265D01*
X121239541Y-92240388D01*
X121317564Y-92306791D01*
X121322942Y-92309797D01*
X121322944Y-92309798D01*
X121333712Y-92315816D01*
X121461201Y-92387067D01*
X121510906Y-92437759D01*
X121525314Y-92507278D01*
X121499851Y-92573551D01*
X121488825Y-92586149D01*
X108599185Y-105475789D01*
X108591081Y-105483216D01*
X108562206Y-105507445D01*
X108556693Y-105516994D01*
X108543361Y-105540085D01*
X108537455Y-105549356D01*
X108515846Y-105580216D01*
X108512992Y-105590866D01*
X108511515Y-105594034D01*
X108510323Y-105597310D01*
X108504812Y-105606855D01*
X108498862Y-105640599D01*
X108498270Y-105643958D01*
X108495892Y-105654685D01*
X108486136Y-105691093D01*
X108487097Y-105702078D01*
X108487097Y-105702080D01*
X108489420Y-105728628D01*
X108489900Y-105739610D01*
X108489900Y-114056553D01*
X108469898Y-114124674D01*
X108416242Y-114171167D01*
X108345968Y-114181271D01*
X108287196Y-114156516D01*
X108191341Y-114082964D01*
X108045262Y-114022456D01*
X107888500Y-114001818D01*
X107731738Y-114022456D01*
X107585659Y-114082964D01*
X107460218Y-114179218D01*
X107455195Y-114185764D01*
X107419177Y-114232704D01*
X107361839Y-114274571D01*
X107319214Y-114282000D01*
X100850210Y-114282000D01*
X100839228Y-114281520D01*
X100812680Y-114279197D01*
X100812678Y-114279197D01*
X100801693Y-114278236D01*
X100765285Y-114287992D01*
X100754558Y-114290370D01*
X100751199Y-114290962D01*
X100717455Y-114296912D01*
X100707910Y-114302423D01*
X100704634Y-114303615D01*
X100701466Y-114305092D01*
X100690816Y-114307946D01*
X100681785Y-114314270D01*
X100659956Y-114329555D01*
X100650685Y-114335461D01*
X100627594Y-114348793D01*
X100618045Y-114354306D01*
X100610959Y-114362751D01*
X100593815Y-114383182D01*
X100586389Y-114391285D01*
X96251454Y-118726220D01*
X96189142Y-118760246D01*
X96118327Y-118755181D01*
X96064717Y-118716761D01*
X96002912Y-118640981D01*
X96002903Y-118640971D01*
X95999011Y-118636200D01*
X95981786Y-118621950D01*
X95845025Y-118508811D01*
X95845021Y-118508808D01*
X95840275Y-118504882D01*
X95659055Y-118406897D01*
X95462254Y-118345977D01*
X95456129Y-118345333D01*
X95456128Y-118345333D01*
X95263498Y-118325087D01*
X95263496Y-118325087D01*
X95257369Y-118324443D01*
X95170529Y-118332346D01*
X95058342Y-118342555D01*
X95058339Y-118342556D01*
X95052203Y-118343114D01*
X94854572Y-118401280D01*
X94672002Y-118496726D01*
X94667201Y-118500586D01*
X94667198Y-118500588D01*
X94511447Y-118625815D01*
X94509859Y-118623839D01*
X94456969Y-118651991D01*
X94386211Y-118646171D01*
X94329832Y-118603021D01*
X94305732Y-118536240D01*
X94305500Y-118528592D01*
X94305500Y-116915498D01*
X94305980Y-116904516D01*
X94308302Y-116877980D01*
X94308302Y-116877978D01*
X94309263Y-116866993D01*
X94299512Y-116830603D01*
X94297132Y-116819869D01*
X94292502Y-116793612D01*
X94290588Y-116782755D01*
X94285076Y-116773207D01*
X94283883Y-116769930D01*
X94282406Y-116766762D01*
X94279553Y-116756116D01*
X94257942Y-116725252D01*
X94252038Y-116715984D01*
X94233194Y-116683345D01*
X94204331Y-116659126D01*
X94196227Y-116651700D01*
X85084805Y-107540279D01*
X85050779Y-107477967D01*
X85047900Y-107451184D01*
X85047900Y-100456000D01*
X85067902Y-100387879D01*
X85121558Y-100341386D01*
X85173900Y-100330000D01*
X110490000Y-100330000D01*
X110490000Y-92710000D01*
X110482206Y-92710000D01*
X110481893Y-92709729D01*
X110424009Y-92678123D01*
X110389983Y-92615811D01*
X110395047Y-92544996D01*
X110397529Y-92540144D01*
X110397223Y-92540017D01*
X110401974Y-92528547D01*
X110408867Y-92518231D01*
X110416216Y-92481288D01*
X110419293Y-92465816D01*
X110420500Y-92459748D01*
X110420500Y-90566100D01*
X110440502Y-90497979D01*
X110494158Y-90451486D01*
X110546500Y-90440100D01*
X116049258Y-90440100D01*
X116117379Y-90460102D01*
G37*
%TD.AperFunction*%
%TD*%
M02*
