%TF.GenerationSoftware,KiCad,Pcbnew,(6.0.2)*%
%TF.CreationDate,2022-05-26T14:59:07+01:00*%
%TF.ProjectId,kiln-pcb,6b696c6e-2d70-4636-922e-6b696361645f,rev?*%
%TF.SameCoordinates,Original*%
%TF.FileFunction,Copper,L1,Top*%
%TF.FilePolarity,Positive*%
%FSLAX46Y46*%
G04 Gerber Fmt 4.6, Leading zero omitted, Abs format (unit mm)*
G04 Created by KiCad (PCBNEW (6.0.2)) date 2022-05-26 14:59:07*
%MOMM*%
%LPD*%
G01*
G04 APERTURE LIST*
%TA.AperFunction,ComponentPad*%
%ADD10R,1.700000X1.700000*%
%TD*%
%TA.AperFunction,ComponentPad*%
%ADD11O,1.700000X1.700000*%
%TD*%
%TA.AperFunction,SMDPad,CuDef*%
%ADD12C,2.000000*%
%TD*%
%TA.AperFunction,ComponentPad*%
%ADD13R,2.000000X2.000000*%
%TD*%
%TA.AperFunction,ComponentPad*%
%ADD14O,2.000000X1.600000*%
%TD*%
%TA.AperFunction,ViaPad*%
%ADD15C,0.800000*%
%TD*%
%TA.AperFunction,Conductor*%
%ADD16C,0.250000*%
%TD*%
G04 APERTURE END LIST*
D10*
%TO.P,J1,1,Pin_1*%
%TO.N,unconnected-(J1-Pad1)*%
X106680000Y-104140000D03*
D11*
%TO.P,J1,2,Pin_2*%
%TO.N,CS_T*%
X109220000Y-104140000D03*
%TO.P,J1,3,Pin_3*%
%TO.N,DC_TFT*%
X111760000Y-104140000D03*
%TO.P,J1,4,Pin_4*%
%TO.N,RES_TFT*%
X114300000Y-104140000D03*
%TO.P,J1,5,Pin_5*%
%TO.N,SDA_TFT*%
X116840000Y-104140000D03*
%TO.P,J1,6,Pin_6*%
%TO.N,SCK_T*%
X119380000Y-104140000D03*
%TO.P,J1,7,Pin_7*%
%TO.N,VCC_ROTARY*%
X121920000Y-104140000D03*
%TO.P,J1,8,Pin_8*%
%TO.N,GND_ROTARY*%
X124460000Y-104140000D03*
%TD*%
D12*
%TO.P,TP3,1,1*%
%TO.N,Sig_relay*%
X157480000Y-78740000D03*
%TD*%
%TO.P,TP2,1,1*%
%TO.N,GND_ROTARY*%
X157480000Y-83820000D03*
%TD*%
D13*
%TO.P,U1,1,~{RST}*%
%TO.N,RES_TFT*%
X85575000Y-62230000D03*
D14*
%TO.P,U1,2,A0*%
%TO.N,unconnected-(U1-Pad2)*%
X85575000Y-64770000D03*
%TO.P,U1,3,D0*%
%TO.N,Sig_relay*%
X85575000Y-67310000D03*
%TO.P,U1,4,SCK/D5*%
%TO.N,SCK_T*%
X85575000Y-69850000D03*
%TO.P,U1,5,MISO/D6*%
%TO.N,SO_T*%
X85575000Y-72390000D03*
%TO.P,U1,6,MOSI/D7*%
%TO.N,SDA_TFT*%
X85575000Y-74930000D03*
%TO.P,U1,7,CS/D8*%
%TO.N,CS_T*%
X85575000Y-77470000D03*
%TO.P,U1,8,3V3*%
%TO.N,Vcc_relay*%
X85575000Y-80010000D03*
%TO.P,U1,9,5V*%
%TO.N,VCC_ROTARY*%
X108435000Y-80010000D03*
%TO.P,U1,10,GND*%
%TO.N,GND_ROTARY*%
X108435000Y-77470000D03*
%TO.P,U1,11,D4*%
%TO.N,SW_ROTARY*%
X108435000Y-74930000D03*
%TO.P,U1,12,D3*%
%TO.N,DC_TFT*%
X108435000Y-72390000D03*
%TO.P,U1,13,SDA/D2*%
%TO.N,CLK_ROTARY*%
X108435000Y-69850000D03*
%TO.P,U1,14,SCL/D1*%
%TO.N,DT_ROTARY*%
X108435000Y-67310000D03*
%TO.P,U1,15,RX*%
%TO.N,unconnected-(U1-Pad15)*%
X108435000Y-64770000D03*
%TO.P,U1,16,TX*%
%TO.N,unconnected-(U1-Pad16)*%
X108435000Y-62230000D03*
%TD*%
D10*
%TO.P,J3,1,Pin_1*%
%TO.N,CLK_ROTARY*%
X147315000Y-104140000D03*
D11*
%TO.P,J3,2,Pin_2*%
%TO.N,DT_ROTARY*%
X144775000Y-104140000D03*
%TO.P,J3,3,Pin_3*%
%TO.N,SW_ROTARY*%
X142235000Y-104140000D03*
%TO.P,J3,4,Pin_4*%
%TO.N,VCC_ROTARY*%
X139695000Y-104140000D03*
%TO.P,J3,5,Pin_5*%
%TO.N,GND_ROTARY*%
X137155000Y-104140000D03*
%TD*%
D12*
%TO.P,TP1,1,1*%
%TO.N,VCC_ROTARY*%
X157480000Y-91440000D03*
%TD*%
D10*
%TO.P,J2,1,Pin_1*%
%TO.N,SO_T*%
X127000000Y-91440000D03*
D11*
%TO.P,J2,2,Pin_2*%
%TO.N,CS_T*%
X124460000Y-91440000D03*
%TO.P,J2,3,Pin_3*%
%TO.N,SCK_T*%
X121920000Y-91440000D03*
%TO.P,J2,4,Pin_4*%
%TO.N,VCC_ROTARY*%
X119380000Y-91440000D03*
%TO.P,J2,5,Pin_5*%
%TO.N,GND_ROTARY*%
X116840000Y-91440000D03*
%TD*%
D10*
%TO.P,J4,1,Pin_1*%
%TO.N,Sig_relay*%
X144780000Y-91440000D03*
D11*
%TO.P,J4,2,Pin_2*%
%TO.N,GND_ROTARY*%
X142240000Y-91440000D03*
%TO.P,J4,3,Pin_3*%
%TO.N,Vcc_relay*%
X139700000Y-91440000D03*
%TD*%
D15*
%TO.N,VCC_ROTARY*%
X154940000Y-91440000D03*
%TO.N,SO_T*%
X93980000Y-73660000D03*
%TO.N,Sig_relay*%
X149860000Y-78740000D03*
%TO.N,Vcc_relay*%
X96520000Y-76200000D03*
%TO.N,GND_ROTARY*%
X152400000Y-83820000D03*
%TD*%
D16*
%TO.N,CS_T*%
X87630000Y-77470000D02*
X85575000Y-77470000D01*
X109220000Y-104140000D02*
X109220000Y-99060000D01*
X109220000Y-99060000D02*
X87630000Y-77470000D01*
%TO.N,RES_TFT*%
X91440000Y-68095000D02*
X91440000Y-76200000D01*
X85575000Y-62230000D02*
X91440000Y-68095000D01*
X114300000Y-99060000D02*
X114300000Y-104140000D01*
X91440000Y-76200000D02*
X114300000Y-99060000D01*
%TO.N,VCC_ROTARY*%
X108435000Y-80495000D02*
X108435000Y-80010000D01*
X157480000Y-91440000D02*
X154940000Y-91440000D01*
X129540000Y-96520000D02*
X129540000Y-91440000D01*
X127000000Y-88900000D02*
X121920000Y-88900000D01*
X129540000Y-91440000D02*
X127000000Y-88900000D01*
X121920000Y-88900000D02*
X119380000Y-91440000D01*
X121920000Y-104140000D02*
X129540000Y-96520000D01*
X119380000Y-91440000D02*
X108435000Y-80495000D01*
%TO.N,SO_T*%
X125825489Y-90265489D02*
X121433501Y-90265489D01*
X120745489Y-90953501D02*
X120745489Y-91735521D01*
X93980000Y-74684614D02*
X93980000Y-73660000D01*
X120745489Y-91735521D02*
X118818869Y-93662141D01*
X118818869Y-93662141D02*
X116522141Y-93662141D01*
X121433501Y-90265489D02*
X120745489Y-90953501D01*
X116522141Y-93662141D02*
X104140000Y-81280000D01*
X100575386Y-81280000D02*
X93980000Y-74684614D01*
X127000000Y-91440000D02*
X125825489Y-90265489D01*
X104140000Y-81280000D02*
X100575386Y-81280000D01*
%TO.N,SCK_T*%
X119380000Y-101600000D02*
X121920000Y-99060000D01*
X83820000Y-88900000D02*
X83820000Y-71605000D01*
X100234511Y-105314511D02*
X83820000Y-88900000D01*
X119380000Y-104140000D02*
X119380000Y-101600000D01*
X121920000Y-99060000D02*
X121920000Y-91440000D01*
X118205489Y-105314511D02*
X100234511Y-105314511D01*
X83820000Y-71605000D02*
X85575000Y-69850000D01*
X119380000Y-104140000D02*
X118205489Y-105314511D01*
%TO.N,Sig_relay*%
X157480000Y-78740000D02*
X149860000Y-78740000D01*
%TO.N,Vcc_relay*%
X99060000Y-73660000D02*
X96520000Y-76200000D01*
X105374689Y-73660000D02*
X99060000Y-73660000D01*
X139700000Y-91440000D02*
X129540000Y-81280000D01*
X127000000Y-78740000D02*
X124314520Y-76054520D01*
X124314520Y-76054520D02*
X107769209Y-76054520D01*
X107769209Y-76054520D02*
X105374689Y-73660000D01*
X127000000Y-78740000D02*
X129540000Y-81280000D01*
%TO.N,GND_ROTARY*%
X157480000Y-83820000D02*
X154940000Y-83820000D01*
X154940000Y-83820000D02*
X152400000Y-83820000D01*
%TO.N,CLK_ROTARY*%
X128270000Y-69850000D02*
X108435000Y-69850000D01*
X147315000Y-88895000D02*
X128270000Y-69850000D01*
X147315000Y-104140000D02*
X147315000Y-88895000D01*
%TO.N,DT_ROTARY*%
X152400000Y-91440000D02*
X128270000Y-67310000D01*
X145949511Y-105314511D02*
X151225489Y-105314511D01*
X151225489Y-105314511D02*
X152400000Y-104140000D01*
X144775000Y-104140000D02*
X145949511Y-105314511D01*
X128270000Y-67310000D02*
X108435000Y-67310000D01*
X152400000Y-104140000D02*
X152400000Y-91440000D01*
%TO.N,SW_ROTARY*%
X145954511Y-90074511D02*
X130810000Y-74930000D01*
X130810000Y-74930000D02*
X108435000Y-74930000D01*
X142235000Y-104140000D02*
X145954511Y-100420489D01*
X145954511Y-100420489D02*
X145954511Y-90074511D01*
%TD*%
%TA.AperFunction,Conductor*%
%TO.N,VCC_ROTARY*%
G36*
X105128216Y-74313502D02*
G01*
X105149190Y-74330405D01*
X107247548Y-76428763D01*
X107281574Y-76491075D01*
X107276509Y-76561890D01*
X107247548Y-76606953D01*
X107232697Y-76621804D01*
X107232692Y-76621810D01*
X107228802Y-76625700D01*
X107097477Y-76813251D01*
X107095154Y-76818233D01*
X107095151Y-76818238D01*
X107014409Y-76991392D01*
X107000716Y-77020757D01*
X106941457Y-77241913D01*
X106921502Y-77470000D01*
X106941457Y-77698087D01*
X106942881Y-77703400D01*
X106942881Y-77703402D01*
X106981312Y-77846825D01*
X107000716Y-77919243D01*
X107003039Y-77924224D01*
X107003039Y-77924225D01*
X107095151Y-78121762D01*
X107095154Y-78121767D01*
X107097477Y-78126749D01*
X107228802Y-78314300D01*
X107390700Y-78476198D01*
X107395208Y-78479355D01*
X107395211Y-78479357D01*
X107422516Y-78498476D01*
X107578251Y-78607523D01*
X107583233Y-78609846D01*
X107583238Y-78609849D01*
X107618049Y-78626081D01*
X107671334Y-78672998D01*
X107690795Y-78741275D01*
X107670253Y-78809235D01*
X107618049Y-78854471D01*
X107583489Y-78870586D01*
X107573993Y-78876069D01*
X107395533Y-79001028D01*
X107387125Y-79008084D01*
X107233084Y-79162125D01*
X107226028Y-79170533D01*
X107101069Y-79348993D01*
X107095586Y-79358489D01*
X107003510Y-79555947D01*
X106999764Y-79566239D01*
X106953606Y-79738503D01*
X106953942Y-79752599D01*
X106961884Y-79756000D01*
X109902967Y-79756000D01*
X109916498Y-79752027D01*
X109917727Y-79743478D01*
X109870236Y-79566239D01*
X109866490Y-79555947D01*
X109774414Y-79358489D01*
X109768931Y-79348993D01*
X109643972Y-79170533D01*
X109636916Y-79162125D01*
X109482875Y-79008084D01*
X109474467Y-79001028D01*
X109296007Y-78876069D01*
X109286511Y-78870586D01*
X109251951Y-78854471D01*
X109198666Y-78807554D01*
X109179205Y-78739277D01*
X109199747Y-78671317D01*
X109251951Y-78626081D01*
X109286762Y-78609849D01*
X109286767Y-78609846D01*
X109291749Y-78607523D01*
X109447484Y-78498476D01*
X109474789Y-78479357D01*
X109474792Y-78479355D01*
X109479300Y-78476198D01*
X109641198Y-78314300D01*
X109772523Y-78126749D01*
X109774846Y-78121767D01*
X109774849Y-78121762D01*
X109866961Y-77924225D01*
X109866961Y-77924224D01*
X109869284Y-77919243D01*
X109888689Y-77846825D01*
X109927119Y-77703402D01*
X109927119Y-77703400D01*
X109928543Y-77698087D01*
X109948498Y-77470000D01*
X109928543Y-77241913D01*
X109869284Y-77020757D01*
X109797712Y-76867269D01*
X109787051Y-76797078D01*
X109816031Y-76732265D01*
X109875451Y-76693409D01*
X109911907Y-76688020D01*
X123999926Y-76688020D01*
X124068047Y-76708022D01*
X124089021Y-76724925D01*
X129035458Y-81671362D01*
X138349777Y-90985682D01*
X138383803Y-91047994D01*
X138382100Y-91108446D01*
X138360989Y-91184570D01*
X138337251Y-91406695D01*
X138337548Y-91411848D01*
X138337548Y-91411851D01*
X138339910Y-91452812D01*
X138350110Y-91629715D01*
X138351247Y-91634761D01*
X138351248Y-91634767D01*
X138361768Y-91681446D01*
X138399222Y-91847639D01*
X138483266Y-92054616D01*
X138520685Y-92115678D01*
X138597291Y-92240688D01*
X138599987Y-92245088D01*
X138746250Y-92413938D01*
X138918126Y-92556632D01*
X139111000Y-92669338D01*
X139115825Y-92671180D01*
X139115826Y-92671181D01*
X139188612Y-92698975D01*
X139319692Y-92749030D01*
X139324760Y-92750061D01*
X139324763Y-92750062D01*
X139432017Y-92771883D01*
X139538597Y-92793567D01*
X139543772Y-92793757D01*
X139543774Y-92793757D01*
X139756673Y-92801564D01*
X139756677Y-92801564D01*
X139761837Y-92801753D01*
X139766957Y-92801097D01*
X139766959Y-92801097D01*
X139978288Y-92774025D01*
X139978289Y-92774025D01*
X139983416Y-92773368D01*
X139988366Y-92771883D01*
X140192429Y-92710661D01*
X140192434Y-92710659D01*
X140197384Y-92709174D01*
X140397994Y-92610896D01*
X140579860Y-92481173D01*
X140601469Y-92459640D01*
X140674124Y-92387238D01*
X140738096Y-92323489D01*
X140754199Y-92301080D01*
X140868453Y-92142077D01*
X140869776Y-92143028D01*
X140916645Y-92099857D01*
X140986580Y-92087625D01*
X141052026Y-92115144D01*
X141079875Y-92146994D01*
X141139987Y-92245088D01*
X141286250Y-92413938D01*
X141458126Y-92556632D01*
X141651000Y-92669338D01*
X141655825Y-92671180D01*
X141655826Y-92671181D01*
X141728612Y-92698975D01*
X141859692Y-92749030D01*
X141864760Y-92750061D01*
X141864763Y-92750062D01*
X141972017Y-92771883D01*
X142078597Y-92793567D01*
X142083772Y-92793757D01*
X142083774Y-92793757D01*
X142296673Y-92801564D01*
X142296677Y-92801564D01*
X142301837Y-92801753D01*
X142306957Y-92801097D01*
X142306959Y-92801097D01*
X142518288Y-92774025D01*
X142518289Y-92774025D01*
X142523416Y-92773368D01*
X142528366Y-92771883D01*
X142732429Y-92710661D01*
X142732434Y-92710659D01*
X142737384Y-92709174D01*
X142937994Y-92610896D01*
X143119860Y-92481173D01*
X143228091Y-92373319D01*
X143290462Y-92339404D01*
X143361268Y-92344592D01*
X143418030Y-92387238D01*
X143435012Y-92418341D01*
X143463250Y-92493666D01*
X143479385Y-92536705D01*
X143566739Y-92653261D01*
X143683295Y-92740615D01*
X143819684Y-92791745D01*
X143881866Y-92798500D01*
X145195011Y-92798500D01*
X145263132Y-92818502D01*
X145309625Y-92872158D01*
X145321011Y-92924500D01*
X145321011Y-100105895D01*
X145301009Y-100174016D01*
X145284106Y-100194990D01*
X142692345Y-102786750D01*
X142630033Y-102820776D01*
X142581154Y-102821702D01*
X142368373Y-102783800D01*
X142368367Y-102783799D01*
X142363284Y-102782894D01*
X142289452Y-102781992D01*
X142145081Y-102780228D01*
X142145079Y-102780228D01*
X142139911Y-102780165D01*
X141919091Y-102813955D01*
X141706756Y-102883357D01*
X141664222Y-102905499D01*
X141532975Y-102973822D01*
X141508607Y-102986507D01*
X141504474Y-102989610D01*
X141504471Y-102989612D01*
X141334100Y-103117530D01*
X141329965Y-103120635D01*
X141304541Y-103147240D01*
X141218729Y-103237037D01*
X141175629Y-103282138D01*
X141068204Y-103439618D01*
X141067898Y-103440066D01*
X141012987Y-103485069D01*
X140942462Y-103493240D01*
X140878715Y-103461986D01*
X140858018Y-103437502D01*
X140777426Y-103312926D01*
X140771136Y-103304757D01*
X140627806Y-103147240D01*
X140620273Y-103140215D01*
X140453139Y-103008222D01*
X140444552Y-103002517D01*
X140258117Y-102899599D01*
X140248705Y-102895369D01*
X140047959Y-102824280D01*
X140037988Y-102821646D01*
X139966837Y-102808972D01*
X139953540Y-102810432D01*
X139949000Y-102824989D01*
X139949000Y-105458517D01*
X139953064Y-105472359D01*
X139966478Y-105474393D01*
X139973184Y-105473534D01*
X139983262Y-105471392D01*
X140187255Y-105410191D01*
X140196842Y-105406433D01*
X140388095Y-105312739D01*
X140396945Y-105307464D01*
X140570328Y-105183792D01*
X140578200Y-105177139D01*
X140729052Y-105026812D01*
X140735730Y-105018965D01*
X140863022Y-104841819D01*
X140864279Y-104842722D01*
X140911373Y-104799362D01*
X140981311Y-104787145D01*
X141046751Y-104814678D01*
X141074579Y-104846511D01*
X141134987Y-104945088D01*
X141281250Y-105113938D01*
X141453126Y-105256632D01*
X141646000Y-105369338D01*
X141854692Y-105449030D01*
X141859760Y-105450061D01*
X141859763Y-105450062D01*
X141954862Y-105469410D01*
X142073597Y-105493567D01*
X142078772Y-105493757D01*
X142078774Y-105493757D01*
X142291673Y-105501564D01*
X142291677Y-105501564D01*
X142296837Y-105501753D01*
X142301957Y-105501097D01*
X142301959Y-105501097D01*
X142513288Y-105474025D01*
X142513289Y-105474025D01*
X142518416Y-105473368D01*
X142523369Y-105471882D01*
X142727429Y-105410661D01*
X142727434Y-105410659D01*
X142732384Y-105409174D01*
X142932994Y-105310896D01*
X143114860Y-105181173D01*
X143273096Y-105023489D01*
X143332594Y-104940689D01*
X143403453Y-104842077D01*
X143404776Y-104843028D01*
X143451645Y-104799857D01*
X143521580Y-104787625D01*
X143587026Y-104815144D01*
X143614875Y-104846994D01*
X143674987Y-104945088D01*
X143821250Y-105113938D01*
X143993126Y-105256632D01*
X144186000Y-105369338D01*
X144394692Y-105449030D01*
X144399760Y-105450061D01*
X144399763Y-105450062D01*
X144494862Y-105469410D01*
X144613597Y-105493567D01*
X144618772Y-105493757D01*
X144618774Y-105493757D01*
X144831673Y-105501564D01*
X144831677Y-105501564D01*
X144836837Y-105501753D01*
X144841957Y-105501097D01*
X144841959Y-105501097D01*
X145053288Y-105474025D01*
X145053289Y-105474025D01*
X145058416Y-105473368D01*
X145063367Y-105471883D01*
X145063370Y-105471882D01*
X145104829Y-105459444D01*
X145175825Y-105459028D01*
X145230131Y-105491035D01*
X145445854Y-105706758D01*
X145453398Y-105715048D01*
X145457511Y-105721529D01*
X145463288Y-105726954D01*
X145507178Y-105768169D01*
X145510005Y-105770909D01*
X145529741Y-105790645D01*
X145532931Y-105793119D01*
X145541958Y-105800829D01*
X145574190Y-105831097D01*
X145585369Y-105837243D01*
X145591943Y-105840857D01*
X145608467Y-105851710D01*
X145624470Y-105864124D01*
X145665050Y-105881685D01*
X145675684Y-105886894D01*
X145714451Y-105908206D01*
X145722128Y-105910177D01*
X145722133Y-105910179D01*
X145734069Y-105913243D01*
X145752777Y-105919648D01*
X145766757Y-105925698D01*
X145766758Y-105925698D01*
X145771368Y-105927693D01*
X145771046Y-105928436D01*
X145825506Y-105963215D01*
X145855184Y-106027711D01*
X145845281Y-106098014D01*
X145798942Y-106151802D01*
X145730518Y-106172000D01*
X118421119Y-106172000D01*
X118352998Y-106151998D01*
X118306505Y-106098342D01*
X118296401Y-106028068D01*
X118325895Y-105963488D01*
X118374736Y-105928848D01*
X118405401Y-105916707D01*
X118416631Y-105912862D01*
X118451472Y-105902740D01*
X118451473Y-105902740D01*
X118459082Y-105900529D01*
X118465901Y-105896496D01*
X118465906Y-105896494D01*
X118476517Y-105890218D01*
X118494265Y-105881523D01*
X118513106Y-105874063D01*
X118533476Y-105859264D01*
X118548876Y-105848075D01*
X118558796Y-105841559D01*
X118590024Y-105823091D01*
X118590027Y-105823089D01*
X118596851Y-105819053D01*
X118611172Y-105804732D01*
X118626206Y-105791891D01*
X118627921Y-105790645D01*
X118642596Y-105779983D01*
X118670787Y-105745906D01*
X118678777Y-105737127D01*
X118924549Y-105491355D01*
X118986861Y-105457329D01*
X119038762Y-105456979D01*
X119218597Y-105493567D01*
X119223772Y-105493757D01*
X119223774Y-105493757D01*
X119436673Y-105501564D01*
X119436677Y-105501564D01*
X119441837Y-105501753D01*
X119446957Y-105501097D01*
X119446959Y-105501097D01*
X119658288Y-105474025D01*
X119658289Y-105474025D01*
X119663416Y-105473368D01*
X119668369Y-105471882D01*
X119872429Y-105410661D01*
X119872434Y-105410659D01*
X119877384Y-105409174D01*
X120077994Y-105310896D01*
X120259860Y-105181173D01*
X120418096Y-105023489D01*
X120477594Y-104940689D01*
X120548453Y-104842077D01*
X120549640Y-104842930D01*
X120596960Y-104799362D01*
X120666897Y-104787145D01*
X120732338Y-104814678D01*
X120760166Y-104846511D01*
X120817694Y-104940388D01*
X120823777Y-104948699D01*
X120963213Y-105109667D01*
X120970580Y-105116883D01*
X121134434Y-105252916D01*
X121142881Y-105258831D01*
X121326756Y-105366279D01*
X121336042Y-105370729D01*
X121535001Y-105446703D01*
X121544899Y-105449579D01*
X121648250Y-105470606D01*
X121662299Y-105469410D01*
X121666000Y-105459065D01*
X121666000Y-105458517D01*
X122174000Y-105458517D01*
X122178064Y-105472359D01*
X122191478Y-105474393D01*
X122198184Y-105473534D01*
X122208262Y-105471392D01*
X122412255Y-105410191D01*
X122421842Y-105406433D01*
X122613095Y-105312739D01*
X122621945Y-105307464D01*
X122795328Y-105183792D01*
X122803200Y-105177139D01*
X122954052Y-105026812D01*
X122960730Y-105018965D01*
X123088022Y-104841819D01*
X123089279Y-104842722D01*
X123136373Y-104799362D01*
X123206311Y-104787145D01*
X123271751Y-104814678D01*
X123299579Y-104846511D01*
X123359987Y-104945088D01*
X123506250Y-105113938D01*
X123678126Y-105256632D01*
X123871000Y-105369338D01*
X124079692Y-105449030D01*
X124084760Y-105450061D01*
X124084763Y-105450062D01*
X124179862Y-105469410D01*
X124298597Y-105493567D01*
X124303772Y-105493757D01*
X124303774Y-105493757D01*
X124516673Y-105501564D01*
X124516677Y-105501564D01*
X124521837Y-105501753D01*
X124526957Y-105501097D01*
X124526959Y-105501097D01*
X124738288Y-105474025D01*
X124738289Y-105474025D01*
X124743416Y-105473368D01*
X124748369Y-105471882D01*
X124952429Y-105410661D01*
X124952434Y-105410659D01*
X124957384Y-105409174D01*
X125157994Y-105310896D01*
X125339860Y-105181173D01*
X125498096Y-105023489D01*
X125557594Y-104940689D01*
X125625435Y-104846277D01*
X125628453Y-104842077D01*
X125632993Y-104832892D01*
X125725136Y-104646453D01*
X125725137Y-104646451D01*
X125727430Y-104641811D01*
X125792370Y-104428069D01*
X125821529Y-104206590D01*
X125823156Y-104140000D01*
X125820418Y-104106695D01*
X135792251Y-104106695D01*
X135792548Y-104111848D01*
X135792548Y-104111851D01*
X135798011Y-104206590D01*
X135805110Y-104329715D01*
X135806247Y-104334761D01*
X135806248Y-104334767D01*
X135808742Y-104345833D01*
X135854222Y-104547639D01*
X135938266Y-104754616D01*
X135986233Y-104832892D01*
X136052291Y-104940688D01*
X136054987Y-104945088D01*
X136201250Y-105113938D01*
X136373126Y-105256632D01*
X136566000Y-105369338D01*
X136774692Y-105449030D01*
X136779760Y-105450061D01*
X136779763Y-105450062D01*
X136874862Y-105469410D01*
X136993597Y-105493567D01*
X136998772Y-105493757D01*
X136998774Y-105493757D01*
X137211673Y-105501564D01*
X137211677Y-105501564D01*
X137216837Y-105501753D01*
X137221957Y-105501097D01*
X137221959Y-105501097D01*
X137433288Y-105474025D01*
X137433289Y-105474025D01*
X137438416Y-105473368D01*
X137443369Y-105471882D01*
X137647429Y-105410661D01*
X137647434Y-105410659D01*
X137652384Y-105409174D01*
X137852994Y-105310896D01*
X138034860Y-105181173D01*
X138193096Y-105023489D01*
X138252594Y-104940689D01*
X138323453Y-104842077D01*
X138324640Y-104842930D01*
X138371960Y-104799362D01*
X138441897Y-104787145D01*
X138507338Y-104814678D01*
X138535166Y-104846511D01*
X138592694Y-104940388D01*
X138598777Y-104948699D01*
X138738213Y-105109667D01*
X138745580Y-105116883D01*
X138909434Y-105252916D01*
X138917881Y-105258831D01*
X139101756Y-105366279D01*
X139111042Y-105370729D01*
X139310001Y-105446703D01*
X139319899Y-105449579D01*
X139423250Y-105470606D01*
X139437299Y-105469410D01*
X139441000Y-105459065D01*
X139441000Y-102823102D01*
X139437082Y-102809758D01*
X139422806Y-102807771D01*
X139384324Y-102813660D01*
X139374288Y-102816051D01*
X139171868Y-102882212D01*
X139162359Y-102886209D01*
X138973463Y-102984542D01*
X138964738Y-102990036D01*
X138794433Y-103117905D01*
X138786726Y-103124748D01*
X138639590Y-103278717D01*
X138633109Y-103286722D01*
X138528498Y-103440074D01*
X138473587Y-103485076D01*
X138403062Y-103493247D01*
X138339315Y-103461993D01*
X138318618Y-103437509D01*
X138237822Y-103312617D01*
X138237820Y-103312614D01*
X138235014Y-103308277D01*
X138084670Y-103143051D01*
X138080619Y-103139852D01*
X138080615Y-103139848D01*
X137913414Y-103007800D01*
X137913410Y-103007798D01*
X137909359Y-103004598D01*
X137904831Y-103002098D01*
X137788988Y-102938150D01*
X137713789Y-102896638D01*
X137708920Y-102894914D01*
X137708916Y-102894912D01*
X137508087Y-102823795D01*
X137508083Y-102823794D01*
X137503212Y-102822069D01*
X137498119Y-102821162D01*
X137498116Y-102821161D01*
X137288373Y-102783800D01*
X137288367Y-102783799D01*
X137283284Y-102782894D01*
X137209452Y-102781992D01*
X137065081Y-102780228D01*
X137065079Y-102780228D01*
X137059911Y-102780165D01*
X136839091Y-102813955D01*
X136626756Y-102883357D01*
X136584222Y-102905499D01*
X136452975Y-102973822D01*
X136428607Y-102986507D01*
X136424474Y-102989610D01*
X136424471Y-102989612D01*
X136254100Y-103117530D01*
X136249965Y-103120635D01*
X136224541Y-103147240D01*
X136138729Y-103237037D01*
X136095629Y-103282138D01*
X135969743Y-103466680D01*
X135939325Y-103532210D01*
X135894160Y-103629511D01*
X135875688Y-103669305D01*
X135815989Y-103884570D01*
X135792251Y-104106695D01*
X125820418Y-104106695D01*
X125804852Y-103917361D01*
X125750431Y-103700702D01*
X125661354Y-103495840D01*
X125596885Y-103396186D01*
X125542822Y-103312617D01*
X125542820Y-103312614D01*
X125540014Y-103308277D01*
X125389670Y-103143051D01*
X125385619Y-103139852D01*
X125385615Y-103139848D01*
X125218414Y-103007800D01*
X125218410Y-103007798D01*
X125214359Y-103004598D01*
X125209831Y-103002098D01*
X125093988Y-102938150D01*
X125018789Y-102896638D01*
X125013920Y-102894914D01*
X125013916Y-102894912D01*
X124813087Y-102823795D01*
X124813083Y-102823794D01*
X124808212Y-102822069D01*
X124803119Y-102821162D01*
X124803116Y-102821161D01*
X124593373Y-102783800D01*
X124593367Y-102783799D01*
X124588284Y-102782894D01*
X124514452Y-102781992D01*
X124370081Y-102780228D01*
X124370079Y-102780228D01*
X124364911Y-102780165D01*
X124144091Y-102813955D01*
X123931756Y-102883357D01*
X123889222Y-102905499D01*
X123757975Y-102973822D01*
X123733607Y-102986507D01*
X123729474Y-102989610D01*
X123729471Y-102989612D01*
X123559100Y-103117530D01*
X123554965Y-103120635D01*
X123529541Y-103147240D01*
X123443729Y-103237037D01*
X123400629Y-103282138D01*
X123293204Y-103439618D01*
X123292898Y-103440066D01*
X123237987Y-103485069D01*
X123167462Y-103493240D01*
X123103715Y-103461986D01*
X123083018Y-103437502D01*
X123002426Y-103312926D01*
X122996136Y-103304757D01*
X122852806Y-103147240D01*
X122845273Y-103140215D01*
X122678139Y-103008222D01*
X122669552Y-103002517D01*
X122483117Y-102899599D01*
X122473705Y-102895369D01*
X122272959Y-102824280D01*
X122262988Y-102821646D01*
X122191837Y-102808972D01*
X122178540Y-102810432D01*
X122174000Y-102824989D01*
X122174000Y-105458517D01*
X121666000Y-105458517D01*
X121666000Y-102823102D01*
X121662082Y-102809758D01*
X121647806Y-102807771D01*
X121609324Y-102813660D01*
X121599288Y-102816051D01*
X121396868Y-102882212D01*
X121387359Y-102886209D01*
X121198463Y-102984542D01*
X121189738Y-102990036D01*
X121019433Y-103117905D01*
X121011726Y-103124748D01*
X120864590Y-103278717D01*
X120858109Y-103286722D01*
X120753498Y-103440074D01*
X120698587Y-103485076D01*
X120628062Y-103493247D01*
X120564315Y-103461993D01*
X120543618Y-103437509D01*
X120462822Y-103312617D01*
X120462820Y-103312614D01*
X120460014Y-103308277D01*
X120309670Y-103143051D01*
X120305619Y-103139852D01*
X120305615Y-103139848D01*
X120138414Y-103007800D01*
X120138410Y-103007798D01*
X120134359Y-103004598D01*
X120129835Y-103002101D01*
X120129831Y-103002098D01*
X120078608Y-102973822D01*
X120028636Y-102923390D01*
X120013500Y-102863513D01*
X120013500Y-101914594D01*
X120033502Y-101846473D01*
X120050405Y-101825499D01*
X122312247Y-99563657D01*
X122320537Y-99556113D01*
X122327018Y-99552000D01*
X122373659Y-99502332D01*
X122376413Y-99499491D01*
X122396134Y-99479770D01*
X122398612Y-99476575D01*
X122406318Y-99467553D01*
X122431158Y-99441101D01*
X122436586Y-99435321D01*
X122446346Y-99417568D01*
X122457199Y-99401045D01*
X122464753Y-99391306D01*
X122469613Y-99385041D01*
X122487176Y-99344457D01*
X122492383Y-99333827D01*
X122513695Y-99295060D01*
X122515666Y-99287383D01*
X122515668Y-99287378D01*
X122518732Y-99275442D01*
X122525138Y-99256730D01*
X122530034Y-99245417D01*
X122533181Y-99238145D01*
X122540097Y-99194481D01*
X122542504Y-99182860D01*
X122551528Y-99147711D01*
X122551528Y-99147710D01*
X122553500Y-99140030D01*
X122553500Y-99119769D01*
X122555051Y-99100058D01*
X122556979Y-99087885D01*
X122558219Y-99080057D01*
X122554059Y-99036046D01*
X122553500Y-99024189D01*
X122553500Y-92720427D01*
X122573502Y-92652306D01*
X122614618Y-92612550D01*
X122617994Y-92610896D01*
X122799860Y-92481173D01*
X122821469Y-92459640D01*
X122894124Y-92387238D01*
X122958096Y-92323489D01*
X122974199Y-92301080D01*
X123088453Y-92142077D01*
X123089776Y-92143028D01*
X123136645Y-92099857D01*
X123206580Y-92087625D01*
X123272026Y-92115144D01*
X123299875Y-92146994D01*
X123359987Y-92245088D01*
X123506250Y-92413938D01*
X123678126Y-92556632D01*
X123871000Y-92669338D01*
X123875825Y-92671180D01*
X123875826Y-92671181D01*
X123948612Y-92698975D01*
X124079692Y-92749030D01*
X124084760Y-92750061D01*
X124084763Y-92750062D01*
X124192017Y-92771883D01*
X124298597Y-92793567D01*
X124303772Y-92793757D01*
X124303774Y-92793757D01*
X124516673Y-92801564D01*
X124516677Y-92801564D01*
X124521837Y-92801753D01*
X124526957Y-92801097D01*
X124526959Y-92801097D01*
X124738288Y-92774025D01*
X124738289Y-92774025D01*
X124743416Y-92773368D01*
X124748366Y-92771883D01*
X124952429Y-92710661D01*
X124952434Y-92710659D01*
X124957384Y-92709174D01*
X125157994Y-92610896D01*
X125339860Y-92481173D01*
X125448091Y-92373319D01*
X125510462Y-92339404D01*
X125581268Y-92344592D01*
X125638030Y-92387238D01*
X125655012Y-92418341D01*
X125683250Y-92493666D01*
X125699385Y-92536705D01*
X125786739Y-92653261D01*
X125903295Y-92740615D01*
X126039684Y-92791745D01*
X126101866Y-92798500D01*
X127898134Y-92798500D01*
X127960316Y-92791745D01*
X128096705Y-92740615D01*
X128213261Y-92653261D01*
X128300615Y-92536705D01*
X128351745Y-92400316D01*
X128358500Y-92338134D01*
X128358500Y-90541866D01*
X128351745Y-90479684D01*
X128300615Y-90343295D01*
X128213261Y-90226739D01*
X128096705Y-90139385D01*
X127960316Y-90088255D01*
X127898134Y-90081500D01*
X126589595Y-90081500D01*
X126521474Y-90061498D01*
X126500500Y-90044595D01*
X126329141Y-89873236D01*
X126321601Y-89864950D01*
X126317489Y-89858471D01*
X126267837Y-89811845D01*
X126264996Y-89809091D01*
X126245259Y-89789354D01*
X126242062Y-89786874D01*
X126233040Y-89779169D01*
X126228886Y-89775268D01*
X126200810Y-89748903D01*
X126193864Y-89745084D01*
X126193861Y-89745082D01*
X126183055Y-89739141D01*
X126166536Y-89728290D01*
X126163995Y-89726319D01*
X126150530Y-89715875D01*
X126143261Y-89712730D01*
X126143257Y-89712727D01*
X126109952Y-89698315D01*
X126099302Y-89693098D01*
X126060549Y-89671794D01*
X126040926Y-89666756D01*
X126022223Y-89660352D01*
X126010909Y-89655456D01*
X126010908Y-89655456D01*
X126003634Y-89652308D01*
X125995811Y-89651069D01*
X125995801Y-89651066D01*
X125959965Y-89645390D01*
X125948345Y-89642984D01*
X125913200Y-89633961D01*
X125913199Y-89633961D01*
X125905519Y-89631989D01*
X125885265Y-89631989D01*
X125865554Y-89630438D01*
X125853375Y-89628509D01*
X125845546Y-89627269D01*
X125816275Y-89630036D01*
X125801528Y-89631430D01*
X125789670Y-89631989D01*
X121512268Y-89631989D01*
X121501085Y-89631462D01*
X121493592Y-89629787D01*
X121485666Y-89630036D01*
X121485665Y-89630036D01*
X121425502Y-89631927D01*
X121421544Y-89631989D01*
X121393645Y-89631989D01*
X121389655Y-89632493D01*
X121377821Y-89633425D01*
X121333612Y-89634815D01*
X121325998Y-89637027D01*
X121325993Y-89637028D01*
X121314160Y-89640466D01*
X121294797Y-89644477D01*
X121274704Y-89647015D01*
X121267337Y-89649932D01*
X121267332Y-89649933D01*
X121233593Y-89663291D01*
X121222366Y-89667135D01*
X121179908Y-89679471D01*
X121173082Y-89683508D01*
X121162473Y-89689782D01*
X121144725Y-89698477D01*
X121125884Y-89705937D01*
X121119468Y-89710599D01*
X121119467Y-89710599D01*
X121090114Y-89731925D01*
X121080194Y-89738441D01*
X121048966Y-89756909D01*
X121048963Y-89756911D01*
X121042139Y-89760947D01*
X121027818Y-89775268D01*
X121012785Y-89788108D01*
X120996394Y-89800017D01*
X120970017Y-89831902D01*
X120968213Y-89834082D01*
X120960223Y-89842863D01*
X120416695Y-90386390D01*
X120354383Y-90420415D01*
X120283567Y-90415350D01*
X120249508Y-90396176D01*
X120138139Y-90308222D01*
X120129552Y-90302517D01*
X119943117Y-90199599D01*
X119933705Y-90195369D01*
X119732959Y-90124280D01*
X119722988Y-90121646D01*
X119651837Y-90108972D01*
X119638540Y-90110432D01*
X119634000Y-90124989D01*
X119634000Y-91568000D01*
X119613998Y-91636121D01*
X119560342Y-91682614D01*
X119508000Y-91694000D01*
X119252000Y-91694000D01*
X119183879Y-91673998D01*
X119137386Y-91620342D01*
X119126000Y-91568000D01*
X119126000Y-90123102D01*
X119122082Y-90109758D01*
X119107806Y-90107771D01*
X119069324Y-90113660D01*
X119059288Y-90116051D01*
X118856868Y-90182212D01*
X118847359Y-90186209D01*
X118658463Y-90284542D01*
X118649738Y-90290036D01*
X118479433Y-90417905D01*
X118471726Y-90424748D01*
X118324590Y-90578717D01*
X118318109Y-90586722D01*
X118213498Y-90740074D01*
X118158587Y-90785076D01*
X118088062Y-90793247D01*
X118024315Y-90761993D01*
X118003618Y-90737509D01*
X117922822Y-90612617D01*
X117922820Y-90612614D01*
X117920014Y-90608277D01*
X117769670Y-90443051D01*
X117765619Y-90439852D01*
X117765615Y-90439848D01*
X117598414Y-90307800D01*
X117598410Y-90307798D01*
X117594359Y-90304598D01*
X117558028Y-90284542D01*
X117542136Y-90275769D01*
X117398789Y-90196638D01*
X117393920Y-90194914D01*
X117393916Y-90194912D01*
X117193087Y-90123795D01*
X117193083Y-90123794D01*
X117188212Y-90122069D01*
X117183119Y-90121162D01*
X117183116Y-90121161D01*
X116973373Y-90083800D01*
X116973367Y-90083799D01*
X116968284Y-90082894D01*
X116894452Y-90081992D01*
X116750081Y-90080228D01*
X116750079Y-90080228D01*
X116744911Y-90080165D01*
X116524091Y-90113955D01*
X116311756Y-90183357D01*
X116113607Y-90286507D01*
X116109474Y-90289610D01*
X116109471Y-90289612D01*
X115939100Y-90417530D01*
X115934965Y-90420635D01*
X115901080Y-90456094D01*
X115841280Y-90518671D01*
X115780629Y-90582138D01*
X115654743Y-90766680D01*
X115560688Y-90969305D01*
X115500989Y-91184570D01*
X115477251Y-91406695D01*
X115477548Y-91411851D01*
X115477422Y-91417024D01*
X115475914Y-91416987D01*
X115461410Y-91479485D01*
X115410518Y-91528988D01*
X115340942Y-91543118D01*
X115274771Y-91517389D01*
X115262574Y-91506670D01*
X104643652Y-80887747D01*
X104636112Y-80879461D01*
X104632000Y-80872982D01*
X104616256Y-80858197D01*
X104582349Y-80826357D01*
X104579507Y-80823602D01*
X104559770Y-80803865D01*
X104556573Y-80801385D01*
X104547551Y-80793680D01*
X104521100Y-80768841D01*
X104515321Y-80763414D01*
X104508375Y-80759595D01*
X104508372Y-80759593D01*
X104497566Y-80753652D01*
X104481047Y-80742801D01*
X104480583Y-80742441D01*
X104465041Y-80730386D01*
X104457772Y-80727241D01*
X104457768Y-80727238D01*
X104424463Y-80712826D01*
X104413813Y-80707609D01*
X104375060Y-80686305D01*
X104355437Y-80681267D01*
X104336734Y-80674863D01*
X104325420Y-80669967D01*
X104325419Y-80669967D01*
X104318145Y-80666819D01*
X104310322Y-80665580D01*
X104310312Y-80665577D01*
X104274476Y-80659901D01*
X104262856Y-80657495D01*
X104227711Y-80648472D01*
X104227710Y-80648472D01*
X104220030Y-80646500D01*
X104199776Y-80646500D01*
X104180065Y-80644949D01*
X104167886Y-80643020D01*
X104160057Y-80641780D01*
X104152165Y-80642526D01*
X104116039Y-80645941D01*
X104104181Y-80646500D01*
X100889981Y-80646500D01*
X100821860Y-80626498D01*
X100800886Y-80609595D01*
X100467813Y-80276522D01*
X106952273Y-80276522D01*
X106999764Y-80453761D01*
X107003510Y-80464053D01*
X107095586Y-80661511D01*
X107101069Y-80671007D01*
X107226028Y-80849467D01*
X107233084Y-80857875D01*
X107387125Y-81011916D01*
X107395533Y-81018972D01*
X107573993Y-81143931D01*
X107583489Y-81149414D01*
X107780947Y-81241490D01*
X107791239Y-81245236D01*
X108001688Y-81301625D01*
X108012481Y-81303528D01*
X108166330Y-81316988D01*
X108178124Y-81313525D01*
X108179329Y-81312135D01*
X108181000Y-81304452D01*
X108181000Y-81299885D01*
X108689000Y-81299885D01*
X108693475Y-81315124D01*
X108694865Y-81316329D01*
X108699553Y-81317348D01*
X108857519Y-81303528D01*
X108868312Y-81301625D01*
X109078761Y-81245236D01*
X109089053Y-81241490D01*
X109286511Y-81149414D01*
X109296007Y-81143931D01*
X109474467Y-81018972D01*
X109482875Y-81011916D01*
X109636916Y-80857875D01*
X109643972Y-80849467D01*
X109768931Y-80671007D01*
X109774414Y-80661511D01*
X109866490Y-80464053D01*
X109870236Y-80453761D01*
X109916394Y-80281497D01*
X109916058Y-80267401D01*
X109908116Y-80264000D01*
X108707115Y-80264000D01*
X108691876Y-80268475D01*
X108690671Y-80269865D01*
X108689000Y-80277548D01*
X108689000Y-81299885D01*
X108181000Y-81299885D01*
X108181000Y-80282115D01*
X108176525Y-80266876D01*
X108175135Y-80265671D01*
X108167452Y-80264000D01*
X106967033Y-80264000D01*
X106953502Y-80267973D01*
X106952273Y-80276522D01*
X100467813Y-80276522D01*
X97186854Y-76995563D01*
X97152828Y-76933251D01*
X97157893Y-76862436D01*
X97182313Y-76822158D01*
X97254621Y-76741852D01*
X97254622Y-76741851D01*
X97259040Y-76736944D01*
X97330774Y-76612697D01*
X97351223Y-76577279D01*
X97351224Y-76577278D01*
X97354527Y-76571556D01*
X97413542Y-76389928D01*
X97419249Y-76335634D01*
X97428274Y-76249760D01*
X97430907Y-76224706D01*
X97457920Y-76159050D01*
X97467122Y-76148782D01*
X99285499Y-74330405D01*
X99347811Y-74296379D01*
X99374594Y-74293500D01*
X105060095Y-74293500D01*
X105128216Y-74313502D01*
G37*
%TD.AperFunction*%
%TA.AperFunction,Conductor*%
G36*
X159962121Y-60980002D02*
G01*
X160008614Y-61033658D01*
X160020000Y-61086000D01*
X160020000Y-96394000D01*
X159999998Y-96462121D01*
X159946342Y-96508614D01*
X159894000Y-96520000D01*
X153159500Y-96520000D01*
X153091379Y-96499998D01*
X153044886Y-96446342D01*
X153033500Y-96394000D01*
X153033500Y-92672670D01*
X156612160Y-92672670D01*
X156617887Y-92680320D01*
X156789042Y-92785205D01*
X156797837Y-92789687D01*
X157007988Y-92876734D01*
X157017373Y-92879783D01*
X157238554Y-92932885D01*
X157248301Y-92934428D01*
X157475070Y-92952275D01*
X157484930Y-92952275D01*
X157711699Y-92934428D01*
X157721446Y-92932885D01*
X157942627Y-92879783D01*
X157952012Y-92876734D01*
X158162163Y-92789687D01*
X158170958Y-92785205D01*
X158338445Y-92682568D01*
X158347907Y-92672110D01*
X158344124Y-92663334D01*
X157492812Y-91812022D01*
X157478868Y-91804408D01*
X157477035Y-91804539D01*
X157470420Y-91808790D01*
X156618920Y-92660290D01*
X156612160Y-92672670D01*
X153033500Y-92672670D01*
X153033500Y-91518767D01*
X153034027Y-91507584D01*
X153035702Y-91500091D01*
X153033968Y-91444930D01*
X155967725Y-91444930D01*
X155985572Y-91671699D01*
X155987115Y-91681446D01*
X156040217Y-91902627D01*
X156043266Y-91912012D01*
X156130313Y-92122163D01*
X156134795Y-92130958D01*
X156237432Y-92298445D01*
X156247890Y-92307907D01*
X156256666Y-92304124D01*
X157107978Y-91452812D01*
X157114356Y-91441132D01*
X157844408Y-91441132D01*
X157844539Y-91442965D01*
X157848790Y-91449580D01*
X158700290Y-92301080D01*
X158712670Y-92307840D01*
X158720320Y-92302113D01*
X158825205Y-92130958D01*
X158829687Y-92122163D01*
X158916734Y-91912012D01*
X158919783Y-91902627D01*
X158972885Y-91681446D01*
X158974428Y-91671699D01*
X158992275Y-91444930D01*
X158992275Y-91435070D01*
X158974428Y-91208301D01*
X158972885Y-91198554D01*
X158919783Y-90977373D01*
X158916734Y-90967988D01*
X158829687Y-90757837D01*
X158825205Y-90749042D01*
X158722568Y-90581555D01*
X158712110Y-90572093D01*
X158703334Y-90575876D01*
X157852022Y-91427188D01*
X157844408Y-91441132D01*
X157114356Y-91441132D01*
X157115592Y-91438868D01*
X157115461Y-91437035D01*
X157111210Y-91430420D01*
X156259710Y-90578920D01*
X156247330Y-90572160D01*
X156239680Y-90577887D01*
X156134795Y-90749042D01*
X156130313Y-90757837D01*
X156043266Y-90967988D01*
X156040217Y-90977373D01*
X155987115Y-91198554D01*
X155985572Y-91208301D01*
X155967725Y-91435070D01*
X155967725Y-91444930D01*
X153033968Y-91444930D01*
X153033562Y-91432014D01*
X153033500Y-91428055D01*
X153033500Y-91400144D01*
X153032995Y-91396144D01*
X153032062Y-91384301D01*
X153030922Y-91348029D01*
X153030673Y-91340110D01*
X153025022Y-91320658D01*
X153021014Y-91301306D01*
X153019467Y-91289063D01*
X153018474Y-91281203D01*
X153015556Y-91273832D01*
X153002200Y-91240097D01*
X152998355Y-91228870D01*
X152989547Y-91198554D01*
X152986018Y-91186407D01*
X152981984Y-91179585D01*
X152981981Y-91179579D01*
X152975706Y-91168968D01*
X152967010Y-91151218D01*
X152962472Y-91139756D01*
X152962469Y-91139751D01*
X152959552Y-91132383D01*
X152933573Y-91096625D01*
X152927057Y-91086707D01*
X152908575Y-91055457D01*
X152904542Y-91048637D01*
X152890218Y-91034313D01*
X152877376Y-91019278D01*
X152865472Y-91002893D01*
X152831406Y-90974711D01*
X152822627Y-90966722D01*
X152063795Y-90207890D01*
X156612093Y-90207890D01*
X156615876Y-90216666D01*
X157467188Y-91067978D01*
X157481132Y-91075592D01*
X157482965Y-91075461D01*
X157489580Y-91071210D01*
X158341080Y-90219710D01*
X158347840Y-90207330D01*
X158342113Y-90199680D01*
X158170958Y-90094795D01*
X158162163Y-90090313D01*
X157952012Y-90003266D01*
X157942627Y-90000217D01*
X157721446Y-89947115D01*
X157711699Y-89945572D01*
X157484930Y-89927725D01*
X157475070Y-89927725D01*
X157248301Y-89945572D01*
X157238554Y-89947115D01*
X157017373Y-90000217D01*
X157007988Y-90003266D01*
X156797837Y-90090313D01*
X156789042Y-90094795D01*
X156621555Y-90197432D01*
X156612093Y-90207890D01*
X152063795Y-90207890D01*
X145675905Y-83820000D01*
X151486496Y-83820000D01*
X151506458Y-84009928D01*
X151565473Y-84191556D01*
X151660960Y-84356944D01*
X151788747Y-84498866D01*
X151943248Y-84611118D01*
X151949276Y-84613802D01*
X151949278Y-84613803D01*
X152111681Y-84686109D01*
X152117712Y-84688794D01*
X152211113Y-84708647D01*
X152298056Y-84727128D01*
X152298061Y-84727128D01*
X152304513Y-84728500D01*
X152495487Y-84728500D01*
X152501939Y-84727128D01*
X152501944Y-84727128D01*
X152588887Y-84708647D01*
X152682288Y-84688794D01*
X152688319Y-84686109D01*
X152850722Y-84613803D01*
X152850724Y-84613802D01*
X152856752Y-84611118D01*
X153011253Y-84498866D01*
X153015668Y-84493963D01*
X153020580Y-84489540D01*
X153021705Y-84490789D01*
X153075014Y-84457949D01*
X153108200Y-84453500D01*
X156028434Y-84453500D01*
X156096555Y-84473502D01*
X156135867Y-84513665D01*
X156253241Y-84705202D01*
X156253245Y-84705208D01*
X156255824Y-84709416D01*
X156410031Y-84889969D01*
X156590584Y-85044176D01*
X156594792Y-85046755D01*
X156594798Y-85046759D01*
X156788817Y-85165654D01*
X156793037Y-85168240D01*
X156797607Y-85170133D01*
X156797611Y-85170135D01*
X157007833Y-85257211D01*
X157012406Y-85259105D01*
X157092609Y-85278360D01*
X157238476Y-85313380D01*
X157238482Y-85313381D01*
X157243289Y-85314535D01*
X157480000Y-85333165D01*
X157716711Y-85314535D01*
X157721518Y-85313381D01*
X157721524Y-85313380D01*
X157867391Y-85278360D01*
X157947594Y-85259105D01*
X157952167Y-85257211D01*
X158162389Y-85170135D01*
X158162393Y-85170133D01*
X158166963Y-85168240D01*
X158171183Y-85165654D01*
X158365202Y-85046759D01*
X158365208Y-85046755D01*
X158369416Y-85044176D01*
X158549969Y-84889969D01*
X158704176Y-84709416D01*
X158706755Y-84705208D01*
X158706759Y-84705202D01*
X158825654Y-84511183D01*
X158828240Y-84506963D01*
X158834940Y-84490789D01*
X158917211Y-84292167D01*
X158917212Y-84292165D01*
X158919105Y-84287594D01*
X158974535Y-84056711D01*
X158993165Y-83820000D01*
X158974535Y-83583289D01*
X158919105Y-83352406D01*
X158892748Y-83288774D01*
X158830135Y-83137611D01*
X158830133Y-83137607D01*
X158828240Y-83133037D01*
X158766792Y-83032763D01*
X158706759Y-82934798D01*
X158706755Y-82934792D01*
X158704176Y-82930584D01*
X158549969Y-82750031D01*
X158369416Y-82595824D01*
X158365208Y-82593245D01*
X158365202Y-82593241D01*
X158171183Y-82474346D01*
X158166963Y-82471760D01*
X158162393Y-82469867D01*
X158162389Y-82469865D01*
X157952167Y-82382789D01*
X157952165Y-82382788D01*
X157947594Y-82380895D01*
X157867391Y-82361640D01*
X157721524Y-82326620D01*
X157721518Y-82326619D01*
X157716711Y-82325465D01*
X157480000Y-82306835D01*
X157243289Y-82325465D01*
X157238482Y-82326619D01*
X157238476Y-82326620D01*
X157092609Y-82361640D01*
X157012406Y-82380895D01*
X157007835Y-82382788D01*
X157007833Y-82382789D01*
X156797611Y-82469865D01*
X156797607Y-82469867D01*
X156793037Y-82471760D01*
X156788817Y-82474346D01*
X156594798Y-82593241D01*
X156594792Y-82593245D01*
X156590584Y-82595824D01*
X156410031Y-82750031D01*
X156255824Y-82930584D01*
X156253245Y-82934792D01*
X156253241Y-82934798D01*
X156135867Y-83126335D01*
X156083219Y-83173966D01*
X156028434Y-83186500D01*
X153108200Y-83186500D01*
X153040079Y-83166498D01*
X153020853Y-83150157D01*
X153020580Y-83150460D01*
X153015668Y-83146037D01*
X153011253Y-83141134D01*
X152856752Y-83028882D01*
X152850724Y-83026198D01*
X152850722Y-83026197D01*
X152688319Y-82953891D01*
X152688318Y-82953891D01*
X152682288Y-82951206D01*
X152585270Y-82930584D01*
X152501944Y-82912872D01*
X152501939Y-82912872D01*
X152495487Y-82911500D01*
X152304513Y-82911500D01*
X152298061Y-82912872D01*
X152298056Y-82912872D01*
X152214730Y-82930584D01*
X152117712Y-82951206D01*
X152111682Y-82953891D01*
X152111681Y-82953891D01*
X151949278Y-83026197D01*
X151949276Y-83026198D01*
X151943248Y-83028882D01*
X151788747Y-83141134D01*
X151660960Y-83283056D01*
X151565473Y-83448444D01*
X151506458Y-83630072D01*
X151486496Y-83820000D01*
X145675905Y-83820000D01*
X140595905Y-78740000D01*
X148946496Y-78740000D01*
X148947186Y-78746565D01*
X148960752Y-78875634D01*
X148966458Y-78929928D01*
X149025473Y-79111556D01*
X149120960Y-79276944D01*
X149248747Y-79418866D01*
X149403248Y-79531118D01*
X149409276Y-79533802D01*
X149409278Y-79533803D01*
X149481745Y-79566067D01*
X149577712Y-79608794D01*
X149671113Y-79628647D01*
X149758056Y-79647128D01*
X149758061Y-79647128D01*
X149764513Y-79648500D01*
X149955487Y-79648500D01*
X149961939Y-79647128D01*
X149961944Y-79647128D01*
X150048887Y-79628647D01*
X150142288Y-79608794D01*
X150238255Y-79566067D01*
X150310722Y-79533803D01*
X150310724Y-79533802D01*
X150316752Y-79531118D01*
X150471253Y-79418866D01*
X150475668Y-79413963D01*
X150480580Y-79409540D01*
X150481705Y-79410789D01*
X150535014Y-79377949D01*
X150568200Y-79373500D01*
X156028434Y-79373500D01*
X156096555Y-79393502D01*
X156135867Y-79433665D01*
X156253241Y-79625202D01*
X156253245Y-79625208D01*
X156255824Y-79629416D01*
X156410031Y-79809969D01*
X156590584Y-79964176D01*
X156594792Y-79966755D01*
X156594798Y-79966759D01*
X156788817Y-80085654D01*
X156793037Y-80088240D01*
X156797607Y-80090133D01*
X156797611Y-80090135D01*
X157007833Y-80177211D01*
X157012406Y-80179105D01*
X157092609Y-80198360D01*
X157238476Y-80233380D01*
X157238482Y-80233381D01*
X157243289Y-80234535D01*
X157480000Y-80253165D01*
X157716711Y-80234535D01*
X157721518Y-80233381D01*
X157721524Y-80233380D01*
X157867391Y-80198360D01*
X157947594Y-80179105D01*
X157952167Y-80177211D01*
X158162389Y-80090135D01*
X158162393Y-80090133D01*
X158166963Y-80088240D01*
X158171183Y-80085654D01*
X158365202Y-79966759D01*
X158365208Y-79966755D01*
X158369416Y-79964176D01*
X158549969Y-79809969D01*
X158704176Y-79629416D01*
X158706755Y-79625208D01*
X158706759Y-79625202D01*
X158825654Y-79431183D01*
X158828240Y-79426963D01*
X158834940Y-79410789D01*
X158917211Y-79212167D01*
X158917212Y-79212165D01*
X158919105Y-79207594D01*
X158967003Y-79008084D01*
X158973380Y-78981524D01*
X158973381Y-78981518D01*
X158974535Y-78976711D01*
X158993165Y-78740000D01*
X158974535Y-78503289D01*
X158968790Y-78479357D01*
X158920260Y-78277218D01*
X158919105Y-78272406D01*
X158892748Y-78208774D01*
X158830135Y-78057611D01*
X158830133Y-78057607D01*
X158828240Y-78053037D01*
X158766792Y-77952763D01*
X158706759Y-77854798D01*
X158706755Y-77854792D01*
X158704176Y-77850584D01*
X158549969Y-77670031D01*
X158369416Y-77515824D01*
X158365208Y-77513245D01*
X158365202Y-77513241D01*
X158171183Y-77394346D01*
X158166963Y-77391760D01*
X158162393Y-77389867D01*
X158162389Y-77389865D01*
X157952167Y-77302789D01*
X157952165Y-77302788D01*
X157947594Y-77300895D01*
X157867391Y-77281640D01*
X157721524Y-77246620D01*
X157721518Y-77246619D01*
X157716711Y-77245465D01*
X157480000Y-77226835D01*
X157243289Y-77245465D01*
X157238482Y-77246619D01*
X157238476Y-77246620D01*
X157092609Y-77281640D01*
X157012406Y-77300895D01*
X157007835Y-77302788D01*
X157007833Y-77302789D01*
X156797611Y-77389865D01*
X156797607Y-77389867D01*
X156793037Y-77391760D01*
X156788817Y-77394346D01*
X156594798Y-77513241D01*
X156594792Y-77513245D01*
X156590584Y-77515824D01*
X156410031Y-77670031D01*
X156255824Y-77850584D01*
X156253245Y-77854792D01*
X156253241Y-77854798D01*
X156135867Y-78046335D01*
X156083219Y-78093966D01*
X156028434Y-78106500D01*
X150568200Y-78106500D01*
X150500079Y-78086498D01*
X150480853Y-78070157D01*
X150480580Y-78070460D01*
X150475668Y-78066037D01*
X150471253Y-78061134D01*
X150316752Y-77948882D01*
X150310724Y-77946198D01*
X150310722Y-77946197D01*
X150148319Y-77873891D01*
X150148318Y-77873891D01*
X150142288Y-77871206D01*
X150045270Y-77850584D01*
X149961944Y-77832872D01*
X149961939Y-77832872D01*
X149955487Y-77831500D01*
X149764513Y-77831500D01*
X149758061Y-77832872D01*
X149758056Y-77832872D01*
X149674730Y-77850584D01*
X149577712Y-77871206D01*
X149571682Y-77873891D01*
X149571681Y-77873891D01*
X149409278Y-77946197D01*
X149409276Y-77946198D01*
X149403248Y-77948882D01*
X149248747Y-78061134D01*
X149244326Y-78066044D01*
X149244325Y-78066045D01*
X149210601Y-78103500D01*
X149120960Y-78203056D01*
X149025473Y-78368444D01*
X148966458Y-78550072D01*
X148965768Y-78556633D01*
X148965768Y-78556635D01*
X148960420Y-78607523D01*
X148946496Y-78740000D01*
X140595905Y-78740000D01*
X128773652Y-66917747D01*
X128766112Y-66909461D01*
X128762000Y-66902982D01*
X128712348Y-66856356D01*
X128709507Y-66853602D01*
X128689770Y-66833865D01*
X128686573Y-66831385D01*
X128677551Y-66823680D01*
X128651100Y-66798841D01*
X128645321Y-66793414D01*
X128638375Y-66789595D01*
X128638372Y-66789593D01*
X128627566Y-66783652D01*
X128611047Y-66772801D01*
X128610583Y-66772441D01*
X128595041Y-66760386D01*
X128587772Y-66757241D01*
X128587768Y-66757238D01*
X128554463Y-66742826D01*
X128543813Y-66737609D01*
X128505060Y-66716305D01*
X128485437Y-66711267D01*
X128466734Y-66704863D01*
X128455420Y-66699967D01*
X128455419Y-66699967D01*
X128448145Y-66696819D01*
X128440322Y-66695580D01*
X128440312Y-66695577D01*
X128404476Y-66689901D01*
X128392856Y-66687495D01*
X128357711Y-66678472D01*
X128357710Y-66678472D01*
X128350030Y-66676500D01*
X128329776Y-66676500D01*
X128310065Y-66674949D01*
X128297886Y-66673020D01*
X128290057Y-66671780D01*
X128282165Y-66672526D01*
X128246039Y-66675941D01*
X128234181Y-66676500D01*
X109854394Y-66676500D01*
X109786273Y-66656498D01*
X109751181Y-66622771D01*
X109644357Y-66470211D01*
X109644355Y-66470208D01*
X109641198Y-66465700D01*
X109479300Y-66303802D01*
X109474792Y-66300645D01*
X109474789Y-66300643D01*
X109396611Y-66245902D01*
X109291749Y-66172477D01*
X109286767Y-66170154D01*
X109286762Y-66170151D01*
X109252543Y-66154195D01*
X109199258Y-66107278D01*
X109179797Y-66039001D01*
X109200339Y-65971041D01*
X109252543Y-65925805D01*
X109286762Y-65909849D01*
X109286767Y-65909846D01*
X109291749Y-65907523D01*
X109396611Y-65834098D01*
X109474789Y-65779357D01*
X109474792Y-65779355D01*
X109479300Y-65776198D01*
X109641198Y-65614300D01*
X109772523Y-65426749D01*
X109774846Y-65421767D01*
X109774849Y-65421762D01*
X109866961Y-65224225D01*
X109866961Y-65224224D01*
X109869284Y-65219243D01*
X109928543Y-64998087D01*
X109948498Y-64770000D01*
X109928543Y-64541913D01*
X109869284Y-64320757D01*
X109866961Y-64315775D01*
X109774849Y-64118238D01*
X109774846Y-64118233D01*
X109772523Y-64113251D01*
X109641198Y-63925700D01*
X109479300Y-63763802D01*
X109474792Y-63760645D01*
X109474789Y-63760643D01*
X109352805Y-63675229D01*
X109291749Y-63632477D01*
X109286767Y-63630154D01*
X109286762Y-63630151D01*
X109252543Y-63614195D01*
X109199258Y-63567278D01*
X109179797Y-63499001D01*
X109200339Y-63431041D01*
X109252543Y-63385805D01*
X109286762Y-63369849D01*
X109286767Y-63369846D01*
X109291749Y-63367523D01*
X109414558Y-63281531D01*
X109474789Y-63239357D01*
X109474792Y-63239355D01*
X109479300Y-63236198D01*
X109641198Y-63074300D01*
X109772523Y-62886749D01*
X109774846Y-62881767D01*
X109774849Y-62881762D01*
X109866961Y-62684225D01*
X109866961Y-62684224D01*
X109869284Y-62679243D01*
X109928543Y-62458087D01*
X109948498Y-62230000D01*
X109928543Y-62001913D01*
X109869284Y-61780757D01*
X109866961Y-61775775D01*
X109774849Y-61578238D01*
X109774846Y-61578233D01*
X109772523Y-61573251D01*
X109641198Y-61385700D01*
X109479300Y-61223802D01*
X109474792Y-61220645D01*
X109474789Y-61220643D01*
X109429902Y-61189213D01*
X109385574Y-61133756D01*
X109378265Y-61063136D01*
X109410296Y-60999776D01*
X109471497Y-60963791D01*
X109502173Y-60960000D01*
X159894000Y-60960000D01*
X159962121Y-60980002D01*
G37*
%TD.AperFunction*%
%TD*%
M02*
