%TF.GenerationSoftware,KiCad,Pcbnew,(6.0.5)*%
%TF.CreationDate,2022-06-11T22:34:52+01:00*%
%TF.ProjectId,kiln-pcb,6b696c6e-2d70-4636-922e-6b696361645f,rev?*%
%TF.SameCoordinates,Original*%
%TF.FileFunction,Soldermask,Top*%
%TF.FilePolarity,Negative*%
%FSLAX46Y46*%
G04 Gerber Fmt 4.6, Leading zero omitted, Abs format (unit mm)*
G04 Created by KiCad (PCBNEW (6.0.5)) date 2022-06-11 22:34:52*
%MOMM*%
%LPD*%
G01*
G04 APERTURE LIST*
%ADD10C,0.010000*%
%ADD11R,1.700000X1.700000*%
%ADD12O,1.700000X1.700000*%
%ADD13C,0.800000*%
%ADD14C,6.400000*%
%ADD15C,2.000000*%
%ADD16R,2.000000X2.000000*%
%ADD17O,2.000000X1.600000*%
G04 APERTURE END LIST*
%TO.C,REF\u002A\u002A*%
G36*
X155369846Y-48212120D02*
G01*
X155375572Y-48291980D01*
X155382149Y-48339039D01*
X155391262Y-48359566D01*
X155404598Y-48359829D01*
X155408923Y-48357378D01*
X155466444Y-48339636D01*
X155541268Y-48340672D01*
X155617339Y-48358910D01*
X155664918Y-48382505D01*
X155713702Y-48420198D01*
X155749364Y-48462855D01*
X155773845Y-48517057D01*
X155789087Y-48589384D01*
X155797030Y-48686419D01*
X155799616Y-48814742D01*
X155799662Y-48839358D01*
X155799692Y-49115870D01*
X155738161Y-49137320D01*
X155694459Y-49151912D01*
X155670482Y-49158706D01*
X155669777Y-49158769D01*
X155667415Y-49140345D01*
X155665406Y-49089526D01*
X155663901Y-49012993D01*
X155663053Y-48917430D01*
X155662923Y-48859329D01*
X155662651Y-48744771D01*
X155661252Y-48662667D01*
X155657849Y-48606393D01*
X155651567Y-48569326D01*
X155641529Y-48544844D01*
X155626861Y-48526325D01*
X155617702Y-48517406D01*
X155554789Y-48481466D01*
X155486136Y-48478775D01*
X155423848Y-48509170D01*
X155412329Y-48520144D01*
X155395433Y-48540779D01*
X155383714Y-48565256D01*
X155376233Y-48600647D01*
X155372054Y-48654026D01*
X155370237Y-48732466D01*
X155369846Y-48840617D01*
X155369846Y-49115870D01*
X155308315Y-49137320D01*
X155264613Y-49151912D01*
X155240636Y-49158706D01*
X155239930Y-49158769D01*
X155238126Y-49140069D01*
X155236500Y-49087322D01*
X155235117Y-49005557D01*
X155234042Y-48899805D01*
X155233340Y-48775094D01*
X155233077Y-48636455D01*
X155233077Y-48101806D01*
X155360077Y-48048236D01*
X155369846Y-48212120D01*
G37*
D10*
X155369846Y-48212120D02*
X155375572Y-48291980D01*
X155382149Y-48339039D01*
X155391262Y-48359566D01*
X155404598Y-48359829D01*
X155408923Y-48357378D01*
X155466444Y-48339636D01*
X155541268Y-48340672D01*
X155617339Y-48358910D01*
X155664918Y-48382505D01*
X155713702Y-48420198D01*
X155749364Y-48462855D01*
X155773845Y-48517057D01*
X155789087Y-48589384D01*
X155797030Y-48686419D01*
X155799616Y-48814742D01*
X155799662Y-48839358D01*
X155799692Y-49115870D01*
X155738161Y-49137320D01*
X155694459Y-49151912D01*
X155670482Y-49158706D01*
X155669777Y-49158769D01*
X155667415Y-49140345D01*
X155665406Y-49089526D01*
X155663901Y-49012993D01*
X155663053Y-48917430D01*
X155662923Y-48859329D01*
X155662651Y-48744771D01*
X155661252Y-48662667D01*
X155657849Y-48606393D01*
X155651567Y-48569326D01*
X155641529Y-48544844D01*
X155626861Y-48526325D01*
X155617702Y-48517406D01*
X155554789Y-48481466D01*
X155486136Y-48478775D01*
X155423848Y-48509170D01*
X155412329Y-48520144D01*
X155395433Y-48540779D01*
X155383714Y-48565256D01*
X155376233Y-48600647D01*
X155372054Y-48654026D01*
X155370237Y-48732466D01*
X155369846Y-48840617D01*
X155369846Y-49115870D01*
X155308315Y-49137320D01*
X155264613Y-49151912D01*
X155240636Y-49158706D01*
X155239930Y-49158769D01*
X155238126Y-49140069D01*
X155236500Y-49087322D01*
X155235117Y-49005557D01*
X155234042Y-48899805D01*
X155233340Y-48775094D01*
X155233077Y-48636455D01*
X155233077Y-48101806D01*
X155360077Y-48048236D01*
X155369846Y-48212120D01*
G36*
X156263501Y-48346303D02*
G01*
X156340060Y-48374733D01*
X156340936Y-48375279D01*
X156388285Y-48410127D01*
X156423241Y-48450852D01*
X156447825Y-48503925D01*
X156464062Y-48575814D01*
X156473975Y-48672992D01*
X156479586Y-48801928D01*
X156480077Y-48820298D01*
X156487141Y-49097287D01*
X156427695Y-49128028D01*
X156384681Y-49148802D01*
X156358710Y-49158646D01*
X156357509Y-49158769D01*
X156353014Y-49140606D01*
X156349444Y-49091612D01*
X156347248Y-49020031D01*
X156346769Y-48962068D01*
X156346758Y-48868170D01*
X156342466Y-48809203D01*
X156327503Y-48781079D01*
X156295482Y-48779706D01*
X156240014Y-48800998D01*
X156156269Y-48840136D01*
X156094689Y-48872643D01*
X156063017Y-48900845D01*
X156053706Y-48931582D01*
X156053692Y-48933104D01*
X156069057Y-48986054D01*
X156114547Y-49014660D01*
X156184166Y-49018803D01*
X156234313Y-49018084D01*
X156260754Y-49032527D01*
X156277243Y-49067218D01*
X156286733Y-49111416D01*
X156273057Y-49136493D01*
X156267907Y-49140082D01*
X156219425Y-49154496D01*
X156151531Y-49156537D01*
X156081612Y-49146983D01*
X156032068Y-49129522D01*
X155963570Y-49071364D01*
X155924634Y-48990408D01*
X155916923Y-48927160D01*
X155922807Y-48870111D01*
X155944101Y-48823542D01*
X155986265Y-48782181D01*
X156054759Y-48740755D01*
X156155044Y-48693993D01*
X156161154Y-48691350D01*
X156251490Y-48649617D01*
X156307235Y-48615391D01*
X156331129Y-48584635D01*
X156325913Y-48553311D01*
X156294328Y-48517383D01*
X156284883Y-48509116D01*
X156221617Y-48477058D01*
X156156064Y-48478407D01*
X156098972Y-48509838D01*
X156061093Y-48568024D01*
X156057574Y-48579446D01*
X156023300Y-48634837D01*
X155979809Y-48661518D01*
X155916923Y-48687960D01*
X155916923Y-48619548D01*
X155936052Y-48520110D01*
X155992831Y-48428902D01*
X156022378Y-48398389D01*
X156089542Y-48359228D01*
X156174956Y-48341500D01*
X156263501Y-48346303D01*
G37*
X156263501Y-48346303D02*
X156340060Y-48374733D01*
X156340936Y-48375279D01*
X156388285Y-48410127D01*
X156423241Y-48450852D01*
X156447825Y-48503925D01*
X156464062Y-48575814D01*
X156473975Y-48672992D01*
X156479586Y-48801928D01*
X156480077Y-48820298D01*
X156487141Y-49097287D01*
X156427695Y-49128028D01*
X156384681Y-49148802D01*
X156358710Y-49158646D01*
X156357509Y-49158769D01*
X156353014Y-49140606D01*
X156349444Y-49091612D01*
X156347248Y-49020031D01*
X156346769Y-48962068D01*
X156346758Y-48868170D01*
X156342466Y-48809203D01*
X156327503Y-48781079D01*
X156295482Y-48779706D01*
X156240014Y-48800998D01*
X156156269Y-48840136D01*
X156094689Y-48872643D01*
X156063017Y-48900845D01*
X156053706Y-48931582D01*
X156053692Y-48933104D01*
X156069057Y-48986054D01*
X156114547Y-49014660D01*
X156184166Y-49018803D01*
X156234313Y-49018084D01*
X156260754Y-49032527D01*
X156277243Y-49067218D01*
X156286733Y-49111416D01*
X156273057Y-49136493D01*
X156267907Y-49140082D01*
X156219425Y-49154496D01*
X156151531Y-49156537D01*
X156081612Y-49146983D01*
X156032068Y-49129522D01*
X155963570Y-49071364D01*
X155924634Y-48990408D01*
X155916923Y-48927160D01*
X155922807Y-48870111D01*
X155944101Y-48823542D01*
X155986265Y-48782181D01*
X156054759Y-48740755D01*
X156155044Y-48693993D01*
X156161154Y-48691350D01*
X156251490Y-48649617D01*
X156307235Y-48615391D01*
X156331129Y-48584635D01*
X156325913Y-48553311D01*
X156294328Y-48517383D01*
X156284883Y-48509116D01*
X156221617Y-48477058D01*
X156156064Y-48478407D01*
X156098972Y-48509838D01*
X156061093Y-48568024D01*
X156057574Y-48579446D01*
X156023300Y-48634837D01*
X155979809Y-48661518D01*
X155916923Y-48687960D01*
X155916923Y-48619548D01*
X155936052Y-48520110D01*
X155992831Y-48428902D01*
X156022378Y-48398389D01*
X156089542Y-48359228D01*
X156174956Y-48341500D01*
X156263501Y-48346303D01*
G36*
X159097333Y-48353528D02*
G01*
X159153590Y-48379117D01*
X159197747Y-48410124D01*
X159230101Y-48444795D01*
X159252438Y-48489520D01*
X159266546Y-48550692D01*
X159274211Y-48634701D01*
X159277220Y-48747940D01*
X159277538Y-48822509D01*
X159277538Y-49113420D01*
X159227773Y-49136095D01*
X159188576Y-49152667D01*
X159169157Y-49158769D01*
X159165442Y-49140610D01*
X159162495Y-49091648D01*
X159160691Y-49020153D01*
X159160308Y-48963385D01*
X159158661Y-48881371D01*
X159154222Y-48816309D01*
X159147740Y-48776467D01*
X159142590Y-48768000D01*
X159107977Y-48776646D01*
X159053640Y-48798823D01*
X158990722Y-48828886D01*
X158930368Y-48861192D01*
X158883721Y-48890098D01*
X158861926Y-48909961D01*
X158861839Y-48910175D01*
X158863714Y-48946935D01*
X158880525Y-48982026D01*
X158910039Y-49010528D01*
X158953116Y-49020061D01*
X158989932Y-49018950D01*
X159042074Y-49018133D01*
X159069444Y-49030349D01*
X159085882Y-49062624D01*
X159087955Y-49068710D01*
X159095081Y-49114739D01*
X159076024Y-49142687D01*
X159026353Y-49156007D01*
X158972697Y-49158470D01*
X158876142Y-49140210D01*
X158826159Y-49114131D01*
X158764429Y-49052868D01*
X158731690Y-48977670D01*
X158728753Y-48898211D01*
X158756424Y-48824167D01*
X158798047Y-48777769D01*
X158839604Y-48751793D01*
X158904922Y-48718907D01*
X158981038Y-48685557D01*
X158993726Y-48680461D01*
X159077333Y-48643565D01*
X159125530Y-48611046D01*
X159141030Y-48578718D01*
X159126550Y-48542394D01*
X159101692Y-48514000D01*
X159042939Y-48479039D01*
X158978293Y-48476417D01*
X158919008Y-48503358D01*
X158876339Y-48557088D01*
X158870739Y-48570950D01*
X158838133Y-48621936D01*
X158790530Y-48659787D01*
X158730461Y-48690850D01*
X158730461Y-48602768D01*
X158733997Y-48548951D01*
X158749156Y-48506534D01*
X158782768Y-48461279D01*
X158815035Y-48426420D01*
X158865209Y-48377062D01*
X158904193Y-48350547D01*
X158946064Y-48339911D01*
X158993460Y-48338154D01*
X159097333Y-48353528D01*
G37*
X159097333Y-48353528D02*
X159153590Y-48379117D01*
X159197747Y-48410124D01*
X159230101Y-48444795D01*
X159252438Y-48489520D01*
X159266546Y-48550692D01*
X159274211Y-48634701D01*
X159277220Y-48747940D01*
X159277538Y-48822509D01*
X159277538Y-49113420D01*
X159227773Y-49136095D01*
X159188576Y-49152667D01*
X159169157Y-49158769D01*
X159165442Y-49140610D01*
X159162495Y-49091648D01*
X159160691Y-49020153D01*
X159160308Y-48963385D01*
X159158661Y-48881371D01*
X159154222Y-48816309D01*
X159147740Y-48776467D01*
X159142590Y-48768000D01*
X159107977Y-48776646D01*
X159053640Y-48798823D01*
X158990722Y-48828886D01*
X158930368Y-48861192D01*
X158883721Y-48890098D01*
X158861926Y-48909961D01*
X158861839Y-48910175D01*
X158863714Y-48946935D01*
X158880525Y-48982026D01*
X158910039Y-49010528D01*
X158953116Y-49020061D01*
X158989932Y-49018950D01*
X159042074Y-49018133D01*
X159069444Y-49030349D01*
X159085882Y-49062624D01*
X159087955Y-49068710D01*
X159095081Y-49114739D01*
X159076024Y-49142687D01*
X159026353Y-49156007D01*
X158972697Y-49158470D01*
X158876142Y-49140210D01*
X158826159Y-49114131D01*
X158764429Y-49052868D01*
X158731690Y-48977670D01*
X158728753Y-48898211D01*
X158756424Y-48824167D01*
X158798047Y-48777769D01*
X158839604Y-48751793D01*
X158904922Y-48718907D01*
X158981038Y-48685557D01*
X158993726Y-48680461D01*
X159077333Y-48643565D01*
X159125530Y-48611046D01*
X159141030Y-48578718D01*
X159126550Y-48542394D01*
X159101692Y-48514000D01*
X159042939Y-48479039D01*
X158978293Y-48476417D01*
X158919008Y-48503358D01*
X158876339Y-48557088D01*
X158870739Y-48570950D01*
X158838133Y-48621936D01*
X158790530Y-48659787D01*
X158730461Y-48690850D01*
X158730461Y-48602768D01*
X158733997Y-48548951D01*
X158749156Y-48506534D01*
X158782768Y-48461279D01*
X158815035Y-48426420D01*
X158865209Y-48377062D01*
X158904193Y-48350547D01*
X158946064Y-48339911D01*
X158993460Y-48338154D01*
X159097333Y-48353528D01*
G36*
X156923362Y-48344670D02*
G01*
X157012117Y-48377421D01*
X157084022Y-48435350D01*
X157112144Y-48476128D01*
X157142802Y-48550954D01*
X157142165Y-48605058D01*
X157109987Y-48641446D01*
X157098081Y-48647633D01*
X157046675Y-48666925D01*
X157020422Y-48661982D01*
X157011530Y-48629587D01*
X157011077Y-48611692D01*
X156994797Y-48545859D01*
X156952365Y-48499807D01*
X156893388Y-48477564D01*
X156827475Y-48483161D01*
X156773895Y-48512229D01*
X156755798Y-48528810D01*
X156742971Y-48548925D01*
X156734306Y-48579332D01*
X156728696Y-48626788D01*
X156725035Y-48698050D01*
X156722215Y-48799875D01*
X156721484Y-48832115D01*
X156718820Y-48942410D01*
X156715792Y-49020036D01*
X156711250Y-49071396D01*
X156704046Y-49102890D01*
X156693033Y-49120920D01*
X156677060Y-49131888D01*
X156666834Y-49136733D01*
X156623406Y-49153301D01*
X156597842Y-49158769D01*
X156589395Y-49140507D01*
X156584239Y-49085296D01*
X156582346Y-48992499D01*
X156583689Y-48861478D01*
X156584107Y-48841269D01*
X156587058Y-48721733D01*
X156590548Y-48634449D01*
X156595514Y-48572591D01*
X156602893Y-48529336D01*
X156613624Y-48497860D01*
X156628645Y-48471339D01*
X156636502Y-48459975D01*
X156681553Y-48409692D01*
X156731940Y-48370581D01*
X156738108Y-48367167D01*
X156828458Y-48340212D01*
X156923362Y-48344670D01*
G37*
X156923362Y-48344670D02*
X157012117Y-48377421D01*
X157084022Y-48435350D01*
X157112144Y-48476128D01*
X157142802Y-48550954D01*
X157142165Y-48605058D01*
X157109987Y-48641446D01*
X157098081Y-48647633D01*
X157046675Y-48666925D01*
X157020422Y-48661982D01*
X157011530Y-48629587D01*
X157011077Y-48611692D01*
X156994797Y-48545859D01*
X156952365Y-48499807D01*
X156893388Y-48477564D01*
X156827475Y-48483161D01*
X156773895Y-48512229D01*
X156755798Y-48528810D01*
X156742971Y-48548925D01*
X156734306Y-48579332D01*
X156728696Y-48626788D01*
X156725035Y-48698050D01*
X156722215Y-48799875D01*
X156721484Y-48832115D01*
X156718820Y-48942410D01*
X156715792Y-49020036D01*
X156711250Y-49071396D01*
X156704046Y-49102890D01*
X156693033Y-49120920D01*
X156677060Y-49131888D01*
X156666834Y-49136733D01*
X156623406Y-49153301D01*
X156597842Y-49158769D01*
X156589395Y-49140507D01*
X156584239Y-49085296D01*
X156582346Y-48992499D01*
X156583689Y-48861478D01*
X156584107Y-48841269D01*
X156587058Y-48721733D01*
X156590548Y-48634449D01*
X156595514Y-48572591D01*
X156602893Y-48529336D01*
X156613624Y-48497860D01*
X156628645Y-48471339D01*
X156636502Y-48459975D01*
X156681553Y-48409692D01*
X156731940Y-48370581D01*
X156738108Y-48367167D01*
X156828458Y-48340212D01*
X156923362Y-48344670D01*
G36*
X160070279Y-48540310D02*
G01*
X160088707Y-48474767D01*
X160118607Y-48426512D01*
X160162327Y-48388367D01*
X160181388Y-48376040D01*
X160267973Y-48343936D01*
X160362769Y-48341916D01*
X160454471Y-48367438D01*
X160531775Y-48417961D01*
X160569061Y-48463190D01*
X160598600Y-48545263D01*
X160600946Y-48610207D01*
X160595632Y-48697045D01*
X160395362Y-48784703D01*
X160297986Y-48829487D01*
X160234360Y-48865513D01*
X160201276Y-48896717D01*
X160195527Y-48927036D01*
X160213905Y-48960405D01*
X160234170Y-48982523D01*
X160293136Y-49017993D01*
X160357271Y-49020479D01*
X160416173Y-48992835D01*
X160459444Y-48937920D01*
X160467183Y-48918528D01*
X160504253Y-48857964D01*
X160546901Y-48832152D01*
X160605401Y-48810071D01*
X160605401Y-48893784D01*
X160600229Y-48950750D01*
X160579970Y-48998789D01*
X160537509Y-49053946D01*
X160531198Y-49061114D01*
X160483967Y-49110185D01*
X160443368Y-49136520D01*
X160392575Y-49148635D01*
X160350467Y-49152603D01*
X160275149Y-49153591D01*
X160221533Y-49141066D01*
X160188085Y-49122469D01*
X160135515Y-49081575D01*
X160099126Y-49037348D01*
X160076097Y-48981726D01*
X160063606Y-48906647D01*
X160058834Y-48804049D01*
X160058453Y-48751976D01*
X160059748Y-48689548D01*
X160177718Y-48689548D01*
X160179086Y-48723038D01*
X160182496Y-48728523D01*
X160205000Y-48721072D01*
X160253429Y-48701353D01*
X160318155Y-48673318D01*
X160331690Y-48667292D01*
X160413491Y-48625696D01*
X160458559Y-48589138D01*
X160468464Y-48554896D01*
X160444773Y-48520248D01*
X160425207Y-48504939D01*
X160354607Y-48474321D01*
X160288527Y-48479380D01*
X160233206Y-48516751D01*
X160194883Y-48583073D01*
X160182596Y-48635716D01*
X160177718Y-48689548D01*
X160059748Y-48689548D01*
X160060977Y-48630320D01*
X160070279Y-48540310D01*
G37*
X160070279Y-48540310D02*
X160088707Y-48474767D01*
X160118607Y-48426512D01*
X160162327Y-48388367D01*
X160181388Y-48376040D01*
X160267973Y-48343936D01*
X160362769Y-48341916D01*
X160454471Y-48367438D01*
X160531775Y-48417961D01*
X160569061Y-48463190D01*
X160598600Y-48545263D01*
X160600946Y-48610207D01*
X160595632Y-48697045D01*
X160395362Y-48784703D01*
X160297986Y-48829487D01*
X160234360Y-48865513D01*
X160201276Y-48896717D01*
X160195527Y-48927036D01*
X160213905Y-48960405D01*
X160234170Y-48982523D01*
X160293136Y-49017993D01*
X160357271Y-49020479D01*
X160416173Y-48992835D01*
X160459444Y-48937920D01*
X160467183Y-48918528D01*
X160504253Y-48857964D01*
X160546901Y-48832152D01*
X160605401Y-48810071D01*
X160605401Y-48893784D01*
X160600229Y-48950750D01*
X160579970Y-48998789D01*
X160537509Y-49053946D01*
X160531198Y-49061114D01*
X160483967Y-49110185D01*
X160443368Y-49136520D01*
X160392575Y-49148635D01*
X160350467Y-49152603D01*
X160275149Y-49153591D01*
X160221533Y-49141066D01*
X160188085Y-49122469D01*
X160135515Y-49081575D01*
X160099126Y-49037348D01*
X160076097Y-48981726D01*
X160063606Y-48906647D01*
X160058834Y-48804049D01*
X160058453Y-48751976D01*
X160059748Y-48689548D01*
X160177718Y-48689548D01*
X160179086Y-48723038D01*
X160182496Y-48728523D01*
X160205000Y-48721072D01*
X160253429Y-48701353D01*
X160318155Y-48673318D01*
X160331690Y-48667292D01*
X160413491Y-48625696D01*
X160458559Y-48589138D01*
X160468464Y-48554896D01*
X160444773Y-48520248D01*
X160425207Y-48504939D01*
X160354607Y-48474321D01*
X160288527Y-48479380D01*
X160233206Y-48516751D01*
X160194883Y-48583073D01*
X160182596Y-48635716D01*
X160177718Y-48689548D01*
X160059748Y-48689548D01*
X160060977Y-48630320D01*
X160070279Y-48540310D01*
G36*
X153344778Y-48461055D02*
G01*
X153390421Y-48395215D01*
X153472802Y-48328681D01*
X153563546Y-48295676D01*
X153656185Y-48293573D01*
X153744254Y-48319745D01*
X153821286Y-48371567D01*
X153880816Y-48446412D01*
X153916378Y-48541654D01*
X153923571Y-48611756D01*
X153922754Y-48641009D01*
X153915914Y-48663407D01*
X153897112Y-48683474D01*
X153860408Y-48705733D01*
X153799862Y-48734709D01*
X153709534Y-48774927D01*
X153709077Y-48775129D01*
X153625933Y-48813210D01*
X153557753Y-48847025D01*
X153511505Y-48872933D01*
X153494158Y-48887295D01*
X153494154Y-48887411D01*
X153509443Y-48918685D01*
X153545196Y-48953157D01*
X153586242Y-48977990D01*
X153607037Y-48982923D01*
X153663770Y-48965862D01*
X153712627Y-48923133D01*
X153736465Y-48876155D01*
X153759397Y-48841522D01*
X153804318Y-48802081D01*
X153857123Y-48768009D01*
X153903710Y-48749480D01*
X153913452Y-48748462D01*
X153924418Y-48765215D01*
X153925079Y-48808039D01*
X153917020Y-48865781D01*
X153901827Y-48927289D01*
X153881086Y-48981409D01*
X153880038Y-48983510D01*
X153817621Y-49070660D01*
X153736726Y-49129939D01*
X153644856Y-49159034D01*
X153549513Y-49155634D01*
X153458198Y-49117428D01*
X153454138Y-49114741D01*
X153382306Y-49049642D01*
X153335073Y-48964705D01*
X153308934Y-48853021D01*
X153305426Y-48821643D01*
X153299213Y-48673536D01*
X153306661Y-48604468D01*
X153494154Y-48604468D01*
X153496590Y-48647552D01*
X153509914Y-48660126D01*
X153543132Y-48650719D01*
X153595494Y-48628483D01*
X153654024Y-48600610D01*
X153655479Y-48599872D01*
X153705089Y-48573777D01*
X153725000Y-48556363D01*
X153720090Y-48538107D01*
X153699416Y-48514120D01*
X153646819Y-48479406D01*
X153590177Y-48476856D01*
X153539369Y-48502119D01*
X153504276Y-48550847D01*
X153494154Y-48604468D01*
X153306661Y-48604468D01*
X153311992Y-48555036D01*
X153344778Y-48461055D01*
G37*
X153344778Y-48461055D02*
X153390421Y-48395215D01*
X153472802Y-48328681D01*
X153563546Y-48295676D01*
X153656185Y-48293573D01*
X153744254Y-48319745D01*
X153821286Y-48371567D01*
X153880816Y-48446412D01*
X153916378Y-48541654D01*
X153923571Y-48611756D01*
X153922754Y-48641009D01*
X153915914Y-48663407D01*
X153897112Y-48683474D01*
X153860408Y-48705733D01*
X153799862Y-48734709D01*
X153709534Y-48774927D01*
X153709077Y-48775129D01*
X153625933Y-48813210D01*
X153557753Y-48847025D01*
X153511505Y-48872933D01*
X153494158Y-48887295D01*
X153494154Y-48887411D01*
X153509443Y-48918685D01*
X153545196Y-48953157D01*
X153586242Y-48977990D01*
X153607037Y-48982923D01*
X153663770Y-48965862D01*
X153712627Y-48923133D01*
X153736465Y-48876155D01*
X153759397Y-48841522D01*
X153804318Y-48802081D01*
X153857123Y-48768009D01*
X153903710Y-48749480D01*
X153913452Y-48748462D01*
X153924418Y-48765215D01*
X153925079Y-48808039D01*
X153917020Y-48865781D01*
X153901827Y-48927289D01*
X153881086Y-48981409D01*
X153880038Y-48983510D01*
X153817621Y-49070660D01*
X153736726Y-49129939D01*
X153644856Y-49159034D01*
X153549513Y-49155634D01*
X153458198Y-49117428D01*
X153454138Y-49114741D01*
X153382306Y-49049642D01*
X153335073Y-48964705D01*
X153308934Y-48853021D01*
X153305426Y-48821643D01*
X153299213Y-48673536D01*
X153306661Y-48604468D01*
X153494154Y-48604468D01*
X153496590Y-48647552D01*
X153509914Y-48660126D01*
X153543132Y-48650719D01*
X153595494Y-48628483D01*
X153654024Y-48600610D01*
X153655479Y-48599872D01*
X153705089Y-48573777D01*
X153725000Y-48556363D01*
X153720090Y-48538107D01*
X153699416Y-48514120D01*
X153646819Y-48479406D01*
X153590177Y-48476856D01*
X153539369Y-48502119D01*
X153504276Y-48550847D01*
X153494154Y-48604468D01*
X153306661Y-48604468D01*
X153311992Y-48555036D01*
X153344778Y-48461055D01*
G36*
X158605208Y-48356712D02*
G01*
X158608190Y-48408118D01*
X158610526Y-48486242D01*
X158612028Y-48584907D01*
X158612510Y-48688393D01*
X158612510Y-49038583D01*
X158550680Y-49100413D01*
X158508072Y-49138512D01*
X158470669Y-49153945D01*
X158419549Y-49152968D01*
X158399257Y-49150483D01*
X158335833Y-49143250D01*
X158283374Y-49139105D01*
X158270587Y-49138722D01*
X158227478Y-49141226D01*
X158165823Y-49147512D01*
X158141917Y-49150483D01*
X158083201Y-49155078D01*
X158043743Y-49145096D01*
X158004617Y-49114278D01*
X157990494Y-49100413D01*
X157928664Y-49038583D01*
X157928664Y-48383553D01*
X157978429Y-48360879D01*
X158021281Y-48344084D01*
X158046352Y-48338204D01*
X158052780Y-48356786D01*
X158058788Y-48408705D01*
X158063976Y-48488222D01*
X158067943Y-48589596D01*
X158069856Y-48675242D01*
X158075202Y-49012281D01*
X158121839Y-49018875D01*
X158164255Y-49014264D01*
X158185039Y-48999337D01*
X158190849Y-48971427D01*
X158195809Y-48911975D01*
X158199525Y-48828516D01*
X158201603Y-48728582D01*
X158201903Y-48677154D01*
X158202202Y-48381104D01*
X158263733Y-48359654D01*
X158307283Y-48345070D01*
X158330973Y-48338269D01*
X158331656Y-48338204D01*
X158334033Y-48356692D01*
X158336645Y-48407956D01*
X158339274Y-48485699D01*
X158341700Y-48583624D01*
X158343394Y-48675242D01*
X158348740Y-49012281D01*
X158465971Y-49012281D01*
X158471351Y-48704796D01*
X158476730Y-48397311D01*
X158533880Y-48367757D01*
X158576076Y-48347463D01*
X158601049Y-48338254D01*
X158601770Y-48338204D01*
X158605208Y-48356712D01*
G37*
X158605208Y-48356712D02*
X158608190Y-48408118D01*
X158610526Y-48486242D01*
X158612028Y-48584907D01*
X158612510Y-48688393D01*
X158612510Y-49038583D01*
X158550680Y-49100413D01*
X158508072Y-49138512D01*
X158470669Y-49153945D01*
X158419549Y-49152968D01*
X158399257Y-49150483D01*
X158335833Y-49143250D01*
X158283374Y-49139105D01*
X158270587Y-49138722D01*
X158227478Y-49141226D01*
X158165823Y-49147512D01*
X158141917Y-49150483D01*
X158083201Y-49155078D01*
X158043743Y-49145096D01*
X158004617Y-49114278D01*
X157990494Y-49100413D01*
X157928664Y-49038583D01*
X157928664Y-48383553D01*
X157978429Y-48360879D01*
X158021281Y-48344084D01*
X158046352Y-48338204D01*
X158052780Y-48356786D01*
X158058788Y-48408705D01*
X158063976Y-48488222D01*
X158067943Y-48589596D01*
X158069856Y-48675242D01*
X158075202Y-49012281D01*
X158121839Y-49018875D01*
X158164255Y-49014264D01*
X158185039Y-48999337D01*
X158190849Y-48971427D01*
X158195809Y-48911975D01*
X158199525Y-48828516D01*
X158201603Y-48728582D01*
X158201903Y-48677154D01*
X158202202Y-48381104D01*
X158263733Y-48359654D01*
X158307283Y-48345070D01*
X158330973Y-48338269D01*
X158331656Y-48338204D01*
X158334033Y-48356692D01*
X158336645Y-48407956D01*
X158339274Y-48485699D01*
X158341700Y-48583624D01*
X158343394Y-48675242D01*
X158348740Y-49012281D01*
X158465971Y-49012281D01*
X158471351Y-48704796D01*
X158476730Y-48397311D01*
X158533880Y-48367757D01*
X158576076Y-48347463D01*
X158601049Y-48338254D01*
X158601770Y-48338204D01*
X158605208Y-48356712D01*
G36*
X159780807Y-48356782D02*
G01*
X159804161Y-48366988D01*
X159859902Y-48411134D01*
X159907569Y-48474967D01*
X159937048Y-48543087D01*
X159941846Y-48576670D01*
X159925760Y-48623556D01*
X159890475Y-48648365D01*
X159852644Y-48663387D01*
X159835321Y-48666155D01*
X159826886Y-48646066D01*
X159810230Y-48602351D01*
X159802923Y-48582598D01*
X159761948Y-48514271D01*
X159702622Y-48480191D01*
X159626552Y-48481239D01*
X159620918Y-48482581D01*
X159580305Y-48501836D01*
X159550448Y-48539375D01*
X159530055Y-48599809D01*
X159517836Y-48687751D01*
X159512500Y-48807813D01*
X159512000Y-48871698D01*
X159511752Y-48972403D01*
X159510126Y-49041054D01*
X159505801Y-49084673D01*
X159497454Y-49110282D01*
X159483765Y-49124903D01*
X159463411Y-49135558D01*
X159462234Y-49136095D01*
X159423038Y-49152667D01*
X159403619Y-49158769D01*
X159400635Y-49140319D01*
X159398081Y-49089323D01*
X159396140Y-49012308D01*
X159394997Y-48915805D01*
X159394769Y-48845184D01*
X159395932Y-48708525D01*
X159400479Y-48604851D01*
X159409999Y-48528108D01*
X159426081Y-48472246D01*
X159450313Y-48431212D01*
X159484286Y-48398954D01*
X159517833Y-48376440D01*
X159598499Y-48346476D01*
X159692381Y-48339718D01*
X159780807Y-48356782D01*
G37*
X159780807Y-48356782D02*
X159804161Y-48366988D01*
X159859902Y-48411134D01*
X159907569Y-48474967D01*
X159937048Y-48543087D01*
X159941846Y-48576670D01*
X159925760Y-48623556D01*
X159890475Y-48648365D01*
X159852644Y-48663387D01*
X159835321Y-48666155D01*
X159826886Y-48646066D01*
X159810230Y-48602351D01*
X159802923Y-48582598D01*
X159761948Y-48514271D01*
X159702622Y-48480191D01*
X159626552Y-48481239D01*
X159620918Y-48482581D01*
X159580305Y-48501836D01*
X159550448Y-48539375D01*
X159530055Y-48599809D01*
X159517836Y-48687751D01*
X159512500Y-48807813D01*
X159512000Y-48871698D01*
X159511752Y-48972403D01*
X159510126Y-49041054D01*
X159505801Y-49084673D01*
X159497454Y-49110282D01*
X159483765Y-49124903D01*
X159463411Y-49135558D01*
X159462234Y-49136095D01*
X159423038Y-49152667D01*
X159403619Y-49158769D01*
X159400635Y-49140319D01*
X159398081Y-49089323D01*
X159396140Y-49012308D01*
X159394997Y-48915805D01*
X159394769Y-48845184D01*
X159395932Y-48708525D01*
X159400479Y-48604851D01*
X159409999Y-48528108D01*
X159426081Y-48472246D01*
X159450313Y-48431212D01*
X159484286Y-48398954D01*
X159517833Y-48376440D01*
X159598499Y-48346476D01*
X159692381Y-48339718D01*
X159780807Y-48356782D01*
G36*
X151822246Y-48543675D02*
G01*
X151828939Y-48494932D01*
X151840577Y-48459057D01*
X151858470Y-48427317D01*
X151862425Y-48421417D01*
X151928884Y-48341873D01*
X152001302Y-48295698D01*
X152089466Y-48277368D01*
X152119404Y-48276472D01*
X152231503Y-48293025D01*
X152323081Y-48341178D01*
X152390666Y-48418674D01*
X152414674Y-48468496D01*
X152433355Y-48543302D01*
X152442918Y-48637821D01*
X152443825Y-48740979D01*
X152436538Y-48841704D01*
X152421520Y-48928922D01*
X152399232Y-48991560D01*
X152392382Y-49002348D01*
X152311249Y-49082874D01*
X152214883Y-49131105D01*
X152110318Y-49145219D01*
X152004585Y-49123398D01*
X151975160Y-49110316D01*
X151917858Y-49070000D01*
X151867567Y-49016544D01*
X151862814Y-49009764D01*
X151843495Y-48977090D01*
X151830725Y-48942163D01*
X151823181Y-48896183D01*
X151819541Y-48830353D01*
X151818482Y-48735874D01*
X151818463Y-48714692D01*
X151818511Y-48707951D01*
X152013848Y-48707951D01*
X152014985Y-48797118D01*
X152019458Y-48856289D01*
X152028863Y-48894510D01*
X152044793Y-48920822D01*
X152052925Y-48929615D01*
X152099675Y-48963030D01*
X152145064Y-48961506D01*
X152190957Y-48932521D01*
X152218329Y-48901578D01*
X152234540Y-48856412D01*
X152243643Y-48785189D01*
X152244268Y-48776883D01*
X152245821Y-48647806D01*
X152229582Y-48551941D01*
X152195769Y-48489876D01*
X152144601Y-48462201D01*
X152126337Y-48460692D01*
X152078377Y-48468282D01*
X152045570Y-48494577D01*
X152025512Y-48544864D01*
X152015795Y-48624433D01*
X152013848Y-48707951D01*
X151818511Y-48707951D01*
X151819191Y-48614018D01*
X151822246Y-48543675D01*
G37*
X151822246Y-48543675D02*
X151828939Y-48494932D01*
X151840577Y-48459057D01*
X151858470Y-48427317D01*
X151862425Y-48421417D01*
X151928884Y-48341873D01*
X152001302Y-48295698D01*
X152089466Y-48277368D01*
X152119404Y-48276472D01*
X152231503Y-48293025D01*
X152323081Y-48341178D01*
X152390666Y-48418674D01*
X152414674Y-48468496D01*
X152433355Y-48543302D01*
X152442918Y-48637821D01*
X152443825Y-48740979D01*
X152436538Y-48841704D01*
X152421520Y-48928922D01*
X152399232Y-48991560D01*
X152392382Y-49002348D01*
X152311249Y-49082874D01*
X152214883Y-49131105D01*
X152110318Y-49145219D01*
X152004585Y-49123398D01*
X151975160Y-49110316D01*
X151917858Y-49070000D01*
X151867567Y-49016544D01*
X151862814Y-49009764D01*
X151843495Y-48977090D01*
X151830725Y-48942163D01*
X151823181Y-48896183D01*
X151819541Y-48830353D01*
X151818482Y-48735874D01*
X151818463Y-48714692D01*
X151818511Y-48707951D01*
X152013848Y-48707951D01*
X152014985Y-48797118D01*
X152019458Y-48856289D01*
X152028863Y-48894510D01*
X152044793Y-48920822D01*
X152052925Y-48929615D01*
X152099675Y-48963030D01*
X152145064Y-48961506D01*
X152190957Y-48932521D01*
X152218329Y-48901578D01*
X152234540Y-48856412D01*
X152243643Y-48785189D01*
X152244268Y-48776883D01*
X152245821Y-48647806D01*
X152229582Y-48551941D01*
X152195769Y-48489876D01*
X152144601Y-48462201D01*
X152126337Y-48460692D01*
X152078377Y-48468282D01*
X152045570Y-48494577D01*
X152025512Y-48544864D01*
X152015795Y-48624433D01*
X152013848Y-48707951D01*
X151818511Y-48707951D01*
X151819191Y-48614018D01*
X151822246Y-48543675D01*
G36*
X152566873Y-48614679D02*
G01*
X152570606Y-48550905D01*
X152575907Y-48505582D01*
X152583258Y-48473555D01*
X152593143Y-48449668D01*
X152606046Y-48428764D01*
X152611579Y-48420898D01*
X152684969Y-48346595D01*
X152777760Y-48304467D01*
X152885096Y-48292722D01*
X152978886Y-48304505D01*
X153053539Y-48341727D01*
X153119431Y-48410261D01*
X153137577Y-48435648D01*
X153157345Y-48468866D01*
X153170172Y-48504945D01*
X153177510Y-48553098D01*
X153180813Y-48622536D01*
X153181538Y-48714206D01*
X153178263Y-48839830D01*
X153166877Y-48934154D01*
X153145041Y-49004523D01*
X153110419Y-49058286D01*
X153060670Y-49102788D01*
X153057014Y-49105423D01*
X153007985Y-49132377D01*
X152948945Y-49145712D01*
X152873859Y-49149000D01*
X152751795Y-49149000D01*
X152751744Y-49267497D01*
X152750608Y-49333492D01*
X152743686Y-49372202D01*
X152725598Y-49395419D01*
X152690962Y-49414933D01*
X152682645Y-49418920D01*
X152643720Y-49437603D01*
X152613583Y-49449403D01*
X152591174Y-49450422D01*
X152575433Y-49436761D01*
X152565302Y-49404522D01*
X152559723Y-49349804D01*
X152557635Y-49268711D01*
X152557981Y-49157344D01*
X152559700Y-49011802D01*
X152560237Y-48968269D01*
X152562172Y-48818205D01*
X152563904Y-48720042D01*
X152751692Y-48720042D01*
X152752748Y-48803364D01*
X152757438Y-48857880D01*
X152768051Y-48893837D01*
X152786872Y-48921482D01*
X152799650Y-48934965D01*
X152851890Y-48974417D01*
X152898142Y-48977628D01*
X152945867Y-48945049D01*
X152947077Y-48943846D01*
X152966494Y-48918668D01*
X152978307Y-48884447D01*
X152984265Y-48831748D01*
X152986120Y-48751131D01*
X152986154Y-48733271D01*
X152981670Y-48622175D01*
X152967074Y-48545161D01*
X152940650Y-48498147D01*
X152900683Y-48477050D01*
X152877584Y-48474923D01*
X152822762Y-48484900D01*
X152785158Y-48517752D01*
X152762523Y-48577857D01*
X152752606Y-48669598D01*
X152751692Y-48720042D01*
X152563904Y-48720042D01*
X152564222Y-48702060D01*
X152566873Y-48614679D01*
G37*
X152566873Y-48614679D02*
X152570606Y-48550905D01*
X152575907Y-48505582D01*
X152583258Y-48473555D01*
X152593143Y-48449668D01*
X152606046Y-48428764D01*
X152611579Y-48420898D01*
X152684969Y-48346595D01*
X152777760Y-48304467D01*
X152885096Y-48292722D01*
X152978886Y-48304505D01*
X153053539Y-48341727D01*
X153119431Y-48410261D01*
X153137577Y-48435648D01*
X153157345Y-48468866D01*
X153170172Y-48504945D01*
X153177510Y-48553098D01*
X153180813Y-48622536D01*
X153181538Y-48714206D01*
X153178263Y-48839830D01*
X153166877Y-48934154D01*
X153145041Y-49004523D01*
X153110419Y-49058286D01*
X153060670Y-49102788D01*
X153057014Y-49105423D01*
X153007985Y-49132377D01*
X152948945Y-49145712D01*
X152873859Y-49149000D01*
X152751795Y-49149000D01*
X152751744Y-49267497D01*
X152750608Y-49333492D01*
X152743686Y-49372202D01*
X152725598Y-49395419D01*
X152690962Y-49414933D01*
X152682645Y-49418920D01*
X152643720Y-49437603D01*
X152613583Y-49449403D01*
X152591174Y-49450422D01*
X152575433Y-49436761D01*
X152565302Y-49404522D01*
X152559723Y-49349804D01*
X152557635Y-49268711D01*
X152557981Y-49157344D01*
X152559700Y-49011802D01*
X152560237Y-48968269D01*
X152562172Y-48818205D01*
X152563904Y-48720042D01*
X152751692Y-48720042D01*
X152752748Y-48803364D01*
X152757438Y-48857880D01*
X152768051Y-48893837D01*
X152786872Y-48921482D01*
X152799650Y-48934965D01*
X152851890Y-48974417D01*
X152898142Y-48977628D01*
X152945867Y-48945049D01*
X152947077Y-48943846D01*
X152966494Y-48918668D01*
X152978307Y-48884447D01*
X152984265Y-48831748D01*
X152986120Y-48751131D01*
X152986154Y-48733271D01*
X152981670Y-48622175D01*
X152967074Y-48545161D01*
X152940650Y-48498147D01*
X152900683Y-48477050D01*
X152877584Y-48474923D01*
X152822762Y-48484900D01*
X152785158Y-48517752D01*
X152762523Y-48577857D01*
X152752606Y-48669598D01*
X152751692Y-48720042D01*
X152563904Y-48720042D01*
X152564222Y-48702060D01*
X152566873Y-48614679D01*
G36*
X157264059Y-48530097D02*
G01*
X157294225Y-48460789D01*
X157341326Y-48406731D01*
X157378009Y-48379025D01*
X157444687Y-48349092D01*
X157521969Y-48335198D01*
X157593807Y-48338917D01*
X157634005Y-48353920D01*
X157649779Y-48358190D01*
X157660247Y-48342270D01*
X157667553Y-48299609D01*
X157673082Y-48234626D01*
X157679134Y-48162252D01*
X157687541Y-48118707D01*
X157702838Y-48093807D01*
X157729561Y-48077365D01*
X157746351Y-48070084D01*
X157809851Y-48043483D01*
X157809778Y-48496809D01*
X157809530Y-48642840D01*
X157808569Y-48755175D01*
X157806491Y-48839198D01*
X157802890Y-48900289D01*
X157797362Y-48943829D01*
X157789501Y-48975199D01*
X157778904Y-48999782D01*
X157770879Y-49013814D01*
X157704425Y-49089908D01*
X157620167Y-49137604D01*
X157526946Y-49154719D01*
X157433597Y-49139066D01*
X157378009Y-49110938D01*
X157319654Y-49062280D01*
X157279883Y-49002853D01*
X157255887Y-48925027D01*
X157244858Y-48821172D01*
X157243296Y-48744982D01*
X157243506Y-48739506D01*
X157380005Y-48739506D01*
X157380838Y-48826875D01*
X157384658Y-48884712D01*
X157393443Y-48922549D01*
X157409171Y-48949918D01*
X157427963Y-48970562D01*
X157491072Y-49010410D01*
X157558834Y-49013815D01*
X157622876Y-48980545D01*
X157627861Y-48976037D01*
X157649136Y-48952587D01*
X157662476Y-48924686D01*
X157669698Y-48883161D01*
X157672620Y-48818836D01*
X157673082Y-48747720D01*
X157672080Y-48658378D01*
X157667935Y-48598778D01*
X157658933Y-48559609D01*
X157643364Y-48531560D01*
X157630599Y-48516664D01*
X157571297Y-48479095D01*
X157502998Y-48474577D01*
X157437807Y-48503273D01*
X157425225Y-48513926D01*
X157403808Y-48537583D01*
X157390441Y-48565771D01*
X157383263Y-48607765D01*
X157380416Y-48672839D01*
X157380005Y-48739506D01*
X157243506Y-48739506D01*
X157248019Y-48622285D01*
X157264059Y-48530097D01*
G37*
X157264059Y-48530097D02*
X157294225Y-48460789D01*
X157341326Y-48406731D01*
X157378009Y-48379025D01*
X157444687Y-48349092D01*
X157521969Y-48335198D01*
X157593807Y-48338917D01*
X157634005Y-48353920D01*
X157649779Y-48358190D01*
X157660247Y-48342270D01*
X157667553Y-48299609D01*
X157673082Y-48234626D01*
X157679134Y-48162252D01*
X157687541Y-48118707D01*
X157702838Y-48093807D01*
X157729561Y-48077365D01*
X157746351Y-48070084D01*
X157809851Y-48043483D01*
X157809778Y-48496809D01*
X157809530Y-48642840D01*
X157808569Y-48755175D01*
X157806491Y-48839198D01*
X157802890Y-48900289D01*
X157797362Y-48943829D01*
X157789501Y-48975199D01*
X157778904Y-48999782D01*
X157770879Y-49013814D01*
X157704425Y-49089908D01*
X157620167Y-49137604D01*
X157526946Y-49154719D01*
X157433597Y-49139066D01*
X157378009Y-49110938D01*
X157319654Y-49062280D01*
X157279883Y-49002853D01*
X157255887Y-48925027D01*
X157244858Y-48821172D01*
X157243296Y-48744982D01*
X157243506Y-48739506D01*
X157380005Y-48739506D01*
X157380838Y-48826875D01*
X157384658Y-48884712D01*
X157393443Y-48922549D01*
X157409171Y-48949918D01*
X157427963Y-48970562D01*
X157491072Y-49010410D01*
X157558834Y-49013815D01*
X157622876Y-48980545D01*
X157627861Y-48976037D01*
X157649136Y-48952587D01*
X157662476Y-48924686D01*
X157669698Y-48883161D01*
X157672620Y-48818836D01*
X157673082Y-48747720D01*
X157672080Y-48658378D01*
X157667935Y-48598778D01*
X157658933Y-48559609D01*
X157643364Y-48531560D01*
X157630599Y-48516664D01*
X157571297Y-48479095D01*
X157502998Y-48474577D01*
X157437807Y-48503273D01*
X157425225Y-48513926D01*
X157403808Y-48537583D01*
X157390441Y-48565771D01*
X157383263Y-48607765D01*
X157380416Y-48672839D01*
X157380005Y-48739506D01*
X157243506Y-48739506D01*
X157248019Y-48622285D01*
X157264059Y-48530097D01*
G36*
X156349878Y-42007776D02*
G01*
X156455612Y-42008355D01*
X156532132Y-42009922D01*
X156584372Y-42012972D01*
X156617263Y-42017996D01*
X156635737Y-42025489D01*
X156644727Y-42035944D01*
X156649163Y-42049853D01*
X156649594Y-42051654D01*
X156656333Y-42084145D01*
X156668808Y-42148252D01*
X156685719Y-42237151D01*
X156705771Y-42344019D01*
X156727664Y-42462033D01*
X156728429Y-42466178D01*
X156750359Y-42581831D01*
X156770877Y-42684014D01*
X156788659Y-42766598D01*
X156802381Y-42823456D01*
X156810718Y-42848458D01*
X156811116Y-42848901D01*
X156835677Y-42861110D01*
X156886315Y-42881456D01*
X156952095Y-42905545D01*
X156952461Y-42905674D01*
X157035317Y-42936818D01*
X157133000Y-42976491D01*
X157225077Y-43016381D01*
X157229434Y-43018353D01*
X157379407Y-43086420D01*
X157711498Y-42859639D01*
X157813374Y-42790504D01*
X157905657Y-42728697D01*
X157983003Y-42677733D01*
X158040064Y-42641127D01*
X158071495Y-42622394D01*
X158074479Y-42621004D01*
X158097321Y-42627190D01*
X158139982Y-42657035D01*
X158204128Y-42711947D01*
X158291421Y-42793334D01*
X158380535Y-42879922D01*
X158466441Y-42965247D01*
X158543327Y-43043108D01*
X158606564Y-43108697D01*
X158651523Y-43157205D01*
X158673576Y-43183825D01*
X158674396Y-43185195D01*
X158676834Y-43203463D01*
X158667650Y-43233295D01*
X158644574Y-43278721D01*
X158605337Y-43343770D01*
X158547670Y-43432470D01*
X158470795Y-43546657D01*
X158402570Y-43647162D01*
X158341582Y-43737303D01*
X158291356Y-43811849D01*
X158255416Y-43865565D01*
X158237287Y-43893218D01*
X158236146Y-43895095D01*
X158238359Y-43921590D01*
X158255138Y-43973086D01*
X158283142Y-44039851D01*
X158293122Y-44061172D01*
X158336672Y-44156159D01*
X158383134Y-44263937D01*
X158420877Y-44357192D01*
X158448073Y-44426406D01*
X158469675Y-44479006D01*
X158482158Y-44506497D01*
X158483709Y-44508616D01*
X158506668Y-44512124D01*
X158560786Y-44521738D01*
X158638868Y-44536089D01*
X158733719Y-44553807D01*
X158838143Y-44573525D01*
X158944944Y-44593874D01*
X159046926Y-44613486D01*
X159136894Y-44630991D01*
X159207653Y-44645022D01*
X159252006Y-44654209D01*
X159262885Y-44656807D01*
X159274122Y-44663218D01*
X159282605Y-44677697D01*
X159288714Y-44705133D01*
X159292832Y-44750411D01*
X159295341Y-44818420D01*
X159296621Y-44914047D01*
X159297054Y-45042180D01*
X159297077Y-45094701D01*
X159297077Y-45521845D01*
X159194500Y-45542091D01*
X159137431Y-45553070D01*
X159052269Y-45569095D01*
X158949372Y-45588233D01*
X158839096Y-45608551D01*
X158808615Y-45614132D01*
X158706855Y-45633917D01*
X158618205Y-45653373D01*
X158550108Y-45670697D01*
X158510004Y-45684088D01*
X158503323Y-45688079D01*
X158486919Y-45716342D01*
X158463399Y-45771109D01*
X158437316Y-45841588D01*
X158432142Y-45856769D01*
X158397956Y-45950896D01*
X158355523Y-46057101D01*
X158313997Y-46152473D01*
X158313792Y-46152916D01*
X158244640Y-46302525D01*
X158699512Y-46971617D01*
X158407500Y-47264116D01*
X158319180Y-47351170D01*
X158238625Y-47427909D01*
X158170360Y-47490237D01*
X158118908Y-47534056D01*
X158088794Y-47555270D01*
X158084474Y-47556616D01*
X158059111Y-47546016D01*
X158007358Y-47516547D01*
X157934868Y-47471705D01*
X157847294Y-47414984D01*
X157752612Y-47351462D01*
X157656516Y-47286668D01*
X157570837Y-47230287D01*
X157501016Y-47185788D01*
X157452494Y-47156639D01*
X157430782Y-47146308D01*
X157404293Y-47155050D01*
X157354062Y-47178087D01*
X157290451Y-47210631D01*
X157283708Y-47214249D01*
X157198046Y-47257210D01*
X157139306Y-47278279D01*
X157102772Y-47278503D01*
X157083731Y-47258928D01*
X157083620Y-47258654D01*
X157074102Y-47235472D01*
X157051403Y-47180441D01*
X157017282Y-47097822D01*
X156973500Y-46991872D01*
X156921816Y-46866852D01*
X156863992Y-46727020D01*
X156807991Y-46591637D01*
X156746447Y-46442234D01*
X156689939Y-46303832D01*
X156640161Y-46180673D01*
X156598806Y-46077002D01*
X156567568Y-45997059D01*
X156548141Y-45945088D01*
X156542154Y-45925692D01*
X156557168Y-45903443D01*
X156596439Y-45867982D01*
X156648807Y-45828887D01*
X156797941Y-45705245D01*
X156914511Y-45563522D01*
X156997118Y-45406704D01*
X157044366Y-45237775D01*
X157054857Y-45059722D01*
X157047231Y-44977539D01*
X157005682Y-44807031D01*
X156934123Y-44656459D01*
X156836995Y-44527309D01*
X156718734Y-44421064D01*
X156583780Y-44339210D01*
X156436571Y-44283232D01*
X156281544Y-44254615D01*
X156123139Y-44254844D01*
X155965794Y-44285405D01*
X155813946Y-44347782D01*
X155672035Y-44443460D01*
X155612803Y-44497572D01*
X155499203Y-44636520D01*
X155420106Y-44788361D01*
X155374986Y-44948667D01*
X155363316Y-45113012D01*
X155384569Y-45276971D01*
X155438220Y-45436118D01*
X155523740Y-45586025D01*
X155640605Y-45722267D01*
X155771193Y-45828887D01*
X155825588Y-45869642D01*
X155864014Y-45904718D01*
X155877846Y-45925726D01*
X155870603Y-45948635D01*
X155850005Y-46003365D01*
X155817746Y-46085672D01*
X155775521Y-46191315D01*
X155725023Y-46316050D01*
X155667948Y-46455636D01*
X155611854Y-46591670D01*
X155549967Y-46741201D01*
X155492644Y-46879767D01*
X155441644Y-47003107D01*
X155398727Y-47106964D01*
X155365653Y-47187080D01*
X155344181Y-47239195D01*
X155336225Y-47258654D01*
X155317429Y-47278423D01*
X155281074Y-47278365D01*
X155222479Y-47257441D01*
X155136968Y-47214613D01*
X155136292Y-47214249D01*
X155071907Y-47181012D01*
X155019861Y-47156802D01*
X154990512Y-47146404D01*
X154989217Y-47146308D01*
X154967124Y-47156855D01*
X154918348Y-47186184D01*
X154848331Y-47230827D01*
X154762514Y-47287314D01*
X154667388Y-47351462D01*
X154570540Y-47416411D01*
X154483253Y-47472896D01*
X154411181Y-47517421D01*
X154359977Y-47546490D01*
X154335526Y-47556616D01*
X154313010Y-47543307D01*
X154267742Y-47506112D01*
X154204244Y-47449128D01*
X154127039Y-47376449D01*
X154040651Y-47292171D01*
X154012399Y-47264016D01*
X153720287Y-46971416D01*
X153942631Y-46645104D01*
X154010202Y-46544897D01*
X154069507Y-46454963D01*
X154117217Y-46380510D01*
X154150007Y-46326751D01*
X154164548Y-46298894D01*
X154164974Y-46296912D01*
X154157308Y-46270655D01*
X154136689Y-46217837D01*
X154106685Y-46147310D01*
X154085625Y-46100093D01*
X154046248Y-46009694D01*
X154009165Y-45918366D01*
X153980415Y-45841200D01*
X153972605Y-45817692D01*
X153950417Y-45754916D01*
X153928727Y-45706411D01*
X153916813Y-45688079D01*
X153890523Y-45676859D01*
X153833142Y-45660954D01*
X153752118Y-45642167D01*
X153654895Y-45622299D01*
X153611385Y-45614132D01*
X153500896Y-45593829D01*
X153394916Y-45574170D01*
X153303801Y-45557088D01*
X153237908Y-45544518D01*
X153225500Y-45542091D01*
X153122923Y-45521845D01*
X153122923Y-45094701D01*
X153123153Y-44954246D01*
X153124099Y-44847979D01*
X153126141Y-44771013D01*
X153129662Y-44718460D01*
X153135043Y-44685433D01*
X153142666Y-44667045D01*
X153152912Y-44658408D01*
X153157115Y-44656807D01*
X153182470Y-44651127D01*
X153238484Y-44639795D01*
X153317964Y-44624179D01*
X153413712Y-44605647D01*
X153518533Y-44585569D01*
X153625232Y-44565312D01*
X153726613Y-44546246D01*
X153815479Y-44529739D01*
X153884637Y-44517159D01*
X153926889Y-44509875D01*
X153936290Y-44508616D01*
X153944807Y-44491763D01*
X153963660Y-44446870D01*
X153989324Y-44382430D01*
X153999123Y-44357192D01*
X154038648Y-44259686D01*
X154085192Y-44151959D01*
X154126877Y-44061172D01*
X154157550Y-43991753D01*
X154177956Y-43934710D01*
X154184768Y-43899777D01*
X154183682Y-43895095D01*
X154169285Y-43872991D01*
X154136412Y-43823831D01*
X154088590Y-43752848D01*
X154029348Y-43665278D01*
X153962215Y-43566357D01*
X153948941Y-43546830D01*
X153871046Y-43431140D01*
X153813787Y-43343044D01*
X153774881Y-43278486D01*
X153752044Y-43233411D01*
X153742994Y-43203763D01*
X153745448Y-43185485D01*
X153745511Y-43185369D01*
X153764827Y-43161361D01*
X153807551Y-43114947D01*
X153869051Y-43050937D01*
X153944698Y-42974145D01*
X154029861Y-42889382D01*
X154039465Y-42879922D01*
X154146790Y-42775989D01*
X154229615Y-42699675D01*
X154289605Y-42649571D01*
X154328423Y-42624270D01*
X154345520Y-42621004D01*
X154370473Y-42635250D01*
X154422255Y-42668156D01*
X154495520Y-42716208D01*
X154584920Y-42775890D01*
X154685111Y-42843688D01*
X154708501Y-42859639D01*
X155040593Y-43086420D01*
X155190565Y-43018353D01*
X155281770Y-42978685D01*
X155379669Y-42938791D01*
X155463831Y-42906983D01*
X155467538Y-42905674D01*
X155533369Y-42881576D01*
X155584116Y-42861200D01*
X155608842Y-42848936D01*
X155608884Y-42848901D01*
X155616729Y-42826734D01*
X155630066Y-42772217D01*
X155647570Y-42691480D01*
X155667917Y-42590650D01*
X155689782Y-42475856D01*
X155691571Y-42466178D01*
X155713504Y-42347904D01*
X155733640Y-42240542D01*
X155750680Y-42150917D01*
X155763328Y-42085851D01*
X155770284Y-42052168D01*
X155770406Y-42051654D01*
X155774639Y-42037325D01*
X155782871Y-42026507D01*
X155800033Y-42018706D01*
X155831058Y-42013429D01*
X155880878Y-42010182D01*
X155954424Y-42008472D01*
X156056629Y-42007807D01*
X156192425Y-42007693D01*
X156210000Y-42007692D01*
X156349878Y-42007776D01*
G37*
X156349878Y-42007776D02*
X156455612Y-42008355D01*
X156532132Y-42009922D01*
X156584372Y-42012972D01*
X156617263Y-42017996D01*
X156635737Y-42025489D01*
X156644727Y-42035944D01*
X156649163Y-42049853D01*
X156649594Y-42051654D01*
X156656333Y-42084145D01*
X156668808Y-42148252D01*
X156685719Y-42237151D01*
X156705771Y-42344019D01*
X156727664Y-42462033D01*
X156728429Y-42466178D01*
X156750359Y-42581831D01*
X156770877Y-42684014D01*
X156788659Y-42766598D01*
X156802381Y-42823456D01*
X156810718Y-42848458D01*
X156811116Y-42848901D01*
X156835677Y-42861110D01*
X156886315Y-42881456D01*
X156952095Y-42905545D01*
X156952461Y-42905674D01*
X157035317Y-42936818D01*
X157133000Y-42976491D01*
X157225077Y-43016381D01*
X157229434Y-43018353D01*
X157379407Y-43086420D01*
X157711498Y-42859639D01*
X157813374Y-42790504D01*
X157905657Y-42728697D01*
X157983003Y-42677733D01*
X158040064Y-42641127D01*
X158071495Y-42622394D01*
X158074479Y-42621004D01*
X158097321Y-42627190D01*
X158139982Y-42657035D01*
X158204128Y-42711947D01*
X158291421Y-42793334D01*
X158380535Y-42879922D01*
X158466441Y-42965247D01*
X158543327Y-43043108D01*
X158606564Y-43108697D01*
X158651523Y-43157205D01*
X158673576Y-43183825D01*
X158674396Y-43185195D01*
X158676834Y-43203463D01*
X158667650Y-43233295D01*
X158644574Y-43278721D01*
X158605337Y-43343770D01*
X158547670Y-43432470D01*
X158470795Y-43546657D01*
X158402570Y-43647162D01*
X158341582Y-43737303D01*
X158291356Y-43811849D01*
X158255416Y-43865565D01*
X158237287Y-43893218D01*
X158236146Y-43895095D01*
X158238359Y-43921590D01*
X158255138Y-43973086D01*
X158283142Y-44039851D01*
X158293122Y-44061172D01*
X158336672Y-44156159D01*
X158383134Y-44263937D01*
X158420877Y-44357192D01*
X158448073Y-44426406D01*
X158469675Y-44479006D01*
X158482158Y-44506497D01*
X158483709Y-44508616D01*
X158506668Y-44512124D01*
X158560786Y-44521738D01*
X158638868Y-44536089D01*
X158733719Y-44553807D01*
X158838143Y-44573525D01*
X158944944Y-44593874D01*
X159046926Y-44613486D01*
X159136894Y-44630991D01*
X159207653Y-44645022D01*
X159252006Y-44654209D01*
X159262885Y-44656807D01*
X159274122Y-44663218D01*
X159282605Y-44677697D01*
X159288714Y-44705133D01*
X159292832Y-44750411D01*
X159295341Y-44818420D01*
X159296621Y-44914047D01*
X159297054Y-45042180D01*
X159297077Y-45094701D01*
X159297077Y-45521845D01*
X159194500Y-45542091D01*
X159137431Y-45553070D01*
X159052269Y-45569095D01*
X158949372Y-45588233D01*
X158839096Y-45608551D01*
X158808615Y-45614132D01*
X158706855Y-45633917D01*
X158618205Y-45653373D01*
X158550108Y-45670697D01*
X158510004Y-45684088D01*
X158503323Y-45688079D01*
X158486919Y-45716342D01*
X158463399Y-45771109D01*
X158437316Y-45841588D01*
X158432142Y-45856769D01*
X158397956Y-45950896D01*
X158355523Y-46057101D01*
X158313997Y-46152473D01*
X158313792Y-46152916D01*
X158244640Y-46302525D01*
X158699512Y-46971617D01*
X158407500Y-47264116D01*
X158319180Y-47351170D01*
X158238625Y-47427909D01*
X158170360Y-47490237D01*
X158118908Y-47534056D01*
X158088794Y-47555270D01*
X158084474Y-47556616D01*
X158059111Y-47546016D01*
X158007358Y-47516547D01*
X157934868Y-47471705D01*
X157847294Y-47414984D01*
X157752612Y-47351462D01*
X157656516Y-47286668D01*
X157570837Y-47230287D01*
X157501016Y-47185788D01*
X157452494Y-47156639D01*
X157430782Y-47146308D01*
X157404293Y-47155050D01*
X157354062Y-47178087D01*
X157290451Y-47210631D01*
X157283708Y-47214249D01*
X157198046Y-47257210D01*
X157139306Y-47278279D01*
X157102772Y-47278503D01*
X157083731Y-47258928D01*
X157083620Y-47258654D01*
X157074102Y-47235472D01*
X157051403Y-47180441D01*
X157017282Y-47097822D01*
X156973500Y-46991872D01*
X156921816Y-46866852D01*
X156863992Y-46727020D01*
X156807991Y-46591637D01*
X156746447Y-46442234D01*
X156689939Y-46303832D01*
X156640161Y-46180673D01*
X156598806Y-46077002D01*
X156567568Y-45997059D01*
X156548141Y-45945088D01*
X156542154Y-45925692D01*
X156557168Y-45903443D01*
X156596439Y-45867982D01*
X156648807Y-45828887D01*
X156797941Y-45705245D01*
X156914511Y-45563522D01*
X156997118Y-45406704D01*
X157044366Y-45237775D01*
X157054857Y-45059722D01*
X157047231Y-44977539D01*
X157005682Y-44807031D01*
X156934123Y-44656459D01*
X156836995Y-44527309D01*
X156718734Y-44421064D01*
X156583780Y-44339210D01*
X156436571Y-44283232D01*
X156281544Y-44254615D01*
X156123139Y-44254844D01*
X155965794Y-44285405D01*
X155813946Y-44347782D01*
X155672035Y-44443460D01*
X155612803Y-44497572D01*
X155499203Y-44636520D01*
X155420106Y-44788361D01*
X155374986Y-44948667D01*
X155363316Y-45113012D01*
X155384569Y-45276971D01*
X155438220Y-45436118D01*
X155523740Y-45586025D01*
X155640605Y-45722267D01*
X155771193Y-45828887D01*
X155825588Y-45869642D01*
X155864014Y-45904718D01*
X155877846Y-45925726D01*
X155870603Y-45948635D01*
X155850005Y-46003365D01*
X155817746Y-46085672D01*
X155775521Y-46191315D01*
X155725023Y-46316050D01*
X155667948Y-46455636D01*
X155611854Y-46591670D01*
X155549967Y-46741201D01*
X155492644Y-46879767D01*
X155441644Y-47003107D01*
X155398727Y-47106964D01*
X155365653Y-47187080D01*
X155344181Y-47239195D01*
X155336225Y-47258654D01*
X155317429Y-47278423D01*
X155281074Y-47278365D01*
X155222479Y-47257441D01*
X155136968Y-47214613D01*
X155136292Y-47214249D01*
X155071907Y-47181012D01*
X155019861Y-47156802D01*
X154990512Y-47146404D01*
X154989217Y-47146308D01*
X154967124Y-47156855D01*
X154918348Y-47186184D01*
X154848331Y-47230827D01*
X154762514Y-47287314D01*
X154667388Y-47351462D01*
X154570540Y-47416411D01*
X154483253Y-47472896D01*
X154411181Y-47517421D01*
X154359977Y-47546490D01*
X154335526Y-47556616D01*
X154313010Y-47543307D01*
X154267742Y-47506112D01*
X154204244Y-47449128D01*
X154127039Y-47376449D01*
X154040651Y-47292171D01*
X154012399Y-47264016D01*
X153720287Y-46971416D01*
X153942631Y-46645104D01*
X154010202Y-46544897D01*
X154069507Y-46454963D01*
X154117217Y-46380510D01*
X154150007Y-46326751D01*
X154164548Y-46298894D01*
X154164974Y-46296912D01*
X154157308Y-46270655D01*
X154136689Y-46217837D01*
X154106685Y-46147310D01*
X154085625Y-46100093D01*
X154046248Y-46009694D01*
X154009165Y-45918366D01*
X153980415Y-45841200D01*
X153972605Y-45817692D01*
X153950417Y-45754916D01*
X153928727Y-45706411D01*
X153916813Y-45688079D01*
X153890523Y-45676859D01*
X153833142Y-45660954D01*
X153752118Y-45642167D01*
X153654895Y-45622299D01*
X153611385Y-45614132D01*
X153500896Y-45593829D01*
X153394916Y-45574170D01*
X153303801Y-45557088D01*
X153237908Y-45544518D01*
X153225500Y-45542091D01*
X153122923Y-45521845D01*
X153122923Y-45094701D01*
X153123153Y-44954246D01*
X153124099Y-44847979D01*
X153126141Y-44771013D01*
X153129662Y-44718460D01*
X153135043Y-44685433D01*
X153142666Y-44667045D01*
X153152912Y-44658408D01*
X153157115Y-44656807D01*
X153182470Y-44651127D01*
X153238484Y-44639795D01*
X153317964Y-44624179D01*
X153413712Y-44605647D01*
X153518533Y-44585569D01*
X153625232Y-44565312D01*
X153726613Y-44546246D01*
X153815479Y-44529739D01*
X153884637Y-44517159D01*
X153926889Y-44509875D01*
X153936290Y-44508616D01*
X153944807Y-44491763D01*
X153963660Y-44446870D01*
X153989324Y-44382430D01*
X153999123Y-44357192D01*
X154038648Y-44259686D01*
X154085192Y-44151959D01*
X154126877Y-44061172D01*
X154157550Y-43991753D01*
X154177956Y-43934710D01*
X154184768Y-43899777D01*
X154183682Y-43895095D01*
X154169285Y-43872991D01*
X154136412Y-43823831D01*
X154088590Y-43752848D01*
X154029348Y-43665278D01*
X153962215Y-43566357D01*
X153948941Y-43546830D01*
X153871046Y-43431140D01*
X153813787Y-43343044D01*
X153774881Y-43278486D01*
X153752044Y-43233411D01*
X153742994Y-43203763D01*
X153745448Y-43185485D01*
X153745511Y-43185369D01*
X153764827Y-43161361D01*
X153807551Y-43114947D01*
X153869051Y-43050937D01*
X153944698Y-42974145D01*
X154029861Y-42889382D01*
X154039465Y-42879922D01*
X154146790Y-42775989D01*
X154229615Y-42699675D01*
X154289605Y-42649571D01*
X154328423Y-42624270D01*
X154345520Y-42621004D01*
X154370473Y-42635250D01*
X154422255Y-42668156D01*
X154495520Y-42716208D01*
X154584920Y-42775890D01*
X154685111Y-42843688D01*
X154708501Y-42859639D01*
X155040593Y-43086420D01*
X155190565Y-43018353D01*
X155281770Y-42978685D01*
X155379669Y-42938791D01*
X155463831Y-42906983D01*
X155467538Y-42905674D01*
X155533369Y-42881576D01*
X155584116Y-42861200D01*
X155608842Y-42848936D01*
X155608884Y-42848901D01*
X155616729Y-42826734D01*
X155630066Y-42772217D01*
X155647570Y-42691480D01*
X155667917Y-42590650D01*
X155689782Y-42475856D01*
X155691571Y-42466178D01*
X155713504Y-42347904D01*
X155733640Y-42240542D01*
X155750680Y-42150917D01*
X155763328Y-42085851D01*
X155770284Y-42052168D01*
X155770406Y-42051654D01*
X155774639Y-42037325D01*
X155782871Y-42026507D01*
X155800033Y-42018706D01*
X155831058Y-42013429D01*
X155880878Y-42010182D01*
X155954424Y-42008472D01*
X156056629Y-42007807D01*
X156192425Y-42007693D01*
X156210000Y-42007692D01*
X156349878Y-42007776D01*
G36*
X154481664Y-48315089D02*
G01*
X154544367Y-48351358D01*
X154587961Y-48387358D01*
X154619845Y-48425075D01*
X154641810Y-48471199D01*
X154655649Y-48532421D01*
X154663153Y-48615431D01*
X154666117Y-48726919D01*
X154666461Y-48807062D01*
X154666461Y-49102065D01*
X154500385Y-49176515D01*
X154490615Y-48853402D01*
X154486579Y-48732729D01*
X154482344Y-48645141D01*
X154477097Y-48584650D01*
X154470025Y-48545268D01*
X154460311Y-48521007D01*
X154447144Y-48505880D01*
X154442919Y-48502606D01*
X154378909Y-48477034D01*
X154314208Y-48487153D01*
X154275692Y-48514000D01*
X154260025Y-48533024D01*
X154249180Y-48557988D01*
X154242288Y-48595834D01*
X154238479Y-48653502D01*
X154236883Y-48737935D01*
X154236615Y-48825928D01*
X154236563Y-48936323D01*
X154234672Y-49014463D01*
X154228345Y-49067165D01*
X154214983Y-49101242D01*
X154191985Y-49123511D01*
X154156754Y-49140787D01*
X154109697Y-49158738D01*
X154058303Y-49178278D01*
X154064421Y-48831485D01*
X154066884Y-48706468D01*
X154069767Y-48614082D01*
X154073898Y-48547881D01*
X154080107Y-48501420D01*
X154089226Y-48468256D01*
X154102083Y-48441944D01*
X154117584Y-48418729D01*
X154192371Y-48344569D01*
X154283628Y-48301684D01*
X154382883Y-48291412D01*
X154481664Y-48315089D01*
G37*
X154481664Y-48315089D02*
X154544367Y-48351358D01*
X154587961Y-48387358D01*
X154619845Y-48425075D01*
X154641810Y-48471199D01*
X154655649Y-48532421D01*
X154663153Y-48615431D01*
X154666117Y-48726919D01*
X154666461Y-48807062D01*
X154666461Y-49102065D01*
X154500385Y-49176515D01*
X154490615Y-48853402D01*
X154486579Y-48732729D01*
X154482344Y-48645141D01*
X154477097Y-48584650D01*
X154470025Y-48545268D01*
X154460311Y-48521007D01*
X154447144Y-48505880D01*
X154442919Y-48502606D01*
X154378909Y-48477034D01*
X154314208Y-48487153D01*
X154275692Y-48514000D01*
X154260025Y-48533024D01*
X154249180Y-48557988D01*
X154242288Y-48595834D01*
X154238479Y-48653502D01*
X154236883Y-48737935D01*
X154236615Y-48825928D01*
X154236563Y-48936323D01*
X154234672Y-49014463D01*
X154228345Y-49067165D01*
X154214983Y-49101242D01*
X154191985Y-49123511D01*
X154156754Y-49140787D01*
X154109697Y-49158738D01*
X154058303Y-49178278D01*
X154064421Y-48831485D01*
X154066884Y-48706468D01*
X154069767Y-48614082D01*
X154073898Y-48547881D01*
X154080107Y-48501420D01*
X154089226Y-48468256D01*
X154102083Y-48441944D01*
X154117584Y-48418729D01*
X154192371Y-48344569D01*
X154283628Y-48301684D01*
X154382883Y-48291412D01*
X154481664Y-48315089D01*
%TO.C,Ref\u002A\u002A*%
G36*
X138230090Y-44456931D02*
G01*
X138231468Y-44450000D01*
X138329938Y-44062982D01*
X138466774Y-43690546D01*
X138639774Y-43335173D01*
X138846738Y-42999344D01*
X139085464Y-42685541D01*
X139353750Y-42396245D01*
X139649395Y-42133938D01*
X139970199Y-41901101D01*
X140313959Y-41700215D01*
X140678475Y-41533761D01*
X140885521Y-41458283D01*
X141283654Y-41347633D01*
X141686925Y-41278653D01*
X142092994Y-41251343D01*
X142499520Y-41265705D01*
X142904162Y-41321741D01*
X143304580Y-41419453D01*
X143422396Y-41456517D01*
X143786192Y-41595073D01*
X144122861Y-41761998D01*
X144438561Y-41961031D01*
X144739451Y-42195911D01*
X144935977Y-42375341D01*
X145165346Y-42611677D01*
X145361942Y-42847711D01*
X145533782Y-43094467D01*
X145688885Y-43362971D01*
X145767431Y-43518667D01*
X145925866Y-43893970D01*
X146044026Y-44277872D01*
X146122393Y-44667521D01*
X146161449Y-45060069D01*
X146161676Y-45452664D01*
X146123554Y-45842457D01*
X146047566Y-46226598D01*
X145934192Y-46602236D01*
X145783915Y-46966521D01*
X145597217Y-47316603D01*
X145374577Y-47649633D01*
X145116479Y-47962759D01*
X144995008Y-48090280D01*
X144693220Y-48364190D01*
X144367745Y-48604028D01*
X144021452Y-48808615D01*
X143657211Y-48976775D01*
X143277891Y-49107330D01*
X142886360Y-49199103D01*
X142485487Y-49250915D01*
X142138562Y-49262648D01*
X142014371Y-49259990D01*
X141886963Y-49254849D01*
X141771902Y-49247985D01*
X141689855Y-49240748D01*
X141329241Y-49180909D01*
X140965599Y-49084112D01*
X140608528Y-48953803D01*
X140267629Y-48793429D01*
X139987817Y-48629634D01*
X139654382Y-48389132D01*
X139351387Y-48120683D01*
X139079898Y-47826821D01*
X138840981Y-47510084D01*
X138635701Y-47173007D01*
X138465124Y-46818125D01*
X138330316Y-46447973D01*
X138232341Y-46065089D01*
X138172265Y-45672007D01*
X138151155Y-45271263D01*
X138151958Y-45254029D01*
X139266328Y-45254029D01*
X140164786Y-46153217D01*
X140239922Y-46079849D01*
X140315057Y-46006481D01*
X140864219Y-46555948D01*
X141413381Y-47105414D01*
X141340622Y-47180481D01*
X141267864Y-47255549D01*
X141711504Y-47699566D01*
X141823759Y-47811563D01*
X141926300Y-47913191D01*
X142015343Y-48000753D01*
X142087104Y-48070553D01*
X142137798Y-48118894D01*
X142163642Y-48142080D01*
X142166041Y-48143583D01*
X142182790Y-48129088D01*
X142226353Y-48087610D01*
X142293671Y-48022159D01*
X142381685Y-47935748D01*
X142487337Y-47831388D01*
X142607566Y-47712089D01*
X142739313Y-47580864D01*
X142843470Y-47476801D01*
X143510000Y-46810019D01*
X143060556Y-46360576D01*
X142611112Y-45911132D01*
X142462983Y-46058125D01*
X142314854Y-46205119D01*
X142240479Y-46133032D01*
X142197030Y-46086647D01*
X142170241Y-46049818D01*
X142166105Y-46038419D01*
X142180547Y-46017357D01*
X142220573Y-45971919D01*
X142281236Y-45907052D01*
X142357585Y-45827702D01*
X142444671Y-45738814D01*
X142537546Y-45645337D01*
X142631260Y-45552214D01*
X142720863Y-45464394D01*
X142801408Y-45386822D01*
X142867945Y-45324446D01*
X142915524Y-45282210D01*
X142939197Y-45265061D01*
X142940042Y-45264917D01*
X142966607Y-45279014D01*
X143009311Y-45314862D01*
X143034220Y-45339291D01*
X143106307Y-45413666D01*
X142822617Y-45699548D01*
X143722161Y-46598362D01*
X144388664Y-45931607D01*
X145055166Y-45264853D01*
X144606016Y-44815702D01*
X144156865Y-44366552D01*
X144086519Y-44434734D01*
X144040398Y-44475502D01*
X144004997Y-44499869D01*
X143995858Y-44502917D01*
X143976722Y-44488442D01*
X143931273Y-44447260D01*
X143862994Y-44382731D01*
X143775372Y-44298215D01*
X143671891Y-44197074D01*
X143556037Y-44082666D01*
X143436530Y-43963592D01*
X142897516Y-43424267D01*
X142975960Y-43343933D01*
X143054405Y-43263598D01*
X142155215Y-42365138D01*
X141488712Y-43031892D01*
X140822209Y-43698647D01*
X141721097Y-44597535D01*
X142008775Y-44312061D01*
X142098023Y-44402998D01*
X142145554Y-44454545D01*
X142177927Y-44495616D01*
X142187271Y-44514086D01*
X142172836Y-44534793D01*
X142132829Y-44579896D01*
X142072199Y-44644455D01*
X141995894Y-44723531D01*
X141908861Y-44812183D01*
X141816049Y-44905472D01*
X141722407Y-44998456D01*
X141632882Y-45086196D01*
X141552423Y-45163752D01*
X141485977Y-45226183D01*
X141438494Y-45268550D01*
X141414920Y-45285912D01*
X141414024Y-45286083D01*
X141388305Y-45271992D01*
X141344366Y-45235455D01*
X141302794Y-45195442D01*
X141213837Y-45104801D01*
X141362082Y-44957692D01*
X141510326Y-44810583D01*
X141060494Y-44360385D01*
X140610661Y-43910187D01*
X139938494Y-44582108D01*
X139266328Y-45254029D01*
X138151958Y-45254029D01*
X138170075Y-44865392D01*
X138230090Y-44456931D01*
G37*
X138230090Y-44456931D02*
X138231468Y-44450000D01*
X138329938Y-44062982D01*
X138466774Y-43690546D01*
X138639774Y-43335173D01*
X138846738Y-42999344D01*
X139085464Y-42685541D01*
X139353750Y-42396245D01*
X139649395Y-42133938D01*
X139970199Y-41901101D01*
X140313959Y-41700215D01*
X140678475Y-41533761D01*
X140885521Y-41458283D01*
X141283654Y-41347633D01*
X141686925Y-41278653D01*
X142092994Y-41251343D01*
X142499520Y-41265705D01*
X142904162Y-41321741D01*
X143304580Y-41419453D01*
X143422396Y-41456517D01*
X143786192Y-41595073D01*
X144122861Y-41761998D01*
X144438561Y-41961031D01*
X144739451Y-42195911D01*
X144935977Y-42375341D01*
X145165346Y-42611677D01*
X145361942Y-42847711D01*
X145533782Y-43094467D01*
X145688885Y-43362971D01*
X145767431Y-43518667D01*
X145925866Y-43893970D01*
X146044026Y-44277872D01*
X146122393Y-44667521D01*
X146161449Y-45060069D01*
X146161676Y-45452664D01*
X146123554Y-45842457D01*
X146047566Y-46226598D01*
X145934192Y-46602236D01*
X145783915Y-46966521D01*
X145597217Y-47316603D01*
X145374577Y-47649633D01*
X145116479Y-47962759D01*
X144995008Y-48090280D01*
X144693220Y-48364190D01*
X144367745Y-48604028D01*
X144021452Y-48808615D01*
X143657211Y-48976775D01*
X143277891Y-49107330D01*
X142886360Y-49199103D01*
X142485487Y-49250915D01*
X142138562Y-49262648D01*
X142014371Y-49259990D01*
X141886963Y-49254849D01*
X141771902Y-49247985D01*
X141689855Y-49240748D01*
X141329241Y-49180909D01*
X140965599Y-49084112D01*
X140608528Y-48953803D01*
X140267629Y-48793429D01*
X139987817Y-48629634D01*
X139654382Y-48389132D01*
X139351387Y-48120683D01*
X139079898Y-47826821D01*
X138840981Y-47510084D01*
X138635701Y-47173007D01*
X138465124Y-46818125D01*
X138330316Y-46447973D01*
X138232341Y-46065089D01*
X138172265Y-45672007D01*
X138151155Y-45271263D01*
X138151958Y-45254029D01*
X139266328Y-45254029D01*
X140164786Y-46153217D01*
X140239922Y-46079849D01*
X140315057Y-46006481D01*
X140864219Y-46555948D01*
X141413381Y-47105414D01*
X141340622Y-47180481D01*
X141267864Y-47255549D01*
X141711504Y-47699566D01*
X141823759Y-47811563D01*
X141926300Y-47913191D01*
X142015343Y-48000753D01*
X142087104Y-48070553D01*
X142137798Y-48118894D01*
X142163642Y-48142080D01*
X142166041Y-48143583D01*
X142182790Y-48129088D01*
X142226353Y-48087610D01*
X142293671Y-48022159D01*
X142381685Y-47935748D01*
X142487337Y-47831388D01*
X142607566Y-47712089D01*
X142739313Y-47580864D01*
X142843470Y-47476801D01*
X143510000Y-46810019D01*
X143060556Y-46360576D01*
X142611112Y-45911132D01*
X142462983Y-46058125D01*
X142314854Y-46205119D01*
X142240479Y-46133032D01*
X142197030Y-46086647D01*
X142170241Y-46049818D01*
X142166105Y-46038419D01*
X142180547Y-46017357D01*
X142220573Y-45971919D01*
X142281236Y-45907052D01*
X142357585Y-45827702D01*
X142444671Y-45738814D01*
X142537546Y-45645337D01*
X142631260Y-45552214D01*
X142720863Y-45464394D01*
X142801408Y-45386822D01*
X142867945Y-45324446D01*
X142915524Y-45282210D01*
X142939197Y-45265061D01*
X142940042Y-45264917D01*
X142966607Y-45279014D01*
X143009311Y-45314862D01*
X143034220Y-45339291D01*
X143106307Y-45413666D01*
X142822617Y-45699548D01*
X143722161Y-46598362D01*
X144388664Y-45931607D01*
X145055166Y-45264853D01*
X144606016Y-44815702D01*
X144156865Y-44366552D01*
X144086519Y-44434734D01*
X144040398Y-44475502D01*
X144004997Y-44499869D01*
X143995858Y-44502917D01*
X143976722Y-44488442D01*
X143931273Y-44447260D01*
X143862994Y-44382731D01*
X143775372Y-44298215D01*
X143671891Y-44197074D01*
X143556037Y-44082666D01*
X143436530Y-43963592D01*
X142897516Y-43424267D01*
X142975960Y-43343933D01*
X143054405Y-43263598D01*
X142155215Y-42365138D01*
X141488712Y-43031892D01*
X140822209Y-43698647D01*
X141721097Y-44597535D01*
X142008775Y-44312061D01*
X142098023Y-44402998D01*
X142145554Y-44454545D01*
X142177927Y-44495616D01*
X142187271Y-44514086D01*
X142172836Y-44534793D01*
X142132829Y-44579896D01*
X142072199Y-44644455D01*
X141995894Y-44723531D01*
X141908861Y-44812183D01*
X141816049Y-44905472D01*
X141722407Y-44998456D01*
X141632882Y-45086196D01*
X141552423Y-45163752D01*
X141485977Y-45226183D01*
X141438494Y-45268550D01*
X141414920Y-45285912D01*
X141414024Y-45286083D01*
X141388305Y-45271992D01*
X141344366Y-45235455D01*
X141302794Y-45195442D01*
X141213837Y-45104801D01*
X141362082Y-44957692D01*
X141510326Y-44810583D01*
X141060494Y-44360385D01*
X140610661Y-43910187D01*
X139938494Y-44582108D01*
X139266328Y-45254029D01*
X138151958Y-45254029D01*
X138170075Y-44865392D01*
X138230090Y-44456931D01*
%TD*%
D11*
%TO.C,J5*%
X137220000Y-83820000D03*
D12*
X137220000Y-81280000D03*
X137220000Y-78740000D03*
%TD*%
D13*
%TO.C,REF\u002A\u002A*%
X171450000Y-46850000D03*
X169752944Y-46147056D03*
X169752944Y-42752944D03*
X171450000Y-42050000D03*
D14*
X171450000Y-44450000D03*
D13*
X173147056Y-46147056D03*
X173850000Y-44450000D03*
X169050000Y-44450000D03*
X173147056Y-42752944D03*
%TD*%
D11*
%TO.C,J1*%
X87630000Y-119380000D03*
D12*
X90170000Y-119380000D03*
X92710000Y-119380000D03*
X95250000Y-119380000D03*
X97790000Y-119380000D03*
X100330000Y-119380000D03*
X102870000Y-119380000D03*
X105410000Y-119380000D03*
%TD*%
D13*
%TO.C,REF\u002A\u002A*%
X80010000Y-114440000D03*
X81707056Y-118537056D03*
X80010000Y-119240000D03*
X82410000Y-116840000D03*
X78312944Y-118537056D03*
X81707056Y-115142944D03*
X78312944Y-115142944D03*
X77610000Y-116840000D03*
D14*
X80010000Y-116840000D03*
%TD*%
D15*
%TO.C,TP3*%
X104140000Y-57150000D03*
%TD*%
%TO.C,TP2*%
X99060000Y-57150000D03*
%TD*%
D16*
%TO.C,U1*%
X109220000Y-91440000D03*
D17*
X109220000Y-88900000D03*
X109220000Y-86360000D03*
X109220000Y-83820000D03*
X109220000Y-81280000D03*
X109220000Y-78740000D03*
X109220000Y-76200000D03*
X109220000Y-73660000D03*
X86360000Y-73660000D03*
X86360000Y-76200000D03*
X86360000Y-78740000D03*
X86360000Y-81280000D03*
X86360000Y-83820000D03*
X86360000Y-86360000D03*
X86360000Y-88900000D03*
X86360000Y-91440000D03*
%TD*%
D11*
%TO.C,J6*%
X137220000Y-104125000D03*
D12*
X137220000Y-101585000D03*
X137220000Y-99045000D03*
%TD*%
D11*
%TO.C,J3*%
X128265000Y-119380000D03*
D12*
X125725000Y-119380000D03*
X123185000Y-119380000D03*
X120645000Y-119380000D03*
X118105000Y-119380000D03*
%TD*%
D15*
%TO.C,TP1*%
X93980000Y-57150000D03*
%TD*%
D13*
%TO.C,REF\u002A\u002A*%
X173147056Y-118537056D03*
D14*
X171450000Y-116840000D03*
D13*
X173147056Y-115142944D03*
X171450000Y-114440000D03*
X169752944Y-118537056D03*
X169050000Y-116840000D03*
X169752944Y-115142944D03*
X171450000Y-119240000D03*
X173850000Y-116840000D03*
%TD*%
%TO.C,REF\u002A\u002A*%
X81707056Y-46147056D03*
X80010000Y-46850000D03*
X77610000Y-44450000D03*
X81707056Y-42752944D03*
X78312944Y-42752944D03*
D14*
X80010000Y-44450000D03*
D13*
X82410000Y-44450000D03*
X80010000Y-42050000D03*
X78312944Y-46147056D03*
%TD*%
D11*
%TO.C,J2*%
X127000000Y-91440000D03*
D12*
X124460000Y-91440000D03*
X121920000Y-91440000D03*
X119380000Y-91440000D03*
X116840000Y-91440000D03*
%TD*%
D11*
%TO.C,J4*%
X137220000Y-63500000D03*
D12*
X137220000Y-60960000D03*
X137220000Y-58420000D03*
%TD*%
M02*
