%TF.GenerationSoftware,KiCad,Pcbnew,(6.0.5)*%
%TF.CreationDate,2022-06-11T22:34:52+01:00*%
%TF.ProjectId,kiln-pcb,6b696c6e-2d70-4636-922e-6b696361645f,rev?*%
%TF.SameCoordinates,Original*%
%TF.FileFunction,Copper,L2,Bot*%
%TF.FilePolarity,Positive*%
%FSLAX46Y46*%
G04 Gerber Fmt 4.6, Leading zero omitted, Abs format (unit mm)*
G04 Created by KiCad (PCBNEW (6.0.5)) date 2022-06-11 22:34:52*
%MOMM*%
%LPD*%
G01*
G04 APERTURE LIST*
%TA.AperFunction,ComponentPad*%
%ADD10R,1.700000X1.700000*%
%TD*%
%TA.AperFunction,ComponentPad*%
%ADD11O,1.700000X1.700000*%
%TD*%
%TA.AperFunction,ComponentPad*%
%ADD12C,0.800000*%
%TD*%
%TA.AperFunction,ComponentPad*%
%ADD13C,6.400000*%
%TD*%
%TA.AperFunction,ComponentPad*%
%ADD14R,2.000000X2.000000*%
%TD*%
%TA.AperFunction,ComponentPad*%
%ADD15O,2.000000X1.600000*%
%TD*%
%TA.AperFunction,Conductor*%
%ADD16C,0.250000*%
%TD*%
G04 APERTURE END LIST*
D10*
%TO.P,J5,1,Pin_1*%
%TO.N,Sig_relay*%
X137220000Y-83820000D03*
D11*
%TO.P,J5,2,Pin_2*%
%TO.N,GND_relay*%
X137220000Y-81280000D03*
%TO.P,J5,3,Pin_3*%
%TO.N,3V3*%
X137220000Y-78740000D03*
%TD*%
D12*
%TO.P,REF\u002A\u002A,1*%
%TO.N,N/C*%
X171450000Y-46850000D03*
X169752944Y-46147056D03*
X169752944Y-42752944D03*
X171450000Y-42050000D03*
D13*
X171450000Y-44450000D03*
D12*
X173147056Y-46147056D03*
X173850000Y-44450000D03*
X169050000Y-44450000D03*
X173147056Y-42752944D03*
%TD*%
D10*
%TO.P,J1,1,Pin_1*%
%TO.N,unconnected-(J1-Pad1)*%
X87630000Y-119380000D03*
D11*
%TO.P,J1,2,Pin_2*%
%TO.N,CS_TFT*%
X90170000Y-119380000D03*
%TO.P,J1,3,Pin_3*%
%TO.N,DC_TFT*%
X92710000Y-119380000D03*
%TO.P,J1,4,Pin_4*%
%TO.N,RES_TFT*%
X95250000Y-119380000D03*
%TO.P,J1,5,Pin_5*%
%TO.N,SDA_TFT*%
X97790000Y-119380000D03*
%TO.P,J1,6,Pin_6*%
%TO.N,SCK_T*%
X100330000Y-119380000D03*
%TO.P,J1,7,Pin_7*%
%TO.N,5V*%
X102870000Y-119380000D03*
%TO.P,J1,8,Pin_8*%
%TO.N,GND_relay*%
X105410000Y-119380000D03*
%TD*%
D12*
%TO.P,REF\u002A\u002A,1*%
%TO.N,N/C*%
X80010000Y-114440000D03*
X81707056Y-118537056D03*
X80010000Y-119240000D03*
X82410000Y-116840000D03*
X78312944Y-118537056D03*
X81707056Y-115142944D03*
X78312944Y-115142944D03*
X77610000Y-116840000D03*
D13*
X80010000Y-116840000D03*
%TD*%
D14*
%TO.P,U1,1,~{RST}*%
%TO.N,RES_TFT*%
X109220000Y-91440000D03*
D15*
%TO.P,U1,2,A0*%
%TO.N,unconnected-(U1-Pad2)*%
X109220000Y-88900000D03*
%TO.P,U1,3,D0*%
%TO.N,Sig_relay*%
X109220000Y-86360000D03*
%TO.P,U1,4,SCK/D5*%
%TO.N,SCK_T*%
X109220000Y-83820000D03*
%TO.P,U1,5,MISO/D6*%
%TO.N,SO_T*%
X109220000Y-81280000D03*
%TO.P,U1,6,MOSI/D7*%
%TO.N,SDA_TFT*%
X109220000Y-78740000D03*
%TO.P,U1,7,CS/D8*%
%TO.N,CS_TFT*%
X109220000Y-76200000D03*
%TO.P,U1,8,3V3*%
%TO.N,3V3*%
X109220000Y-73660000D03*
%TO.P,U1,9,5V*%
%TO.N,5V*%
X86360000Y-73660000D03*
%TO.P,U1,10,GND*%
%TO.N,GND_relay*%
X86360000Y-76200000D03*
%TO.P,U1,11,D4*%
%TO.N,SW_ROTARY*%
X86360000Y-78740000D03*
%TO.P,U1,12,D3*%
%TO.N,DC_TFT*%
X86360000Y-81280000D03*
%TO.P,U1,13,SDA/D2*%
%TO.N,CLK_ROTARY*%
X86360000Y-83820000D03*
%TO.P,U1,14,SCL/D1*%
%TO.N,DT_ROTARY*%
X86360000Y-86360000D03*
%TO.P,U1,15,RX*%
%TO.N,unconnected-(U1-Pad15)*%
X86360000Y-88900000D03*
%TO.P,U1,16,TX*%
%TO.N,CS_T*%
X86360000Y-91440000D03*
%TD*%
D10*
%TO.P,J6,1,Pin_1*%
%TO.N,Sig_relay*%
X137220000Y-104125000D03*
D11*
%TO.P,J6,2,Pin_2*%
%TO.N,GND_relay*%
X137220000Y-101585000D03*
%TO.P,J6,3,Pin_3*%
%TO.N,3V3*%
X137220000Y-99045000D03*
%TD*%
D10*
%TO.P,J3,1,Pin_1*%
%TO.N,CLK_ROTARY*%
X128265000Y-119380000D03*
D11*
%TO.P,J3,2,Pin_2*%
%TO.N,DT_ROTARY*%
X125725000Y-119380000D03*
%TO.P,J3,3,Pin_3*%
%TO.N,SW_ROTARY*%
X123185000Y-119380000D03*
%TO.P,J3,4,Pin_4*%
%TO.N,5V*%
X120645000Y-119380000D03*
%TO.P,J3,5,Pin_5*%
%TO.N,GND_relay*%
X118105000Y-119380000D03*
%TD*%
D12*
%TO.P,REF\u002A\u002A,1*%
%TO.N,N/C*%
X173147056Y-118537056D03*
D13*
X171450000Y-116840000D03*
D12*
X173147056Y-115142944D03*
X171450000Y-114440000D03*
X169752944Y-118537056D03*
X169050000Y-116840000D03*
X169752944Y-115142944D03*
X171450000Y-119240000D03*
X173850000Y-116840000D03*
%TD*%
%TO.P,REF\u002A\u002A,1*%
%TO.N,N/C*%
X81707056Y-46147056D03*
X80010000Y-46850000D03*
X77610000Y-44450000D03*
X81707056Y-42752944D03*
X78312944Y-42752944D03*
D13*
X80010000Y-44450000D03*
D12*
X82410000Y-44450000D03*
X80010000Y-42050000D03*
X78312944Y-46147056D03*
%TD*%
D10*
%TO.P,J2,1,Pin_1*%
%TO.N,SO_T*%
X127000000Y-91440000D03*
D11*
%TO.P,J2,2,Pin_2*%
%TO.N,CS_T*%
X124460000Y-91440000D03*
%TO.P,J2,3,Pin_3*%
%TO.N,SCK_T*%
X121920000Y-91440000D03*
%TO.P,J2,4,Pin_4*%
%TO.N,5V*%
X119380000Y-91440000D03*
%TO.P,J2,5,Pin_5*%
%TO.N,GND_relay*%
X116840000Y-91440000D03*
%TD*%
D10*
%TO.P,J4,1,Pin_1*%
%TO.N,Sig_relay*%
X137220000Y-63500000D03*
D11*
%TO.P,J4,2,Pin_2*%
%TO.N,GND_relay*%
X137220000Y-60960000D03*
%TO.P,J4,3,Pin_3*%
%TO.N,3V3*%
X137220000Y-58420000D03*
%TD*%
D16*
%TO.N,CS_TFT*%
X109220000Y-75074700D02*
X85693500Y-75074700D01*
X85693500Y-75074700D02*
X82444000Y-78324200D01*
X82444000Y-78324200D02*
X82444000Y-110478700D01*
X82444000Y-110478700D02*
X90170000Y-118204700D01*
X90170000Y-119380000D02*
X90170000Y-118204700D01*
X109220000Y-76200000D02*
X109220000Y-75074700D01*
%TO.N,DC_TFT*%
X83377600Y-108872300D02*
X92710000Y-118204700D01*
X92710000Y-119380000D02*
X92710000Y-118204700D01*
X86360000Y-81280000D02*
X83377600Y-84262400D01*
X83377600Y-84262400D02*
X83377600Y-108872300D01*
%TO.N,RES_TFT*%
X109220000Y-91440000D02*
X97322700Y-91440000D01*
X88572900Y-82690200D02*
X85676700Y-82690200D01*
X95250000Y-119380000D02*
X95250000Y-118204700D01*
X83828300Y-106783000D02*
X95250000Y-118204700D01*
X97322700Y-91440000D02*
X88572900Y-82690200D01*
X83828300Y-84538600D02*
X83828300Y-106783000D01*
X85676700Y-82690200D02*
X83828300Y-84538600D01*
%TO.N,SDA_TFT*%
X95775100Y-120584900D02*
X96614700Y-119745300D01*
X82894600Y-80368700D02*
X82894600Y-110204400D01*
X109220000Y-78740000D02*
X109220000Y-77614700D01*
X97790000Y-119380000D02*
X96614700Y-119380000D01*
X109220000Y-77614700D02*
X85648600Y-77614700D01*
X92146500Y-120584900D02*
X95775100Y-120584900D01*
X82894600Y-110204400D02*
X91440000Y-118749800D01*
X91440000Y-118749800D02*
X91440000Y-119878400D01*
X96614700Y-119745300D02*
X96614700Y-119380000D01*
X91440000Y-119878400D02*
X92146500Y-120584900D01*
X85648600Y-77614700D02*
X82894600Y-80368700D01*
%TO.N,5V*%
X123102200Y-92000600D02*
X122487400Y-92615400D01*
X109894800Y-72534700D02*
X110598700Y-73238600D01*
X110598700Y-73238600D02*
X110598700Y-79217300D01*
X107867300Y-81798300D02*
X108619000Y-82550000D01*
X110598700Y-79217300D02*
X109806000Y-80010000D01*
X109806000Y-80010000D02*
X108698300Y-80010000D01*
X86360000Y-73660000D02*
X86360000Y-72534700D01*
X108698300Y-80010000D02*
X107867300Y-80841000D01*
X120645000Y-92615400D02*
X120645000Y-119380000D01*
X120555400Y-92615400D02*
X119380000Y-91440000D01*
X114705500Y-82550000D02*
X123102200Y-90946700D01*
X120645000Y-92615400D02*
X120555400Y-92615400D01*
X122487400Y-92615400D02*
X120645000Y-92615400D01*
X86360000Y-72534700D02*
X109894800Y-72534700D01*
X107867300Y-80841000D02*
X107867300Y-81798300D01*
X108619000Y-82550000D02*
X114705500Y-82550000D01*
X123102200Y-90946700D02*
X123102200Y-92000600D01*
%TO.N,SO_T*%
X116032000Y-81280000D02*
X109220000Y-81280000D01*
X125824700Y-91440000D02*
X125824700Y-91072700D01*
X125824700Y-91072700D02*
X116032000Y-81280000D01*
X127000000Y-91440000D02*
X125824700Y-91440000D01*
%TO.N,SCK_T*%
X113492000Y-83820000D02*
X109220000Y-83820000D01*
X121920000Y-91440000D02*
X120744700Y-91440000D01*
X120744700Y-91440000D02*
X120744700Y-91072700D01*
X120744700Y-91072700D02*
X113492000Y-83820000D01*
%TO.N,GND_relay*%
X136044700Y-82822500D02*
X136044700Y-86355600D01*
X138028000Y-62135300D02*
X138425300Y-62532600D01*
X138425300Y-62532600D02*
X138425300Y-80074700D01*
X136044700Y-86355600D02*
X138395400Y-88706300D01*
X138395400Y-88706300D02*
X138395400Y-99601600D01*
X138395400Y-99601600D02*
X137587300Y-100409700D01*
X136411900Y-82455300D02*
X136044700Y-82822500D01*
X137220000Y-81280000D02*
X137220000Y-82455300D01*
X137220000Y-101585000D02*
X137220000Y-100409700D01*
X116840000Y-91440000D02*
X116840000Y-116939700D01*
X137220000Y-62135300D02*
X138028000Y-62135300D01*
X116840000Y-116939700D02*
X118105000Y-118204700D01*
X118105000Y-119380000D02*
X118105000Y-118204700D01*
X137220000Y-82455300D02*
X136411900Y-82455300D01*
X137587300Y-100409700D02*
X137220000Y-100409700D01*
X138425300Y-80074700D02*
X137220000Y-81280000D01*
X137220000Y-60960000D02*
X137220000Y-62135300D01*
%TO.N,3V3*%
X135594400Y-81173500D02*
X135594400Y-96244100D01*
X137220000Y-79915300D02*
X136852600Y-79915300D01*
X136041700Y-60406300D02*
X136041700Y-76386400D01*
X137220000Y-59595300D02*
X136852700Y-59595300D01*
X136041700Y-76386400D02*
X137220000Y-77564700D01*
X137220000Y-78740000D02*
X137220000Y-77564700D01*
X136852700Y-59595300D02*
X136041700Y-60406300D01*
X137220000Y-58420000D02*
X137220000Y-59595300D01*
X137220000Y-78740000D02*
X137220000Y-79915300D01*
X137220000Y-99045000D02*
X137220000Y-97869700D01*
X136852600Y-79915300D02*
X135594400Y-81173500D01*
X135594400Y-96244100D02*
X137220000Y-97869700D01*
%TO.N,CLK_ROTARY*%
X97467100Y-107180100D02*
X111871600Y-121584600D01*
X90794800Y-107180100D02*
X97467100Y-107180100D01*
X111871600Y-121584600D02*
X125252400Y-121584600D01*
X85938000Y-84945300D02*
X84302400Y-86580900D01*
X84302400Y-86580900D02*
X84302400Y-100687700D01*
X86360000Y-83820000D02*
X86360000Y-84945300D01*
X127089700Y-119747300D02*
X127089700Y-119380000D01*
X86360000Y-84945300D02*
X85938000Y-84945300D01*
X84302400Y-100687700D02*
X90794800Y-107180100D01*
X125252400Y-121584600D02*
X127089700Y-119747300D01*
X128265000Y-119380000D02*
X127089700Y-119380000D01*
%TO.N,DT_ROTARY*%
X85011400Y-100756300D02*
X84752800Y-100497700D01*
X124549700Y-119380000D02*
X124549700Y-119747300D01*
X84752800Y-88670500D02*
X85938000Y-87485300D01*
X123217600Y-121079400D02*
X117481000Y-121079400D01*
X84752800Y-100497700D02*
X84752800Y-88670500D01*
X97157900Y-100756300D02*
X85011400Y-100756300D01*
X86360000Y-86360000D02*
X86360000Y-87485300D01*
X117481000Y-121079400D02*
X97157900Y-100756300D01*
X124549700Y-119747300D02*
X123217600Y-121079400D01*
X85938000Y-87485300D02*
X86360000Y-87485300D01*
X125725000Y-119380000D02*
X124549700Y-119380000D01*
%TO.N,SW_ROTARY*%
X97734600Y-90114600D02*
X87485300Y-79865300D01*
X122009700Y-119380000D02*
X122009700Y-119747300D01*
X110384700Y-90114600D02*
X97734600Y-90114600D01*
X117645300Y-120606500D02*
X111446800Y-114408000D01*
X111446800Y-91176700D02*
X110384700Y-90114600D01*
X87485300Y-79865300D02*
X86360000Y-79865300D01*
X111446800Y-114408000D02*
X111446800Y-91176700D01*
X122009700Y-119747300D02*
X121150500Y-120606500D01*
X123185000Y-119380000D02*
X122009700Y-119380000D01*
X86360000Y-78740000D02*
X86360000Y-79865300D01*
X121150500Y-120606500D02*
X117645300Y-120606500D01*
%TD*%
%TA.AperFunction,Conductor*%
%TO.N,GND_relay*%
G36*
X148495679Y-50748150D02*
G01*
X148542172Y-50801806D01*
X148553558Y-50854148D01*
X148553558Y-121722148D01*
X148533556Y-121790269D01*
X148479900Y-121836762D01*
X148427558Y-121848148D01*
X125753368Y-121848148D01*
X125685247Y-121828146D01*
X125638754Y-121774490D01*
X125628650Y-121704216D01*
X125658144Y-121639636D01*
X125664273Y-121633053D01*
X127025218Y-120272108D01*
X127087530Y-120238082D01*
X127158345Y-120243147D01*
X127215181Y-120285694D01*
X127225123Y-120303151D01*
X127226133Y-120308231D01*
X127270448Y-120374552D01*
X127336769Y-120418867D01*
X127348938Y-120421288D01*
X127348939Y-120421288D01*
X127389184Y-120429293D01*
X127395252Y-120430500D01*
X129134748Y-120430500D01*
X129140816Y-120429293D01*
X129181061Y-120421288D01*
X129181062Y-120421288D01*
X129193231Y-120418867D01*
X129259552Y-120374552D01*
X129303867Y-120308231D01*
X129310670Y-120274033D01*
X129314293Y-120255816D01*
X129315500Y-120249748D01*
X129315500Y-118510252D01*
X129303867Y-118451769D01*
X129259552Y-118385448D01*
X129193231Y-118341133D01*
X129181062Y-118338712D01*
X129181061Y-118338712D01*
X129140816Y-118330707D01*
X129134748Y-118329500D01*
X127395252Y-118329500D01*
X127389184Y-118330707D01*
X127348939Y-118338712D01*
X127348938Y-118338712D01*
X127336769Y-118341133D01*
X127270448Y-118385448D01*
X127226133Y-118451769D01*
X127214500Y-118510252D01*
X127214500Y-118928500D01*
X127194498Y-118996621D01*
X127140842Y-119043114D01*
X127088500Y-119054500D01*
X127032306Y-119054500D01*
X127015486Y-119060622D01*
X126994276Y-119066305D01*
X126976655Y-119069412D01*
X126961156Y-119078360D01*
X126941257Y-119087639D01*
X126924440Y-119093760D01*
X126915994Y-119100847D01*
X126906450Y-119106357D01*
X126905013Y-119103868D01*
X126855396Y-119125581D01*
X126785292Y-119114361D01*
X126732382Y-119067021D01*
X126718828Y-119037013D01*
X126713143Y-119018185D01*
X126700935Y-118977749D01*
X126604218Y-118795849D01*
X126486063Y-118650977D01*
X126477906Y-118640975D01*
X126477903Y-118640972D01*
X126474011Y-118636200D01*
X126467173Y-118630543D01*
X126320025Y-118508811D01*
X126320021Y-118508809D01*
X126315275Y-118504882D01*
X126134055Y-118406897D01*
X125937254Y-118345977D01*
X125931129Y-118345333D01*
X125931128Y-118345333D01*
X125738498Y-118325087D01*
X125738496Y-118325087D01*
X125732369Y-118324443D01*
X125645529Y-118332346D01*
X125533342Y-118342555D01*
X125533339Y-118342556D01*
X125527203Y-118343114D01*
X125329572Y-118401280D01*
X125147002Y-118496726D01*
X125142201Y-118500586D01*
X125142198Y-118500588D01*
X124991254Y-118621950D01*
X124986447Y-118625815D01*
X124854024Y-118783630D01*
X124851056Y-118789028D01*
X124851053Y-118789033D01*
X124798501Y-118884626D01*
X124754776Y-118964162D01*
X124752914Y-118970031D01*
X124750485Y-118975699D01*
X124748458Y-118974830D01*
X124714342Y-119025481D01*
X124649140Y-119053575D01*
X124633901Y-119054500D01*
X124492306Y-119054500D01*
X124475486Y-119060622D01*
X124454276Y-119066305D01*
X124436655Y-119069412D01*
X124421156Y-119078360D01*
X124401257Y-119087639D01*
X124384440Y-119093760D01*
X124375994Y-119100847D01*
X124366450Y-119106357D01*
X124365013Y-119103868D01*
X124315396Y-119125581D01*
X124245292Y-119114361D01*
X124192382Y-119067021D01*
X124178828Y-119037013D01*
X124173143Y-119018185D01*
X124160935Y-118977749D01*
X124064218Y-118795849D01*
X123946063Y-118650977D01*
X123937906Y-118640975D01*
X123937903Y-118640972D01*
X123934011Y-118636200D01*
X123927173Y-118630543D01*
X123780025Y-118508811D01*
X123780021Y-118508809D01*
X123775275Y-118504882D01*
X123594055Y-118406897D01*
X123397254Y-118345977D01*
X123391129Y-118345333D01*
X123391128Y-118345333D01*
X123198498Y-118325087D01*
X123198496Y-118325087D01*
X123192369Y-118324443D01*
X123105529Y-118332346D01*
X122993342Y-118342555D01*
X122993339Y-118342556D01*
X122987203Y-118343114D01*
X122789572Y-118401280D01*
X122607002Y-118496726D01*
X122602201Y-118500586D01*
X122602198Y-118500588D01*
X122451254Y-118621950D01*
X122446447Y-118625815D01*
X122314024Y-118783630D01*
X122311056Y-118789028D01*
X122311053Y-118789033D01*
X122258501Y-118884626D01*
X122214776Y-118964162D01*
X122212914Y-118970031D01*
X122210485Y-118975699D01*
X122208458Y-118974830D01*
X122174342Y-119025481D01*
X122109140Y-119053575D01*
X122093901Y-119054500D01*
X121952306Y-119054500D01*
X121935486Y-119060622D01*
X121914276Y-119066305D01*
X121896655Y-119069412D01*
X121881156Y-119078360D01*
X121861257Y-119087639D01*
X121844440Y-119093760D01*
X121835994Y-119100847D01*
X121826450Y-119106357D01*
X121825013Y-119103868D01*
X121775396Y-119125581D01*
X121705292Y-119114361D01*
X121652382Y-119067021D01*
X121638828Y-119037013D01*
X121633143Y-119018185D01*
X121620935Y-118977749D01*
X121524218Y-118795849D01*
X121406063Y-118650977D01*
X121397906Y-118640975D01*
X121397903Y-118640972D01*
X121394011Y-118636200D01*
X121387173Y-118630543D01*
X121240025Y-118508811D01*
X121240021Y-118508809D01*
X121235275Y-118504882D01*
X121054055Y-118406897D01*
X121048167Y-118405074D01*
X121047676Y-118404868D01*
X120992628Y-118360033D01*
X120970500Y-118288712D01*
X120970500Y-101852966D01*
X135888257Y-101852966D01*
X135918565Y-101987446D01*
X135921645Y-101997275D01*
X136001770Y-102194603D01*
X136006413Y-102203794D01*
X136117694Y-102385388D01*
X136123777Y-102393699D01*
X136263213Y-102554667D01*
X136270580Y-102561883D01*
X136434434Y-102697916D01*
X136442881Y-102703831D01*
X136626756Y-102811279D01*
X136636043Y-102815729D01*
X136675484Y-102830790D01*
X136731987Y-102873778D01*
X136756280Y-102940489D01*
X136740650Y-103009743D01*
X136690059Y-103059554D01*
X136630535Y-103074500D01*
X136350252Y-103074500D01*
X136344184Y-103075707D01*
X136303939Y-103083712D01*
X136303938Y-103083712D01*
X136291769Y-103086133D01*
X136225448Y-103130448D01*
X136181133Y-103196769D01*
X136169500Y-103255252D01*
X136169500Y-104994748D01*
X136181133Y-105053231D01*
X136225448Y-105119552D01*
X136291769Y-105163867D01*
X136303938Y-105166288D01*
X136303939Y-105166288D01*
X136344184Y-105174293D01*
X136350252Y-105175500D01*
X138089748Y-105175500D01*
X138095816Y-105174293D01*
X138136061Y-105166288D01*
X138136062Y-105166288D01*
X138148231Y-105163867D01*
X138214552Y-105119552D01*
X138258867Y-105053231D01*
X138270500Y-104994748D01*
X138270500Y-103255252D01*
X138258867Y-103196769D01*
X138214552Y-103130448D01*
X138148231Y-103086133D01*
X138136062Y-103083712D01*
X138136061Y-103083712D01*
X138095816Y-103075707D01*
X138089748Y-103074500D01*
X137810107Y-103074500D01*
X137741986Y-103054498D01*
X137695493Y-103000842D01*
X137685389Y-102930568D01*
X137714883Y-102865988D01*
X137754675Y-102835349D01*
X137913090Y-102757742D01*
X137921945Y-102752464D01*
X138095328Y-102628792D01*
X138103200Y-102622139D01*
X138254052Y-102471812D01*
X138260730Y-102463965D01*
X138385003Y-102291020D01*
X138390313Y-102282183D01*
X138484670Y-102091267D01*
X138488469Y-102081672D01*
X138550377Y-101877910D01*
X138552555Y-101867837D01*
X138553986Y-101856962D01*
X138551775Y-101842778D01*
X138538617Y-101839000D01*
X135903225Y-101839000D01*
X135889694Y-101842973D01*
X135888257Y-101852966D01*
X120970500Y-101852966D01*
X120970500Y-96272907D01*
X135265136Y-96272907D01*
X135267990Y-96283556D01*
X135274891Y-96309310D01*
X135277270Y-96320042D01*
X135283812Y-96357145D01*
X135289323Y-96366690D01*
X135290515Y-96369966D01*
X135291992Y-96373134D01*
X135294846Y-96383784D01*
X135301170Y-96392815D01*
X135316455Y-96414644D01*
X135322361Y-96423915D01*
X135335693Y-96447006D01*
X135341206Y-96456555D01*
X135349651Y-96463641D01*
X135370082Y-96480785D01*
X135378185Y-96488211D01*
X136789758Y-97899784D01*
X136823784Y-97962096D01*
X136818719Y-98032911D01*
X136776172Y-98089747D01*
X136759038Y-98100540D01*
X136642002Y-98161726D01*
X136637201Y-98165586D01*
X136637198Y-98165588D01*
X136626971Y-98173811D01*
X136481447Y-98290815D01*
X136349024Y-98448630D01*
X136346056Y-98454028D01*
X136346053Y-98454033D01*
X136339315Y-98466290D01*
X136249776Y-98629162D01*
X136187484Y-98825532D01*
X136186798Y-98831649D01*
X136186797Y-98831653D01*
X136165207Y-99024137D01*
X136164520Y-99030262D01*
X136181759Y-99235553D01*
X136238544Y-99433586D01*
X136241359Y-99439063D01*
X136241360Y-99439066D01*
X136262247Y-99479707D01*
X136332712Y-99616818D01*
X136460677Y-99778270D01*
X136617564Y-99911791D01*
X136797398Y-100012297D01*
X136862437Y-100033429D01*
X136921042Y-100073502D01*
X136948680Y-100138898D01*
X136936574Y-100208855D01*
X136888568Y-100261162D01*
X136862646Y-100273027D01*
X136696868Y-100327212D01*
X136687359Y-100331209D01*
X136498463Y-100429542D01*
X136489738Y-100435036D01*
X136319433Y-100562905D01*
X136311726Y-100569748D01*
X136164590Y-100723717D01*
X136158104Y-100731727D01*
X136038098Y-100907649D01*
X136033000Y-100916623D01*
X135943338Y-101109783D01*
X135939775Y-101119470D01*
X135884389Y-101319183D01*
X135885912Y-101327607D01*
X135898292Y-101331000D01*
X138538344Y-101331000D01*
X138551875Y-101327027D01*
X138553180Y-101317947D01*
X138511214Y-101150875D01*
X138507894Y-101141124D01*
X138422972Y-100945814D01*
X138418105Y-100936739D01*
X138302426Y-100757926D01*
X138296136Y-100749757D01*
X138152806Y-100592240D01*
X138145273Y-100585215D01*
X137978139Y-100453222D01*
X137969552Y-100447517D01*
X137783117Y-100344599D01*
X137773705Y-100340369D01*
X137582031Y-100272493D01*
X137524495Y-100230899D01*
X137498579Y-100164801D01*
X137512513Y-100095185D01*
X137561872Y-100044154D01*
X137590206Y-100032362D01*
X137595790Y-100030803D01*
X137595799Y-100030800D01*
X137601725Y-100029145D01*
X137607214Y-100026372D01*
X137607220Y-100026370D01*
X137780116Y-99939033D01*
X137785610Y-99936258D01*
X137947951Y-99809424D01*
X138082564Y-99653472D01*
X138103387Y-99616818D01*
X138181276Y-99479707D01*
X138184323Y-99474344D01*
X138249351Y-99278863D01*
X138275171Y-99074474D01*
X138275583Y-99045000D01*
X138255480Y-98839970D01*
X138195935Y-98642749D01*
X138099218Y-98460849D01*
X138025859Y-98370902D01*
X137972906Y-98305975D01*
X137972903Y-98305972D01*
X137969011Y-98301200D01*
X137951786Y-98286950D01*
X137815025Y-98173811D01*
X137815021Y-98173809D01*
X137810275Y-98169882D01*
X137629055Y-98071897D01*
X137623167Y-98070074D01*
X137622676Y-98069868D01*
X137567628Y-98025033D01*
X137545500Y-97953712D01*
X137545500Y-97889410D01*
X137545980Y-97878428D01*
X137548303Y-97851880D01*
X137548303Y-97851878D01*
X137549264Y-97840893D01*
X137539508Y-97804485D01*
X137537130Y-97793758D01*
X137536538Y-97790399D01*
X137530588Y-97756655D01*
X137525077Y-97747110D01*
X137523885Y-97743834D01*
X137522408Y-97740666D01*
X137519554Y-97730016D01*
X137497945Y-97699156D01*
X137492039Y-97689885D01*
X137478707Y-97666794D01*
X137473194Y-97657245D01*
X137444317Y-97633015D01*
X137436215Y-97625589D01*
X135956805Y-96146179D01*
X135922779Y-96083867D01*
X135919900Y-96057084D01*
X135919900Y-84714116D01*
X135939902Y-84645995D01*
X135993558Y-84599502D01*
X136063832Y-84589398D01*
X136128412Y-84618892D01*
X136166796Y-84678618D01*
X136168979Y-84689852D01*
X136169500Y-84689748D01*
X136176635Y-84725616D01*
X136181133Y-84748231D01*
X136225448Y-84814552D01*
X136291769Y-84858867D01*
X136303938Y-84861288D01*
X136303939Y-84861288D01*
X136344184Y-84869293D01*
X136350252Y-84870500D01*
X138089748Y-84870500D01*
X138095816Y-84869293D01*
X138136061Y-84861288D01*
X138136062Y-84861288D01*
X138148231Y-84858867D01*
X138214552Y-84814552D01*
X138258867Y-84748231D01*
X138263366Y-84725616D01*
X138269293Y-84695816D01*
X138270500Y-84689748D01*
X138270500Y-82950252D01*
X138258867Y-82891769D01*
X138214552Y-82825448D01*
X138148231Y-82781133D01*
X138136062Y-82778712D01*
X138136061Y-82778712D01*
X138095816Y-82770707D01*
X138089748Y-82769500D01*
X137810107Y-82769500D01*
X137741986Y-82749498D01*
X137695493Y-82695842D01*
X137685389Y-82625568D01*
X137714883Y-82560988D01*
X137754675Y-82530349D01*
X137913090Y-82452742D01*
X137921945Y-82447464D01*
X138095328Y-82323792D01*
X138103200Y-82317139D01*
X138254052Y-82166812D01*
X138260730Y-82158965D01*
X138385003Y-81986020D01*
X138390313Y-81977183D01*
X138484670Y-81786267D01*
X138488469Y-81776672D01*
X138550377Y-81572910D01*
X138552555Y-81562837D01*
X138553986Y-81551962D01*
X138551775Y-81537778D01*
X138538617Y-81534000D01*
X137092000Y-81534000D01*
X137023879Y-81513998D01*
X136977386Y-81460342D01*
X136966000Y-81408000D01*
X136966000Y-81152000D01*
X136986002Y-81083879D01*
X137039658Y-81037386D01*
X137092000Y-81026000D01*
X138538344Y-81026000D01*
X138551875Y-81022027D01*
X138553180Y-81012947D01*
X138511214Y-80845875D01*
X138507894Y-80836124D01*
X138422972Y-80640814D01*
X138418105Y-80631739D01*
X138302426Y-80452926D01*
X138296136Y-80444757D01*
X138152806Y-80287240D01*
X138145273Y-80280215D01*
X137978139Y-80148222D01*
X137969552Y-80142517D01*
X137783117Y-80039599D01*
X137773705Y-80035368D01*
X137629440Y-79984281D01*
X137571903Y-79942686D01*
X137545988Y-79876589D01*
X137545500Y-79865508D01*
X137545500Y-79830062D01*
X137565502Y-79761941D01*
X137614690Y-79717596D01*
X137780113Y-79634035D01*
X137780115Y-79634034D01*
X137785610Y-79631258D01*
X137799315Y-79620551D01*
X137895003Y-79545791D01*
X137947951Y-79504424D01*
X137988443Y-79457514D01*
X138078540Y-79353134D01*
X138078540Y-79353133D01*
X138082564Y-79348472D01*
X138085709Y-79342937D01*
X138174706Y-79186273D01*
X138184323Y-79169344D01*
X138249351Y-78973863D01*
X138275171Y-78769474D01*
X138275583Y-78740000D01*
X138255480Y-78534970D01*
X138195935Y-78337749D01*
X138099218Y-78155849D01*
X137983413Y-78013858D01*
X137972906Y-78000975D01*
X137972903Y-78000972D01*
X137969011Y-77996200D01*
X137951786Y-77981950D01*
X137815025Y-77868811D01*
X137815021Y-77868809D01*
X137810275Y-77864882D01*
X137629055Y-77766897D01*
X137623167Y-77765074D01*
X137622676Y-77764868D01*
X137567628Y-77720033D01*
X137545500Y-77648712D01*
X137545500Y-77584410D01*
X137545980Y-77573428D01*
X137548303Y-77546880D01*
X137548303Y-77546878D01*
X137549264Y-77535893D01*
X137539508Y-77499485D01*
X137537130Y-77488758D01*
X137536538Y-77485399D01*
X137530588Y-77451655D01*
X137525077Y-77442110D01*
X137523885Y-77438834D01*
X137522408Y-77435666D01*
X137519554Y-77425016D01*
X137497945Y-77394156D01*
X137492039Y-77384885D01*
X137478707Y-77361794D01*
X137473194Y-77352245D01*
X137444317Y-77328015D01*
X137436215Y-77320589D01*
X136404105Y-76288479D01*
X136370079Y-76226167D01*
X136367200Y-76199384D01*
X136367200Y-64676500D01*
X136387202Y-64608379D01*
X136440858Y-64561886D01*
X136493200Y-64550500D01*
X138089748Y-64550500D01*
X138095816Y-64549293D01*
X138136061Y-64541288D01*
X138136062Y-64541288D01*
X138148231Y-64538867D01*
X138214552Y-64494552D01*
X138258867Y-64428231D01*
X138270500Y-64369748D01*
X138270500Y-62630252D01*
X138258867Y-62571769D01*
X138214552Y-62505448D01*
X138148231Y-62461133D01*
X138136062Y-62458712D01*
X138136061Y-62458712D01*
X138095816Y-62450707D01*
X138089748Y-62449500D01*
X137810107Y-62449500D01*
X137741986Y-62429498D01*
X137695493Y-62375842D01*
X137685389Y-62305568D01*
X137714883Y-62240988D01*
X137754675Y-62210349D01*
X137913090Y-62132742D01*
X137921945Y-62127464D01*
X138095328Y-62003792D01*
X138103200Y-61997139D01*
X138254052Y-61846812D01*
X138260730Y-61838965D01*
X138385003Y-61666020D01*
X138390313Y-61657183D01*
X138484670Y-61466267D01*
X138488469Y-61456672D01*
X138550377Y-61252910D01*
X138552555Y-61242837D01*
X138553986Y-61231962D01*
X138551775Y-61217778D01*
X138538617Y-61214000D01*
X137092000Y-61214000D01*
X137023879Y-61193998D01*
X136977386Y-61140342D01*
X136966000Y-61088000D01*
X136966000Y-60832000D01*
X136986002Y-60763879D01*
X137039658Y-60717386D01*
X137092000Y-60706000D01*
X138538344Y-60706000D01*
X138551875Y-60702027D01*
X138553180Y-60692947D01*
X138511214Y-60525875D01*
X138507894Y-60516124D01*
X138422972Y-60320814D01*
X138418105Y-60311739D01*
X138302426Y-60132926D01*
X138296136Y-60124757D01*
X138152806Y-59967240D01*
X138145273Y-59960215D01*
X137978139Y-59828222D01*
X137969552Y-59822517D01*
X137783117Y-59719599D01*
X137773705Y-59715368D01*
X137629440Y-59664281D01*
X137571903Y-59622686D01*
X137545988Y-59556589D01*
X137545500Y-59545508D01*
X137545500Y-59510062D01*
X137565502Y-59441941D01*
X137614690Y-59397596D01*
X137780113Y-59314035D01*
X137780115Y-59314034D01*
X137785610Y-59311258D01*
X137947951Y-59184424D01*
X138082564Y-59028472D01*
X138103387Y-58991818D01*
X138181276Y-58854707D01*
X138184323Y-58849344D01*
X138249351Y-58653863D01*
X138275171Y-58449474D01*
X138275583Y-58420000D01*
X138255480Y-58214970D01*
X138195935Y-58017749D01*
X138099218Y-57835849D01*
X138025859Y-57745902D01*
X137972906Y-57680975D01*
X137972903Y-57680972D01*
X137969011Y-57676200D01*
X137951786Y-57661950D01*
X137815025Y-57548811D01*
X137815021Y-57548809D01*
X137810275Y-57544882D01*
X137629055Y-57446897D01*
X137432254Y-57385977D01*
X137426129Y-57385333D01*
X137426128Y-57385333D01*
X137233498Y-57365087D01*
X137233496Y-57365087D01*
X137227369Y-57364443D01*
X137140529Y-57372346D01*
X137028342Y-57382555D01*
X137028339Y-57382556D01*
X137022203Y-57383114D01*
X136824572Y-57441280D01*
X136642002Y-57536726D01*
X136637201Y-57540586D01*
X136637198Y-57540588D01*
X136626971Y-57548811D01*
X136481447Y-57665815D01*
X136349024Y-57823630D01*
X136346056Y-57829028D01*
X136346053Y-57829033D01*
X136339315Y-57841290D01*
X136249776Y-58004162D01*
X136187484Y-58200532D01*
X136186798Y-58206649D01*
X136186797Y-58206653D01*
X136165207Y-58399137D01*
X136164520Y-58405262D01*
X136181759Y-58610553D01*
X136238544Y-58808586D01*
X136241359Y-58814063D01*
X136241360Y-58814066D01*
X136262247Y-58854707D01*
X136332712Y-58991818D01*
X136460677Y-59153270D01*
X136465370Y-59157264D01*
X136465371Y-59157265D01*
X136558590Y-59236601D01*
X136597503Y-59295984D01*
X136598134Y-59366978D01*
X136566023Y-59421650D01*
X135825478Y-60162196D01*
X135817374Y-60169622D01*
X135788506Y-60193845D01*
X135782993Y-60203394D01*
X135769661Y-60226485D01*
X135763755Y-60235756D01*
X135742146Y-60266616D01*
X135739292Y-60277266D01*
X135737815Y-60280434D01*
X135736623Y-60283710D01*
X135731112Y-60293255D01*
X135727853Y-60311739D01*
X135724570Y-60330358D01*
X135722192Y-60341085D01*
X135712436Y-60377493D01*
X135713397Y-60388478D01*
X135713397Y-60388480D01*
X135715720Y-60415028D01*
X135716200Y-60426010D01*
X135716200Y-76366690D01*
X135715720Y-76377672D01*
X135712436Y-76415207D01*
X135722191Y-76451610D01*
X135724570Y-76462342D01*
X135731112Y-76499445D01*
X135736623Y-76508990D01*
X135737815Y-76512266D01*
X135739292Y-76515434D01*
X135742146Y-76526084D01*
X135763755Y-76556944D01*
X135769661Y-76566215D01*
X135781323Y-76586414D01*
X135788506Y-76598855D01*
X135796951Y-76605941D01*
X135817382Y-76623085D01*
X135825485Y-76630511D01*
X136789758Y-77594784D01*
X136823784Y-77657096D01*
X136818719Y-77727911D01*
X136776172Y-77784747D01*
X136759038Y-77795540D01*
X136642002Y-77856726D01*
X136637201Y-77860586D01*
X136637198Y-77860588D01*
X136538181Y-77940200D01*
X136481447Y-77985815D01*
X136349024Y-78143630D01*
X136346056Y-78149028D01*
X136346053Y-78149033D01*
X136260235Y-78305137D01*
X136249776Y-78324162D01*
X136187484Y-78520532D01*
X136186798Y-78526649D01*
X136186797Y-78526653D01*
X136169086Y-78684556D01*
X136164520Y-78725262D01*
X136181759Y-78930553D01*
X136238544Y-79128586D01*
X136241359Y-79134063D01*
X136241360Y-79134066D01*
X136315313Y-79277964D01*
X136332712Y-79311818D01*
X136460677Y-79473270D01*
X136465370Y-79477264D01*
X136465371Y-79477265D01*
X136558537Y-79556556D01*
X136597450Y-79615939D01*
X136598081Y-79686933D01*
X136565969Y-79741605D01*
X135378185Y-80929389D01*
X135370081Y-80936816D01*
X135341206Y-80961045D01*
X135335693Y-80970594D01*
X135322361Y-80993685D01*
X135316455Y-81002956D01*
X135294846Y-81033816D01*
X135291992Y-81044466D01*
X135290515Y-81047634D01*
X135289323Y-81050910D01*
X135283812Y-81060455D01*
X135279682Y-81083879D01*
X135277270Y-81097558D01*
X135274892Y-81108285D01*
X135265136Y-81144693D01*
X135266097Y-81155678D01*
X135266097Y-81155680D01*
X135268420Y-81182228D01*
X135268900Y-81193210D01*
X135268900Y-96224390D01*
X135268420Y-96235372D01*
X135265136Y-96272907D01*
X120970500Y-96272907D01*
X120970500Y-93066900D01*
X120990502Y-92998779D01*
X121044158Y-92952286D01*
X121096500Y-92940900D01*
X122467690Y-92940900D01*
X122478672Y-92941380D01*
X122505220Y-92943703D01*
X122505222Y-92943703D01*
X122516207Y-92944664D01*
X122552615Y-92934908D01*
X122563342Y-92932530D01*
X122566701Y-92931938D01*
X122600445Y-92925988D01*
X122609990Y-92920477D01*
X122613266Y-92919285D01*
X122616434Y-92917808D01*
X122627084Y-92914954D01*
X122657944Y-92893345D01*
X122667215Y-92887439D01*
X122690306Y-92874107D01*
X122699855Y-92868594D01*
X122724079Y-92839725D01*
X122731506Y-92831620D01*
X123318428Y-92244699D01*
X123326532Y-92237273D01*
X123346949Y-92220141D01*
X123355394Y-92213055D01*
X123374239Y-92180415D01*
X123380143Y-92171147D01*
X123395431Y-92149313D01*
X123401753Y-92140284D01*
X123404606Y-92129638D01*
X123406082Y-92126472D01*
X123407275Y-92123195D01*
X123412788Y-92113645D01*
X123413190Y-92111363D01*
X123452098Y-92058513D01*
X123518418Y-92033172D01*
X123587911Y-92047708D01*
X123627156Y-92080510D01*
X123653419Y-92113645D01*
X123700677Y-92173270D01*
X123705370Y-92177264D01*
X123705371Y-92177265D01*
X123779541Y-92240388D01*
X123857564Y-92306791D01*
X123862942Y-92309797D01*
X123862944Y-92309798D01*
X123881911Y-92320398D01*
X124037398Y-92407297D01*
X124112352Y-92431651D01*
X124227471Y-92469056D01*
X124227475Y-92469057D01*
X124233329Y-92470959D01*
X124437894Y-92495351D01*
X124444029Y-92494879D01*
X124444031Y-92494879D01*
X124516625Y-92489293D01*
X124643300Y-92479546D01*
X124649230Y-92477890D01*
X124649232Y-92477890D01*
X124783459Y-92440413D01*
X124841725Y-92424145D01*
X124847214Y-92421372D01*
X124847220Y-92421370D01*
X125020116Y-92334033D01*
X125025610Y-92331258D01*
X125041345Y-92318965D01*
X125183101Y-92208213D01*
X125187951Y-92204424D01*
X125212786Y-92175653D01*
X125318540Y-92053134D01*
X125318540Y-92053133D01*
X125322564Y-92048472D01*
X125333395Y-92029407D01*
X125368734Y-91967198D01*
X125424323Y-91869344D01*
X125454324Y-91779158D01*
X125494805Y-91720834D01*
X125560393Y-91693654D01*
X125630264Y-91706249D01*
X125642074Y-91714004D01*
X125650997Y-91719156D01*
X125659439Y-91726240D01*
X125669792Y-91730008D01*
X125669797Y-91730011D01*
X125676260Y-91732363D01*
X125696162Y-91741643D01*
X125711655Y-91750588D01*
X125722509Y-91752502D01*
X125722515Y-91752504D01*
X125729276Y-91753696D01*
X125750484Y-91759378D01*
X125756008Y-91761388D01*
X125767306Y-91765500D01*
X125823500Y-91765500D01*
X125891621Y-91785502D01*
X125938114Y-91839158D01*
X125949500Y-91891500D01*
X125949500Y-92309748D01*
X125950707Y-92315816D01*
X125954331Y-92334033D01*
X125961133Y-92368231D01*
X126005448Y-92434552D01*
X126071769Y-92478867D01*
X126083938Y-92481288D01*
X126083939Y-92481288D01*
X126124184Y-92489293D01*
X126130252Y-92490500D01*
X127869748Y-92490500D01*
X127875816Y-92489293D01*
X127916061Y-92481288D01*
X127916062Y-92481288D01*
X127928231Y-92478867D01*
X127994552Y-92434552D01*
X128038867Y-92368231D01*
X128045670Y-92334033D01*
X128049293Y-92315816D01*
X128050500Y-92309748D01*
X128050500Y-90570252D01*
X128038867Y-90511769D01*
X127994552Y-90445448D01*
X127928231Y-90401133D01*
X127916062Y-90398712D01*
X127916061Y-90398712D01*
X127875816Y-90390707D01*
X127869748Y-90389500D01*
X126130252Y-90389500D01*
X126124184Y-90390707D01*
X126083939Y-90398712D01*
X126083938Y-90398712D01*
X126071769Y-90401133D01*
X126005448Y-90445448D01*
X125961133Y-90511769D01*
X125960884Y-90513020D01*
X125921171Y-90562298D01*
X125853807Y-90584717D01*
X125785016Y-90567157D01*
X125760218Y-90547892D01*
X116276111Y-81063785D01*
X116268684Y-81055681D01*
X116261932Y-81047634D01*
X116244455Y-81026806D01*
X116234906Y-81021293D01*
X116211815Y-81007961D01*
X116202544Y-81002055D01*
X116180715Y-80986770D01*
X116171684Y-80980446D01*
X116161034Y-80977592D01*
X116157866Y-80976115D01*
X116154590Y-80974923D01*
X116145045Y-80969412D01*
X116111301Y-80963462D01*
X116107942Y-80962870D01*
X116097215Y-80960492D01*
X116060807Y-80950736D01*
X116049822Y-80951697D01*
X116049820Y-80951697D01*
X116023272Y-80954020D01*
X116012290Y-80954500D01*
X110454221Y-80954500D01*
X110386100Y-80934498D01*
X110339607Y-80880842D01*
X110335971Y-80872008D01*
X110329792Y-80855214D01*
X110323881Y-80839148D01*
X110320520Y-80833727D01*
X110220137Y-80671824D01*
X110220134Y-80671820D01*
X110216774Y-80666401D01*
X110137267Y-80582325D01*
X110081508Y-80523361D01*
X110081507Y-80523360D01*
X110077119Y-80518720D01*
X110032668Y-80487595D01*
X110012026Y-80473141D01*
X109967698Y-80417684D01*
X109960389Y-80347064D01*
X109992420Y-80283704D01*
X110003307Y-80273405D01*
X110008906Y-80268707D01*
X110018455Y-80263194D01*
X110042685Y-80234317D01*
X110050111Y-80226215D01*
X110814915Y-79461411D01*
X110823019Y-79453984D01*
X110843449Y-79436841D01*
X110851894Y-79429755D01*
X110857407Y-79420206D01*
X110870739Y-79397115D01*
X110876645Y-79387844D01*
X110891930Y-79366015D01*
X110898254Y-79356984D01*
X110901108Y-79346334D01*
X110902585Y-79343166D01*
X110903777Y-79339890D01*
X110909288Y-79330345D01*
X110915830Y-79293242D01*
X110918209Y-79282510D01*
X110925110Y-79256756D01*
X110927964Y-79246107D01*
X110924680Y-79208572D01*
X110924200Y-79197590D01*
X110924200Y-73258310D01*
X110924680Y-73247328D01*
X110927003Y-73220780D01*
X110927003Y-73220778D01*
X110927964Y-73209793D01*
X110918208Y-73173385D01*
X110915830Y-73162658D01*
X110915238Y-73159299D01*
X110909288Y-73125555D01*
X110903777Y-73116010D01*
X110902585Y-73112734D01*
X110901108Y-73109566D01*
X110898254Y-73098916D01*
X110876645Y-73068056D01*
X110870739Y-73058785D01*
X110857407Y-73035694D01*
X110851894Y-73026145D01*
X110823017Y-73001915D01*
X110814915Y-72994489D01*
X110138911Y-72318485D01*
X110131484Y-72310381D01*
X110114341Y-72289951D01*
X110114340Y-72289950D01*
X110107255Y-72281506D01*
X110091755Y-72272557D01*
X110074615Y-72262661D01*
X110065344Y-72256755D01*
X110048114Y-72244690D01*
X110034484Y-72235146D01*
X110023834Y-72232292D01*
X110020666Y-72230815D01*
X110017390Y-72229623D01*
X110007845Y-72224112D01*
X109974101Y-72218162D01*
X109970742Y-72217570D01*
X109960015Y-72215192D01*
X109923607Y-72205436D01*
X109912622Y-72206397D01*
X109912620Y-72206397D01*
X109886072Y-72208720D01*
X109875090Y-72209200D01*
X86302606Y-72209200D01*
X86285786Y-72215322D01*
X86264576Y-72221005D01*
X86246955Y-72224112D01*
X86231456Y-72233060D01*
X86211557Y-72242339D01*
X86194740Y-72248460D01*
X86186295Y-72255546D01*
X86186293Y-72255547D01*
X86181028Y-72259965D01*
X86163047Y-72272556D01*
X86147545Y-72281506D01*
X86140461Y-72289948D01*
X86140459Y-72289950D01*
X86136040Y-72295216D01*
X86120514Y-72310742D01*
X86115931Y-72314588D01*
X86106806Y-72322245D01*
X86097858Y-72337743D01*
X86085261Y-72355733D01*
X86073760Y-72369439D01*
X86069992Y-72379792D01*
X86069989Y-72379797D01*
X86067637Y-72386260D01*
X86058357Y-72406162D01*
X86049412Y-72421655D01*
X86047498Y-72432509D01*
X86047496Y-72432515D01*
X86046304Y-72439276D01*
X86040622Y-72460484D01*
X86038612Y-72466008D01*
X86034500Y-72477306D01*
X86034500Y-72558283D01*
X86014498Y-72626404D01*
X85960842Y-72672897D01*
X85946182Y-72678516D01*
X85763828Y-72735662D01*
X85586056Y-72834203D01*
X85431729Y-72966477D01*
X85427822Y-72971514D01*
X85427820Y-72971516D01*
X85402521Y-73004132D01*
X85307152Y-73127081D01*
X85217413Y-73309455D01*
X85215804Y-73315633D01*
X85215803Y-73315635D01*
X85189603Y-73416220D01*
X85166178Y-73506148D01*
X85155541Y-73709126D01*
X85185935Y-73910097D01*
X85256119Y-74100852D01*
X85259479Y-74106272D01*
X85259480Y-74106273D01*
X85359863Y-74268176D01*
X85359866Y-74268180D01*
X85363226Y-74273599D01*
X85502881Y-74421280D01*
X85589086Y-74481641D01*
X85660430Y-74531597D01*
X85704758Y-74587054D01*
X85712067Y-74657673D01*
X85680036Y-74721034D01*
X85618835Y-74757019D01*
X85610038Y-74758896D01*
X85591309Y-74762198D01*
X85591308Y-74762198D01*
X85580455Y-74764112D01*
X85570911Y-74769622D01*
X85567634Y-74770815D01*
X85564466Y-74772292D01*
X85553816Y-74775146D01*
X85544785Y-74781470D01*
X85522956Y-74796755D01*
X85513685Y-74802661D01*
X85490594Y-74815993D01*
X85481045Y-74821506D01*
X85473959Y-74829951D01*
X85456815Y-74850382D01*
X85449389Y-74858485D01*
X82227785Y-78080089D01*
X82219681Y-78087516D01*
X82190806Y-78111745D01*
X82185293Y-78121294D01*
X82171961Y-78144385D01*
X82166055Y-78153656D01*
X82144446Y-78184516D01*
X82141592Y-78195166D01*
X82140115Y-78198334D01*
X82138923Y-78201610D01*
X82133412Y-78211155D01*
X82127462Y-78244899D01*
X82126870Y-78248258D01*
X82124492Y-78258985D01*
X82114736Y-78295393D01*
X82115697Y-78306378D01*
X82115697Y-78306380D01*
X82118020Y-78332928D01*
X82118500Y-78343910D01*
X82118500Y-110458990D01*
X82118020Y-110469972D01*
X82114736Y-110507507D01*
X82117590Y-110518156D01*
X82124491Y-110543910D01*
X82126870Y-110554642D01*
X82133412Y-110591745D01*
X82138923Y-110601290D01*
X82140115Y-110604566D01*
X82141592Y-110607734D01*
X82144446Y-110618384D01*
X82150770Y-110627415D01*
X82166055Y-110649244D01*
X82171961Y-110658515D01*
X82185293Y-110681606D01*
X82190806Y-110691155D01*
X82199251Y-110698241D01*
X82219682Y-110715385D01*
X82227785Y-110722811D01*
X89739758Y-118234784D01*
X89773784Y-118297096D01*
X89768719Y-118367911D01*
X89726172Y-118424747D01*
X89709038Y-118435540D01*
X89592002Y-118496726D01*
X89587201Y-118500586D01*
X89587198Y-118500588D01*
X89436254Y-118621950D01*
X89431447Y-118625815D01*
X89299024Y-118783630D01*
X89296056Y-118789028D01*
X89296053Y-118789033D01*
X89243501Y-118884626D01*
X89199776Y-118964162D01*
X89137484Y-119160532D01*
X89136798Y-119166649D01*
X89136797Y-119166653D01*
X89126287Y-119260356D01*
X89114520Y-119365262D01*
X89115036Y-119371406D01*
X89130902Y-119560342D01*
X89131759Y-119570553D01*
X89133458Y-119576478D01*
X89179395Y-119736678D01*
X89188544Y-119768586D01*
X89191359Y-119774063D01*
X89191360Y-119774066D01*
X89279897Y-119946341D01*
X89282712Y-119951818D01*
X89410677Y-120113270D01*
X89415370Y-120117264D01*
X89415371Y-120117265D01*
X89495832Y-120185742D01*
X89567564Y-120246791D01*
X89572942Y-120249797D01*
X89572944Y-120249798D01*
X89590125Y-120259400D01*
X89747398Y-120347297D01*
X89831280Y-120374552D01*
X89937471Y-120409056D01*
X89937475Y-120409057D01*
X89943329Y-120410959D01*
X90147894Y-120435351D01*
X90154029Y-120434879D01*
X90154031Y-120434879D01*
X90226625Y-120429293D01*
X90353300Y-120419546D01*
X90359230Y-120417890D01*
X90359232Y-120417890D01*
X90545797Y-120365800D01*
X90545796Y-120365800D01*
X90551725Y-120364145D01*
X90557214Y-120361372D01*
X90557220Y-120361370D01*
X90689952Y-120294322D01*
X90735610Y-120271258D01*
X90748743Y-120260998D01*
X90893101Y-120148213D01*
X90897951Y-120144424D01*
X90901972Y-120139766D01*
X90901976Y-120139762D01*
X90973716Y-120056649D01*
X91033369Y-120018151D01*
X91104365Y-120018015D01*
X91164165Y-120056285D01*
X91178217Y-120075979D01*
X91181293Y-120081306D01*
X91186806Y-120090855D01*
X91195251Y-120097941D01*
X91215682Y-120115085D01*
X91223785Y-120122511D01*
X91902389Y-120801115D01*
X91909815Y-120809218D01*
X91934045Y-120838094D01*
X91943594Y-120843607D01*
X91966685Y-120856939D01*
X91975956Y-120862845D01*
X92006816Y-120884454D01*
X92017466Y-120887308D01*
X92020634Y-120888785D01*
X92023910Y-120889977D01*
X92033455Y-120895488D01*
X92067199Y-120901438D01*
X92070558Y-120902030D01*
X92081285Y-120904408D01*
X92117693Y-120914164D01*
X92128669Y-120913204D01*
X92128672Y-120913204D01*
X92155243Y-120910879D01*
X92166224Y-120910400D01*
X95755390Y-120910400D01*
X95766372Y-120910880D01*
X95792920Y-120913203D01*
X95792922Y-120913203D01*
X95803907Y-120914164D01*
X95840315Y-120904408D01*
X95851042Y-120902030D01*
X95854401Y-120901438D01*
X95888145Y-120895488D01*
X95897690Y-120889977D01*
X95900966Y-120888785D01*
X95904134Y-120887308D01*
X95914784Y-120884454D01*
X95945644Y-120862845D01*
X95954915Y-120856939D01*
X95978006Y-120843607D01*
X95987555Y-120838094D01*
X96011785Y-120809217D01*
X96019211Y-120801115D01*
X96787590Y-120032736D01*
X96849902Y-119998710D01*
X96920717Y-120003775D01*
X96975430Y-120043566D01*
X97001720Y-120076735D01*
X97030677Y-120113270D01*
X97035370Y-120117264D01*
X97035371Y-120117265D01*
X97115832Y-120185742D01*
X97187564Y-120246791D01*
X97192942Y-120249797D01*
X97192944Y-120249798D01*
X97210125Y-120259400D01*
X97367398Y-120347297D01*
X97451280Y-120374552D01*
X97557471Y-120409056D01*
X97557475Y-120409057D01*
X97563329Y-120410959D01*
X97767894Y-120435351D01*
X97774029Y-120434879D01*
X97774031Y-120434879D01*
X97846625Y-120429293D01*
X97973300Y-120419546D01*
X97979230Y-120417890D01*
X97979232Y-120417890D01*
X98165797Y-120365800D01*
X98165796Y-120365800D01*
X98171725Y-120364145D01*
X98177214Y-120361372D01*
X98177220Y-120361370D01*
X98309952Y-120294322D01*
X98355610Y-120271258D01*
X98368743Y-120260998D01*
X98513101Y-120148213D01*
X98517951Y-120144424D01*
X98524301Y-120137068D01*
X98648540Y-119993134D01*
X98648540Y-119993133D01*
X98652564Y-119988472D01*
X98673387Y-119951818D01*
X98698729Y-119907207D01*
X98754323Y-119809344D01*
X98819351Y-119613863D01*
X98845171Y-119409474D01*
X98845583Y-119380000D01*
X98844138Y-119365262D01*
X99274520Y-119365262D01*
X99275036Y-119371406D01*
X99290902Y-119560342D01*
X99291759Y-119570553D01*
X99293458Y-119576478D01*
X99339395Y-119736678D01*
X99348544Y-119768586D01*
X99351359Y-119774063D01*
X99351360Y-119774066D01*
X99439897Y-119946341D01*
X99442712Y-119951818D01*
X99570677Y-120113270D01*
X99575370Y-120117264D01*
X99575371Y-120117265D01*
X99655832Y-120185742D01*
X99727564Y-120246791D01*
X99732942Y-120249797D01*
X99732944Y-120249798D01*
X99750125Y-120259400D01*
X99907398Y-120347297D01*
X99991280Y-120374552D01*
X100097471Y-120409056D01*
X100097475Y-120409057D01*
X100103329Y-120410959D01*
X100307894Y-120435351D01*
X100314029Y-120434879D01*
X100314031Y-120434879D01*
X100386625Y-120429293D01*
X100513300Y-120419546D01*
X100519230Y-120417890D01*
X100519232Y-120417890D01*
X100705797Y-120365800D01*
X100705796Y-120365800D01*
X100711725Y-120364145D01*
X100717214Y-120361372D01*
X100717220Y-120361370D01*
X100849952Y-120294322D01*
X100895610Y-120271258D01*
X100908743Y-120260998D01*
X101053101Y-120148213D01*
X101057951Y-120144424D01*
X101064301Y-120137068D01*
X101188540Y-119993134D01*
X101188540Y-119993133D01*
X101192564Y-119988472D01*
X101213387Y-119951818D01*
X101238729Y-119907207D01*
X101294323Y-119809344D01*
X101359351Y-119613863D01*
X101385171Y-119409474D01*
X101385583Y-119380000D01*
X101384138Y-119365262D01*
X101814520Y-119365262D01*
X101815036Y-119371406D01*
X101830902Y-119560342D01*
X101831759Y-119570553D01*
X101833458Y-119576478D01*
X101879395Y-119736678D01*
X101888544Y-119768586D01*
X101891359Y-119774063D01*
X101891360Y-119774066D01*
X101979897Y-119946341D01*
X101982712Y-119951818D01*
X102110677Y-120113270D01*
X102115370Y-120117264D01*
X102115371Y-120117265D01*
X102195832Y-120185742D01*
X102267564Y-120246791D01*
X102272942Y-120249797D01*
X102272944Y-120249798D01*
X102290125Y-120259400D01*
X102447398Y-120347297D01*
X102531280Y-120374552D01*
X102637471Y-120409056D01*
X102637475Y-120409057D01*
X102643329Y-120410959D01*
X102847894Y-120435351D01*
X102854029Y-120434879D01*
X102854031Y-120434879D01*
X102926625Y-120429293D01*
X103053300Y-120419546D01*
X103059230Y-120417890D01*
X103059232Y-120417890D01*
X103245797Y-120365800D01*
X103245796Y-120365800D01*
X103251725Y-120364145D01*
X103257214Y-120361372D01*
X103257220Y-120361370D01*
X103389952Y-120294322D01*
X103435610Y-120271258D01*
X103448743Y-120260998D01*
X103593101Y-120148213D01*
X103597951Y-120144424D01*
X103604301Y-120137068D01*
X103728540Y-119993134D01*
X103728540Y-119993133D01*
X103732564Y-119988472D01*
X103753387Y-119951818D01*
X103778729Y-119907207D01*
X103834323Y-119809344D01*
X103843271Y-119782444D01*
X103858496Y-119736678D01*
X103898978Y-119678354D01*
X103964566Y-119651175D01*
X104034437Y-119663770D01*
X104086406Y-119712141D01*
X104100971Y-119748751D01*
X104108564Y-119782444D01*
X104111645Y-119792275D01*
X104191770Y-119989603D01*
X104196413Y-119998794D01*
X104307694Y-120180388D01*
X104313777Y-120188699D01*
X104453213Y-120349667D01*
X104460580Y-120356883D01*
X104624434Y-120492916D01*
X104632881Y-120498831D01*
X104816756Y-120606279D01*
X104826042Y-120610729D01*
X105025001Y-120686703D01*
X105034899Y-120689579D01*
X105138250Y-120710606D01*
X105152299Y-120709410D01*
X105156000Y-120699065D01*
X105156000Y-120698517D01*
X105664000Y-120698517D01*
X105668064Y-120712359D01*
X105681478Y-120714393D01*
X105688184Y-120713534D01*
X105698262Y-120711392D01*
X105902255Y-120650191D01*
X105911842Y-120646433D01*
X106103095Y-120552739D01*
X106111945Y-120547464D01*
X106285328Y-120423792D01*
X106293200Y-120417139D01*
X106444052Y-120266812D01*
X106450730Y-120258965D01*
X106575003Y-120086020D01*
X106580313Y-120077183D01*
X106674670Y-119886267D01*
X106678469Y-119876672D01*
X106740377Y-119672910D01*
X106742555Y-119662837D01*
X106743986Y-119651962D01*
X106741775Y-119637778D01*
X106728617Y-119634000D01*
X105682115Y-119634000D01*
X105666876Y-119638475D01*
X105665671Y-119639865D01*
X105664000Y-119647548D01*
X105664000Y-120698517D01*
X105156000Y-120698517D01*
X105156000Y-119107885D01*
X105664000Y-119107885D01*
X105668475Y-119123124D01*
X105669865Y-119124329D01*
X105677548Y-119126000D01*
X106728344Y-119126000D01*
X106741875Y-119122027D01*
X106743180Y-119112947D01*
X106701214Y-118945875D01*
X106697894Y-118936124D01*
X106612972Y-118740814D01*
X106608105Y-118731739D01*
X106492426Y-118552926D01*
X106486136Y-118544757D01*
X106342806Y-118387240D01*
X106335273Y-118380215D01*
X106168139Y-118248222D01*
X106159552Y-118242517D01*
X105973117Y-118139599D01*
X105963705Y-118135369D01*
X105762959Y-118064280D01*
X105752988Y-118061646D01*
X105681837Y-118048972D01*
X105668540Y-118050432D01*
X105664000Y-118064989D01*
X105664000Y-119107885D01*
X105156000Y-119107885D01*
X105156000Y-118063102D01*
X105152082Y-118049758D01*
X105137806Y-118047771D01*
X105099324Y-118053660D01*
X105089288Y-118056051D01*
X104886868Y-118122212D01*
X104877359Y-118126209D01*
X104688463Y-118224542D01*
X104679738Y-118230036D01*
X104509433Y-118357905D01*
X104501726Y-118364748D01*
X104354590Y-118518717D01*
X104348104Y-118526727D01*
X104228098Y-118702649D01*
X104223000Y-118711623D01*
X104133338Y-118904783D01*
X104129775Y-118914470D01*
X104101012Y-119018185D01*
X104063533Y-119078483D01*
X103999405Y-119108946D01*
X103928986Y-119099903D01*
X103874636Y-119054224D01*
X103858973Y-119020933D01*
X103858143Y-119018185D01*
X103845935Y-118977749D01*
X103749218Y-118795849D01*
X103631063Y-118650977D01*
X103622906Y-118640975D01*
X103622903Y-118640972D01*
X103619011Y-118636200D01*
X103612173Y-118630543D01*
X103465025Y-118508811D01*
X103465021Y-118508809D01*
X103460275Y-118504882D01*
X103279055Y-118406897D01*
X103082254Y-118345977D01*
X103076129Y-118345333D01*
X103076128Y-118345333D01*
X102883498Y-118325087D01*
X102883496Y-118325087D01*
X102877369Y-118324443D01*
X102790529Y-118332346D01*
X102678342Y-118342555D01*
X102678339Y-118342556D01*
X102672203Y-118343114D01*
X102474572Y-118401280D01*
X102292002Y-118496726D01*
X102287201Y-118500586D01*
X102287198Y-118500588D01*
X102136254Y-118621950D01*
X102131447Y-118625815D01*
X101999024Y-118783630D01*
X101996056Y-118789028D01*
X101996053Y-118789033D01*
X101943501Y-118884626D01*
X101899776Y-118964162D01*
X101837484Y-119160532D01*
X101836798Y-119166649D01*
X101836797Y-119166653D01*
X101826287Y-119260356D01*
X101814520Y-119365262D01*
X101384138Y-119365262D01*
X101365480Y-119174970D01*
X101305935Y-118977749D01*
X101209218Y-118795849D01*
X101091063Y-118650977D01*
X101082906Y-118640975D01*
X101082903Y-118640972D01*
X101079011Y-118636200D01*
X101072173Y-118630543D01*
X100925025Y-118508811D01*
X100925021Y-118508809D01*
X100920275Y-118504882D01*
X100739055Y-118406897D01*
X100542254Y-118345977D01*
X100536129Y-118345333D01*
X100536128Y-118345333D01*
X100343498Y-118325087D01*
X100343496Y-118325087D01*
X100337369Y-118324443D01*
X100250529Y-118332346D01*
X100138342Y-118342555D01*
X100138339Y-118342556D01*
X100132203Y-118343114D01*
X99934572Y-118401280D01*
X99752002Y-118496726D01*
X99747201Y-118500586D01*
X99747198Y-118500588D01*
X99596254Y-118621950D01*
X99591447Y-118625815D01*
X99459024Y-118783630D01*
X99456056Y-118789028D01*
X99456053Y-118789033D01*
X99403501Y-118884626D01*
X99359776Y-118964162D01*
X99297484Y-119160532D01*
X99296798Y-119166649D01*
X99296797Y-119166653D01*
X99286287Y-119260356D01*
X99274520Y-119365262D01*
X98844138Y-119365262D01*
X98825480Y-119174970D01*
X98765935Y-118977749D01*
X98669218Y-118795849D01*
X98551063Y-118650977D01*
X98542906Y-118640975D01*
X98542903Y-118640972D01*
X98539011Y-118636200D01*
X98532173Y-118630543D01*
X98385025Y-118508811D01*
X98385021Y-118508809D01*
X98380275Y-118504882D01*
X98199055Y-118406897D01*
X98002254Y-118345977D01*
X97996129Y-118345333D01*
X97996128Y-118345333D01*
X97803498Y-118325087D01*
X97803496Y-118325087D01*
X97797369Y-118324443D01*
X97710529Y-118332346D01*
X97598342Y-118342555D01*
X97598339Y-118342556D01*
X97592203Y-118343114D01*
X97394572Y-118401280D01*
X97212002Y-118496726D01*
X97207201Y-118500586D01*
X97207198Y-118500588D01*
X97056254Y-118621950D01*
X97051447Y-118625815D01*
X96919024Y-118783630D01*
X96916056Y-118789028D01*
X96916053Y-118789033D01*
X96863501Y-118884626D01*
X96819776Y-118964162D01*
X96817914Y-118970031D01*
X96815485Y-118975699D01*
X96813458Y-118974830D01*
X96779342Y-119025481D01*
X96714140Y-119053575D01*
X96698901Y-119054500D01*
X96557306Y-119054500D01*
X96540486Y-119060622D01*
X96519276Y-119066305D01*
X96501655Y-119069412D01*
X96486156Y-119078360D01*
X96466257Y-119087639D01*
X96449440Y-119093760D01*
X96440994Y-119100847D01*
X96431450Y-119106357D01*
X96430013Y-119103868D01*
X96380396Y-119125581D01*
X96310292Y-119114361D01*
X96257382Y-119067021D01*
X96243828Y-119037013D01*
X96238143Y-119018185D01*
X96225935Y-118977749D01*
X96129218Y-118795849D01*
X96011063Y-118650977D01*
X96002906Y-118640975D01*
X96002903Y-118640972D01*
X95999011Y-118636200D01*
X95992173Y-118630543D01*
X95845025Y-118508811D01*
X95845021Y-118508809D01*
X95840275Y-118504882D01*
X95659055Y-118406897D01*
X95653167Y-118405074D01*
X95652676Y-118404868D01*
X95597628Y-118360033D01*
X95575500Y-118288712D01*
X95575500Y-118224410D01*
X95575980Y-118213428D01*
X95578303Y-118186880D01*
X95578303Y-118186878D01*
X95579264Y-118175893D01*
X95569508Y-118139485D01*
X95567130Y-118128758D01*
X95565976Y-118122212D01*
X95560588Y-118091655D01*
X95555077Y-118082110D01*
X95553885Y-118078834D01*
X95552408Y-118075666D01*
X95549554Y-118065016D01*
X95527945Y-118034156D01*
X95522039Y-118024885D01*
X95508707Y-118001794D01*
X95503194Y-117992245D01*
X95474317Y-117968015D01*
X95466215Y-117960589D01*
X84190705Y-106685079D01*
X84156679Y-106622767D01*
X84153800Y-106595984D01*
X84153800Y-101303616D01*
X84173802Y-101235495D01*
X84227458Y-101189002D01*
X84297732Y-101178898D01*
X84362312Y-101208392D01*
X84368895Y-101214521D01*
X90550689Y-107396315D01*
X90558116Y-107404419D01*
X90582345Y-107433294D01*
X90591894Y-107438807D01*
X90614985Y-107452139D01*
X90624256Y-107458045D01*
X90655116Y-107479654D01*
X90665767Y-107482508D01*
X90668940Y-107483988D01*
X90672212Y-107485179D01*
X90681755Y-107490688D01*
X90718876Y-107497234D01*
X90729583Y-107499608D01*
X90765993Y-107509363D01*
X90776968Y-107508403D01*
X90776970Y-107508403D01*
X90803531Y-107506079D01*
X90814512Y-107505600D01*
X97280084Y-107505600D01*
X97348205Y-107525602D01*
X97369179Y-107542505D01*
X111459726Y-121633053D01*
X111493752Y-121695365D01*
X111488687Y-121766180D01*
X111446140Y-121823016D01*
X111379620Y-121847827D01*
X111370631Y-121848148D01*
X86375748Y-121848148D01*
X86307627Y-121828146D01*
X86286653Y-121811243D01*
X84725158Y-120249748D01*
X86579500Y-120249748D01*
X86580707Y-120255816D01*
X86584331Y-120274033D01*
X86591133Y-120308231D01*
X86635448Y-120374552D01*
X86701769Y-120418867D01*
X86713938Y-120421288D01*
X86713939Y-120421288D01*
X86754184Y-120429293D01*
X86760252Y-120430500D01*
X88499748Y-120430500D01*
X88505816Y-120429293D01*
X88546061Y-120421288D01*
X88546062Y-120421288D01*
X88558231Y-120418867D01*
X88624552Y-120374552D01*
X88668867Y-120308231D01*
X88675670Y-120274033D01*
X88679293Y-120255816D01*
X88680500Y-120249748D01*
X88680500Y-118510252D01*
X88668867Y-118451769D01*
X88624552Y-118385448D01*
X88558231Y-118341133D01*
X88546062Y-118338712D01*
X88546061Y-118338712D01*
X88505816Y-118330707D01*
X88499748Y-118329500D01*
X86760252Y-118329500D01*
X86754184Y-118330707D01*
X86713939Y-118338712D01*
X86713938Y-118338712D01*
X86701769Y-118341133D01*
X86635448Y-118385448D01*
X86591133Y-118451769D01*
X86579500Y-118510252D01*
X86579500Y-120249748D01*
X84725158Y-120249748D01*
X83820463Y-119345053D01*
X83786437Y-119282741D01*
X83783558Y-119255958D01*
X83783558Y-115498148D01*
X80010463Y-111725053D01*
X79976437Y-111662741D01*
X79973558Y-111635958D01*
X79973558Y-50854148D01*
X79993560Y-50786027D01*
X80047216Y-50739534D01*
X80099558Y-50728148D01*
X148427558Y-50728148D01*
X148495679Y-50748150D01*
G37*
%TD.AperFunction*%
%TA.AperFunction,Conductor*%
G36*
X136128412Y-82096013D02*
G01*
X136141137Y-82108739D01*
X136263218Y-82249673D01*
X136270580Y-82256883D01*
X136434434Y-82392916D01*
X136442881Y-82398831D01*
X136626756Y-82506279D01*
X136636043Y-82510729D01*
X136675484Y-82525790D01*
X136731987Y-82568778D01*
X136756280Y-82635489D01*
X136740650Y-82704743D01*
X136690059Y-82754554D01*
X136630535Y-82769500D01*
X136350252Y-82769500D01*
X136344184Y-82770707D01*
X136303939Y-82778712D01*
X136303938Y-82778712D01*
X136291769Y-82781133D01*
X136225448Y-82825448D01*
X136181133Y-82891769D01*
X136169500Y-82950252D01*
X136166670Y-82949689D01*
X136144703Y-83004076D01*
X136086744Y-83045080D01*
X136015818Y-83048240D01*
X135954443Y-83012553D01*
X135922104Y-82949349D01*
X135919900Y-82925884D01*
X135919900Y-82191237D01*
X135939902Y-82123116D01*
X135993558Y-82076623D01*
X136063832Y-82066519D01*
X136128412Y-82096013D01*
G37*
%TD.AperFunction*%
%TA.AperFunction,Conductor*%
G36*
X108185089Y-77960202D02*
G01*
X108231582Y-78013858D01*
X108241686Y-78084132D01*
X108216527Y-78143426D01*
X108191660Y-78175485D01*
X108167152Y-78207081D01*
X108077413Y-78389455D01*
X108075804Y-78395633D01*
X108075803Y-78395635D01*
X108044800Y-78514659D01*
X108026178Y-78586148D01*
X108025844Y-78592527D01*
X108016360Y-78773501D01*
X108015541Y-78789126D01*
X108045935Y-78990097D01*
X108116119Y-79180852D01*
X108119479Y-79186272D01*
X108119480Y-79186273D01*
X108219863Y-79348176D01*
X108219866Y-79348180D01*
X108223226Y-79353599D01*
X108227612Y-79358237D01*
X108329653Y-79466142D01*
X108362881Y-79501280D01*
X108368111Y-79504942D01*
X108368116Y-79504946D01*
X108463024Y-79571401D01*
X108507353Y-79626858D01*
X108514662Y-79697477D01*
X108485020Y-79756114D01*
X108485845Y-79756806D01*
X108481810Y-79761615D01*
X108461625Y-79785670D01*
X108454200Y-79793773D01*
X107651078Y-80596896D01*
X107642974Y-80604322D01*
X107614106Y-80628545D01*
X107608593Y-80638094D01*
X107595261Y-80661185D01*
X107589355Y-80670456D01*
X107567746Y-80701316D01*
X107564892Y-80711966D01*
X107563415Y-80715134D01*
X107562223Y-80718410D01*
X107556712Y-80727955D01*
X107553340Y-80747081D01*
X107550170Y-80765058D01*
X107547792Y-80775785D01*
X107538036Y-80812193D01*
X107538997Y-80823178D01*
X107538997Y-80823180D01*
X107541320Y-80849728D01*
X107541800Y-80860710D01*
X107541800Y-81778590D01*
X107541320Y-81789572D01*
X107538036Y-81827107D01*
X107547791Y-81863510D01*
X107550170Y-81874242D01*
X107556712Y-81911345D01*
X107562223Y-81920890D01*
X107563415Y-81924166D01*
X107564892Y-81927334D01*
X107567746Y-81937984D01*
X107574070Y-81947015D01*
X107589355Y-81968844D01*
X107595261Y-81978115D01*
X107608593Y-82001206D01*
X107614106Y-82010755D01*
X107622551Y-82017841D01*
X107642975Y-82034979D01*
X107651080Y-82042406D01*
X108374901Y-82766228D01*
X108382327Y-82774331D01*
X108406545Y-82803194D01*
X108416091Y-82808705D01*
X108424536Y-82815792D01*
X108422296Y-82818462D01*
X108458195Y-82856118D01*
X108471625Y-82925832D01*
X108445233Y-82991741D01*
X108428196Y-83009511D01*
X108291729Y-83126477D01*
X108167152Y-83287081D01*
X108077413Y-83469455D01*
X108075804Y-83475633D01*
X108075803Y-83475635D01*
X108043438Y-83599888D01*
X108026178Y-83666148D01*
X108025844Y-83672527D01*
X108017069Y-83839975D01*
X108015541Y-83869126D01*
X108045935Y-84070097D01*
X108116119Y-84260852D01*
X108119479Y-84266272D01*
X108119480Y-84266273D01*
X108219863Y-84428176D01*
X108219866Y-84428180D01*
X108223226Y-84433599D01*
X108362881Y-84581280D01*
X108494479Y-84673426D01*
X108517790Y-84689748D01*
X108529379Y-84697863D01*
X108715919Y-84778586D01*
X108761947Y-84788202D01*
X108910144Y-84819162D01*
X108910149Y-84819163D01*
X108914880Y-84820151D01*
X108919762Y-84820407D01*
X108919871Y-84820413D01*
X108919887Y-84820413D01*
X108921539Y-84820500D01*
X109470800Y-84820500D01*
X109545504Y-84812912D01*
X109615868Y-84805765D01*
X109615870Y-84805765D01*
X109622216Y-84805120D01*
X109816172Y-84744338D01*
X109993944Y-84645797D01*
X110006908Y-84634686D01*
X110074632Y-84576639D01*
X110148271Y-84513523D01*
X110272848Y-84352919D01*
X110321098Y-84254863D01*
X110340284Y-84215871D01*
X110388307Y-84163580D01*
X110453339Y-84145500D01*
X113304984Y-84145500D01*
X113373105Y-84165502D01*
X113394079Y-84182405D01*
X119388506Y-90176832D01*
X119422532Y-90239144D01*
X119417467Y-90309959D01*
X119374920Y-90366795D01*
X119310831Y-90391408D01*
X119270081Y-90395117D01*
X119182203Y-90403114D01*
X118984572Y-90461280D01*
X118802002Y-90556726D01*
X118797201Y-90560586D01*
X118797198Y-90560588D01*
X118654826Y-90675058D01*
X118641447Y-90685815D01*
X118509024Y-90843630D01*
X118506056Y-90849028D01*
X118506053Y-90849033D01*
X118422156Y-91001643D01*
X118409776Y-91024162D01*
X118399480Y-91056621D01*
X118391068Y-91083138D01*
X118351405Y-91142022D01*
X118286202Y-91170114D01*
X118216163Y-91158497D01*
X118163523Y-91110857D01*
X118148762Y-91075735D01*
X118131214Y-91005875D01*
X118127894Y-90996124D01*
X118042972Y-90800814D01*
X118038105Y-90791739D01*
X117922426Y-90612926D01*
X117916136Y-90604757D01*
X117772806Y-90447240D01*
X117765273Y-90440215D01*
X117598139Y-90308222D01*
X117589552Y-90302517D01*
X117403117Y-90199599D01*
X117393705Y-90195369D01*
X117192959Y-90124280D01*
X117182988Y-90121646D01*
X117111837Y-90108972D01*
X117098540Y-90110432D01*
X117094000Y-90124989D01*
X117094000Y-92758517D01*
X117098064Y-92772359D01*
X117111478Y-92774393D01*
X117118184Y-92773534D01*
X117128262Y-92771392D01*
X117332255Y-92710191D01*
X117341842Y-92706433D01*
X117533095Y-92612739D01*
X117541945Y-92607464D01*
X117715328Y-92483792D01*
X117723200Y-92477139D01*
X117874052Y-92326812D01*
X117880730Y-92318965D01*
X118005003Y-92146020D01*
X118010313Y-92137183D01*
X118104670Y-91946267D01*
X118108469Y-91936672D01*
X118149593Y-91801319D01*
X118188534Y-91741955D01*
X118253388Y-91713068D01*
X118323564Y-91723830D01*
X118376782Y-91770823D01*
X118391270Y-91803217D01*
X118398544Y-91828586D01*
X118401359Y-91834063D01*
X118401360Y-91834066D01*
X118475310Y-91977958D01*
X118492712Y-92011818D01*
X118620677Y-92173270D01*
X118625370Y-92177264D01*
X118625371Y-92177265D01*
X118699541Y-92240388D01*
X118777564Y-92306791D01*
X118782942Y-92309797D01*
X118782944Y-92309798D01*
X118801911Y-92320398D01*
X118957398Y-92407297D01*
X119032352Y-92431651D01*
X119147471Y-92469056D01*
X119147475Y-92469057D01*
X119153329Y-92470959D01*
X119357894Y-92495351D01*
X119364029Y-92494879D01*
X119364031Y-92494879D01*
X119436625Y-92489293D01*
X119563300Y-92479546D01*
X119569230Y-92477890D01*
X119569232Y-92477890D01*
X119703459Y-92440413D01*
X119761725Y-92424145D01*
X119767221Y-92421369D01*
X119774722Y-92417580D01*
X119844544Y-92404721D01*
X119910235Y-92431651D01*
X119920626Y-92440952D01*
X120282595Y-92802921D01*
X120316621Y-92865233D01*
X120319500Y-92892016D01*
X120319500Y-118288688D01*
X120299498Y-118356809D01*
X120248436Y-118399107D01*
X120249572Y-118401280D01*
X120067002Y-118496726D01*
X120062201Y-118500586D01*
X120062198Y-118500588D01*
X119911254Y-118621950D01*
X119906447Y-118625815D01*
X119774024Y-118783630D01*
X119771056Y-118789028D01*
X119771053Y-118789033D01*
X119718501Y-118884626D01*
X119674776Y-118964162D01*
X119664480Y-118996621D01*
X119656068Y-119023138D01*
X119616405Y-119082022D01*
X119551202Y-119110114D01*
X119481163Y-119098497D01*
X119428523Y-119050857D01*
X119413762Y-119015735D01*
X119396214Y-118945875D01*
X119392894Y-118936124D01*
X119307972Y-118740814D01*
X119303105Y-118731739D01*
X119187426Y-118552926D01*
X119181136Y-118544757D01*
X119037806Y-118387240D01*
X119030273Y-118380215D01*
X118863139Y-118248222D01*
X118854552Y-118242517D01*
X118668117Y-118139599D01*
X118658705Y-118135369D01*
X118457959Y-118064280D01*
X118447988Y-118061646D01*
X118376837Y-118048972D01*
X118363540Y-118050432D01*
X118359000Y-118064989D01*
X118359000Y-119508000D01*
X118338998Y-119576121D01*
X118285342Y-119622614D01*
X118233000Y-119634000D01*
X117977000Y-119634000D01*
X117908879Y-119613998D01*
X117862386Y-119560342D01*
X117851000Y-119508000D01*
X117851000Y-118063102D01*
X117847082Y-118049758D01*
X117832806Y-118047771D01*
X117794324Y-118053660D01*
X117784288Y-118056051D01*
X117581868Y-118122212D01*
X117572359Y-118126209D01*
X117383463Y-118224542D01*
X117374738Y-118230036D01*
X117204433Y-118357905D01*
X117196726Y-118364748D01*
X117049590Y-118518717D01*
X117043104Y-118526727D01*
X116923098Y-118702649D01*
X116918000Y-118711623D01*
X116828338Y-118904783D01*
X116824775Y-118914470D01*
X116793240Y-119028179D01*
X116755761Y-119088477D01*
X116691632Y-119118940D01*
X116621214Y-119109896D01*
X116582728Y-119083602D01*
X111809205Y-114310079D01*
X111775179Y-114247767D01*
X111772300Y-114220984D01*
X111772300Y-91707966D01*
X115508257Y-91707966D01*
X115538565Y-91842446D01*
X115541645Y-91852275D01*
X115621770Y-92049603D01*
X115626413Y-92058794D01*
X115737694Y-92240388D01*
X115743777Y-92248699D01*
X115883213Y-92409667D01*
X115890580Y-92416883D01*
X116054434Y-92552916D01*
X116062881Y-92558831D01*
X116246756Y-92666279D01*
X116256042Y-92670729D01*
X116455001Y-92746703D01*
X116464899Y-92749579D01*
X116568250Y-92770606D01*
X116582299Y-92769410D01*
X116586000Y-92759065D01*
X116586000Y-91712115D01*
X116581525Y-91696876D01*
X116580135Y-91695671D01*
X116572452Y-91694000D01*
X115523225Y-91694000D01*
X115509694Y-91697973D01*
X115508257Y-91707966D01*
X111772300Y-91707966D01*
X111772300Y-91196413D01*
X111772779Y-91185432D01*
X111773763Y-91174183D01*
X115504389Y-91174183D01*
X115505912Y-91182607D01*
X115518292Y-91186000D01*
X116567885Y-91186000D01*
X116583124Y-91181525D01*
X116584329Y-91180135D01*
X116586000Y-91172452D01*
X116586000Y-90123102D01*
X116582082Y-90109758D01*
X116567806Y-90107771D01*
X116529324Y-90113660D01*
X116519288Y-90116051D01*
X116316868Y-90182212D01*
X116307359Y-90186209D01*
X116118463Y-90284542D01*
X116109738Y-90290036D01*
X115939433Y-90417905D01*
X115931726Y-90424748D01*
X115784590Y-90578717D01*
X115778104Y-90586727D01*
X115658098Y-90762649D01*
X115653000Y-90771623D01*
X115563338Y-90964783D01*
X115559775Y-90974470D01*
X115504389Y-91174183D01*
X111773763Y-91174183D01*
X111775103Y-91158870D01*
X111775103Y-91158868D01*
X111776063Y-91147893D01*
X111766308Y-91111483D01*
X111763933Y-91100772D01*
X111762827Y-91094498D01*
X111757388Y-91063655D01*
X111751878Y-91054111D01*
X111750686Y-91050835D01*
X111749207Y-91047664D01*
X111746354Y-91037016D01*
X111724740Y-91006148D01*
X111718836Y-90996879D01*
X111705507Y-90973792D01*
X111705504Y-90973788D01*
X111699994Y-90964245D01*
X111671124Y-90940020D01*
X111663021Y-90932594D01*
X110628810Y-89898384D01*
X110621383Y-89890280D01*
X110597155Y-89861406D01*
X110587606Y-89855893D01*
X110564515Y-89842561D01*
X110555244Y-89836655D01*
X110533415Y-89821370D01*
X110524384Y-89815046D01*
X110513734Y-89812192D01*
X110510566Y-89810715D01*
X110507290Y-89809523D01*
X110497745Y-89804012D01*
X110464001Y-89798062D01*
X110460642Y-89797470D01*
X110449915Y-89795092D01*
X110413507Y-89785336D01*
X110402522Y-89786297D01*
X110402520Y-89786297D01*
X110375972Y-89788620D01*
X110364990Y-89789100D01*
X110253764Y-89789100D01*
X110185643Y-89769098D01*
X110139150Y-89715442D01*
X110129046Y-89645168D01*
X110154204Y-89585874D01*
X110161454Y-89576527D01*
X110272848Y-89432919D01*
X110362587Y-89250545D01*
X110388752Y-89150097D01*
X110412212Y-89060034D01*
X110412212Y-89060031D01*
X110413822Y-89053852D01*
X110424459Y-88850874D01*
X110394065Y-88649903D01*
X110323881Y-88459148D01*
X110270345Y-88372802D01*
X110220137Y-88291824D01*
X110220134Y-88291820D01*
X110216774Y-88286401D01*
X110137267Y-88202325D01*
X110081508Y-88143361D01*
X110081507Y-88143360D01*
X110077119Y-88138720D01*
X109910621Y-88022137D01*
X109724081Y-87941414D01*
X109678053Y-87931798D01*
X109529856Y-87900838D01*
X109529851Y-87900837D01*
X109525120Y-87899849D01*
X109520238Y-87899593D01*
X109520129Y-87899587D01*
X109520113Y-87899587D01*
X109518461Y-87899500D01*
X108969200Y-87899500D01*
X108933906Y-87903085D01*
X108824132Y-87914235D01*
X108824130Y-87914235D01*
X108817784Y-87914880D01*
X108623828Y-87975662D01*
X108446056Y-88074203D01*
X108291729Y-88206477D01*
X108167152Y-88367081D01*
X108077413Y-88549455D01*
X108075804Y-88555633D01*
X108075803Y-88555635D01*
X108049603Y-88656220D01*
X108026178Y-88746148D01*
X108015541Y-88949126D01*
X108045935Y-89150097D01*
X108116119Y-89340852D01*
X108119479Y-89346272D01*
X108119480Y-89346273D01*
X108219863Y-89508176D01*
X108219866Y-89508180D01*
X108223226Y-89513599D01*
X108227612Y-89518237D01*
X108282734Y-89576527D01*
X108315006Y-89639765D01*
X108307966Y-89710412D01*
X108263849Y-89766037D01*
X108191186Y-89789100D01*
X97921616Y-89789100D01*
X97853495Y-89769098D01*
X97832521Y-89752195D01*
X94489452Y-86409126D01*
X108015541Y-86409126D01*
X108045935Y-86610097D01*
X108116119Y-86800852D01*
X108119479Y-86806272D01*
X108119480Y-86806273D01*
X108219863Y-86968176D01*
X108219866Y-86968180D01*
X108223226Y-86973599D01*
X108362881Y-87121280D01*
X108529379Y-87237863D01*
X108715919Y-87318586D01*
X108761947Y-87328202D01*
X108910144Y-87359162D01*
X108910149Y-87359163D01*
X108914880Y-87360151D01*
X108919762Y-87360407D01*
X108919871Y-87360413D01*
X108919887Y-87360413D01*
X108921539Y-87360500D01*
X109470800Y-87360500D01*
X109545504Y-87352912D01*
X109615868Y-87345765D01*
X109615870Y-87345765D01*
X109622216Y-87345120D01*
X109816172Y-87284338D01*
X109993944Y-87185797D01*
X110006908Y-87174686D01*
X110074632Y-87116639D01*
X110148271Y-87053523D01*
X110272848Y-86892919D01*
X110362587Y-86710545D01*
X110388752Y-86610097D01*
X110412212Y-86520034D01*
X110412212Y-86520031D01*
X110413822Y-86513852D01*
X110424459Y-86310874D01*
X110394065Y-86109903D01*
X110323881Y-85919148D01*
X110270345Y-85832802D01*
X110220137Y-85751824D01*
X110220134Y-85751820D01*
X110216774Y-85746401D01*
X110077119Y-85598720D01*
X109910621Y-85482137D01*
X109724081Y-85401414D01*
X109678053Y-85391798D01*
X109529856Y-85360838D01*
X109529851Y-85360837D01*
X109525120Y-85359849D01*
X109520238Y-85359593D01*
X109520129Y-85359587D01*
X109520113Y-85359587D01*
X109518461Y-85359500D01*
X108969200Y-85359500D01*
X108933906Y-85363085D01*
X108824132Y-85374235D01*
X108824130Y-85374235D01*
X108817784Y-85374880D01*
X108623828Y-85435662D01*
X108446056Y-85534203D01*
X108291729Y-85666477D01*
X108167152Y-85827081D01*
X108077413Y-86009455D01*
X108075804Y-86015633D01*
X108075803Y-86015635D01*
X108049603Y-86116220D01*
X108026178Y-86206148D01*
X108025844Y-86212527D01*
X108016360Y-86393501D01*
X108015541Y-86409126D01*
X94489452Y-86409126D01*
X87729411Y-79649085D01*
X87721984Y-79640981D01*
X87704841Y-79620551D01*
X87704842Y-79620551D01*
X87697755Y-79612106D01*
X87688206Y-79606593D01*
X87665115Y-79593261D01*
X87655844Y-79587355D01*
X87634015Y-79572070D01*
X87624984Y-79565746D01*
X87614334Y-79562892D01*
X87611166Y-79561415D01*
X87607890Y-79560223D01*
X87598345Y-79554712D01*
X87564601Y-79548762D01*
X87561242Y-79548170D01*
X87550515Y-79545792D01*
X87514107Y-79536036D01*
X87503122Y-79536997D01*
X87503120Y-79536997D01*
X87476572Y-79539320D01*
X87465590Y-79539800D01*
X87463032Y-79539800D01*
X87394911Y-79519798D01*
X87348418Y-79466142D01*
X87338314Y-79395868D01*
X87363473Y-79336574D01*
X87408935Y-79277964D01*
X87408936Y-79277962D01*
X87412848Y-79272919D01*
X87502587Y-79090545D01*
X87528752Y-78990097D01*
X87552212Y-78900034D01*
X87552212Y-78900031D01*
X87553822Y-78893852D01*
X87560129Y-78773501D01*
X87564125Y-78697256D01*
X87564125Y-78697252D01*
X87564459Y-78690874D01*
X87534065Y-78489903D01*
X87463881Y-78299148D01*
X87360615Y-78132596D01*
X87341719Y-78064161D01*
X87362821Y-77996373D01*
X87417222Y-77950754D01*
X87467702Y-77940200D01*
X108116968Y-77940200D01*
X108185089Y-77960202D01*
G37*
%TD.AperFunction*%
%TA.AperFunction,Conductor*%
G36*
X108185089Y-75420202D02*
G01*
X108231582Y-75473858D01*
X108241686Y-75544132D01*
X108216527Y-75603426D01*
X108171065Y-75662036D01*
X108167152Y-75667081D01*
X108077413Y-75849455D01*
X108075804Y-75855633D01*
X108075803Y-75855635D01*
X108052265Y-75946000D01*
X108026178Y-76046148D01*
X108025844Y-76052527D01*
X108018148Y-76199384D01*
X108015541Y-76249126D01*
X108045935Y-76450097D01*
X108116119Y-76640852D01*
X108119479Y-76646272D01*
X108119480Y-76646273D01*
X108219863Y-76808176D01*
X108219866Y-76808180D01*
X108223226Y-76813599D01*
X108227612Y-76818237D01*
X108268058Y-76861007D01*
X108362881Y-76961280D01*
X108368111Y-76964942D01*
X108368112Y-76964943D01*
X108503849Y-77059987D01*
X108548177Y-77115444D01*
X108555486Y-77186063D01*
X108523455Y-77249424D01*
X108462254Y-77285409D01*
X108431578Y-77289200D01*
X87624781Y-77289200D01*
X87556660Y-77269198D01*
X87510167Y-77215542D01*
X87500063Y-77145268D01*
X87529557Y-77080688D01*
X87535686Y-77074105D01*
X87561916Y-77047875D01*
X87568972Y-77039467D01*
X87693931Y-76861007D01*
X87699414Y-76851511D01*
X87791490Y-76654053D01*
X87795236Y-76643761D01*
X87841394Y-76471497D01*
X87841058Y-76457401D01*
X87833116Y-76454000D01*
X86232000Y-76454000D01*
X86163879Y-76433998D01*
X86117386Y-76380342D01*
X86106000Y-76328000D01*
X86106000Y-76072000D01*
X86126002Y-76003879D01*
X86179658Y-75957386D01*
X86232000Y-75946000D01*
X87827967Y-75946000D01*
X87841498Y-75942027D01*
X87842727Y-75933478D01*
X87795236Y-75756239D01*
X87791490Y-75745947D01*
X87713851Y-75579450D01*
X87703190Y-75509258D01*
X87732170Y-75444446D01*
X87791590Y-75405589D01*
X87828046Y-75400200D01*
X108116968Y-75400200D01*
X108185089Y-75420202D01*
G37*
%TD.AperFunction*%
%TD*%
M02*
