%TF.GenerationSoftware,KiCad,Pcbnew,(6.0.5)*%
%TF.CreationDate,2022-06-12T07:36:22+01:00*%
%TF.ProjectId,kiln-pcb,6b696c6e-2d70-4636-922e-6b696361645f,rev?*%
%TF.SameCoordinates,Original*%
%TF.FileFunction,Copper,L2,Bot*%
%TF.FilePolarity,Positive*%
%FSLAX46Y46*%
G04 Gerber Fmt 4.6, Leading zero omitted, Abs format (unit mm)*
G04 Created by KiCad (PCBNEW (6.0.5)) date 2022-06-12 07:36:22*
%MOMM*%
%LPD*%
G01*
G04 APERTURE LIST*
%TA.AperFunction,ComponentPad*%
%ADD10R,1.700000X1.700000*%
%TD*%
%TA.AperFunction,ComponentPad*%
%ADD11O,1.700000X1.700000*%
%TD*%
%TA.AperFunction,ComponentPad*%
%ADD12R,3.000000X3.000000*%
%TD*%
%TA.AperFunction,ComponentPad*%
%ADD13C,3.000000*%
%TD*%
%TA.AperFunction,ComponentPad*%
%ADD14C,0.800000*%
%TD*%
%TA.AperFunction,ComponentPad*%
%ADD15C,6.400000*%
%TD*%
%TA.AperFunction,ComponentPad*%
%ADD16R,2.000000X2.000000*%
%TD*%
%TA.AperFunction,ComponentPad*%
%ADD17O,2.000000X1.600000*%
%TD*%
%TA.AperFunction,ViaPad*%
%ADD18C,0.800000*%
%TD*%
%TA.AperFunction,Conductor*%
%ADD19C,0.250000*%
%TD*%
G04 APERTURE END LIST*
D10*
%TO.P,J5,1,Pin_1*%
%TO.N,Sig_relay*%
X137220000Y-83820000D03*
D11*
%TO.P,J5,2,Pin_2*%
%TO.N,GND*%
X137220000Y-81280000D03*
%TO.P,J5,3,Pin_3*%
%TO.N,RELAY_VCC*%
X137220000Y-78740000D03*
%TD*%
D12*
%TO.P,M-switch,1,Pin_1*%
%TO.N,3V3*%
X135890000Y-44450000D03*
D13*
%TO.P,M-switch,2,Pin_2*%
%TO.N,RELAY_VCC*%
X140970000Y-44450000D03*
%TD*%
D14*
%TO.P,H4,1*%
%TO.N,N/C*%
X171450000Y-46850000D03*
X169752944Y-46147056D03*
X169752944Y-42752944D03*
X171450000Y-42050000D03*
D15*
X171450000Y-44450000D03*
D14*
X173147056Y-46147056D03*
X173850000Y-44450000D03*
X169050000Y-44450000D03*
X173147056Y-42752944D03*
%TD*%
D10*
%TO.P,J1,1,Pin_1*%
%TO.N,unconnected-(J1-Pad1)*%
X87630000Y-119380000D03*
D11*
%TO.P,J1,2,Pin_2*%
%TO.N,CS_TFT*%
X90170000Y-119380000D03*
%TO.P,J1,3,Pin_3*%
%TO.N,DC_TFT*%
X92710000Y-119380000D03*
%TO.P,J1,4,Pin_4*%
%TO.N,RES_TFT*%
X95250000Y-119380000D03*
%TO.P,J1,5,Pin_5*%
%TO.N,SDA_TFT*%
X97790000Y-119380000D03*
%TO.P,J1,6,Pin_6*%
%TO.N,SCK_T*%
X100330000Y-119380000D03*
%TO.P,J1,7,Pin_7*%
%TO.N,5V*%
X102870000Y-119380000D03*
%TO.P,J1,8,Pin_8*%
%TO.N,GND*%
X105410000Y-119380000D03*
%TD*%
D14*
%TO.P,H2,1*%
%TO.N,N/C*%
X80010000Y-114440000D03*
X81707056Y-118537056D03*
X80010000Y-119240000D03*
X82410000Y-116840000D03*
X78312944Y-118537056D03*
X81707056Y-115142944D03*
X78312944Y-115142944D03*
X77610000Y-116840000D03*
D15*
X80010000Y-116840000D03*
%TD*%
D16*
%TO.P,U1,1,~{RST}*%
%TO.N,RES_TFT*%
X109220000Y-91440000D03*
D17*
%TO.P,U1,2,A0*%
%TO.N,unconnected-(U1-Pad2)*%
X109220000Y-88900000D03*
%TO.P,U1,3,D0*%
%TO.N,Sig_relay*%
X109220000Y-86360000D03*
%TO.P,U1,4,SCK/D5*%
%TO.N,SCK_T*%
X109220000Y-83820000D03*
%TO.P,U1,5,MISO/D6*%
%TO.N,SO_T*%
X109220000Y-81280000D03*
%TO.P,U1,6,MOSI/D7*%
%TO.N,SDA_TFT*%
X109220000Y-78740000D03*
%TO.P,U1,7,CS/D8*%
%TO.N,CS_TFT*%
X109220000Y-76200000D03*
%TO.P,U1,8,3V3*%
%TO.N,3V3*%
X109220000Y-73660000D03*
%TO.P,U1,9,5V*%
%TO.N,5V*%
X86360000Y-73660000D03*
%TO.P,U1,10,GND*%
%TO.N,GND*%
X86360000Y-76200000D03*
%TO.P,U1,11,D4*%
%TO.N,SW_ROTARY*%
X86360000Y-78740000D03*
%TO.P,U1,12,D3*%
%TO.N,DC_TFT*%
X86360000Y-81280000D03*
%TO.P,U1,13,SDA/D2*%
%TO.N,CLK_ROTARY*%
X86360000Y-83820000D03*
%TO.P,U1,14,SCL/D1*%
%TO.N,DT_ROTARY*%
X86360000Y-86360000D03*
%TO.P,U1,15,RX*%
%TO.N,unconnected-(U1-Pad15)*%
X86360000Y-88900000D03*
%TO.P,U1,16,TX*%
%TO.N,CS_T*%
X86360000Y-91440000D03*
%TD*%
D10*
%TO.P,J6,1,Pin_1*%
%TO.N,Sig_relay*%
X137220000Y-104125000D03*
D11*
%TO.P,J6,2,Pin_2*%
%TO.N,GND*%
X137220000Y-101585000D03*
%TO.P,J6,3,Pin_3*%
%TO.N,RELAY_VCC*%
X137220000Y-99045000D03*
%TD*%
D10*
%TO.P,J3,1,Pin_1*%
%TO.N,CLK_ROTARY*%
X128265000Y-119380000D03*
D11*
%TO.P,J3,2,Pin_2*%
%TO.N,DT_ROTARY*%
X125725000Y-119380000D03*
%TO.P,J3,3,Pin_3*%
%TO.N,SW_ROTARY*%
X123185000Y-119380000D03*
%TO.P,J3,4,Pin_4*%
%TO.N,5V*%
X120645000Y-119380000D03*
%TO.P,J3,5,Pin_5*%
%TO.N,GND*%
X118105000Y-119380000D03*
%TD*%
D14*
%TO.P,H3,1*%
%TO.N,N/C*%
X173147056Y-118537056D03*
D15*
X171450000Y-116840000D03*
D14*
X173147056Y-115142944D03*
X171450000Y-114440000D03*
X169752944Y-118537056D03*
X169050000Y-116840000D03*
X169752944Y-115142944D03*
X171450000Y-119240000D03*
X173850000Y-116840000D03*
%TD*%
%TO.P,H1,1*%
%TO.N,N/C*%
X81707056Y-46147056D03*
X80010000Y-46850000D03*
X77610000Y-44450000D03*
X81707056Y-42752944D03*
X78312944Y-42752944D03*
D15*
X80010000Y-44450000D03*
D14*
X82410000Y-44450000D03*
X80010000Y-42050000D03*
X78312944Y-46147056D03*
%TD*%
D10*
%TO.P,J2,1,Pin_1*%
%TO.N,SO_T*%
X127000000Y-91440000D03*
D11*
%TO.P,J2,2,Pin_2*%
%TO.N,CS_T*%
X124460000Y-91440000D03*
%TO.P,J2,3,Pin_3*%
%TO.N,SCK_T*%
X121920000Y-91440000D03*
%TO.P,J2,4,Pin_4*%
%TO.N,5V*%
X119380000Y-91440000D03*
%TO.P,J2,5,Pin_5*%
%TO.N,GND*%
X116840000Y-91440000D03*
%TD*%
D10*
%TO.P,J4,1,Pin_1*%
%TO.N,Sig_relay*%
X137220000Y-63500000D03*
D11*
%TO.P,J4,2,Pin_2*%
%TO.N,GND*%
X137220000Y-60960000D03*
%TO.P,J4,3,Pin_3*%
%TO.N,RELAY_VCC*%
X137220000Y-58420000D03*
%TD*%
D18*
%TO.N,RES_TFT*%
X107888500Y-114607500D03*
%TO.N,GND*%
X116706900Y-100347200D03*
%TD*%
D19*
%TO.N,DC_TFT*%
X86360000Y-82405300D02*
X85938000Y-82405300D01*
X83819100Y-84524200D02*
X83819100Y-109313800D01*
X83819100Y-109313800D02*
X92710000Y-118204700D01*
X92710000Y-119380000D02*
X92710000Y-118204700D01*
X85938000Y-82405300D02*
X83819100Y-84524200D01*
X86360000Y-81280000D02*
X86360000Y-82405300D01*
%TO.N,RES_TFT*%
X109220000Y-91440000D02*
X110545300Y-91440000D01*
X110835000Y-91729700D02*
X110835000Y-111661000D01*
X110835000Y-111661000D02*
X107888500Y-114607500D01*
X110545300Y-91440000D02*
X110835000Y-91729700D01*
%TO.N,5V*%
X87485300Y-74785300D02*
X86360000Y-74785300D01*
X119380000Y-91440000D02*
X118204700Y-91440000D01*
X118204700Y-91072700D02*
X114762000Y-87630000D01*
X120645000Y-119380000D02*
X120645000Y-118204700D01*
X119380000Y-116939700D02*
X120645000Y-118204700D01*
X118204700Y-91440000D02*
X118204700Y-91072700D01*
X86360000Y-73660000D02*
X86360000Y-74785300D01*
X100330000Y-87630000D02*
X87485300Y-74785300D01*
X114762000Y-87630000D02*
X100330000Y-87630000D01*
X119380000Y-91440000D02*
X119380000Y-116939700D01*
%TO.N,SO_T*%
X125824700Y-91072700D02*
X116032000Y-81280000D01*
X125824700Y-91440000D02*
X125824700Y-91072700D01*
X127000000Y-91440000D02*
X125824700Y-91440000D01*
X116032000Y-81280000D02*
X109220000Y-81280000D01*
%TO.N,SCK_T*%
X120744700Y-91440000D02*
X120744700Y-91072700D01*
X121920000Y-91440000D02*
X120744700Y-91440000D01*
X113492000Y-83820000D02*
X109220000Y-83820000D01*
X120744700Y-91072700D02*
X113492000Y-83820000D01*
%TO.N,Sig_relay*%
X137220000Y-83820000D02*
X137220000Y-84995300D01*
X135594400Y-81386500D02*
X136852600Y-82644700D01*
X137220000Y-64675300D02*
X135594400Y-66300900D01*
X137220000Y-83820000D02*
X137220000Y-82644700D01*
X135594400Y-86620900D02*
X135594400Y-101691500D01*
X137220000Y-63500000D02*
X137220000Y-64675300D01*
X136852600Y-82644700D02*
X137220000Y-82644700D01*
X137220000Y-104125000D02*
X137220000Y-102949700D01*
X137220000Y-84995300D02*
X135594400Y-86620900D01*
X135594400Y-101691500D02*
X136852600Y-102949700D01*
X136852600Y-102949700D02*
X137220000Y-102949700D01*
X135594400Y-66300900D02*
X135594400Y-81386500D01*
%TO.N,GND*%
X137220000Y-60960000D02*
X137220000Y-62135300D01*
X116706900Y-116806600D02*
X116706900Y-100347200D01*
X136044700Y-99535700D02*
X136918700Y-100409700D01*
X137220000Y-62135300D02*
X138028000Y-62135300D01*
X137220000Y-81280000D02*
X138395400Y-82455400D01*
X138395400Y-62502700D02*
X138395400Y-74922600D01*
X136852600Y-80104700D02*
X137220000Y-80104700D01*
X116840000Y-92615300D02*
X116706900Y-92748400D01*
X138395400Y-74922600D02*
X136044700Y-77273300D01*
X138395400Y-82455400D02*
X138395400Y-95042100D01*
X136044700Y-79296800D02*
X136852600Y-80104700D01*
X137220000Y-101585000D02*
X137220000Y-100409700D01*
X118105000Y-119380000D02*
X118105000Y-118204700D01*
X138028000Y-62135300D02*
X138395400Y-62502700D01*
X118105000Y-118204700D02*
X116706900Y-116806600D01*
X136044700Y-77273300D02*
X136044700Y-79296800D01*
X138395400Y-95042100D02*
X136044700Y-97392800D01*
X137220000Y-81280000D02*
X137220000Y-80104700D01*
X136918700Y-100409700D02*
X137220000Y-100409700D01*
X116840000Y-91440000D02*
X116840000Y-92615300D01*
X116706900Y-92748400D02*
X116706900Y-100347200D01*
X136044700Y-97392800D02*
X136044700Y-99535700D01*
%TO.N,3V3*%
X109220000Y-73660000D02*
X109220000Y-72534700D01*
X135479400Y-46275300D02*
X135890000Y-46275300D01*
X109220000Y-72534700D02*
X135479400Y-46275300D01*
X135890000Y-44450000D02*
X135890000Y-46275300D01*
%TO.N,CLK_ROTARY*%
X84269400Y-86613900D02*
X85938000Y-84945300D01*
X86360000Y-83820000D02*
X86360000Y-84945300D01*
X125252400Y-121584600D02*
X109884200Y-121584600D01*
X85466700Y-101853100D02*
X84269400Y-100655800D01*
X85938000Y-84945300D02*
X86360000Y-84945300D01*
X128265000Y-119380000D02*
X127089700Y-119380000D01*
X127089700Y-119380000D02*
X127089700Y-119747300D01*
X90152700Y-101853100D02*
X85466700Y-101853100D01*
X109884200Y-121584600D02*
X90152700Y-101853100D01*
X84269400Y-100655800D02*
X84269400Y-86613900D01*
X127089700Y-119747300D02*
X125252400Y-121584600D01*
%TO.N,DT_ROTARY*%
X85983100Y-87485300D02*
X86360000Y-87485300D01*
X110170600Y-121077500D02*
X90458600Y-101365500D01*
X90458600Y-101365500D02*
X85616400Y-101365500D01*
X124549700Y-119380000D02*
X124549700Y-119747300D01*
X84719700Y-88748700D02*
X85983100Y-87485300D01*
X85616400Y-101365500D02*
X84719700Y-100468800D01*
X86360000Y-86360000D02*
X86360000Y-87485300D01*
X125725000Y-119380000D02*
X124549700Y-119380000D01*
X123219500Y-121077500D02*
X110170600Y-121077500D01*
X84719700Y-100468800D02*
X84719700Y-88748700D01*
X124549700Y-119747300D02*
X123219500Y-121077500D01*
%TO.N,SW_ROTARY*%
X111334200Y-91045600D02*
X110403200Y-90114600D01*
X123185000Y-119380000D02*
X122009700Y-119380000D01*
X122009700Y-119747300D02*
X121172200Y-120584800D01*
X122009700Y-119380000D02*
X122009700Y-119747300D01*
X97734600Y-90114600D02*
X87485300Y-79865300D01*
X121172200Y-120584800D02*
X117574000Y-120584800D01*
X110403200Y-90114600D02*
X97734600Y-90114600D01*
X111334200Y-114345000D02*
X111334200Y-91045600D01*
X117574000Y-120584800D02*
X111334200Y-114345000D01*
X86360000Y-78740000D02*
X86360000Y-79865300D01*
X87485300Y-79865300D02*
X86360000Y-79865300D01*
%TO.N,RELAY_VCC*%
X137220000Y-99045000D02*
X137220000Y-97869700D01*
X138845800Y-58420000D02*
X138845800Y-75938900D01*
X138845800Y-80365800D02*
X137220000Y-78740000D01*
X138395300Y-58420000D02*
X138845800Y-58420000D01*
X137220000Y-58420000D02*
X138395300Y-58420000D01*
X137220000Y-97869700D02*
X138845800Y-96243900D01*
X138845800Y-96243900D02*
X138845800Y-80365800D01*
X138845800Y-75938900D02*
X137220000Y-77564700D01*
X137220000Y-78740000D02*
X137220000Y-77564700D01*
X140970000Y-44450000D02*
X138845800Y-46574200D01*
X138845800Y-46574200D02*
X138845800Y-58420000D01*
%TD*%
%TA.AperFunction,Conductor*%
%TO.N,GND*%
G36*
X130330157Y-50748150D02*
G01*
X130376650Y-50801806D01*
X130386754Y-50872080D01*
X130357260Y-50936660D01*
X130351131Y-50943243D01*
X109003785Y-72290589D01*
X108995681Y-72298016D01*
X108966806Y-72322245D01*
X108961293Y-72331794D01*
X108947961Y-72354885D01*
X108942055Y-72364156D01*
X108920446Y-72395016D01*
X108917592Y-72405666D01*
X108916115Y-72408834D01*
X108914923Y-72412110D01*
X108909412Y-72421655D01*
X108903462Y-72455399D01*
X108902870Y-72458758D01*
X108900492Y-72469485D01*
X108890736Y-72505893D01*
X108891697Y-72516878D01*
X108891697Y-72516880D01*
X108894020Y-72543428D01*
X108894500Y-72554410D01*
X108894500Y-72558283D01*
X108874498Y-72626404D01*
X108820842Y-72672897D01*
X108806182Y-72678516D01*
X108623828Y-72735662D01*
X108446056Y-72834203D01*
X108291729Y-72966477D01*
X108167152Y-73127081D01*
X108077413Y-73309455D01*
X108075804Y-73315633D01*
X108075803Y-73315635D01*
X108049603Y-73416220D01*
X108026178Y-73506148D01*
X108015541Y-73709126D01*
X108045935Y-73910097D01*
X108116119Y-74100852D01*
X108119479Y-74106272D01*
X108119480Y-74106273D01*
X108219863Y-74268176D01*
X108219866Y-74268180D01*
X108223226Y-74273599D01*
X108227612Y-74278237D01*
X108329653Y-74386142D01*
X108362881Y-74421280D01*
X108529379Y-74537863D01*
X108715919Y-74618586D01*
X108761947Y-74628202D01*
X108910144Y-74659162D01*
X108910149Y-74659163D01*
X108914880Y-74660151D01*
X108919762Y-74660407D01*
X108919871Y-74660413D01*
X108919887Y-74660413D01*
X108921539Y-74660500D01*
X109470800Y-74660500D01*
X109518793Y-74655625D01*
X109615868Y-74645765D01*
X109615870Y-74645765D01*
X109622216Y-74645120D01*
X109816172Y-74584338D01*
X109993944Y-74485797D01*
X110148271Y-74353523D01*
X110272848Y-74192919D01*
X110362587Y-74010545D01*
X110388752Y-73910097D01*
X110412212Y-73820034D01*
X110412212Y-73820031D01*
X110413822Y-73813852D01*
X110424459Y-73610874D01*
X110394065Y-73409903D01*
X110323881Y-73219148D01*
X110270345Y-73132802D01*
X110220137Y-73051824D01*
X110220134Y-73051820D01*
X110216774Y-73046401D01*
X110077119Y-72898720D01*
X109910621Y-72782137D01*
X109747335Y-72711477D01*
X109692761Y-72666066D01*
X109671401Y-72598359D01*
X109690037Y-72529852D01*
X109708281Y-72506745D01*
X131449973Y-50765053D01*
X131512285Y-50731027D01*
X131539068Y-50728148D01*
X138394300Y-50728148D01*
X138462421Y-50748150D01*
X138508914Y-50801806D01*
X138520300Y-50854148D01*
X138520300Y-57968500D01*
X138500298Y-58036621D01*
X138446642Y-58083114D01*
X138394300Y-58094500D01*
X138311269Y-58094500D01*
X138243148Y-58074498D01*
X138196008Y-58017991D01*
X138195935Y-58017749D01*
X138099218Y-57835849D01*
X138025859Y-57745902D01*
X137972906Y-57680975D01*
X137972903Y-57680972D01*
X137969011Y-57676200D01*
X137951786Y-57661950D01*
X137815025Y-57548811D01*
X137815021Y-57548809D01*
X137810275Y-57544882D01*
X137629055Y-57446897D01*
X137432254Y-57385977D01*
X137426129Y-57385333D01*
X137426128Y-57385333D01*
X137233498Y-57365087D01*
X137233496Y-57365087D01*
X137227369Y-57364443D01*
X137140529Y-57372346D01*
X137028342Y-57382555D01*
X137028339Y-57382556D01*
X137022203Y-57383114D01*
X136824572Y-57441280D01*
X136642002Y-57536726D01*
X136637201Y-57540586D01*
X136637198Y-57540588D01*
X136626971Y-57548811D01*
X136481447Y-57665815D01*
X136349024Y-57823630D01*
X136346056Y-57829028D01*
X136346053Y-57829033D01*
X136339315Y-57841290D01*
X136249776Y-58004162D01*
X136187484Y-58200532D01*
X136164520Y-58405262D01*
X136181759Y-58610553D01*
X136238544Y-58808586D01*
X136241359Y-58814063D01*
X136241360Y-58814066D01*
X136262248Y-58854709D01*
X136332712Y-58991818D01*
X136460677Y-59153270D01*
X136617564Y-59286791D01*
X136797398Y-59387297D01*
X136862437Y-59408429D01*
X136921042Y-59448502D01*
X136948680Y-59513898D01*
X136936574Y-59583855D01*
X136888568Y-59636162D01*
X136862646Y-59648027D01*
X136696868Y-59702212D01*
X136687359Y-59706209D01*
X136498463Y-59804542D01*
X136489738Y-59810036D01*
X136319433Y-59937905D01*
X136311726Y-59944748D01*
X136164590Y-60098717D01*
X136158104Y-60106727D01*
X136038098Y-60282649D01*
X136033000Y-60291623D01*
X135943338Y-60484783D01*
X135939775Y-60494470D01*
X135884389Y-60694183D01*
X135885912Y-60702607D01*
X135898292Y-60706000D01*
X137348000Y-60706000D01*
X137416121Y-60726002D01*
X137462614Y-60779658D01*
X137474000Y-60832000D01*
X137474000Y-61088000D01*
X137453998Y-61156121D01*
X137400342Y-61202614D01*
X137348000Y-61214000D01*
X135903225Y-61214000D01*
X135889694Y-61217973D01*
X135888257Y-61227966D01*
X135918565Y-61362446D01*
X135921645Y-61372275D01*
X136001770Y-61569603D01*
X136006413Y-61578794D01*
X136117694Y-61760388D01*
X136123777Y-61768699D01*
X136263213Y-61929667D01*
X136270580Y-61936883D01*
X136434434Y-62072916D01*
X136442881Y-62078831D01*
X136626756Y-62186279D01*
X136636043Y-62190729D01*
X136675484Y-62205790D01*
X136731987Y-62248778D01*
X136756280Y-62315489D01*
X136740650Y-62384743D01*
X136690059Y-62434554D01*
X136630535Y-62449500D01*
X136350252Y-62449500D01*
X136344184Y-62450707D01*
X136303939Y-62458712D01*
X136303938Y-62458712D01*
X136291769Y-62461133D01*
X136225448Y-62505448D01*
X136181133Y-62571769D01*
X136169500Y-62630252D01*
X136169500Y-64369748D01*
X136181133Y-64428231D01*
X136225448Y-64494552D01*
X136291769Y-64538867D01*
X136303938Y-64541288D01*
X136303939Y-64541288D01*
X136344184Y-64549293D01*
X136350252Y-64550500D01*
X136580284Y-64550500D01*
X136648405Y-64570502D01*
X136694898Y-64624158D01*
X136705002Y-64694432D01*
X136675508Y-64759012D01*
X136669379Y-64765595D01*
X135378185Y-66056789D01*
X135370081Y-66064216D01*
X135341206Y-66088445D01*
X135335693Y-66097994D01*
X135322361Y-66121085D01*
X135316455Y-66130356D01*
X135294846Y-66161216D01*
X135291992Y-66171866D01*
X135290515Y-66175034D01*
X135289323Y-66178310D01*
X135283812Y-66187855D01*
X135277862Y-66221599D01*
X135277270Y-66224958D01*
X135274892Y-66235685D01*
X135265136Y-66272093D01*
X135266097Y-66283078D01*
X135266097Y-66283080D01*
X135268420Y-66309628D01*
X135268900Y-66320610D01*
X135268900Y-81366790D01*
X135268420Y-81377772D01*
X135265136Y-81415307D01*
X135271762Y-81440034D01*
X135274891Y-81451710D01*
X135277270Y-81462442D01*
X135283812Y-81499545D01*
X135289323Y-81509090D01*
X135290515Y-81512366D01*
X135291992Y-81515534D01*
X135294846Y-81526184D01*
X135301170Y-81535215D01*
X135316455Y-81557044D01*
X135322361Y-81566315D01*
X135335693Y-81589406D01*
X135341206Y-81598955D01*
X135349651Y-81606041D01*
X135370082Y-81623185D01*
X135378185Y-81630611D01*
X136327822Y-82580248D01*
X136361848Y-82642560D01*
X136356783Y-82713375D01*
X136314236Y-82770211D01*
X136296820Y-82780128D01*
X136291769Y-82781133D01*
X136281452Y-82788026D01*
X136281451Y-82788027D01*
X136279133Y-82789576D01*
X136225448Y-82825448D01*
X136181133Y-82891769D01*
X136169500Y-82950252D01*
X136169500Y-84689748D01*
X136181133Y-84748231D01*
X136225448Y-84814552D01*
X136291769Y-84858867D01*
X136303938Y-84861288D01*
X136303939Y-84861288D01*
X136344184Y-84869293D01*
X136350252Y-84870500D01*
X136580284Y-84870500D01*
X136648405Y-84890502D01*
X136694898Y-84944158D01*
X136705002Y-85014432D01*
X136675508Y-85079012D01*
X136669379Y-85085595D01*
X135378185Y-86376789D01*
X135370081Y-86384216D01*
X135341206Y-86408445D01*
X135335693Y-86417994D01*
X135322361Y-86441085D01*
X135316455Y-86450356D01*
X135294846Y-86481216D01*
X135291992Y-86491866D01*
X135290515Y-86495034D01*
X135289323Y-86498310D01*
X135283812Y-86507855D01*
X135281665Y-86520034D01*
X135277270Y-86544958D01*
X135274892Y-86555685D01*
X135265136Y-86592093D01*
X135266097Y-86603078D01*
X135266097Y-86603080D01*
X135268420Y-86629628D01*
X135268900Y-86640610D01*
X135268900Y-101671790D01*
X135268420Y-101682772D01*
X135265136Y-101720307D01*
X135267990Y-101730956D01*
X135274891Y-101756710D01*
X135277270Y-101767442D01*
X135283812Y-101804545D01*
X135289323Y-101814090D01*
X135290515Y-101817366D01*
X135291992Y-101820534D01*
X135294846Y-101831184D01*
X135316455Y-101862044D01*
X135322361Y-101871315D01*
X135326169Y-101877910D01*
X135341206Y-101903955D01*
X135349651Y-101911041D01*
X135370082Y-101928185D01*
X135378185Y-101935611D01*
X136327822Y-102885248D01*
X136361848Y-102947560D01*
X136356783Y-103018375D01*
X136314236Y-103075211D01*
X136296820Y-103085128D01*
X136291769Y-103086133D01*
X136281452Y-103093026D01*
X136281451Y-103093027D01*
X136240011Y-103120717D01*
X136225448Y-103130448D01*
X136181133Y-103196769D01*
X136169500Y-103255252D01*
X136169500Y-104994748D01*
X136181133Y-105053231D01*
X136225448Y-105119552D01*
X136291769Y-105163867D01*
X136303938Y-105166288D01*
X136303939Y-105166288D01*
X136344184Y-105174293D01*
X136350252Y-105175500D01*
X138089748Y-105175500D01*
X138095816Y-105174293D01*
X138136061Y-105166288D01*
X138136062Y-105166288D01*
X138148231Y-105163867D01*
X138214552Y-105119552D01*
X138258867Y-105053231D01*
X138270500Y-104994748D01*
X138270500Y-103255252D01*
X138258867Y-103196769D01*
X138214552Y-103130448D01*
X138148231Y-103086133D01*
X138136062Y-103083712D01*
X138136061Y-103083712D01*
X138095816Y-103075707D01*
X138089748Y-103074500D01*
X137810107Y-103074500D01*
X137741986Y-103054498D01*
X137695493Y-103000842D01*
X137685389Y-102930568D01*
X137714883Y-102865988D01*
X137754675Y-102835349D01*
X137913090Y-102757742D01*
X137921945Y-102752464D01*
X138095328Y-102628792D01*
X138103200Y-102622139D01*
X138254052Y-102471812D01*
X138260730Y-102463965D01*
X138385003Y-102291020D01*
X138390313Y-102282183D01*
X138484670Y-102091267D01*
X138488469Y-102081672D01*
X138550377Y-101877910D01*
X138552555Y-101867837D01*
X138553986Y-101856962D01*
X138551775Y-101842778D01*
X138538617Y-101839000D01*
X137092000Y-101839000D01*
X137023879Y-101818998D01*
X136977386Y-101765342D01*
X136966000Y-101713000D01*
X136966000Y-101457000D01*
X136986002Y-101388879D01*
X137039658Y-101342386D01*
X137092000Y-101331000D01*
X138538344Y-101331000D01*
X138551875Y-101327027D01*
X138553180Y-101317947D01*
X138511214Y-101150875D01*
X138507894Y-101141124D01*
X138422972Y-100945814D01*
X138418105Y-100936739D01*
X138302426Y-100757926D01*
X138296136Y-100749757D01*
X138152806Y-100592240D01*
X138145273Y-100585215D01*
X137978139Y-100453222D01*
X137969552Y-100447517D01*
X137783117Y-100344599D01*
X137773705Y-100340369D01*
X137582031Y-100272493D01*
X137524495Y-100230899D01*
X137498579Y-100164801D01*
X137512513Y-100095185D01*
X137561872Y-100044154D01*
X137590206Y-100032362D01*
X137595790Y-100030803D01*
X137595799Y-100030800D01*
X137601725Y-100029145D01*
X137607214Y-100026372D01*
X137607220Y-100026370D01*
X137780116Y-99939033D01*
X137785610Y-99936258D01*
X137947951Y-99809424D01*
X138082564Y-99653472D01*
X138103387Y-99616818D01*
X138181276Y-99479707D01*
X138184323Y-99474344D01*
X138249351Y-99278863D01*
X138275171Y-99074474D01*
X138275583Y-99045000D01*
X138255480Y-98839970D01*
X138195935Y-98642749D01*
X138099218Y-98460849D01*
X138025859Y-98370902D01*
X137972906Y-98305975D01*
X137972903Y-98305972D01*
X137969011Y-98301200D01*
X137951786Y-98286950D01*
X137815025Y-98173811D01*
X137815021Y-98173809D01*
X137810275Y-98169882D01*
X137804855Y-98166952D01*
X137804850Y-98166948D01*
X137679793Y-98099331D01*
X137629384Y-98049337D01*
X137614006Y-97980025D01*
X137638542Y-97913403D01*
X137650626Y-97899400D01*
X139062022Y-96488005D01*
X139070126Y-96480578D01*
X139090549Y-96463441D01*
X139098994Y-96456355D01*
X139117839Y-96423715D01*
X139123743Y-96414447D01*
X139139031Y-96392613D01*
X139145353Y-96383584D01*
X139148206Y-96372938D01*
X139149683Y-96369770D01*
X139150876Y-96366493D01*
X139156388Y-96356945D01*
X139162932Y-96319831D01*
X139165312Y-96309096D01*
X139172210Y-96283354D01*
X139175063Y-96272707D01*
X139171779Y-96235169D01*
X139171300Y-96224188D01*
X139171300Y-80385498D01*
X139171780Y-80374516D01*
X139174102Y-80347980D01*
X139174102Y-80347978D01*
X139175063Y-80336993D01*
X139170889Y-80321414D01*
X139165312Y-80300604D01*
X139162932Y-80289869D01*
X139159324Y-80269405D01*
X139156388Y-80252755D01*
X139150876Y-80243207D01*
X139149683Y-80239930D01*
X139148206Y-80236762D01*
X139145353Y-80226116D01*
X139123742Y-80195252D01*
X139117838Y-80185984D01*
X139104504Y-80162889D01*
X139098994Y-80153345D01*
X139070130Y-80129125D01*
X139062027Y-80121700D01*
X138644617Y-79704290D01*
X138220715Y-79280389D01*
X138186690Y-79218076D01*
X138190252Y-79151521D01*
X138241956Y-78996093D01*
X138249351Y-78973863D01*
X138275171Y-78769474D01*
X138275583Y-78740000D01*
X138255480Y-78534970D01*
X138195935Y-78337749D01*
X138099218Y-78155849D01*
X138006630Y-78042325D01*
X137972906Y-78000975D01*
X137972903Y-78000972D01*
X137969011Y-77996200D01*
X137956458Y-77985815D01*
X137815025Y-77868811D01*
X137815021Y-77868809D01*
X137810275Y-77864882D01*
X137804855Y-77861952D01*
X137804850Y-77861948D01*
X137679793Y-77794331D01*
X137629384Y-77744337D01*
X137614006Y-77675025D01*
X137638542Y-77608403D01*
X137650626Y-77594400D01*
X138347352Y-76897675D01*
X139062022Y-76183005D01*
X139070126Y-76175578D01*
X139090549Y-76158441D01*
X139098994Y-76151355D01*
X139117839Y-76118715D01*
X139123743Y-76109447D01*
X139139031Y-76087613D01*
X139145353Y-76078584D01*
X139148206Y-76067938D01*
X139149683Y-76064770D01*
X139150876Y-76061493D01*
X139156388Y-76051945D01*
X139162932Y-76014831D01*
X139165312Y-76004096D01*
X139172210Y-75978354D01*
X139175063Y-75967707D01*
X139174059Y-75956220D01*
X139171779Y-75930169D01*
X139171300Y-75919188D01*
X139171300Y-50854148D01*
X139191302Y-50786027D01*
X139244958Y-50739534D01*
X139297300Y-50728148D01*
X148427558Y-50728148D01*
X148495679Y-50748150D01*
X148542172Y-50801806D01*
X148553558Y-50854148D01*
X148553558Y-121722148D01*
X148533556Y-121790269D01*
X148479900Y-121836762D01*
X148427558Y-121848148D01*
X125753368Y-121848148D01*
X125685247Y-121828146D01*
X125638754Y-121774490D01*
X125628650Y-121704216D01*
X125658144Y-121639636D01*
X125664273Y-121633053D01*
X127025218Y-120272108D01*
X127087530Y-120238082D01*
X127158345Y-120243147D01*
X127215181Y-120285694D01*
X127225123Y-120303151D01*
X127226133Y-120308231D01*
X127270448Y-120374552D01*
X127336769Y-120418867D01*
X127348938Y-120421288D01*
X127348939Y-120421288D01*
X127389184Y-120429293D01*
X127395252Y-120430500D01*
X129134748Y-120430500D01*
X129140816Y-120429293D01*
X129181061Y-120421288D01*
X129181062Y-120421288D01*
X129193231Y-120418867D01*
X129259552Y-120374552D01*
X129303867Y-120308231D01*
X129310670Y-120274033D01*
X129314293Y-120255816D01*
X129315500Y-120249748D01*
X129315500Y-118510252D01*
X129303867Y-118451769D01*
X129259552Y-118385448D01*
X129193231Y-118341133D01*
X129181062Y-118338712D01*
X129181061Y-118338712D01*
X129140816Y-118330707D01*
X129134748Y-118329500D01*
X127395252Y-118329500D01*
X127389184Y-118330707D01*
X127348939Y-118338712D01*
X127348938Y-118338712D01*
X127336769Y-118341133D01*
X127270448Y-118385448D01*
X127226133Y-118451769D01*
X127214500Y-118510252D01*
X127214500Y-118928500D01*
X127194498Y-118996621D01*
X127140842Y-119043114D01*
X127088500Y-119054500D01*
X127032306Y-119054500D01*
X127015486Y-119060622D01*
X126994276Y-119066305D01*
X126976655Y-119069412D01*
X126961156Y-119078360D01*
X126941257Y-119087639D01*
X126924440Y-119093760D01*
X126915994Y-119100847D01*
X126906450Y-119106357D01*
X126905013Y-119103868D01*
X126855396Y-119125581D01*
X126785292Y-119114361D01*
X126732382Y-119067021D01*
X126718828Y-119037013D01*
X126713143Y-119018185D01*
X126700935Y-118977749D01*
X126604218Y-118795849D01*
X126528206Y-118702649D01*
X126477906Y-118640975D01*
X126477903Y-118640972D01*
X126474011Y-118636200D01*
X126456786Y-118621950D01*
X126320025Y-118508811D01*
X126320021Y-118508809D01*
X126315275Y-118504882D01*
X126134055Y-118406897D01*
X125937254Y-118345977D01*
X125931129Y-118345333D01*
X125931128Y-118345333D01*
X125738498Y-118325087D01*
X125738496Y-118325087D01*
X125732369Y-118324443D01*
X125645529Y-118332346D01*
X125533342Y-118342555D01*
X125533339Y-118342556D01*
X125527203Y-118343114D01*
X125329572Y-118401280D01*
X125147002Y-118496726D01*
X125142201Y-118500586D01*
X125142198Y-118500588D01*
X125109688Y-118526727D01*
X124986447Y-118625815D01*
X124854024Y-118783630D01*
X124851056Y-118789028D01*
X124851053Y-118789033D01*
X124795834Y-118889477D01*
X124754776Y-118964162D01*
X124752914Y-118970031D01*
X124750485Y-118975699D01*
X124748458Y-118974830D01*
X124714342Y-119025481D01*
X124649140Y-119053575D01*
X124633901Y-119054500D01*
X124492306Y-119054500D01*
X124475486Y-119060622D01*
X124454276Y-119066305D01*
X124436655Y-119069412D01*
X124421156Y-119078360D01*
X124401257Y-119087639D01*
X124384440Y-119093760D01*
X124375994Y-119100847D01*
X124366450Y-119106357D01*
X124365013Y-119103868D01*
X124315396Y-119125581D01*
X124245292Y-119114361D01*
X124192382Y-119067021D01*
X124178828Y-119037013D01*
X124173143Y-119018185D01*
X124160935Y-118977749D01*
X124064218Y-118795849D01*
X123988206Y-118702649D01*
X123937906Y-118640975D01*
X123937903Y-118640972D01*
X123934011Y-118636200D01*
X123916786Y-118621950D01*
X123780025Y-118508811D01*
X123780021Y-118508809D01*
X123775275Y-118504882D01*
X123594055Y-118406897D01*
X123397254Y-118345977D01*
X123391129Y-118345333D01*
X123391128Y-118345333D01*
X123198498Y-118325087D01*
X123198496Y-118325087D01*
X123192369Y-118324443D01*
X123105529Y-118332346D01*
X122993342Y-118342555D01*
X122993339Y-118342556D01*
X122987203Y-118343114D01*
X122789572Y-118401280D01*
X122607002Y-118496726D01*
X122602201Y-118500586D01*
X122602198Y-118500588D01*
X122569688Y-118526727D01*
X122446447Y-118625815D01*
X122314024Y-118783630D01*
X122311056Y-118789028D01*
X122311053Y-118789033D01*
X122255834Y-118889477D01*
X122214776Y-118964162D01*
X122212914Y-118970031D01*
X122210485Y-118975699D01*
X122208458Y-118974830D01*
X122174342Y-119025481D01*
X122109140Y-119053575D01*
X122093901Y-119054500D01*
X121952306Y-119054500D01*
X121935486Y-119060622D01*
X121914276Y-119066305D01*
X121896655Y-119069412D01*
X121881156Y-119078360D01*
X121861257Y-119087639D01*
X121844440Y-119093760D01*
X121835994Y-119100847D01*
X121826450Y-119106357D01*
X121825013Y-119103868D01*
X121775396Y-119125581D01*
X121705292Y-119114361D01*
X121652382Y-119067021D01*
X121638828Y-119037013D01*
X121633143Y-119018185D01*
X121620935Y-118977749D01*
X121524218Y-118795849D01*
X121448206Y-118702649D01*
X121397906Y-118640975D01*
X121397903Y-118640972D01*
X121394011Y-118636200D01*
X121376786Y-118621950D01*
X121240025Y-118508811D01*
X121240021Y-118508809D01*
X121235275Y-118504882D01*
X121054055Y-118406897D01*
X121048167Y-118405074D01*
X121047676Y-118404868D01*
X120992628Y-118360033D01*
X120970500Y-118288712D01*
X120970500Y-118224413D01*
X120970979Y-118213432D01*
X120973303Y-118186870D01*
X120973303Y-118186868D01*
X120974263Y-118175893D01*
X120964508Y-118139483D01*
X120962133Y-118128772D01*
X120957501Y-118102506D01*
X120955588Y-118091655D01*
X120950078Y-118082111D01*
X120948886Y-118078835D01*
X120947407Y-118075664D01*
X120944554Y-118065016D01*
X120922940Y-118034148D01*
X120917036Y-118024879D01*
X120903707Y-118001792D01*
X120903704Y-118001788D01*
X120898194Y-117992245D01*
X120869324Y-117968020D01*
X120861221Y-117960594D01*
X119742405Y-116841779D01*
X119708380Y-116779467D01*
X119705500Y-116752684D01*
X119705500Y-92530062D01*
X119725502Y-92461941D01*
X119774690Y-92417596D01*
X119940113Y-92334035D01*
X119940116Y-92334033D01*
X119945610Y-92331258D01*
X119961345Y-92318965D01*
X120103101Y-92208213D01*
X120107951Y-92204424D01*
X120165992Y-92137183D01*
X120238540Y-92053134D01*
X120238540Y-92053133D01*
X120242564Y-92048472D01*
X120263387Y-92011818D01*
X120318454Y-91914881D01*
X120344323Y-91869344D01*
X120374324Y-91779158D01*
X120414805Y-91720834D01*
X120480393Y-91693654D01*
X120550264Y-91706249D01*
X120562074Y-91714004D01*
X120570997Y-91719156D01*
X120579439Y-91726240D01*
X120589792Y-91730008D01*
X120589797Y-91730011D01*
X120596260Y-91732363D01*
X120616162Y-91741643D01*
X120631655Y-91750588D01*
X120642509Y-91752502D01*
X120642515Y-91752504D01*
X120649276Y-91753696D01*
X120670484Y-91759378D01*
X120676008Y-91761388D01*
X120687306Y-91765500D01*
X120829211Y-91765500D01*
X120897332Y-91785502D01*
X120941278Y-91833906D01*
X121017903Y-91983002D01*
X121032712Y-92011818D01*
X121160677Y-92173270D01*
X121165370Y-92177264D01*
X121165371Y-92177265D01*
X121239541Y-92240388D01*
X121317564Y-92306791D01*
X121322942Y-92309797D01*
X121322944Y-92309798D01*
X121341911Y-92320398D01*
X121497398Y-92407297D01*
X121581280Y-92434552D01*
X121687471Y-92469056D01*
X121687475Y-92469057D01*
X121693329Y-92470959D01*
X121897894Y-92495351D01*
X121904029Y-92494879D01*
X121904031Y-92494879D01*
X121976625Y-92489293D01*
X122103300Y-92479546D01*
X122109230Y-92477890D01*
X122109232Y-92477890D01*
X122243459Y-92440413D01*
X122301725Y-92424145D01*
X122307214Y-92421372D01*
X122307220Y-92421370D01*
X122480116Y-92334033D01*
X122485610Y-92331258D01*
X122501345Y-92318965D01*
X122643101Y-92208213D01*
X122647951Y-92204424D01*
X122705992Y-92137183D01*
X122778540Y-92053134D01*
X122778540Y-92053133D01*
X122782564Y-92048472D01*
X122803387Y-92011818D01*
X122858454Y-91914881D01*
X122884323Y-91869344D01*
X122949351Y-91673863D01*
X122975171Y-91469474D01*
X122975583Y-91440000D01*
X122955480Y-91234970D01*
X122895935Y-91037749D01*
X122799218Y-90855849D01*
X122702429Y-90737174D01*
X122672906Y-90700975D01*
X122672903Y-90700972D01*
X122669011Y-90696200D01*
X122656458Y-90685815D01*
X122515025Y-90568811D01*
X122515021Y-90568809D01*
X122510275Y-90564882D01*
X122329055Y-90466897D01*
X122132254Y-90405977D01*
X122126129Y-90405333D01*
X122126128Y-90405333D01*
X121933498Y-90385087D01*
X121933496Y-90385087D01*
X121927369Y-90384443D01*
X121840529Y-90392346D01*
X121728342Y-90402555D01*
X121728339Y-90402556D01*
X121722203Y-90403114D01*
X121524572Y-90461280D01*
X121342002Y-90556726D01*
X121337201Y-90560586D01*
X121337198Y-90560588D01*
X121194826Y-90675058D01*
X121181447Y-90685815D01*
X121104072Y-90778027D01*
X121044962Y-90817353D01*
X120973975Y-90818479D01*
X120918456Y-90786130D01*
X113736111Y-83603785D01*
X113728684Y-83595681D01*
X113711541Y-83575251D01*
X113711542Y-83575251D01*
X113704455Y-83566806D01*
X113694906Y-83561293D01*
X113671815Y-83547961D01*
X113662544Y-83542055D01*
X113640715Y-83526770D01*
X113631684Y-83520446D01*
X113621034Y-83517592D01*
X113617866Y-83516115D01*
X113614590Y-83514923D01*
X113605045Y-83509412D01*
X113571301Y-83503462D01*
X113567942Y-83502870D01*
X113557215Y-83500492D01*
X113520807Y-83490736D01*
X113509822Y-83491697D01*
X113509820Y-83491697D01*
X113483272Y-83494020D01*
X113472290Y-83494500D01*
X110454221Y-83494500D01*
X110386100Y-83474498D01*
X110339607Y-83420842D01*
X110335971Y-83412008D01*
X110323881Y-83379148D01*
X110270345Y-83292802D01*
X110220137Y-83211824D01*
X110220134Y-83211820D01*
X110216774Y-83206401D01*
X110077119Y-83058720D01*
X109930446Y-82956019D01*
X109915851Y-82945799D01*
X109915850Y-82945799D01*
X109910621Y-82942137D01*
X109724081Y-82861414D01*
X109678053Y-82851798D01*
X109529856Y-82820838D01*
X109529851Y-82820837D01*
X109525120Y-82819849D01*
X109520238Y-82819593D01*
X109520129Y-82819587D01*
X109520113Y-82819587D01*
X109518461Y-82819500D01*
X108969200Y-82819500D01*
X108933906Y-82823085D01*
X108824132Y-82834235D01*
X108824130Y-82834235D01*
X108817784Y-82834880D01*
X108623828Y-82895662D01*
X108446056Y-82994203D01*
X108291729Y-83126477D01*
X108167152Y-83287081D01*
X108077413Y-83469455D01*
X108075804Y-83475633D01*
X108075803Y-83475635D01*
X108043438Y-83599888D01*
X108026178Y-83666148D01*
X108025844Y-83672527D01*
X108016360Y-83853501D01*
X108015541Y-83869126D01*
X108045935Y-84070097D01*
X108116119Y-84260852D01*
X108119479Y-84266272D01*
X108119480Y-84266273D01*
X108219863Y-84428176D01*
X108219866Y-84428180D01*
X108223226Y-84433599D01*
X108227612Y-84438237D01*
X108322345Y-84538414D01*
X108362881Y-84581280D01*
X108455021Y-84645797D01*
X108517790Y-84689748D01*
X108529379Y-84697863D01*
X108715919Y-84778586D01*
X108761947Y-84788202D01*
X108910144Y-84819162D01*
X108910149Y-84819163D01*
X108914880Y-84820151D01*
X108919762Y-84820407D01*
X108919871Y-84820413D01*
X108919887Y-84820413D01*
X108921539Y-84820500D01*
X109470800Y-84820500D01*
X109545504Y-84812912D01*
X109615868Y-84805765D01*
X109615870Y-84805765D01*
X109622216Y-84805120D01*
X109816172Y-84744338D01*
X109993944Y-84645797D01*
X110006908Y-84634686D01*
X110074632Y-84576639D01*
X110148271Y-84513523D01*
X110272848Y-84352919D01*
X110277048Y-84344385D01*
X110340284Y-84215871D01*
X110388307Y-84163580D01*
X110453339Y-84145500D01*
X113304984Y-84145500D01*
X113373105Y-84165502D01*
X113394079Y-84182405D01*
X119388506Y-90176832D01*
X119422532Y-90239144D01*
X119417467Y-90309959D01*
X119374920Y-90366795D01*
X119310831Y-90391408D01*
X119270081Y-90395117D01*
X119182203Y-90403114D01*
X118984572Y-90461280D01*
X118802002Y-90556726D01*
X118797201Y-90560586D01*
X118797198Y-90560588D01*
X118654826Y-90675058D01*
X118641447Y-90685815D01*
X118564072Y-90778027D01*
X118504962Y-90817353D01*
X118433975Y-90818479D01*
X118378456Y-90786130D01*
X115006111Y-87413785D01*
X114998684Y-87405681D01*
X114981541Y-87385251D01*
X114981542Y-87385251D01*
X114974455Y-87376806D01*
X114964906Y-87371293D01*
X114941815Y-87357961D01*
X114932544Y-87352055D01*
X114910715Y-87336770D01*
X114901684Y-87330446D01*
X114891034Y-87327592D01*
X114887866Y-87326115D01*
X114884590Y-87324923D01*
X114875045Y-87319412D01*
X114841301Y-87313462D01*
X114837942Y-87312870D01*
X114827215Y-87310492D01*
X114790807Y-87300736D01*
X114779822Y-87301697D01*
X114779820Y-87301697D01*
X114753272Y-87304020D01*
X114742290Y-87304500D01*
X110196073Y-87304500D01*
X110127952Y-87284498D01*
X110081459Y-87230842D01*
X110071355Y-87160568D01*
X110100849Y-87095988D01*
X110114072Y-87082835D01*
X110148271Y-87053523D01*
X110272848Y-86892919D01*
X110362587Y-86710545D01*
X110380804Y-86640610D01*
X110412212Y-86520034D01*
X110412212Y-86520031D01*
X110413822Y-86513852D01*
X110424459Y-86310874D01*
X110394065Y-86109903D01*
X110323881Y-85919148D01*
X110270345Y-85832802D01*
X110220137Y-85751824D01*
X110220134Y-85751820D01*
X110216774Y-85746401D01*
X110077119Y-85598720D01*
X109910621Y-85482137D01*
X109724081Y-85401414D01*
X109678053Y-85391798D01*
X109529856Y-85360838D01*
X109529851Y-85360837D01*
X109525120Y-85359849D01*
X109520238Y-85359593D01*
X109520129Y-85359587D01*
X109520113Y-85359587D01*
X109518461Y-85359500D01*
X108969200Y-85359500D01*
X108933906Y-85363085D01*
X108824132Y-85374235D01*
X108824130Y-85374235D01*
X108817784Y-85374880D01*
X108623828Y-85435662D01*
X108446056Y-85534203D01*
X108291729Y-85666477D01*
X108167152Y-85827081D01*
X108077413Y-86009455D01*
X108075804Y-86015633D01*
X108075803Y-86015635D01*
X108049603Y-86116220D01*
X108026178Y-86206148D01*
X108025844Y-86212527D01*
X108016360Y-86393501D01*
X108015541Y-86409126D01*
X108045935Y-86610097D01*
X108116119Y-86800852D01*
X108119479Y-86806272D01*
X108119480Y-86806273D01*
X108219863Y-86968176D01*
X108219866Y-86968180D01*
X108223226Y-86973599D01*
X108227612Y-86978237D01*
X108335123Y-87091927D01*
X108367395Y-87155165D01*
X108360355Y-87225812D01*
X108316238Y-87281437D01*
X108243575Y-87304500D01*
X100517016Y-87304500D01*
X100448895Y-87284498D01*
X100427921Y-87267595D01*
X94489452Y-81329126D01*
X108015541Y-81329126D01*
X108045935Y-81530097D01*
X108116119Y-81720852D01*
X108119479Y-81726272D01*
X108119480Y-81726273D01*
X108219863Y-81888176D01*
X108219866Y-81888180D01*
X108223226Y-81893599D01*
X108362881Y-82041280D01*
X108529379Y-82157863D01*
X108715919Y-82238586D01*
X108761947Y-82248202D01*
X108910144Y-82279162D01*
X108910149Y-82279163D01*
X108914880Y-82280151D01*
X108919762Y-82280407D01*
X108919871Y-82280413D01*
X108919887Y-82280413D01*
X108921539Y-82280500D01*
X109470800Y-82280500D01*
X109545504Y-82272912D01*
X109615868Y-82265765D01*
X109615870Y-82265765D01*
X109622216Y-82265120D01*
X109816172Y-82204338D01*
X109993944Y-82105797D01*
X110006908Y-82094686D01*
X110074632Y-82036639D01*
X110148271Y-81973523D01*
X110272848Y-81812919D01*
X110321098Y-81714863D01*
X110340284Y-81675871D01*
X110388307Y-81623580D01*
X110453339Y-81605500D01*
X115844984Y-81605500D01*
X115913105Y-81625502D01*
X115934079Y-81642405D01*
X124468506Y-90176832D01*
X124502532Y-90239144D01*
X124497467Y-90309959D01*
X124454920Y-90366795D01*
X124390831Y-90391408D01*
X124350081Y-90395117D01*
X124262203Y-90403114D01*
X124064572Y-90461280D01*
X123882002Y-90556726D01*
X123877201Y-90560586D01*
X123877198Y-90560588D01*
X123734826Y-90675058D01*
X123721447Y-90685815D01*
X123589024Y-90843630D01*
X123586056Y-90849028D01*
X123586053Y-90849033D01*
X123500235Y-91005137D01*
X123489776Y-91024162D01*
X123427484Y-91220532D01*
X123426798Y-91226649D01*
X123426797Y-91226653D01*
X123423095Y-91259658D01*
X123404520Y-91425262D01*
X123421759Y-91630553D01*
X123423458Y-91636478D01*
X123469059Y-91795507D01*
X123478544Y-91828586D01*
X123481359Y-91834063D01*
X123481360Y-91834066D01*
X123569897Y-92006341D01*
X123572712Y-92011818D01*
X123700677Y-92173270D01*
X123705370Y-92177264D01*
X123705371Y-92177265D01*
X123779541Y-92240388D01*
X123857564Y-92306791D01*
X123862942Y-92309797D01*
X123862944Y-92309798D01*
X123881911Y-92320398D01*
X124037398Y-92407297D01*
X124121280Y-92434552D01*
X124227471Y-92469056D01*
X124227475Y-92469057D01*
X124233329Y-92470959D01*
X124437894Y-92495351D01*
X124444029Y-92494879D01*
X124444031Y-92494879D01*
X124516625Y-92489293D01*
X124643300Y-92479546D01*
X124649230Y-92477890D01*
X124649232Y-92477890D01*
X124783459Y-92440413D01*
X124841725Y-92424145D01*
X124847214Y-92421372D01*
X124847220Y-92421370D01*
X125020116Y-92334033D01*
X125025610Y-92331258D01*
X125041345Y-92318965D01*
X125183101Y-92208213D01*
X125187951Y-92204424D01*
X125245992Y-92137183D01*
X125318540Y-92053134D01*
X125318540Y-92053133D01*
X125322564Y-92048472D01*
X125343387Y-92011818D01*
X125398454Y-91914881D01*
X125424323Y-91869344D01*
X125454324Y-91779158D01*
X125494805Y-91720834D01*
X125560393Y-91693654D01*
X125630264Y-91706249D01*
X125642074Y-91714004D01*
X125650997Y-91719156D01*
X125659439Y-91726240D01*
X125669792Y-91730008D01*
X125669797Y-91730011D01*
X125676260Y-91732363D01*
X125696162Y-91741643D01*
X125711655Y-91750588D01*
X125722509Y-91752502D01*
X125722515Y-91752504D01*
X125729276Y-91753696D01*
X125750484Y-91759378D01*
X125756008Y-91761388D01*
X125767306Y-91765500D01*
X125823500Y-91765500D01*
X125891621Y-91785502D01*
X125938114Y-91839158D01*
X125949500Y-91891500D01*
X125949500Y-92309748D01*
X125950707Y-92315816D01*
X125954331Y-92334033D01*
X125961133Y-92368231D01*
X126005448Y-92434552D01*
X126071769Y-92478867D01*
X126083938Y-92481288D01*
X126083939Y-92481288D01*
X126124184Y-92489293D01*
X126130252Y-92490500D01*
X127869748Y-92490500D01*
X127875816Y-92489293D01*
X127916061Y-92481288D01*
X127916062Y-92481288D01*
X127928231Y-92478867D01*
X127994552Y-92434552D01*
X128038867Y-92368231D01*
X128045670Y-92334033D01*
X128049293Y-92315816D01*
X128050500Y-92309748D01*
X128050500Y-90570252D01*
X128038867Y-90511769D01*
X127994552Y-90445448D01*
X127928231Y-90401133D01*
X127916062Y-90398712D01*
X127916061Y-90398712D01*
X127875816Y-90390707D01*
X127869748Y-90389500D01*
X126130252Y-90389500D01*
X126124184Y-90390707D01*
X126083939Y-90398712D01*
X126083938Y-90398712D01*
X126071769Y-90401133D01*
X126005448Y-90445448D01*
X125961133Y-90511769D01*
X125960884Y-90513020D01*
X125921171Y-90562298D01*
X125853807Y-90584717D01*
X125785016Y-90567157D01*
X125760218Y-90547892D01*
X116276111Y-81063785D01*
X116268684Y-81055681D01*
X116251541Y-81035251D01*
X116251542Y-81035251D01*
X116244455Y-81026806D01*
X116234906Y-81021293D01*
X116211815Y-81007961D01*
X116202544Y-81002055D01*
X116180715Y-80986770D01*
X116171684Y-80980446D01*
X116161034Y-80977592D01*
X116157866Y-80976115D01*
X116154590Y-80974923D01*
X116145045Y-80969412D01*
X116111301Y-80963462D01*
X116107942Y-80962870D01*
X116097215Y-80960492D01*
X116060807Y-80950736D01*
X116049822Y-80951697D01*
X116049820Y-80951697D01*
X116023272Y-80954020D01*
X116012290Y-80954500D01*
X110454221Y-80954500D01*
X110386100Y-80934498D01*
X110339607Y-80880842D01*
X110335971Y-80872008D01*
X110323881Y-80839148D01*
X110270345Y-80752802D01*
X110220137Y-80671824D01*
X110220134Y-80671820D01*
X110216774Y-80666401D01*
X110077119Y-80518720D01*
X109910621Y-80402137D01*
X109724081Y-80321414D01*
X109678053Y-80311798D01*
X109529856Y-80280838D01*
X109529851Y-80280837D01*
X109525120Y-80279849D01*
X109520238Y-80279593D01*
X109520129Y-80279587D01*
X109520113Y-80279587D01*
X109518461Y-80279500D01*
X108969200Y-80279500D01*
X108921207Y-80284375D01*
X108824132Y-80294235D01*
X108824130Y-80294235D01*
X108817784Y-80294880D01*
X108623828Y-80355662D01*
X108446056Y-80454203D01*
X108291729Y-80586477D01*
X108167152Y-80747081D01*
X108077413Y-80929455D01*
X108075804Y-80935633D01*
X108075803Y-80935635D01*
X108043438Y-81059888D01*
X108026178Y-81126148D01*
X108015541Y-81329126D01*
X94489452Y-81329126D01*
X91949452Y-78789126D01*
X108015541Y-78789126D01*
X108045935Y-78990097D01*
X108116119Y-79180852D01*
X108119479Y-79186272D01*
X108119480Y-79186273D01*
X108219863Y-79348176D01*
X108219866Y-79348180D01*
X108223226Y-79353599D01*
X108227612Y-79358237D01*
X108329653Y-79466142D01*
X108362881Y-79501280D01*
X108455021Y-79565797D01*
X108513567Y-79606791D01*
X108529379Y-79617863D01*
X108715919Y-79698586D01*
X108743223Y-79704290D01*
X108910144Y-79739162D01*
X108910149Y-79739163D01*
X108914880Y-79740151D01*
X108919762Y-79740407D01*
X108919871Y-79740413D01*
X108919887Y-79740413D01*
X108921539Y-79740500D01*
X109470800Y-79740500D01*
X109518793Y-79735625D01*
X109615868Y-79725765D01*
X109615870Y-79725765D01*
X109622216Y-79725120D01*
X109816172Y-79664338D01*
X109993944Y-79565797D01*
X110148271Y-79433523D01*
X110272848Y-79272919D01*
X110362587Y-79090545D01*
X110388752Y-78990097D01*
X110412212Y-78900034D01*
X110412212Y-78900031D01*
X110413822Y-78893852D01*
X110419645Y-78782744D01*
X110424125Y-78697256D01*
X110424125Y-78697252D01*
X110424459Y-78690874D01*
X110394065Y-78489903D01*
X110323881Y-78299148D01*
X110270345Y-78212802D01*
X110220137Y-78131824D01*
X110220134Y-78131820D01*
X110216774Y-78126401D01*
X110089934Y-77992271D01*
X110081508Y-77983361D01*
X110081507Y-77983360D01*
X110077119Y-77978720D01*
X109930446Y-77876019D01*
X109915851Y-77865799D01*
X109915850Y-77865799D01*
X109910621Y-77862137D01*
X109724081Y-77781414D01*
X109627705Y-77761280D01*
X109529856Y-77740838D01*
X109529851Y-77740837D01*
X109525120Y-77739849D01*
X109520238Y-77739593D01*
X109520129Y-77739587D01*
X109520113Y-77739587D01*
X109518461Y-77739500D01*
X108969200Y-77739500D01*
X108921580Y-77744337D01*
X108824132Y-77754235D01*
X108824130Y-77754235D01*
X108817784Y-77754880D01*
X108623828Y-77815662D01*
X108446056Y-77914203D01*
X108291729Y-78046477D01*
X108167152Y-78207081D01*
X108077413Y-78389455D01*
X108075804Y-78395633D01*
X108075803Y-78395635D01*
X108044800Y-78514659D01*
X108026178Y-78586148D01*
X108025844Y-78592527D01*
X108016571Y-78769474D01*
X108015541Y-78789126D01*
X91949452Y-78789126D01*
X89409452Y-76249126D01*
X108015541Y-76249126D01*
X108045935Y-76450097D01*
X108116119Y-76640852D01*
X108119479Y-76646272D01*
X108119480Y-76646273D01*
X108219863Y-76808176D01*
X108219866Y-76808180D01*
X108223226Y-76813599D01*
X108227612Y-76818237D01*
X108268058Y-76861007D01*
X108362881Y-76961280D01*
X108529379Y-77077863D01*
X108715919Y-77158586D01*
X108761947Y-77168202D01*
X108910144Y-77199162D01*
X108910149Y-77199163D01*
X108914880Y-77200151D01*
X108919762Y-77200407D01*
X108919871Y-77200413D01*
X108919887Y-77200413D01*
X108921539Y-77200500D01*
X109470800Y-77200500D01*
X109518793Y-77195625D01*
X109615868Y-77185765D01*
X109615870Y-77185765D01*
X109622216Y-77185120D01*
X109816172Y-77124338D01*
X109993944Y-77025797D01*
X110148271Y-76893523D01*
X110272848Y-76732919D01*
X110362587Y-76550545D01*
X110383178Y-76471497D01*
X110412212Y-76360034D01*
X110412212Y-76360031D01*
X110413822Y-76353852D01*
X110419645Y-76242744D01*
X110424125Y-76157256D01*
X110424125Y-76157252D01*
X110424459Y-76150874D01*
X110394065Y-75949903D01*
X110323881Y-75759148D01*
X110270345Y-75672802D01*
X110220137Y-75591824D01*
X110220134Y-75591820D01*
X110216774Y-75586401D01*
X110180922Y-75548489D01*
X110081508Y-75443361D01*
X110081507Y-75443360D01*
X110077119Y-75438720D01*
X109910621Y-75322137D01*
X109724081Y-75241414D01*
X109678053Y-75231798D01*
X109529856Y-75200838D01*
X109529851Y-75200837D01*
X109525120Y-75199849D01*
X109520238Y-75199593D01*
X109520129Y-75199587D01*
X109520113Y-75199587D01*
X109518461Y-75199500D01*
X108969200Y-75199500D01*
X108921207Y-75204375D01*
X108824132Y-75214235D01*
X108824130Y-75214235D01*
X108817784Y-75214880D01*
X108623828Y-75275662D01*
X108446056Y-75374203D01*
X108291729Y-75506477D01*
X108167152Y-75667081D01*
X108077413Y-75849455D01*
X108075804Y-75855633D01*
X108075803Y-75855635D01*
X108034336Y-76014831D01*
X108026178Y-76046148D01*
X108015541Y-76249126D01*
X89409452Y-76249126D01*
X87729411Y-74569085D01*
X87721984Y-74560981D01*
X87704841Y-74540551D01*
X87704842Y-74540551D01*
X87697755Y-74532106D01*
X87688206Y-74526593D01*
X87665115Y-74513261D01*
X87655844Y-74507355D01*
X87634015Y-74492070D01*
X87624984Y-74485746D01*
X87614334Y-74482892D01*
X87611166Y-74481415D01*
X87607890Y-74480223D01*
X87598345Y-74474712D01*
X87564601Y-74468762D01*
X87561242Y-74468170D01*
X87550515Y-74465792D01*
X87514107Y-74456036D01*
X87503122Y-74456997D01*
X87503120Y-74456997D01*
X87476572Y-74459320D01*
X87465590Y-74459800D01*
X87463032Y-74459800D01*
X87394911Y-74439798D01*
X87348418Y-74386142D01*
X87338314Y-74315868D01*
X87363473Y-74256574D01*
X87408935Y-74197964D01*
X87408939Y-74197958D01*
X87412848Y-74192919D01*
X87502587Y-74010545D01*
X87528752Y-73910097D01*
X87552212Y-73820034D01*
X87552212Y-73820031D01*
X87553822Y-73813852D01*
X87564459Y-73610874D01*
X87534065Y-73409903D01*
X87463881Y-73219148D01*
X87410345Y-73132802D01*
X87360137Y-73051824D01*
X87360134Y-73051820D01*
X87356774Y-73046401D01*
X87217119Y-72898720D01*
X87050621Y-72782137D01*
X86864081Y-72701414D01*
X86818053Y-72691798D01*
X86669856Y-72660838D01*
X86669851Y-72660837D01*
X86665120Y-72659849D01*
X86660238Y-72659593D01*
X86660129Y-72659587D01*
X86660113Y-72659587D01*
X86658461Y-72659500D01*
X86109200Y-72659500D01*
X86061207Y-72664375D01*
X85964132Y-72674235D01*
X85964130Y-72674235D01*
X85957784Y-72674880D01*
X85763828Y-72735662D01*
X85586056Y-72834203D01*
X85431729Y-72966477D01*
X85307152Y-73127081D01*
X85217413Y-73309455D01*
X85215804Y-73315633D01*
X85215803Y-73315635D01*
X85189603Y-73416220D01*
X85166178Y-73506148D01*
X85155541Y-73709126D01*
X85185935Y-73910097D01*
X85256119Y-74100852D01*
X85259479Y-74106272D01*
X85259480Y-74106273D01*
X85359863Y-74268176D01*
X85359866Y-74268180D01*
X85363226Y-74273599D01*
X85367612Y-74278237D01*
X85469653Y-74386142D01*
X85502881Y-74421280D01*
X85669379Y-74537863D01*
X85855919Y-74618586D01*
X85934267Y-74634954D01*
X85996857Y-74668462D01*
X86031395Y-74730491D01*
X86034500Y-74758290D01*
X86034500Y-74783638D01*
X86014498Y-74851759D01*
X85960842Y-74898252D01*
X85930375Y-74907725D01*
X85926684Y-74908376D01*
X85716239Y-74964764D01*
X85705947Y-74968510D01*
X85508489Y-75060586D01*
X85498993Y-75066069D01*
X85320533Y-75191028D01*
X85312125Y-75198084D01*
X85158084Y-75352125D01*
X85151028Y-75360533D01*
X85026069Y-75538993D01*
X85020586Y-75548489D01*
X84928510Y-75745947D01*
X84924764Y-75756239D01*
X84878606Y-75928503D01*
X84878942Y-75942599D01*
X84886884Y-75946000D01*
X87827967Y-75946000D01*
X87841498Y-75942027D01*
X87843723Y-75926553D01*
X87845179Y-75865347D01*
X87884973Y-75806551D01*
X87950237Y-75778603D01*
X88020250Y-75790376D01*
X88054291Y-75814617D01*
X100085889Y-87846215D01*
X100093316Y-87854319D01*
X100117545Y-87883194D01*
X100127094Y-87888707D01*
X100150185Y-87902039D01*
X100159456Y-87907945D01*
X100190316Y-87929554D01*
X100200966Y-87932408D01*
X100204134Y-87933885D01*
X100207410Y-87935077D01*
X100216955Y-87940588D01*
X100250699Y-87946538D01*
X100254058Y-87947130D01*
X100264785Y-87949508D01*
X100301193Y-87959264D01*
X100312178Y-87958303D01*
X100312180Y-87958303D01*
X100338728Y-87955980D01*
X100349710Y-87955500D01*
X108243927Y-87955500D01*
X108312048Y-87975502D01*
X108358541Y-88029158D01*
X108368645Y-88099432D01*
X108339151Y-88164012D01*
X108325928Y-88177165D01*
X108291729Y-88206477D01*
X108287822Y-88211514D01*
X108287820Y-88211516D01*
X108233331Y-88281763D01*
X108167152Y-88367081D01*
X108077413Y-88549455D01*
X108075804Y-88555633D01*
X108075803Y-88555635D01*
X108049603Y-88656220D01*
X108026178Y-88746148D01*
X108015541Y-88949126D01*
X108045935Y-89150097D01*
X108116119Y-89340852D01*
X108119479Y-89346272D01*
X108119480Y-89346273D01*
X108219863Y-89508176D01*
X108219866Y-89508180D01*
X108223226Y-89513599D01*
X108227612Y-89518237D01*
X108282734Y-89576527D01*
X108315006Y-89639765D01*
X108307966Y-89710412D01*
X108263849Y-89766037D01*
X108191186Y-89789100D01*
X97921616Y-89789100D01*
X97853495Y-89769098D01*
X97832521Y-89752195D01*
X87729411Y-79649085D01*
X87721984Y-79640981D01*
X87704841Y-79620551D01*
X87704842Y-79620551D01*
X87697755Y-79612106D01*
X87681633Y-79602798D01*
X87665115Y-79593261D01*
X87655844Y-79587355D01*
X87634015Y-79572070D01*
X87624984Y-79565746D01*
X87614334Y-79562892D01*
X87611166Y-79561415D01*
X87607890Y-79560223D01*
X87598345Y-79554712D01*
X87564601Y-79548762D01*
X87561242Y-79548170D01*
X87550515Y-79545792D01*
X87514107Y-79536036D01*
X87503122Y-79536997D01*
X87503120Y-79536997D01*
X87476572Y-79539320D01*
X87465590Y-79539800D01*
X87463032Y-79539800D01*
X87394911Y-79519798D01*
X87348418Y-79466142D01*
X87338314Y-79395868D01*
X87363473Y-79336574D01*
X87408935Y-79277964D01*
X87408939Y-79277958D01*
X87412848Y-79272919D01*
X87502587Y-79090545D01*
X87528752Y-78990097D01*
X87552212Y-78900034D01*
X87552212Y-78900031D01*
X87553822Y-78893852D01*
X87559645Y-78782744D01*
X87564125Y-78697256D01*
X87564125Y-78697252D01*
X87564459Y-78690874D01*
X87534065Y-78489903D01*
X87463881Y-78299148D01*
X87410345Y-78212802D01*
X87360137Y-78131824D01*
X87360134Y-78131820D01*
X87356774Y-78126401D01*
X87229934Y-77992271D01*
X87221508Y-77983361D01*
X87221507Y-77983360D01*
X87217119Y-77978720D01*
X87070446Y-77876019D01*
X87055851Y-77865799D01*
X87055850Y-77865799D01*
X87050621Y-77862137D01*
X86864081Y-77781414D01*
X86703969Y-77747965D01*
X86641378Y-77714456D01*
X86606840Y-77652426D01*
X86611320Y-77581571D01*
X86653396Y-77524386D01*
X86718754Y-77499107D01*
X86782520Y-77493528D01*
X86793312Y-77491625D01*
X87003761Y-77435236D01*
X87014053Y-77431490D01*
X87211511Y-77339414D01*
X87221007Y-77333931D01*
X87399467Y-77208972D01*
X87407875Y-77201916D01*
X87561916Y-77047875D01*
X87568972Y-77039467D01*
X87693931Y-76861007D01*
X87699414Y-76851511D01*
X87791490Y-76654053D01*
X87795236Y-76643761D01*
X87841394Y-76471497D01*
X87841058Y-76457401D01*
X87833116Y-76454000D01*
X84892033Y-76454000D01*
X84878502Y-76457973D01*
X84877273Y-76466522D01*
X84924764Y-76643761D01*
X84928510Y-76654053D01*
X85020586Y-76851511D01*
X85026069Y-76861007D01*
X85151028Y-77039467D01*
X85158084Y-77047875D01*
X85312125Y-77201916D01*
X85320533Y-77208972D01*
X85498993Y-77333931D01*
X85508489Y-77339414D01*
X85705947Y-77431490D01*
X85716239Y-77435236D01*
X85926688Y-77491625D01*
X85937480Y-77493528D01*
X86002857Y-77499248D01*
X86068975Y-77525112D01*
X86110614Y-77582615D01*
X86114555Y-77653502D01*
X86079546Y-77715267D01*
X86016701Y-77748299D01*
X86004610Y-77750124D01*
X85989442Y-77751664D01*
X85964132Y-77754235D01*
X85964130Y-77754235D01*
X85957784Y-77754880D01*
X85763828Y-77815662D01*
X85586056Y-77914203D01*
X85431729Y-78046477D01*
X85307152Y-78207081D01*
X85217413Y-78389455D01*
X85215804Y-78395633D01*
X85215803Y-78395635D01*
X85184800Y-78514659D01*
X85166178Y-78586148D01*
X85165844Y-78592527D01*
X85156571Y-78769474D01*
X85155541Y-78789126D01*
X85185935Y-78990097D01*
X85256119Y-79180852D01*
X85259479Y-79186272D01*
X85259480Y-79186273D01*
X85359863Y-79348176D01*
X85359866Y-79348180D01*
X85363226Y-79353599D01*
X85367612Y-79358237D01*
X85469653Y-79466142D01*
X85502881Y-79501280D01*
X85595021Y-79565797D01*
X85653567Y-79606791D01*
X85669379Y-79617863D01*
X85855919Y-79698586D01*
X85934267Y-79714954D01*
X85996857Y-79748462D01*
X86031395Y-79810491D01*
X86034500Y-79838290D01*
X86034500Y-79922694D01*
X86040621Y-79939510D01*
X86046305Y-79960724D01*
X86049412Y-79978345D01*
X86058360Y-79993844D01*
X86067639Y-80013743D01*
X86073760Y-80030560D01*
X86080846Y-80039005D01*
X86080847Y-80039007D01*
X86085265Y-80044272D01*
X86097856Y-80062253D01*
X86106806Y-80077755D01*
X86113034Y-80082981D01*
X86140784Y-80146389D01*
X86129566Y-80216494D01*
X86082228Y-80269405D01*
X86028531Y-80287694D01*
X86009045Y-80289673D01*
X85964132Y-80294235D01*
X85964130Y-80294235D01*
X85957784Y-80294880D01*
X85763828Y-80355662D01*
X85586056Y-80454203D01*
X85431729Y-80586477D01*
X85307152Y-80747081D01*
X85217413Y-80929455D01*
X85215804Y-80935633D01*
X85215803Y-80935635D01*
X85183438Y-81059888D01*
X85166178Y-81126148D01*
X85155541Y-81329126D01*
X85185935Y-81530097D01*
X85256119Y-81720852D01*
X85259479Y-81726272D01*
X85259480Y-81726273D01*
X85359863Y-81888176D01*
X85359866Y-81888180D01*
X85363226Y-81893599D01*
X85502881Y-82041280D01*
X85508107Y-82044939D01*
X85508109Y-82044941D01*
X85527390Y-82058441D01*
X85579156Y-82094688D01*
X85623483Y-82150143D01*
X85630792Y-82220763D01*
X85595979Y-82286995D01*
X83602885Y-84280089D01*
X83594781Y-84287516D01*
X83565906Y-84311745D01*
X83560393Y-84321294D01*
X83547061Y-84344385D01*
X83541155Y-84353656D01*
X83519546Y-84384516D01*
X83516692Y-84395166D01*
X83515215Y-84398334D01*
X83514023Y-84401610D01*
X83508512Y-84411155D01*
X83505511Y-84428176D01*
X83501970Y-84448258D01*
X83499592Y-84458985D01*
X83489836Y-84495393D01*
X83490797Y-84506378D01*
X83490797Y-84506380D01*
X83493120Y-84532928D01*
X83493600Y-84543910D01*
X83493600Y-109294090D01*
X83493120Y-109305072D01*
X83489836Y-109342607D01*
X83492690Y-109353256D01*
X83499591Y-109379010D01*
X83501970Y-109389742D01*
X83508512Y-109426845D01*
X83514023Y-109436390D01*
X83515215Y-109439666D01*
X83516692Y-109442834D01*
X83519546Y-109453484D01*
X83525870Y-109462515D01*
X83541155Y-109484344D01*
X83547061Y-109493615D01*
X83560393Y-109516706D01*
X83565906Y-109526255D01*
X83574351Y-109533341D01*
X83594782Y-109550485D01*
X83602885Y-109557911D01*
X92279757Y-118234784D01*
X92313783Y-118297096D01*
X92308718Y-118367911D01*
X92266171Y-118424747D01*
X92249038Y-118435540D01*
X92194717Y-118463939D01*
X92132002Y-118496726D01*
X92127201Y-118500586D01*
X92127198Y-118500588D01*
X92094688Y-118526727D01*
X91971447Y-118625815D01*
X91839024Y-118783630D01*
X91836056Y-118789028D01*
X91836053Y-118789033D01*
X91780834Y-118889477D01*
X91739776Y-118964162D01*
X91677484Y-119160532D01*
X91676798Y-119166649D01*
X91676797Y-119166653D01*
X91666287Y-119260356D01*
X91654520Y-119365262D01*
X91655036Y-119371406D01*
X91670902Y-119560342D01*
X91671759Y-119570553D01*
X91673458Y-119576478D01*
X91719395Y-119736678D01*
X91728544Y-119768586D01*
X91731359Y-119774063D01*
X91731360Y-119774066D01*
X91819897Y-119946341D01*
X91822712Y-119951818D01*
X91950677Y-120113270D01*
X91955370Y-120117264D01*
X91955371Y-120117265D01*
X92029541Y-120180388D01*
X92107564Y-120246791D01*
X92112942Y-120249797D01*
X92112944Y-120249798D01*
X92129946Y-120259300D01*
X92287398Y-120347297D01*
X92371280Y-120374552D01*
X92477471Y-120409056D01*
X92477475Y-120409057D01*
X92483329Y-120410959D01*
X92687894Y-120435351D01*
X92694029Y-120434879D01*
X92694031Y-120434879D01*
X92766625Y-120429293D01*
X92893300Y-120419546D01*
X92899230Y-120417890D01*
X92899232Y-120417890D01*
X93085797Y-120365800D01*
X93085796Y-120365800D01*
X93091725Y-120364145D01*
X93097214Y-120361372D01*
X93097220Y-120361370D01*
X93229952Y-120294322D01*
X93275610Y-120271258D01*
X93291345Y-120258965D01*
X93433101Y-120148213D01*
X93437951Y-120144424D01*
X93463032Y-120115368D01*
X93568540Y-119993134D01*
X93568540Y-119993133D01*
X93572564Y-119988472D01*
X93593387Y-119951818D01*
X93611056Y-119920714D01*
X93674323Y-119809344D01*
X93739351Y-119613863D01*
X93765171Y-119409474D01*
X93765583Y-119380000D01*
X93764138Y-119365262D01*
X94194520Y-119365262D01*
X94195036Y-119371406D01*
X94210902Y-119560342D01*
X94211759Y-119570553D01*
X94213458Y-119576478D01*
X94259395Y-119736678D01*
X94268544Y-119768586D01*
X94271359Y-119774063D01*
X94271360Y-119774066D01*
X94359897Y-119946341D01*
X94362712Y-119951818D01*
X94490677Y-120113270D01*
X94495370Y-120117264D01*
X94495371Y-120117265D01*
X94569541Y-120180388D01*
X94647564Y-120246791D01*
X94652942Y-120249797D01*
X94652944Y-120249798D01*
X94669946Y-120259300D01*
X94827398Y-120347297D01*
X94911280Y-120374552D01*
X95017471Y-120409056D01*
X95017475Y-120409057D01*
X95023329Y-120410959D01*
X95227894Y-120435351D01*
X95234029Y-120434879D01*
X95234031Y-120434879D01*
X95306625Y-120429293D01*
X95433300Y-120419546D01*
X95439230Y-120417890D01*
X95439232Y-120417890D01*
X95625797Y-120365800D01*
X95625796Y-120365800D01*
X95631725Y-120364145D01*
X95637214Y-120361372D01*
X95637220Y-120361370D01*
X95769952Y-120294322D01*
X95815610Y-120271258D01*
X95831345Y-120258965D01*
X95973101Y-120148213D01*
X95977951Y-120144424D01*
X96003032Y-120115368D01*
X96108540Y-119993134D01*
X96108540Y-119993133D01*
X96112564Y-119988472D01*
X96133387Y-119951818D01*
X96151056Y-119920714D01*
X96214323Y-119809344D01*
X96279351Y-119613863D01*
X96305171Y-119409474D01*
X96305583Y-119380000D01*
X96304138Y-119365262D01*
X96734520Y-119365262D01*
X96735036Y-119371406D01*
X96750902Y-119560342D01*
X96751759Y-119570553D01*
X96753458Y-119576478D01*
X96799395Y-119736678D01*
X96808544Y-119768586D01*
X96811359Y-119774063D01*
X96811360Y-119774066D01*
X96899897Y-119946341D01*
X96902712Y-119951818D01*
X97030677Y-120113270D01*
X97035370Y-120117264D01*
X97035371Y-120117265D01*
X97109541Y-120180388D01*
X97187564Y-120246791D01*
X97192942Y-120249797D01*
X97192944Y-120249798D01*
X97209946Y-120259300D01*
X97367398Y-120347297D01*
X97451280Y-120374552D01*
X97557471Y-120409056D01*
X97557475Y-120409057D01*
X97563329Y-120410959D01*
X97767894Y-120435351D01*
X97774029Y-120434879D01*
X97774031Y-120434879D01*
X97846625Y-120429293D01*
X97973300Y-120419546D01*
X97979230Y-120417890D01*
X97979232Y-120417890D01*
X98165797Y-120365800D01*
X98165796Y-120365800D01*
X98171725Y-120364145D01*
X98177214Y-120361372D01*
X98177220Y-120361370D01*
X98309952Y-120294322D01*
X98355610Y-120271258D01*
X98371345Y-120258965D01*
X98513101Y-120148213D01*
X98517951Y-120144424D01*
X98543032Y-120115368D01*
X98648540Y-119993134D01*
X98648540Y-119993133D01*
X98652564Y-119988472D01*
X98673387Y-119951818D01*
X98691056Y-119920714D01*
X98754323Y-119809344D01*
X98819351Y-119613863D01*
X98845171Y-119409474D01*
X98845583Y-119380000D01*
X98844138Y-119365262D01*
X99274520Y-119365262D01*
X99275036Y-119371406D01*
X99290902Y-119560342D01*
X99291759Y-119570553D01*
X99293458Y-119576478D01*
X99339395Y-119736678D01*
X99348544Y-119768586D01*
X99351359Y-119774063D01*
X99351360Y-119774066D01*
X99439897Y-119946341D01*
X99442712Y-119951818D01*
X99570677Y-120113270D01*
X99575370Y-120117264D01*
X99575371Y-120117265D01*
X99649541Y-120180388D01*
X99727564Y-120246791D01*
X99732942Y-120249797D01*
X99732944Y-120249798D01*
X99749946Y-120259300D01*
X99907398Y-120347297D01*
X99991280Y-120374552D01*
X100097471Y-120409056D01*
X100097475Y-120409057D01*
X100103329Y-120410959D01*
X100307894Y-120435351D01*
X100314029Y-120434879D01*
X100314031Y-120434879D01*
X100386625Y-120429293D01*
X100513300Y-120419546D01*
X100519230Y-120417890D01*
X100519232Y-120417890D01*
X100705797Y-120365800D01*
X100705796Y-120365800D01*
X100711725Y-120364145D01*
X100717214Y-120361372D01*
X100717220Y-120361370D01*
X100849952Y-120294322D01*
X100895610Y-120271258D01*
X100911345Y-120258965D01*
X101053101Y-120148213D01*
X101057951Y-120144424D01*
X101083032Y-120115368D01*
X101188540Y-119993134D01*
X101188540Y-119993133D01*
X101192564Y-119988472D01*
X101213387Y-119951818D01*
X101231056Y-119920714D01*
X101294323Y-119809344D01*
X101359351Y-119613863D01*
X101385171Y-119409474D01*
X101385583Y-119380000D01*
X101384138Y-119365262D01*
X101814520Y-119365262D01*
X101815036Y-119371406D01*
X101830902Y-119560342D01*
X101831759Y-119570553D01*
X101833458Y-119576478D01*
X101879395Y-119736678D01*
X101888544Y-119768586D01*
X101891359Y-119774063D01*
X101891360Y-119774066D01*
X101979897Y-119946341D01*
X101982712Y-119951818D01*
X102110677Y-120113270D01*
X102115370Y-120117264D01*
X102115371Y-120117265D01*
X102189541Y-120180388D01*
X102267564Y-120246791D01*
X102272942Y-120249797D01*
X102272944Y-120249798D01*
X102289946Y-120259300D01*
X102447398Y-120347297D01*
X102531280Y-120374552D01*
X102637471Y-120409056D01*
X102637475Y-120409057D01*
X102643329Y-120410959D01*
X102847894Y-120435351D01*
X102854029Y-120434879D01*
X102854031Y-120434879D01*
X102926625Y-120429293D01*
X103053300Y-120419546D01*
X103059230Y-120417890D01*
X103059232Y-120417890D01*
X103245797Y-120365800D01*
X103245796Y-120365800D01*
X103251725Y-120364145D01*
X103257214Y-120361372D01*
X103257220Y-120361370D01*
X103389952Y-120294322D01*
X103435610Y-120271258D01*
X103451345Y-120258965D01*
X103593101Y-120148213D01*
X103597951Y-120144424D01*
X103623032Y-120115368D01*
X103728540Y-119993134D01*
X103728540Y-119993133D01*
X103732564Y-119988472D01*
X103753387Y-119951818D01*
X103771056Y-119920714D01*
X103834323Y-119809344D01*
X103843271Y-119782444D01*
X103858496Y-119736678D01*
X103898978Y-119678354D01*
X103964566Y-119651175D01*
X104034437Y-119663770D01*
X104086406Y-119712141D01*
X104100971Y-119748751D01*
X104108564Y-119782444D01*
X104111645Y-119792275D01*
X104191770Y-119989603D01*
X104196413Y-119998794D01*
X104307694Y-120180388D01*
X104313777Y-120188699D01*
X104453213Y-120349667D01*
X104460580Y-120356883D01*
X104624434Y-120492916D01*
X104632881Y-120498831D01*
X104816756Y-120606279D01*
X104826042Y-120610729D01*
X105025001Y-120686703D01*
X105034899Y-120689579D01*
X105138250Y-120710606D01*
X105152299Y-120709410D01*
X105156000Y-120699065D01*
X105156000Y-120698517D01*
X105664000Y-120698517D01*
X105668064Y-120712359D01*
X105681478Y-120714393D01*
X105688184Y-120713534D01*
X105698262Y-120711392D01*
X105902255Y-120650191D01*
X105911842Y-120646433D01*
X106103095Y-120552739D01*
X106111945Y-120547464D01*
X106285328Y-120423792D01*
X106293200Y-120417139D01*
X106444052Y-120266812D01*
X106450730Y-120258965D01*
X106575003Y-120086020D01*
X106580313Y-120077183D01*
X106674670Y-119886267D01*
X106678469Y-119876672D01*
X106740377Y-119672910D01*
X106742555Y-119662837D01*
X106743986Y-119651962D01*
X106741775Y-119637778D01*
X106728617Y-119634000D01*
X105682115Y-119634000D01*
X105666876Y-119638475D01*
X105665671Y-119639865D01*
X105664000Y-119647548D01*
X105664000Y-120698517D01*
X105156000Y-120698517D01*
X105156000Y-118063102D01*
X105152082Y-118049758D01*
X105137806Y-118047771D01*
X105099324Y-118053660D01*
X105089288Y-118056051D01*
X104886868Y-118122212D01*
X104877359Y-118126209D01*
X104688463Y-118224542D01*
X104679738Y-118230036D01*
X104509433Y-118357905D01*
X104501726Y-118364748D01*
X104354590Y-118518717D01*
X104348104Y-118526727D01*
X104228098Y-118702649D01*
X104223000Y-118711623D01*
X104133338Y-118904783D01*
X104129775Y-118914470D01*
X104101012Y-119018185D01*
X104063533Y-119078483D01*
X103999405Y-119108946D01*
X103928986Y-119099903D01*
X103874636Y-119054224D01*
X103858973Y-119020933D01*
X103858143Y-119018185D01*
X103845935Y-118977749D01*
X103749218Y-118795849D01*
X103673206Y-118702649D01*
X103622906Y-118640975D01*
X103622903Y-118640972D01*
X103619011Y-118636200D01*
X103601786Y-118621950D01*
X103465025Y-118508811D01*
X103465021Y-118508809D01*
X103460275Y-118504882D01*
X103279055Y-118406897D01*
X103082254Y-118345977D01*
X103076129Y-118345333D01*
X103076128Y-118345333D01*
X102883498Y-118325087D01*
X102883496Y-118325087D01*
X102877369Y-118324443D01*
X102790529Y-118332346D01*
X102678342Y-118342555D01*
X102678339Y-118342556D01*
X102672203Y-118343114D01*
X102474572Y-118401280D01*
X102292002Y-118496726D01*
X102287201Y-118500586D01*
X102287198Y-118500588D01*
X102254688Y-118526727D01*
X102131447Y-118625815D01*
X101999024Y-118783630D01*
X101996056Y-118789028D01*
X101996053Y-118789033D01*
X101940834Y-118889477D01*
X101899776Y-118964162D01*
X101837484Y-119160532D01*
X101836798Y-119166649D01*
X101836797Y-119166653D01*
X101826287Y-119260356D01*
X101814520Y-119365262D01*
X101384138Y-119365262D01*
X101365480Y-119174970D01*
X101305935Y-118977749D01*
X101209218Y-118795849D01*
X101133206Y-118702649D01*
X101082906Y-118640975D01*
X101082903Y-118640972D01*
X101079011Y-118636200D01*
X101061786Y-118621950D01*
X100925025Y-118508811D01*
X100925021Y-118508809D01*
X100920275Y-118504882D01*
X100739055Y-118406897D01*
X100542254Y-118345977D01*
X100536129Y-118345333D01*
X100536128Y-118345333D01*
X100343498Y-118325087D01*
X100343496Y-118325087D01*
X100337369Y-118324443D01*
X100250529Y-118332346D01*
X100138342Y-118342555D01*
X100138339Y-118342556D01*
X100132203Y-118343114D01*
X99934572Y-118401280D01*
X99752002Y-118496726D01*
X99747201Y-118500586D01*
X99747198Y-118500588D01*
X99714688Y-118526727D01*
X99591447Y-118625815D01*
X99459024Y-118783630D01*
X99456056Y-118789028D01*
X99456053Y-118789033D01*
X99400834Y-118889477D01*
X99359776Y-118964162D01*
X99297484Y-119160532D01*
X99296798Y-119166649D01*
X99296797Y-119166653D01*
X99286287Y-119260356D01*
X99274520Y-119365262D01*
X98844138Y-119365262D01*
X98825480Y-119174970D01*
X98765935Y-118977749D01*
X98669218Y-118795849D01*
X98593206Y-118702649D01*
X98542906Y-118640975D01*
X98542903Y-118640972D01*
X98539011Y-118636200D01*
X98521786Y-118621950D01*
X98385025Y-118508811D01*
X98385021Y-118508809D01*
X98380275Y-118504882D01*
X98199055Y-118406897D01*
X98002254Y-118345977D01*
X97996129Y-118345333D01*
X97996128Y-118345333D01*
X97803498Y-118325087D01*
X97803496Y-118325087D01*
X97797369Y-118324443D01*
X97710529Y-118332346D01*
X97598342Y-118342555D01*
X97598339Y-118342556D01*
X97592203Y-118343114D01*
X97394572Y-118401280D01*
X97212002Y-118496726D01*
X97207201Y-118500586D01*
X97207198Y-118500588D01*
X97174688Y-118526727D01*
X97051447Y-118625815D01*
X96919024Y-118783630D01*
X96916056Y-118789028D01*
X96916053Y-118789033D01*
X96860834Y-118889477D01*
X96819776Y-118964162D01*
X96757484Y-119160532D01*
X96756798Y-119166649D01*
X96756797Y-119166653D01*
X96746287Y-119260356D01*
X96734520Y-119365262D01*
X96304138Y-119365262D01*
X96285480Y-119174970D01*
X96225935Y-118977749D01*
X96129218Y-118795849D01*
X96053206Y-118702649D01*
X96002906Y-118640975D01*
X96002903Y-118640972D01*
X95999011Y-118636200D01*
X95981786Y-118621950D01*
X95845025Y-118508811D01*
X95845021Y-118508809D01*
X95840275Y-118504882D01*
X95659055Y-118406897D01*
X95462254Y-118345977D01*
X95456129Y-118345333D01*
X95456128Y-118345333D01*
X95263498Y-118325087D01*
X95263496Y-118325087D01*
X95257369Y-118324443D01*
X95170529Y-118332346D01*
X95058342Y-118342555D01*
X95058339Y-118342556D01*
X95052203Y-118343114D01*
X94854572Y-118401280D01*
X94672002Y-118496726D01*
X94667201Y-118500586D01*
X94667198Y-118500588D01*
X94634688Y-118526727D01*
X94511447Y-118625815D01*
X94379024Y-118783630D01*
X94376056Y-118789028D01*
X94376053Y-118789033D01*
X94320834Y-118889477D01*
X94279776Y-118964162D01*
X94217484Y-119160532D01*
X94216798Y-119166649D01*
X94216797Y-119166653D01*
X94206287Y-119260356D01*
X94194520Y-119365262D01*
X93764138Y-119365262D01*
X93745480Y-119174970D01*
X93685935Y-118977749D01*
X93589218Y-118795849D01*
X93513206Y-118702649D01*
X93462906Y-118640975D01*
X93462903Y-118640972D01*
X93459011Y-118636200D01*
X93441786Y-118621950D01*
X93305025Y-118508811D01*
X93305021Y-118508809D01*
X93300275Y-118504882D01*
X93119055Y-118406897D01*
X93113167Y-118405074D01*
X93112676Y-118404868D01*
X93057628Y-118360033D01*
X93035500Y-118288712D01*
X93035500Y-118224410D01*
X93035980Y-118213428D01*
X93038303Y-118186874D01*
X93038303Y-118186870D01*
X93039263Y-118175893D01*
X93029508Y-118139483D01*
X93027133Y-118128772D01*
X93022501Y-118102506D01*
X93020588Y-118091655D01*
X93015078Y-118082111D01*
X93013886Y-118078835D01*
X93012407Y-118075664D01*
X93009554Y-118065016D01*
X92987940Y-118034148D01*
X92982036Y-118024879D01*
X92968709Y-118001796D01*
X92968706Y-118001792D01*
X92963194Y-117992245D01*
X92934324Y-117968020D01*
X92926227Y-117960600D01*
X84181505Y-109215879D01*
X84147479Y-109153567D01*
X84144600Y-109126784D01*
X84144600Y-101295516D01*
X84164602Y-101227395D01*
X84218258Y-101180902D01*
X84288532Y-101170798D01*
X84353112Y-101200292D01*
X84359695Y-101206421D01*
X85222589Y-102069315D01*
X85230016Y-102077419D01*
X85254245Y-102106294D01*
X85263794Y-102111807D01*
X85286885Y-102125139D01*
X85296156Y-102131045D01*
X85327016Y-102152654D01*
X85337666Y-102155508D01*
X85340834Y-102156985D01*
X85344110Y-102158177D01*
X85353655Y-102163688D01*
X85387399Y-102169638D01*
X85390758Y-102170230D01*
X85401485Y-102172608D01*
X85437893Y-102182364D01*
X85448878Y-102181403D01*
X85448880Y-102181403D01*
X85475428Y-102179080D01*
X85486410Y-102178600D01*
X89965684Y-102178600D01*
X90033805Y-102198602D01*
X90054779Y-102215505D01*
X105690833Y-117851559D01*
X105724859Y-117913871D01*
X105719794Y-117984686D01*
X105681015Y-118038588D01*
X105669269Y-118048096D01*
X105664000Y-118064989D01*
X105664000Y-119107885D01*
X105668475Y-119123124D01*
X105669865Y-119124329D01*
X105677548Y-119126000D01*
X106728344Y-119126000D01*
X106743584Y-119121525D01*
X106755800Y-119107427D01*
X106815527Y-119069044D01*
X106886523Y-119069044D01*
X106940119Y-119100845D01*
X109472327Y-121633053D01*
X109506353Y-121695365D01*
X109501288Y-121766180D01*
X109458741Y-121823016D01*
X109392221Y-121847827D01*
X109383232Y-121848148D01*
X86375748Y-121848148D01*
X86307627Y-121828146D01*
X86286653Y-121811243D01*
X84725158Y-120249748D01*
X86579500Y-120249748D01*
X86580707Y-120255816D01*
X86584331Y-120274033D01*
X86591133Y-120308231D01*
X86635448Y-120374552D01*
X86701769Y-120418867D01*
X86713938Y-120421288D01*
X86713939Y-120421288D01*
X86754184Y-120429293D01*
X86760252Y-120430500D01*
X88499748Y-120430500D01*
X88505816Y-120429293D01*
X88546061Y-120421288D01*
X88546062Y-120421288D01*
X88558231Y-120418867D01*
X88624552Y-120374552D01*
X88668867Y-120308231D01*
X88675670Y-120274033D01*
X88679293Y-120255816D01*
X88680500Y-120249748D01*
X88680500Y-119365262D01*
X89114520Y-119365262D01*
X89115036Y-119371406D01*
X89130902Y-119560342D01*
X89131759Y-119570553D01*
X89133458Y-119576478D01*
X89179395Y-119736678D01*
X89188544Y-119768586D01*
X89191359Y-119774063D01*
X89191360Y-119774066D01*
X89279897Y-119946341D01*
X89282712Y-119951818D01*
X89410677Y-120113270D01*
X89415370Y-120117264D01*
X89415371Y-120117265D01*
X89489541Y-120180388D01*
X89567564Y-120246791D01*
X89572942Y-120249797D01*
X89572944Y-120249798D01*
X89589946Y-120259300D01*
X89747398Y-120347297D01*
X89831280Y-120374552D01*
X89937471Y-120409056D01*
X89937475Y-120409057D01*
X89943329Y-120410959D01*
X90147894Y-120435351D01*
X90154029Y-120434879D01*
X90154031Y-120434879D01*
X90226625Y-120429293D01*
X90353300Y-120419546D01*
X90359230Y-120417890D01*
X90359232Y-120417890D01*
X90545797Y-120365800D01*
X90545796Y-120365800D01*
X90551725Y-120364145D01*
X90557214Y-120361372D01*
X90557220Y-120361370D01*
X90689952Y-120294322D01*
X90735610Y-120271258D01*
X90751345Y-120258965D01*
X90893101Y-120148213D01*
X90897951Y-120144424D01*
X90923032Y-120115368D01*
X91028540Y-119993134D01*
X91028540Y-119993133D01*
X91032564Y-119988472D01*
X91053387Y-119951818D01*
X91071056Y-119920714D01*
X91134323Y-119809344D01*
X91199351Y-119613863D01*
X91225171Y-119409474D01*
X91225583Y-119380000D01*
X91205480Y-119174970D01*
X91145935Y-118977749D01*
X91049218Y-118795849D01*
X90973206Y-118702649D01*
X90922906Y-118640975D01*
X90922903Y-118640972D01*
X90919011Y-118636200D01*
X90901786Y-118621950D01*
X90765025Y-118508811D01*
X90765021Y-118508809D01*
X90760275Y-118504882D01*
X90579055Y-118406897D01*
X90382254Y-118345977D01*
X90376129Y-118345333D01*
X90376128Y-118345333D01*
X90183498Y-118325087D01*
X90183496Y-118325087D01*
X90177369Y-118324443D01*
X90090529Y-118332346D01*
X89978342Y-118342555D01*
X89978339Y-118342556D01*
X89972203Y-118343114D01*
X89774572Y-118401280D01*
X89592002Y-118496726D01*
X89587201Y-118500586D01*
X89587198Y-118500588D01*
X89554688Y-118526727D01*
X89431447Y-118625815D01*
X89299024Y-118783630D01*
X89296056Y-118789028D01*
X89296053Y-118789033D01*
X89240834Y-118889477D01*
X89199776Y-118964162D01*
X89137484Y-119160532D01*
X89136798Y-119166649D01*
X89136797Y-119166653D01*
X89126287Y-119260356D01*
X89114520Y-119365262D01*
X88680500Y-119365262D01*
X88680500Y-118510252D01*
X88668867Y-118451769D01*
X88624552Y-118385448D01*
X88558231Y-118341133D01*
X88546062Y-118338712D01*
X88546061Y-118338712D01*
X88505816Y-118330707D01*
X88499748Y-118329500D01*
X86760252Y-118329500D01*
X86754184Y-118330707D01*
X86713939Y-118338712D01*
X86713938Y-118338712D01*
X86701769Y-118341133D01*
X86635448Y-118385448D01*
X86591133Y-118451769D01*
X86579500Y-118510252D01*
X86579500Y-120249748D01*
X84725158Y-120249748D01*
X83820463Y-119345053D01*
X83786437Y-119282741D01*
X83783558Y-119255958D01*
X83783558Y-115498148D01*
X80010463Y-111725053D01*
X79976437Y-111662741D01*
X79973558Y-111635958D01*
X79973558Y-50854148D01*
X79993560Y-50786027D01*
X80047216Y-50739534D01*
X80099558Y-50728148D01*
X130262036Y-50728148D01*
X130330157Y-50748150D01*
G37*
%TD.AperFunction*%
%TA.AperFunction,Conductor*%
G36*
X114643105Y-87975502D02*
G01*
X114664079Y-87992405D01*
X116576661Y-89904987D01*
X116610687Y-89967299D01*
X116605622Y-90038114D01*
X116563075Y-90094950D01*
X116523845Y-90113332D01*
X116524208Y-90114443D01*
X116316868Y-90182212D01*
X116307359Y-90186209D01*
X116118463Y-90284542D01*
X116109738Y-90290036D01*
X115939433Y-90417905D01*
X115931726Y-90424748D01*
X115784590Y-90578717D01*
X115778104Y-90586727D01*
X115658098Y-90762649D01*
X115653000Y-90771623D01*
X115563338Y-90964783D01*
X115559775Y-90974470D01*
X115504389Y-91174183D01*
X115505912Y-91182607D01*
X115518292Y-91186000D01*
X116968000Y-91186000D01*
X117036121Y-91206002D01*
X117082614Y-91259658D01*
X117094000Y-91312000D01*
X117094000Y-92758517D01*
X117098064Y-92772359D01*
X117111478Y-92774393D01*
X117118184Y-92773534D01*
X117128262Y-92771392D01*
X117332255Y-92710191D01*
X117341842Y-92706433D01*
X117533095Y-92612739D01*
X117541945Y-92607464D01*
X117715328Y-92483792D01*
X117723200Y-92477139D01*
X117874052Y-92326812D01*
X117880730Y-92318965D01*
X118005003Y-92146020D01*
X118010313Y-92137183D01*
X118104670Y-91946268D01*
X118108471Y-91936667D01*
X118133323Y-91854871D01*
X118172264Y-91795507D01*
X118237118Y-91766620D01*
X118253881Y-91765500D01*
X118289211Y-91765500D01*
X118357332Y-91785502D01*
X118401278Y-91833906D01*
X118477903Y-91983002D01*
X118492712Y-92011818D01*
X118620677Y-92173270D01*
X118625370Y-92177264D01*
X118625371Y-92177265D01*
X118699541Y-92240388D01*
X118777564Y-92306791D01*
X118782942Y-92309797D01*
X118782944Y-92309798D01*
X118801911Y-92320398D01*
X118957398Y-92407297D01*
X118963255Y-92409200D01*
X118967441Y-92410560D01*
X119026045Y-92450636D01*
X119053679Y-92516034D01*
X119054500Y-92530392D01*
X119054500Y-116919990D01*
X119054020Y-116930972D01*
X119050736Y-116968507D01*
X119053590Y-116979156D01*
X119060491Y-117004910D01*
X119062870Y-117015642D01*
X119069412Y-117052745D01*
X119074923Y-117062290D01*
X119076115Y-117065566D01*
X119077592Y-117068734D01*
X119080446Y-117079384D01*
X119086770Y-117088415D01*
X119102055Y-117110244D01*
X119107961Y-117119515D01*
X119121295Y-117142610D01*
X119126806Y-117152155D01*
X119135248Y-117159239D01*
X119155681Y-117176385D01*
X119163783Y-117183810D01*
X120214757Y-118234784D01*
X120248783Y-118297096D01*
X120243718Y-118367911D01*
X120201171Y-118424747D01*
X120184038Y-118435540D01*
X120129717Y-118463939D01*
X120067002Y-118496726D01*
X120062201Y-118500586D01*
X120062198Y-118500588D01*
X120029688Y-118526727D01*
X119906447Y-118625815D01*
X119774024Y-118783630D01*
X119771056Y-118789028D01*
X119771053Y-118789033D01*
X119715834Y-118889477D01*
X119674776Y-118964162D01*
X119664480Y-118996621D01*
X119656068Y-119023138D01*
X119616405Y-119082022D01*
X119551202Y-119110114D01*
X119481163Y-119098497D01*
X119428523Y-119050857D01*
X119413762Y-119015735D01*
X119396214Y-118945875D01*
X119392894Y-118936124D01*
X119307972Y-118740814D01*
X119303105Y-118731739D01*
X119187426Y-118552926D01*
X119181136Y-118544757D01*
X119037806Y-118387240D01*
X119030273Y-118380215D01*
X118863139Y-118248222D01*
X118854552Y-118242517D01*
X118668117Y-118139599D01*
X118658705Y-118135369D01*
X118457959Y-118064280D01*
X118447988Y-118061646D01*
X118376837Y-118048972D01*
X118363540Y-118050432D01*
X118359000Y-118064989D01*
X118359000Y-119508000D01*
X118338998Y-119576121D01*
X118285342Y-119622614D01*
X118233000Y-119634000D01*
X117977000Y-119634000D01*
X117908879Y-119613998D01*
X117862386Y-119560342D01*
X117851000Y-119508000D01*
X117851000Y-118063102D01*
X117847082Y-118049758D01*
X117832806Y-118047771D01*
X117794324Y-118053660D01*
X117784288Y-118056051D01*
X117581868Y-118122212D01*
X117572359Y-118126209D01*
X117383463Y-118224542D01*
X117374738Y-118230036D01*
X117204433Y-118357905D01*
X117196726Y-118364748D01*
X117049590Y-118518717D01*
X117043104Y-118526727D01*
X116923098Y-118702649D01*
X116918000Y-118711623D01*
X116828338Y-118904783D01*
X116824775Y-118914470D01*
X116782471Y-119067010D01*
X116744992Y-119127308D01*
X116680863Y-119157771D01*
X116610445Y-119148727D01*
X116571959Y-119122433D01*
X111696605Y-114247079D01*
X111662579Y-114184767D01*
X111659700Y-114157984D01*
X111659700Y-91707966D01*
X115508257Y-91707966D01*
X115538565Y-91842446D01*
X115541645Y-91852275D01*
X115621770Y-92049603D01*
X115626413Y-92058794D01*
X115737694Y-92240388D01*
X115743777Y-92248699D01*
X115883213Y-92409667D01*
X115890580Y-92416883D01*
X116054434Y-92552916D01*
X116062881Y-92558831D01*
X116246756Y-92666279D01*
X116256042Y-92670729D01*
X116455001Y-92746703D01*
X116464899Y-92749579D01*
X116568250Y-92770606D01*
X116582299Y-92769410D01*
X116586000Y-92759065D01*
X116586000Y-91712115D01*
X116581525Y-91696876D01*
X116580135Y-91695671D01*
X116572452Y-91694000D01*
X115523225Y-91694000D01*
X115509694Y-91697973D01*
X115508257Y-91707966D01*
X111659700Y-91707966D01*
X111659700Y-91065310D01*
X111660180Y-91054328D01*
X111662503Y-91027780D01*
X111662503Y-91027778D01*
X111663464Y-91016793D01*
X111653708Y-90980385D01*
X111651330Y-90969658D01*
X111648501Y-90953614D01*
X111644788Y-90932555D01*
X111639277Y-90923010D01*
X111638085Y-90919734D01*
X111636608Y-90916566D01*
X111633754Y-90905916D01*
X111612145Y-90875056D01*
X111606239Y-90865785D01*
X111592907Y-90842694D01*
X111587394Y-90833145D01*
X111558517Y-90808915D01*
X111550415Y-90801489D01*
X110647311Y-89898385D01*
X110639884Y-89890281D01*
X110634441Y-89883795D01*
X110615655Y-89861406D01*
X110606106Y-89855893D01*
X110583015Y-89842561D01*
X110573744Y-89836655D01*
X110551915Y-89821370D01*
X110542884Y-89815046D01*
X110532234Y-89812192D01*
X110529066Y-89810715D01*
X110525790Y-89809523D01*
X110516245Y-89804012D01*
X110482501Y-89798062D01*
X110479142Y-89797470D01*
X110468415Y-89795092D01*
X110432007Y-89785336D01*
X110421022Y-89786297D01*
X110421020Y-89786297D01*
X110394472Y-89788620D01*
X110383490Y-89789100D01*
X110253764Y-89789100D01*
X110185643Y-89769098D01*
X110139150Y-89715442D01*
X110129046Y-89645168D01*
X110154204Y-89585874D01*
X110161454Y-89576527D01*
X110272848Y-89432919D01*
X110362587Y-89250545D01*
X110388752Y-89150097D01*
X110412212Y-89060034D01*
X110412212Y-89060031D01*
X110413822Y-89053852D01*
X110424459Y-88850874D01*
X110394065Y-88649903D01*
X110323881Y-88459148D01*
X110270345Y-88372802D01*
X110220137Y-88291824D01*
X110220134Y-88291820D01*
X110216774Y-88286401D01*
X110133252Y-88198079D01*
X110104877Y-88168073D01*
X110072605Y-88104835D01*
X110079645Y-88034188D01*
X110123762Y-87978563D01*
X110196425Y-87955500D01*
X114574984Y-87955500D01*
X114643105Y-87975502D01*
G37*
%TD.AperFunction*%
%TA.AperFunction,Conductor*%
G36*
X138485748Y-84625406D02*
G01*
X138518093Y-84688607D01*
X138520300Y-84712085D01*
X138520300Y-96056883D01*
X138500298Y-96125004D01*
X138483395Y-96145978D01*
X137003784Y-97625590D01*
X136995681Y-97633016D01*
X136966806Y-97657245D01*
X136961293Y-97666794D01*
X136947961Y-97689885D01*
X136942055Y-97699156D01*
X136920446Y-97730016D01*
X136917592Y-97740666D01*
X136916115Y-97743834D01*
X136914923Y-97747110D01*
X136909412Y-97756655D01*
X136903462Y-97790399D01*
X136902870Y-97793758D01*
X136900492Y-97804485D01*
X136890736Y-97840893D01*
X136891697Y-97851878D01*
X136891697Y-97851880D01*
X136894020Y-97878428D01*
X136894500Y-97889410D01*
X136894500Y-97953688D01*
X136874498Y-98021809D01*
X136823436Y-98064107D01*
X136824572Y-98066280D01*
X136642002Y-98161726D01*
X136637201Y-98165586D01*
X136637198Y-98165588D01*
X136626971Y-98173811D01*
X136481447Y-98290815D01*
X136349024Y-98448630D01*
X136346056Y-98454028D01*
X136346053Y-98454033D01*
X136339315Y-98466290D01*
X136249776Y-98629162D01*
X136187484Y-98825532D01*
X136186798Y-98831649D01*
X136186797Y-98831653D01*
X136171115Y-98971466D01*
X136143644Y-99036933D01*
X136136971Y-99041521D01*
X136166796Y-99087929D01*
X136171458Y-99112883D01*
X136181759Y-99235553D01*
X136238544Y-99433586D01*
X136241359Y-99439063D01*
X136241360Y-99439066D01*
X136262247Y-99479707D01*
X136332712Y-99616818D01*
X136460677Y-99778270D01*
X136617564Y-99911791D01*
X136797398Y-100012297D01*
X136862437Y-100033429D01*
X136921042Y-100073502D01*
X136948680Y-100138898D01*
X136936574Y-100208855D01*
X136888568Y-100261162D01*
X136862646Y-100273027D01*
X136696868Y-100327212D01*
X136687359Y-100331209D01*
X136498463Y-100429542D01*
X136489738Y-100435036D01*
X136319433Y-100562905D01*
X136311726Y-100569748D01*
X136164590Y-100723717D01*
X136158111Y-100731719D01*
X136149989Y-100743625D01*
X136095077Y-100788628D01*
X136024553Y-100796799D01*
X135960806Y-100765545D01*
X135924075Y-100704788D01*
X135919900Y-100672621D01*
X135919900Y-99123427D01*
X135939902Y-99055306D01*
X135953869Y-99043204D01*
X135953287Y-99042855D01*
X135921800Y-98979222D01*
X135919900Y-98957421D01*
X135919900Y-86807916D01*
X135939902Y-86739795D01*
X135956805Y-86718821D01*
X137436215Y-85239411D01*
X137444319Y-85231984D01*
X137464749Y-85214841D01*
X137473194Y-85207755D01*
X137479582Y-85196691D01*
X137492039Y-85175115D01*
X137497945Y-85165844D01*
X137513230Y-85144015D01*
X137519554Y-85134984D01*
X137522408Y-85124334D01*
X137523885Y-85121166D01*
X137525077Y-85117890D01*
X137530588Y-85108345D01*
X137537130Y-85071242D01*
X137539509Y-85060510D01*
X137544811Y-85040724D01*
X137549264Y-85024107D01*
X137548304Y-85013130D01*
X137548304Y-85013126D01*
X137547810Y-85007485D01*
X137561797Y-84937880D01*
X137611195Y-84886886D01*
X137673330Y-84870500D01*
X138089748Y-84870500D01*
X138095816Y-84869293D01*
X138136061Y-84861288D01*
X138136062Y-84861288D01*
X138148231Y-84858867D01*
X138214552Y-84814552D01*
X138258867Y-84748231D01*
X138270500Y-84689748D01*
X138272759Y-84690197D01*
X138295489Y-84633903D01*
X138353443Y-84592893D01*
X138424369Y-84589725D01*
X138485748Y-84625406D01*
G37*
%TD.AperFunction*%
%TA.AperFunction,Conductor*%
G36*
X138481640Y-82098187D02*
G01*
X138516874Y-82159823D01*
X138520300Y-82189004D01*
X138520300Y-82927915D01*
X138500298Y-82996036D01*
X138446642Y-83042529D01*
X138376368Y-83052633D01*
X138311788Y-83023139D01*
X138273404Y-82963413D01*
X138270834Y-82950185D01*
X138270500Y-82950252D01*
X138261288Y-82903939D01*
X138261288Y-82903938D01*
X138258867Y-82891769D01*
X138214552Y-82825448D01*
X138148231Y-82781133D01*
X138136062Y-82778712D01*
X138136061Y-82778712D01*
X138095816Y-82770707D01*
X138089748Y-82769500D01*
X137810107Y-82769500D01*
X137741986Y-82749498D01*
X137695493Y-82695842D01*
X137685389Y-82625568D01*
X137714883Y-82560988D01*
X137754675Y-82530349D01*
X137913090Y-82452742D01*
X137921945Y-82447464D01*
X138095328Y-82323792D01*
X138103200Y-82317139D01*
X138254052Y-82166812D01*
X138260723Y-82158972D01*
X138291977Y-82115478D01*
X138347972Y-82071830D01*
X138418675Y-82065384D01*
X138481640Y-82098187D01*
G37*
%TD.AperFunction*%
%TA.AperFunction,Conductor*%
G36*
X138485748Y-64305406D02*
G01*
X138518093Y-64368607D01*
X138520300Y-64392085D01*
X138520300Y-75751883D01*
X138500298Y-75820004D01*
X138483395Y-75840978D01*
X137003784Y-77320590D01*
X136995681Y-77328016D01*
X136966806Y-77352245D01*
X136961293Y-77361794D01*
X136947961Y-77384885D01*
X136942055Y-77394156D01*
X136920446Y-77425016D01*
X136917592Y-77435666D01*
X136916115Y-77438834D01*
X136914923Y-77442110D01*
X136909412Y-77451655D01*
X136903462Y-77485399D01*
X136902870Y-77488758D01*
X136900492Y-77499485D01*
X136890736Y-77535893D01*
X136891697Y-77546878D01*
X136891697Y-77546880D01*
X136894020Y-77573428D01*
X136894500Y-77584410D01*
X136894500Y-77648688D01*
X136874498Y-77716809D01*
X136823436Y-77759107D01*
X136824572Y-77761280D01*
X136642002Y-77856726D01*
X136637201Y-77860586D01*
X136637198Y-77860588D01*
X136494826Y-77975058D01*
X136481447Y-77985815D01*
X136349024Y-78143630D01*
X136346056Y-78149028D01*
X136346053Y-78149033D01*
X136260235Y-78305137D01*
X136249776Y-78324162D01*
X136187484Y-78520532D01*
X136186798Y-78526649D01*
X136186797Y-78526653D01*
X136171115Y-78666466D01*
X136143644Y-78731933D01*
X136136971Y-78736521D01*
X136166796Y-78782929D01*
X136171458Y-78807883D01*
X136181759Y-78930553D01*
X136238544Y-79128586D01*
X136241359Y-79134063D01*
X136241360Y-79134066D01*
X136315310Y-79277958D01*
X136332712Y-79311818D01*
X136460677Y-79473270D01*
X136465370Y-79477264D01*
X136465371Y-79477265D01*
X136538850Y-79539800D01*
X136617564Y-79606791D01*
X136622942Y-79609797D01*
X136622944Y-79609798D01*
X136678740Y-79640981D01*
X136797398Y-79707297D01*
X136862437Y-79728429D01*
X136921042Y-79768502D01*
X136948680Y-79833898D01*
X136936574Y-79903855D01*
X136888568Y-79956162D01*
X136862646Y-79968027D01*
X136696868Y-80022212D01*
X136687359Y-80026209D01*
X136498463Y-80124542D01*
X136489738Y-80130036D01*
X136319433Y-80257905D01*
X136311726Y-80264748D01*
X136164590Y-80418717D01*
X136158111Y-80426719D01*
X136149989Y-80438625D01*
X136095077Y-80483628D01*
X136024553Y-80491799D01*
X135960806Y-80460545D01*
X135924075Y-80399788D01*
X135919900Y-80367621D01*
X135919900Y-78818427D01*
X135939902Y-78750306D01*
X135953869Y-78738204D01*
X135953287Y-78737855D01*
X135921800Y-78674222D01*
X135919900Y-78652421D01*
X135919900Y-66487916D01*
X135939902Y-66419795D01*
X135956805Y-66398821D01*
X137436215Y-64919411D01*
X137444319Y-64911984D01*
X137464749Y-64894841D01*
X137473194Y-64887755D01*
X137478707Y-64878206D01*
X137492039Y-64855115D01*
X137497945Y-64845844D01*
X137513230Y-64824015D01*
X137519554Y-64814984D01*
X137522408Y-64804334D01*
X137523885Y-64801166D01*
X137525077Y-64797890D01*
X137530588Y-64788345D01*
X137537130Y-64751242D01*
X137539509Y-64740510D01*
X137549264Y-64704107D01*
X137548304Y-64693130D01*
X137548304Y-64693126D01*
X137547810Y-64687485D01*
X137561797Y-64617880D01*
X137611195Y-64566886D01*
X137673330Y-64550500D01*
X138089748Y-64550500D01*
X138095816Y-64549293D01*
X138136061Y-64541288D01*
X138136062Y-64541288D01*
X138148231Y-64538867D01*
X138214552Y-64494552D01*
X138258867Y-64428231D01*
X138270500Y-64369748D01*
X138272759Y-64370197D01*
X138295489Y-64313903D01*
X138353443Y-64272893D01*
X138424369Y-64269725D01*
X138485748Y-64305406D01*
G37*
%TD.AperFunction*%
%TA.AperFunction,Conductor*%
G36*
X138481640Y-61778187D02*
G01*
X138516874Y-61839823D01*
X138520300Y-61869004D01*
X138520300Y-62607915D01*
X138500298Y-62676036D01*
X138446642Y-62722529D01*
X138376368Y-62732633D01*
X138311788Y-62703139D01*
X138273404Y-62643413D01*
X138270834Y-62630185D01*
X138270500Y-62630252D01*
X138261288Y-62583939D01*
X138261288Y-62583938D01*
X138258867Y-62571769D01*
X138214552Y-62505448D01*
X138148231Y-62461133D01*
X138136062Y-62458712D01*
X138136061Y-62458712D01*
X138095816Y-62450707D01*
X138089748Y-62449500D01*
X137810107Y-62449500D01*
X137741986Y-62429498D01*
X137695493Y-62375842D01*
X137685389Y-62305568D01*
X137714883Y-62240988D01*
X137754675Y-62210349D01*
X137913090Y-62132742D01*
X137921945Y-62127464D01*
X138095328Y-62003792D01*
X138103200Y-61997139D01*
X138254052Y-61846812D01*
X138260723Y-61838972D01*
X138291977Y-61795478D01*
X138347972Y-61751830D01*
X138418675Y-61745384D01*
X138481640Y-61778187D01*
G37*
%TD.AperFunction*%
%TD*%
M02*
