%TF.GenerationSoftware,KiCad,Pcbnew,(6.0.5)*%
%TF.CreationDate,2022-06-11T19:31:02+01:00*%
%TF.ProjectId,kiln-pcb,6b696c6e-2d70-4636-922e-6b696361645f,rev?*%
%TF.SameCoordinates,Original*%
%TF.FileFunction,Soldermask,Bot*%
%TF.FilePolarity,Negative*%
%FSLAX46Y46*%
G04 Gerber Fmt 4.6, Leading zero omitted, Abs format (unit mm)*
G04 Created by KiCad (PCBNEW (6.0.5)) date 2022-06-11 19:31:02*
%MOMM*%
%LPD*%
G01*
G04 APERTURE LIST*
%ADD10C,0.800000*%
%ADD11C,6.400000*%
%ADD12R,1.700000X1.700000*%
%ADD13O,1.700000X1.700000*%
%ADD14R,2.000000X2.000000*%
%ADD15O,2.000000X1.600000*%
G04 APERTURE END LIST*
D10*
%TO.C,H1*%
X169050000Y-116840000D03*
X171450000Y-114440000D03*
X173147056Y-115142944D03*
X169752944Y-115142944D03*
X171450000Y-119240000D03*
D11*
X171450000Y-116840000D03*
D10*
X173147056Y-118537056D03*
X173850000Y-116840000D03*
X169752944Y-118537056D03*
%TD*%
D12*
%TO.C,J5*%
X137220000Y-83820000D03*
D13*
X137220000Y-81280000D03*
X137220000Y-78740000D03*
%TD*%
D10*
%TO.C,H3*%
X81707056Y-118537056D03*
X80010000Y-119240000D03*
D11*
X80010000Y-116840000D03*
D10*
X77610000Y-116840000D03*
X78312944Y-118537056D03*
X80010000Y-114440000D03*
X82410000Y-116840000D03*
X78312944Y-115142944D03*
X81707056Y-115142944D03*
%TD*%
D12*
%TO.C,J1*%
X87630000Y-119380000D03*
D13*
X90170000Y-119380000D03*
X92710000Y-119380000D03*
X95250000Y-119380000D03*
X97790000Y-119380000D03*
X100330000Y-119380000D03*
X102870000Y-119380000D03*
X105410000Y-119380000D03*
%TD*%
D14*
%TO.C,U1*%
X109220000Y-91440000D03*
D15*
X109220000Y-88900000D03*
X109220000Y-86360000D03*
X109220000Y-83820000D03*
X109220000Y-81280000D03*
X109220000Y-78740000D03*
X109220000Y-76200000D03*
X109220000Y-73660000D03*
X86360000Y-73660000D03*
X86360000Y-76200000D03*
X86360000Y-78740000D03*
X86360000Y-81280000D03*
X86360000Y-83820000D03*
X86360000Y-86360000D03*
X86360000Y-88900000D03*
X86360000Y-91440000D03*
%TD*%
D12*
%TO.C,J6*%
X137220000Y-104125000D03*
D13*
X137220000Y-101585000D03*
X137220000Y-99045000D03*
%TD*%
D12*
%TO.C,J3*%
X128265000Y-119380000D03*
D13*
X125725000Y-119380000D03*
X123185000Y-119380000D03*
X120645000Y-119380000D03*
X118105000Y-119380000D03*
%TD*%
D10*
%TO.C,H4*%
X80010000Y-46850000D03*
X81707056Y-46147056D03*
X82410000Y-44450000D03*
X80010000Y-42050000D03*
D11*
X80010000Y-44450000D03*
D10*
X77610000Y-44450000D03*
X78312944Y-42752944D03*
X78312944Y-46147056D03*
X81707056Y-42752944D03*
%TD*%
D12*
%TO.C,J2*%
X127000000Y-91440000D03*
D13*
X124460000Y-91440000D03*
X121920000Y-91440000D03*
X119380000Y-91440000D03*
X116840000Y-91440000D03*
%TD*%
D12*
%TO.C,J4*%
X137220000Y-63500000D03*
D13*
X137220000Y-60960000D03*
X137220000Y-58420000D03*
%TD*%
D10*
%TO.C,H2*%
X169050000Y-44450000D03*
X169752944Y-46147056D03*
X173147056Y-46147056D03*
D11*
X171450000Y-44450000D03*
D10*
X171450000Y-46850000D03*
X173147056Y-42752944D03*
X169752944Y-42752944D03*
X173850000Y-44450000D03*
X171450000Y-42050000D03*
%TD*%
M02*
