M48
; DRILL file {KiCad (6.0.5)} date Sat 11 Jun 2022 19:16:13 BST
; FORMAT={-:-/ absolute / inch / decimal}
; #@! TF.CreationDate,2022-06-11T19:16:13+01:00
; #@! TF.GenerationSoftware,Kicad,Pcbnew,(6.0.5)
; #@! TF.FileFunction,Plated,1,2,PTH
FMAT,2
INCH
; #@! TA.AperFunction,Plated,PTH,ViaDrill
T1C0.0157
; #@! TA.AperFunction,Plated,PTH,ComponentDrill
T2C0.0197
; #@! TA.AperFunction,Plated,PTH,ComponentDrill
T3C0.0394
; #@! TA.AperFunction,Plated,PTH,ComponentDrill
T4C0.1260
%
G90
G05
T1
X3.4717Y-3.8094
X4.7504Y-4.5478
T2
X3.0555Y-1.75
X3.0555Y-4.6
X3.0832Y-1.6832
X3.0832Y-1.8168
X3.0832Y-4.5332
X3.0832Y-4.6668
X3.15Y-1.6555
X3.15Y-1.8445
X3.15Y-4.5055
X3.15Y-4.6945
X3.2168Y-1.6832
X3.2168Y-1.8168
X3.2168Y-4.5332
X3.2168Y-4.6668
X3.2445Y-1.75
X3.2445Y-4.6
X6.6555Y-1.75
X6.6555Y-4.6
X6.6832Y-1.6832
X6.6832Y-1.8168
X6.6832Y-4.5332
X6.6832Y-4.6668
X6.75Y-1.6555
X6.75Y-1.8445
X6.75Y-4.5055
X6.75Y-4.6945
X6.8168Y-1.6832
X6.8168Y-1.8168
X6.8168Y-4.5332
X6.8168Y-4.6668
X6.8445Y-1.75
X6.8445Y-4.6
T3
X3.4Y-2.9
X3.4Y-3.0
X3.4Y-3.1
X3.4Y-3.2
X3.4Y-3.3
X3.4Y-3.4
X3.4Y-3.5
X3.4Y-3.6
X3.45Y-4.7
X3.55Y-4.7
X3.65Y-4.7
X3.75Y-4.7
X3.85Y-4.7
X3.95Y-4.7
X4.05Y-4.7
X4.15Y-4.7
X4.3Y-2.9
X4.3Y-3.0
X4.3Y-3.1
X4.3Y-3.2
X4.3Y-3.3
X4.3Y-3.4
X4.3Y-3.5
X4.3Y-3.6
X4.6Y-3.6
X4.6498Y-4.7
X4.7Y-3.6
X4.7498Y-4.7
X4.8Y-3.6
X4.8498Y-4.7
X4.9Y-3.6
X4.9498Y-4.7
X5.0Y-3.6
X5.0498Y-4.7
X5.4024Y-2.3
X5.4024Y-2.4
X5.4024Y-2.5
X5.4024Y-3.1
X5.4024Y-3.2
X5.4024Y-3.3
X5.4024Y-3.8994
X5.4024Y-3.9994
X5.4024Y-4.0994
T4
X3.15Y-1.75
X3.15Y-4.6
X6.75Y-1.75
X6.75Y-4.6
T0
M30
