M48
; DRILL file {KiCad (6.0.2)} date Thu 26 May 2022 14:59:04 BST
; FORMAT={-:-/ absolute / inch / decimal}
; #@! TF.CreationDate,2022-05-26T14:59:04+01:00
; #@! TF.GenerationSoftware,Kicad,Pcbnew,(6.0.2)
; #@! TF.FileFunction,Plated,1,2,PTH
FMAT,2
INCH
; #@! TA.AperFunction,Plated,PTH,ViaDrill
T1C0.0157
; #@! TA.AperFunction,Plated,PTH,ComponentDrill
T2C0.0394
%
G90
G05
T1
X3.7Y-2.9
X3.8Y-3.0
X5.9Y-3.1
X6.0Y-3.3
X6.1Y-3.6
T2
X3.3691Y-2.45
X3.3691Y-2.55
X3.3691Y-2.65
X3.3691Y-2.75
X3.3691Y-2.85
X3.3691Y-2.95
X3.3691Y-3.05
X3.3691Y-3.15
X4.2Y-4.1
X4.2691Y-2.45
X4.2691Y-2.55
X4.2691Y-2.65
X4.2691Y-2.75
X4.2691Y-2.85
X4.2691Y-2.95
X4.2691Y-3.05
X4.2691Y-3.15
X4.3Y-4.1
X4.4Y-4.1
X4.5Y-4.1
X4.6Y-3.6
X4.6Y-4.1
X4.7Y-3.6
X4.7Y-4.1
X4.8Y-3.6
X4.8Y-4.1
X4.9Y-3.6
X4.9Y-4.1
X5.0Y-3.6
X5.3998Y-4.1
X5.4998Y-4.1
X5.5Y-3.6
X5.5998Y-4.1
X5.6Y-3.6
X5.6998Y-4.1
X5.7Y-3.6
X5.7998Y-4.1
T0
M30
