<?xml version="1.0" encoding="UTF-8" standalone="no"?>
<!-- Generator: Adobe Illustrator 16.0.0, SVG Export Plug-In . SVG Version: 6.00 Build 0)  -->

<svg
   version="1.1"
   id="Layer_1"
   x="0px"
   y="0px"
   width="100.0mm"
   height="100.0mm"
   viewBox="0 0 100.0 100.0"
   enable-background="new 0 0 223.489 220.489"
   xml:space="preserve"
   sodipodi:docname="hackspace.svg"
   inkscape:version="1.2 (dc2aedaf03, 2022-05-15)"
   xmlns:inkscape="http://www.inkscape.org/namespaces/inkscape"
   xmlns:sodipodi="http://sodipodi.sourceforge.net/DTD/sodipodi-0.dtd"
   xmlns="http://www.w3.org/2000/svg"
   xmlns:svg="http://www.w3.org/2000/svg"
   xmlns:rdf="http://www.w3.org/1999/02/22-rdf-syntax-ns#"
   xmlns:cc="http://creativecommons.org/ns#"
   xmlns:dc="http://purl.org/dc/elements/1.1/"><metadata
     id="metadata12"><rdf:RDF><cc:Work
         rdf:about=""><dc:format>image/svg+xml</dc:format><dc:type
           rdf:resource="http://purl.org/dc/dcmitype/StillImage" /></cc:Work></rdf:RDF></metadata><defs
     id="defs10" /><sodipodi:namedview
     pagecolor="#ffffff"
     bordercolor="#666666"
     borderopacity="1"
     objecttolerance="10"
     gridtolerance="10"
     guidetolerance="10"
     inkscape:pageopacity="0"
     inkscape:pageshadow="2"
     inkscape:window-width="1920"
     inkscape:window-height="1021"
     id="namedview8"
     showgrid="false"
     inkscape:zoom="1.0703482"
     inkscape:cx="111.17877"
     inkscape:cy="110.2445"
     inkscape:window-x="0"
     inkscape:window-y="33"
     inkscape:window-maximized="1"
     inkscape:current-layer="g172"
     inkscape:showpageshadow="0"
     inkscape:pagecheckerboard="0"
     inkscape:deskcolor="#d1d1d1"
     inkscape:document-units="mm" /><g
     id="New_Symbol" /><g
     inkscape:label="[fixed] BG"
     inkscape:groupmode="layer"
     sodipodi:insensitive="true"
     id="g170"><rect
       x="0"
       y="0"
       width="100.0"
       height="100.0"
       style="fill:#FFFFFF;fill-opacity:1;stroke:none"
       id="rect168" /></g><g
     inkscape:label="F.Cu"
     inkscape:groupmode="layer"
     id="g172"><path
       style="fill:#000000;fill-opacity:1;stroke-width:0.0463394"
       inkscape:connector-curvature="0"
       id="path3"
       d="m 12.854278,7.2627307 c -1.562185,-1.5620552 -4.09485,-1.5620552 -5.6567569,0 -1.5622316,1.562194 -1.5622316,4.0947803 0,5.6568823 1.5619069,1.562102 4.0947119,1.562102 5.6567569,0 1.562093,-1.562102 1.562093,-4.0946883 0,-5.6568823 z m -1.273492,4.1858843 -0.912417,-0.912284 0.286978,-0.28698 -0.151761,-0.151715 -0.771315,0.771366 0.151575,0.151854 0.297034,-0.297175 0.91265,0.912331 -1.367653,1.36766 -0.9125111,-0.912376 0.1556533,-0.155515 -1.0876258,-1.08777 -0.1558387,0.1557 L 7.1132765,10.091287 8.4809758,8.7235805 9.3933008,9.6359107 9.0960818,9.9330387 9.2828744,10.119787 10.054421,9.3483747 9.8677208,9.161627 9.5805576,9.4487459 8.6681861,8.5363227 10.025922,7.1788103 l 0.912186,0.91233 -0.155467,0.1557 1.08758,1.0876784 0.155746,-0.1556996 0.912324,0.9124679 z" /></g><g
     inkscape:label="F.Mask"
     inkscape:groupmode="layer"
     id="g174"><path
       style="fill:#000000;fill-opacity:1;stroke-width:0.0463394"
       inkscape:connector-curvature="0"
       id="path279"
       d="m 12.854278,7.2627307 c -1.562185,-1.5620552 -4.09485,-1.5620552 -5.6567569,0 -1.5622316,1.562194 -1.5622316,4.0947803 0,5.6568823 1.5619069,1.562102 4.0947119,1.562102 5.6567569,0 1.562093,-1.562102 1.562093,-4.0946883 0,-5.6568823 z m -1.273492,4.1858843 -0.912417,-0.912284 0.286978,-0.28698 -0.151761,-0.151715 -0.771315,0.771366 0.151575,0.151854 0.297034,-0.297175 0.91265,0.912331 -1.367653,1.36766 -0.9125111,-0.912376 0.1556533,-0.155515 -1.0876258,-1.08777 -0.1558387,0.1557 L 7.1132765,10.091287 8.4809758,8.7235805 9.3933008,9.6359107 9.0960818,9.9330387 9.2828744,10.119787 10.054421,9.3483747 9.8677208,9.161627 9.5805576,9.4487459 8.6681861,8.5363227 10.025922,7.1788103 l 0.912186,0.91233 -0.155467,0.1557 1.08758,1.0876784 0.155746,-0.1556996 0.912324,0.9124679 z" /></g></svg>
